G04 Layer: BottomLayer*
G04 EasyEDA v6.1.30, Mon, 22 Apr 2019 04:26:04 GMT*
G04 3299eb1e32c44027902f169d4311eafc,c4e59543e3c44a9793b0b0a188f79ba1,10*
G04 Gerber Generator version 0.2*
G04 Scale: 100 percent, Rotated: No, Reflected: No *
G04 Dimensions in millimeters *
G04 leading zeros omitted , absolute positions ,3 integer and 3 decimal *
%FSLAX33Y33*%
%MOMM*%
G90*
G71D02*

%ADD10C,0.254000*%
%ADD11C,0.620014*%
%ADD14C,1.699997*%
%ADD15C,1.574800*%
%ADD16R,1.574800X1.574800*%
%ADD18C,1.799996*%
%ADD20C,1.899996*%
%ADD21C,3.302000*%
%ADD22C,3.048000*%
%ADD23R,1.999996X1.999996*%

%LPD*%
G36*
G01X34439Y42427D02*
G01X3078Y42427D01*
G01X3001Y42425D01*
G01X2924Y42420D01*
G01X2847Y42414D01*
G01X2771Y42405D01*
G01X2695Y42395D01*
G01X2619Y42382D01*
G01X2543Y42367D01*
G01X2468Y42350D01*
G01X2393Y42332D01*
G01X2319Y42311D01*
G01X2246Y42288D01*
G01X2173Y42263D01*
G01X2101Y42237D01*
G01X2029Y42208D01*
G01X1959Y42177D01*
G01X1889Y42145D01*
G01X1820Y42111D01*
G01X1752Y42075D01*
G01X1685Y42037D01*
G01X1619Y41997D01*
G01X1554Y41955D01*
G01X1491Y41912D01*
G01X1428Y41867D01*
G01X1367Y41821D01*
G01X1307Y41772D01*
G01X1248Y41723D01*
G01X1191Y41671D01*
G01X1135Y41618D01*
G01X1081Y41564D01*
G01X1028Y41508D01*
G01X976Y41451D01*
G01X926Y41392D01*
G01X878Y41332D01*
G01X831Y41271D01*
G01X786Y41209D01*
G01X743Y41145D01*
G01X702Y41080D01*
G01X662Y41014D01*
G01X624Y40947D01*
G01X588Y40879D01*
G01X553Y40811D01*
G01X521Y40741D01*
G01X490Y40670D01*
G01X461Y40599D01*
G01X435Y40527D01*
G01X410Y40454D01*
G01X387Y40380D01*
G01X366Y40306D01*
G01X347Y40232D01*
G01X330Y40157D01*
G01X316Y40081D01*
G01X303Y40005D01*
G01X292Y39929D01*
G01X283Y39852D01*
G01X277Y39776D01*
G01X272Y39699D01*
G01X270Y39622D01*
G01X270Y26687D01*
G01X271Y26673D01*
G01X274Y26659D01*
G01X279Y26645D01*
G01X286Y26632D01*
G01X294Y26621D01*
G01X305Y26610D01*
G01X316Y26602D01*
G01X329Y26595D01*
G01X343Y26590D01*
G01X357Y26587D01*
G01X371Y26586D01*
G01X372Y26586D01*
G01X8509Y26670D01*
G01X8509Y8498D01*
G01X8510Y8484D01*
G01X8514Y8470D01*
G01X8519Y8456D01*
G01X8526Y8443D01*
G01X8534Y8432D01*
G01X8544Y8422D01*
G01X8556Y8413D01*
G01X8569Y8406D01*
G01X8582Y8401D01*
G01X8597Y8398D01*
G01X8611Y8397D01*
G01X34415Y8397D01*
G01X34492Y8400D01*
G01X34568Y8405D01*
G01X34645Y8413D01*
G01X34721Y8422D01*
G01X34796Y8434D01*
G01X34872Y8447D01*
G01X34947Y8463D01*
G01X35022Y8480D01*
G01X35096Y8500D01*
G01X35169Y8522D01*
G01X35242Y8545D01*
G01X35315Y8571D01*
G01X35386Y8598D01*
G01X35457Y8628D01*
G01X35527Y8659D01*
G01X35596Y8692D01*
G01X35664Y8727D01*
G01X35731Y8764D01*
G01X35798Y8803D01*
G01X35863Y8843D01*
G01X35927Y8886D01*
G01X35990Y8929D01*
G01X36051Y8975D01*
G01X36112Y9022D01*
G01X36171Y9071D01*
G01X36228Y9122D01*
G01X36285Y9174D01*
G01X36340Y9227D01*
G01X36393Y9282D01*
G01X36445Y9338D01*
G01X36495Y9396D01*
G01X36544Y9455D01*
G01X36592Y9516D01*
G01X36637Y9577D01*
G01X36681Y9640D01*
G01X36723Y9704D01*
G01X36764Y9769D01*
G01X36802Y9836D01*
G01X36839Y9903D01*
G01X36874Y9971D01*
G01X36907Y10040D01*
G01X36939Y10110D01*
G01X36968Y10181D01*
G01X36995Y10253D01*
G01X37021Y10325D01*
G01X37044Y10398D01*
G01X37066Y10471D01*
G01X37086Y10545D01*
G01X37103Y10620D01*
G01X37119Y10695D01*
G01X37132Y10771D01*
G01X37144Y10846D01*
G01X37153Y10923D01*
G01X37161Y10999D01*
G01X37166Y11075D01*
G01X37169Y11152D01*
G01X37170Y11229D01*
G01X37170Y39696D01*
G01X37169Y39772D01*
G01X37166Y39847D01*
G01X37161Y39922D01*
G01X37154Y39997D01*
G01X37144Y40072D01*
G01X37133Y40146D01*
G01X37120Y40220D01*
G01X37104Y40294D01*
G01X37087Y40367D01*
G01X37067Y40440D01*
G01X37046Y40512D01*
G01X37022Y40583D01*
G01X36997Y40654D01*
G01X36969Y40724D01*
G01X36940Y40793D01*
G01X36909Y40862D01*
G01X36876Y40930D01*
G01X36841Y40996D01*
G01X36804Y41062D01*
G01X36766Y41127D01*
G01X36726Y41190D01*
G01X36683Y41253D01*
G01X36640Y41314D01*
G01X36594Y41374D01*
G01X36547Y41433D01*
G01X36499Y41490D01*
G01X36448Y41546D01*
G01X36397Y41601D01*
G01X36344Y41654D01*
G01X36289Y41706D01*
G01X36233Y41756D01*
G01X36175Y41804D01*
G01X36117Y41851D01*
G01X36057Y41897D01*
G01X35995Y41941D01*
G01X35933Y41983D01*
G01X35869Y42023D01*
G01X35805Y42061D01*
G01X35739Y42098D01*
G01X35672Y42133D01*
G01X35605Y42166D01*
G01X35536Y42197D01*
G01X35467Y42227D01*
G01X35397Y42254D01*
G01X35326Y42279D01*
G01X35255Y42303D01*
G01X35182Y42324D01*
G01X35110Y42344D01*
G01X35037Y42361D01*
G01X34963Y42377D01*
G01X34889Y42390D01*
G01X34814Y42401D01*
G01X34740Y42411D01*
G01X34665Y42418D01*
G01X34590Y42423D01*
G01X34515Y42426D01*
G01X34439Y42427D01*
G37*

%LPC*%
G36*
G01X4090Y31523D02*
G01X2515Y31523D01*
G01X2491Y31522D01*
G01X2468Y31519D01*
G01X2445Y31514D01*
G01X2422Y31506D01*
G01X2401Y31497D01*
G01X2380Y31485D01*
G01X2360Y31472D01*
G01X2342Y31456D01*
G01X2325Y31440D01*
G01X2310Y31421D01*
G01X2297Y31402D01*
G01X2285Y31381D01*
G01X2276Y31360D01*
G01X2268Y31337D01*
G01X2263Y31314D01*
G01X2260Y31291D01*
G01X2258Y31267D01*
G01X2258Y29692D01*
G01X2260Y29668D01*
G01X2263Y29645D01*
G01X2268Y29622D01*
G01X2276Y29599D01*
G01X2285Y29578D01*
G01X2297Y29557D01*
G01X2310Y29538D01*
G01X2325Y29519D01*
G01X2342Y29503D01*
G01X2360Y29487D01*
G01X2380Y29474D01*
G01X2401Y29462D01*
G01X2422Y29453D01*
G01X2445Y29445D01*
G01X2468Y29440D01*
G01X2491Y29437D01*
G01X2515Y29436D01*
G01X4090Y29436D01*
G01X4113Y29437D01*
G01X4137Y29440D01*
G01X4160Y29445D01*
G01X4182Y29453D01*
G01X4204Y29462D01*
G01X4225Y29474D01*
G01X4244Y29487D01*
G01X4263Y29503D01*
G01X4279Y29519D01*
G01X4295Y29538D01*
G01X4308Y29557D01*
G01X4319Y29578D01*
G01X4329Y29599D01*
G01X4337Y29622D01*
G01X4342Y29645D01*
G01X4345Y29668D01*
G01X4346Y29692D01*
G01X4346Y29941D01*
G01X4348Y29957D01*
G01X4351Y29972D01*
G01X4358Y29987D01*
G01X4366Y30001D01*
G01X4377Y30013D01*
G01X4389Y30023D01*
G01X4403Y30032D01*
G01X4510Y30085D01*
G01X4524Y30091D01*
G01X4540Y30095D01*
G01X4555Y30096D01*
G01X9959Y30096D01*
G01X9975Y30095D01*
G01X9991Y30091D01*
G01X10006Y30085D01*
G01X10019Y30077D01*
G01X10031Y30066D01*
G01X12160Y27937D01*
G01X12170Y27925D01*
G01X12179Y27912D01*
G01X12185Y27897D01*
G01X12189Y27881D01*
G01X12190Y27866D01*
G01X12190Y16075D01*
G01X12189Y16060D01*
G01X12185Y16044D01*
G01X12179Y16029D01*
G01X12170Y16016D01*
G01X12160Y16004D01*
G01X11375Y15218D01*
G01X11363Y15208D01*
G01X11350Y15200D01*
G01X11335Y15194D01*
G01X11066Y15104D01*
G01X11051Y15100D01*
G01X11034Y15099D01*
G01X9541Y15099D01*
G01X9518Y15098D01*
G01X9494Y15095D01*
G01X9471Y15089D01*
G01X9449Y15082D01*
G01X9427Y15072D01*
G01X9406Y15061D01*
G01X9387Y15047D01*
G01X9369Y15032D01*
G01X9352Y15015D01*
G01X9337Y14997D01*
G01X9323Y14978D01*
G01X9312Y14957D01*
G01X9302Y14935D01*
G01X9295Y14913D01*
G01X9289Y14890D01*
G01X9286Y14866D01*
G01X9285Y14842D01*
G01X9285Y12843D01*
G01X9286Y12819D01*
G01X9289Y12795D01*
G01X9295Y12772D01*
G01X9302Y12750D01*
G01X9312Y12728D01*
G01X9323Y12707D01*
G01X9337Y12688D01*
G01X9352Y12670D01*
G01X9369Y12653D01*
G01X9387Y12638D01*
G01X9406Y12624D01*
G01X9427Y12613D01*
G01X9449Y12603D01*
G01X9471Y12596D01*
G01X9494Y12590D01*
G01X9518Y12587D01*
G01X9541Y12586D01*
G01X11541Y12586D01*
G01X11565Y12587D01*
G01X11589Y12590D01*
G01X11612Y12596D01*
G01X11634Y12603D01*
G01X11656Y12613D01*
G01X11676Y12624D01*
G01X11696Y12638D01*
G01X11714Y12653D01*
G01X11731Y12670D01*
G01X11746Y12688D01*
G01X11760Y12707D01*
G01X11771Y12728D01*
G01X11781Y12750D01*
G01X11788Y12772D01*
G01X11794Y12795D01*
G01X11797Y12819D01*
G01X11798Y12843D01*
G01X11798Y13304D01*
G01X11799Y13320D01*
G01X11803Y13335D01*
G01X11809Y13350D01*
G01X11818Y13364D01*
G01X11828Y13376D01*
G01X11840Y13386D01*
G01X11854Y13395D01*
G01X11962Y13448D01*
G01X11976Y13454D01*
G01X11991Y13458D01*
G01X12007Y13459D01*
G01X22356Y13459D01*
G01X22371Y13458D01*
G01X22386Y13454D01*
G01X22400Y13449D01*
G01X22508Y13396D01*
G01X22524Y13387D01*
G01X22553Y13366D01*
G01X22584Y13348D01*
G01X22616Y13331D01*
G01X22649Y13317D01*
G01X22683Y13304D01*
G01X22718Y13294D01*
G01X22753Y13286D01*
G01X22789Y13281D01*
G01X22824Y13277D01*
G01X22860Y13276D01*
G01X22895Y13277D01*
G01X22929Y13280D01*
G01X22963Y13285D01*
G01X22996Y13292D01*
G01X23029Y13302D01*
G01X23061Y13313D01*
G01X23093Y13326D01*
G01X23124Y13341D01*
G01X23154Y13358D01*
G01X23182Y13376D01*
G01X23210Y13397D01*
G01X23236Y13418D01*
G01X23261Y13442D01*
G01X23284Y13467D01*
G01X23306Y13493D01*
G01X23327Y13521D01*
G01X23345Y13549D01*
G01X23362Y13579D01*
G01X23377Y13610D01*
G01X23390Y13642D01*
G01X23401Y13674D01*
G01X23410Y13707D01*
G01X23418Y13740D01*
G01X23423Y13774D01*
G01X23426Y13808D01*
G01X23427Y13843D01*
G01X23426Y13877D01*
G01X23423Y13911D01*
G01X23418Y13945D01*
G01X23410Y13978D01*
G01X23401Y14011D01*
G01X23390Y14043D01*
G01X23377Y14075D01*
G01X23362Y14106D01*
G01X23345Y14136D01*
G01X23327Y14164D01*
G01X23306Y14192D01*
G01X23284Y14218D01*
G01X23261Y14243D01*
G01X23236Y14267D01*
G01X23210Y14288D01*
G01X23182Y14309D01*
G01X23154Y14327D01*
G01X23124Y14344D01*
G01X23093Y14359D01*
G01X23061Y14372D01*
G01X23029Y14383D01*
G01X22996Y14393D01*
G01X22963Y14400D01*
G01X22929Y14405D01*
G01X22895Y14408D01*
G01X22860Y14409D01*
G01X22824Y14408D01*
G01X22789Y14404D01*
G01X22753Y14399D01*
G01X22718Y14391D01*
G01X22683Y14381D01*
G01X22649Y14368D01*
G01X22616Y14354D01*
G01X22584Y14337D01*
G01X22553Y14319D01*
G01X22524Y14298D01*
G01X22508Y14289D01*
G01X22400Y14236D01*
G01X22386Y14231D01*
G01X22371Y14227D01*
G01X22356Y14226D01*
G01X12007Y14226D01*
G01X11991Y14227D01*
G01X11976Y14231D01*
G01X11962Y14237D01*
G01X11867Y14284D01*
G01X11854Y14292D01*
G01X11841Y14303D01*
G01X11831Y14315D01*
G01X11822Y14328D01*
G01X11816Y14343D01*
G01X11812Y14359D01*
G01X11811Y14375D01*
G01X11812Y14391D01*
G01X11816Y14407D01*
G01X11893Y14636D01*
G01X11899Y14651D01*
G01X11907Y14664D01*
G01X11917Y14676D01*
G01X12845Y15603D01*
G01X12865Y15625D01*
G01X12884Y15649D01*
G01X12900Y15674D01*
G01X12915Y15700D01*
G01X12928Y15728D01*
G01X12938Y15756D01*
G01X12946Y15785D01*
G01X12952Y15815D01*
G01X12956Y15844D01*
G01X12957Y15874D01*
G01X12957Y28066D01*
G01X12956Y28097D01*
G01X12952Y28126D01*
G01X12946Y28156D01*
G01X12938Y28185D01*
G01X12928Y28213D01*
G01X12915Y28241D01*
G01X12900Y28267D01*
G01X12884Y28292D01*
G01X12865Y28316D01*
G01X12845Y28338D01*
G01X10432Y30751D01*
G01X10410Y30771D01*
G01X10386Y30790D01*
G01X10361Y30807D01*
G01X10335Y30821D01*
G01X10307Y30834D01*
G01X10279Y30844D01*
G01X10250Y30852D01*
G01X10220Y30858D01*
G01X10191Y30862D01*
G01X10160Y30863D01*
G01X4555Y30863D01*
G01X4540Y30864D01*
G01X4524Y30868D01*
G01X4510Y30874D01*
G01X4403Y30927D01*
G01X4389Y30936D01*
G01X4377Y30946D01*
G01X4366Y30958D01*
G01X4358Y30972D01*
G01X4351Y30987D01*
G01X4348Y31002D01*
G01X4346Y31018D01*
G01X4346Y31267D01*
G01X4345Y31291D01*
G01X4342Y31314D01*
G01X4337Y31337D01*
G01X4329Y31360D01*
G01X4319Y31381D01*
G01X4308Y31402D01*
G01X4295Y31421D01*
G01X4279Y31440D01*
G01X4263Y31456D01*
G01X4244Y31472D01*
G01X4225Y31485D01*
G01X4204Y31497D01*
G01X4182Y31506D01*
G01X4160Y31514D01*
G01X4137Y31519D01*
G01X4113Y31522D01*
G01X4090Y31523D01*
G37*
G36*
G01X3349Y34062D02*
G01X3302Y34063D01*
G01X3256Y34062D01*
G01X3209Y34059D01*
G01X3162Y34054D01*
G01X3116Y34047D01*
G01X3070Y34037D01*
G01X3025Y34026D01*
G01X2980Y34012D01*
G01X2936Y33997D01*
G01X2892Y33979D01*
G01X2849Y33960D01*
G01X2808Y33939D01*
G01X2767Y33916D01*
G01X2727Y33891D01*
G01X2689Y33864D01*
G01X2652Y33836D01*
G01X2616Y33806D01*
G01X2581Y33774D01*
G01X2548Y33741D01*
G01X2516Y33706D01*
G01X2486Y33670D01*
G01X2458Y33633D01*
G01X2431Y33595D01*
G01X2406Y33555D01*
G01X2383Y33514D01*
G01X2362Y33472D01*
G01X2342Y33430D01*
G01X2325Y33386D01*
G01X2310Y33342D01*
G01X2296Y33297D01*
G01X2285Y33252D01*
G01X2275Y33206D01*
G01X2268Y33160D01*
G01X2263Y33113D01*
G01X2260Y33066D01*
G01X2258Y33019D01*
G01X2260Y32973D01*
G01X2263Y32926D01*
G01X2268Y32879D01*
G01X2275Y32833D01*
G01X2285Y32787D01*
G01X2296Y32742D01*
G01X2310Y32697D01*
G01X2325Y32653D01*
G01X2342Y32609D01*
G01X2362Y32567D01*
G01X2383Y32525D01*
G01X2406Y32484D01*
G01X2431Y32444D01*
G01X2458Y32406D01*
G01X2486Y32369D01*
G01X2516Y32333D01*
G01X2548Y32298D01*
G01X2581Y32265D01*
G01X2616Y32233D01*
G01X2652Y32203D01*
G01X2689Y32175D01*
G01X2727Y32148D01*
G01X2767Y32123D01*
G01X2808Y32100D01*
G01X2849Y32079D01*
G01X2892Y32060D01*
G01X2936Y32042D01*
G01X2980Y32027D01*
G01X3025Y32013D01*
G01X3070Y32002D01*
G01X3116Y31992D01*
G01X3162Y31985D01*
G01X3209Y31980D01*
G01X3256Y31977D01*
G01X3302Y31976D01*
G01X3349Y31977D01*
G01X3396Y31980D01*
G01X3443Y31985D01*
G01X3489Y31992D01*
G01X3535Y32002D01*
G01X3580Y32013D01*
G01X3625Y32027D01*
G01X3670Y32042D01*
G01X3713Y32060D01*
G01X3756Y32079D01*
G01X3797Y32100D01*
G01X3838Y32124D01*
G01X3878Y32149D01*
G01X3916Y32175D01*
G01X3954Y32204D01*
G01X3990Y32234D01*
G01X3991Y32235D01*
G01X4440Y32612D01*
G01X4454Y32622D01*
G01X4470Y32630D01*
G01X4487Y32634D01*
G01X4505Y32636D01*
G01X9070Y32636D01*
G01X9086Y32635D01*
G01X9102Y32631D01*
G01X9117Y32625D01*
G01X9130Y32617D01*
G01X9142Y32606D01*
G01X11667Y30081D01*
G01X11689Y30061D01*
G01X11713Y30042D01*
G01X11738Y30025D01*
G01X11764Y30011D01*
G01X11792Y29998D01*
G01X11820Y29988D01*
G01X11849Y29980D01*
G01X11878Y29974D01*
G01X11908Y29970D01*
G01X11938Y29969D01*
G01X15293Y29969D01*
G01X15309Y29968D01*
G01X15325Y29964D01*
G01X15340Y29958D01*
G01X15353Y29950D01*
G01X15365Y29939D01*
G01X16224Y29080D01*
G01X16234Y29068D01*
G01X16243Y29055D01*
G01X16249Y29040D01*
G01X16253Y29024D01*
G01X16254Y29009D01*
G01X16254Y24257D01*
G01X16255Y24226D01*
G01X16259Y24197D01*
G01X16264Y24167D01*
G01X16273Y24138D01*
G01X16283Y24110D01*
G01X16296Y24082D01*
G01X16310Y24056D01*
G01X16327Y24031D01*
G01X16346Y24007D01*
G01X16366Y23985D01*
G01X17763Y22588D01*
G01X17785Y22568D01*
G01X17809Y22549D01*
G01X17834Y22532D01*
G01X17860Y22518D01*
G01X17888Y22505D01*
G01X17916Y22495D01*
G01X17945Y22487D01*
G01X17974Y22481D01*
G01X18004Y22477D01*
G01X18034Y22476D01*
G01X19484Y22476D01*
G01X19500Y22475D01*
G01X19516Y22471D01*
G01X19531Y22465D01*
G01X19544Y22457D01*
G01X19556Y22446D01*
G01X20542Y21460D01*
G01X20552Y21448D01*
G01X20561Y21435D01*
G01X20567Y21420D01*
G01X20571Y21404D01*
G01X20572Y21389D01*
G01X20572Y16633D01*
G01X20571Y16618D01*
G01X20567Y16603D01*
G01X20562Y16589D01*
G01X20509Y16481D01*
G01X20500Y16465D01*
G01X20479Y16435D01*
G01X20461Y16405D01*
G01X20444Y16373D01*
G01X20430Y16340D01*
G01X20417Y16306D01*
G01X20407Y16271D01*
G01X20399Y16236D01*
G01X20393Y16200D01*
G01X20390Y16165D01*
G01X20389Y16129D01*
G01X20390Y16094D01*
G01X20393Y16060D01*
G01X20398Y16026D01*
G01X20405Y15993D01*
G01X20415Y15960D01*
G01X20426Y15928D01*
G01X20439Y15896D01*
G01X20454Y15865D01*
G01X20471Y15835D01*
G01X20489Y15807D01*
G01X20509Y15779D01*
G01X20531Y15753D01*
G01X20555Y15728D01*
G01X20580Y15704D01*
G01X20606Y15683D01*
G01X20634Y15662D01*
G01X20662Y15644D01*
G01X20692Y15627D01*
G01X20723Y15612D01*
G01X20755Y15599D01*
G01X20787Y15588D01*
G01X20820Y15578D01*
G01X20853Y15571D01*
G01X20887Y15566D01*
G01X20921Y15563D01*
G01X20955Y15562D01*
G01X20990Y15563D01*
G01X21024Y15566D01*
G01X21058Y15571D01*
G01X21091Y15578D01*
G01X21124Y15588D01*
G01X21156Y15599D01*
G01X21188Y15612D01*
G01X21219Y15627D01*
G01X21249Y15644D01*
G01X21277Y15662D01*
G01X21305Y15683D01*
G01X21331Y15704D01*
G01X21356Y15728D01*
G01X21379Y15753D01*
G01X21401Y15779D01*
G01X21422Y15807D01*
G01X21440Y15835D01*
G01X21457Y15865D01*
G01X21472Y15896D01*
G01X21485Y15928D01*
G01X21496Y15960D01*
G01X21505Y15993D01*
G01X21513Y16026D01*
G01X21518Y16060D01*
G01X21521Y16094D01*
G01X21522Y16128D01*
G01X21521Y16165D01*
G01X21517Y16200D01*
G01X21512Y16236D01*
G01X21504Y16271D01*
G01X21494Y16306D01*
G01X21481Y16340D01*
G01X21467Y16373D01*
G01X21450Y16405D01*
G01X21432Y16435D01*
G01X21411Y16465D01*
G01X21401Y16481D01*
G01X21349Y16589D01*
G01X21344Y16603D01*
G01X21340Y16618D01*
G01X21339Y16633D01*
G01X21339Y21589D01*
G01X21338Y21620D01*
G01X21334Y21649D01*
G01X21328Y21679D01*
G01X21320Y21708D01*
G01X21310Y21736D01*
G01X21297Y21764D01*
G01X21282Y21790D01*
G01X21266Y21815D01*
G01X21247Y21839D01*
G01X21227Y21861D01*
G01X19957Y23131D01*
G01X19935Y23151D01*
G01X19911Y23170D01*
G01X19886Y23187D01*
G01X19860Y23201D01*
G01X19832Y23214D01*
G01X19804Y23224D01*
G01X19775Y23232D01*
G01X19745Y23238D01*
G01X19716Y23242D01*
G01X19685Y23243D01*
G01X18235Y23243D01*
G01X18219Y23244D01*
G01X18204Y23248D01*
G01X18189Y23254D01*
G01X18176Y23262D01*
G01X18164Y23273D01*
G01X17051Y24386D01*
G01X17040Y24398D01*
G01X17032Y24411D01*
G01X17026Y24426D01*
G01X17022Y24442D01*
G01X17021Y24457D01*
G01X17021Y29209D01*
G01X17020Y29240D01*
G01X17016Y29269D01*
G01X17010Y29299D01*
G01X17002Y29328D01*
G01X16992Y29356D01*
G01X16979Y29384D01*
G01X16964Y29410D01*
G01X16948Y29435D01*
G01X16929Y29459D01*
G01X16909Y29481D01*
G01X15766Y30624D01*
G01X15744Y30644D01*
G01X15720Y30663D01*
G01X15695Y30680D01*
G01X15669Y30694D01*
G01X15641Y30707D01*
G01X15613Y30717D01*
G01X15584Y30725D01*
G01X15554Y30731D01*
G01X15525Y30735D01*
G01X15494Y30736D01*
G01X12139Y30736D01*
G01X12123Y30737D01*
G01X12108Y30741D01*
G01X12093Y30747D01*
G01X12080Y30755D01*
G01X12068Y30766D01*
G01X9543Y33291D01*
G01X9521Y33311D01*
G01X9497Y33330D01*
G01X9472Y33347D01*
G01X9446Y33361D01*
G01X9418Y33374D01*
G01X9390Y33384D01*
G01X9361Y33392D01*
G01X9331Y33398D01*
G01X9302Y33402D01*
G01X9271Y33403D01*
G01X4505Y33403D01*
G01X4487Y33405D01*
G01X4470Y33409D01*
G01X4454Y33417D01*
G01X4440Y33427D01*
G01X3991Y33804D01*
G01X3990Y33805D01*
G01X3954Y33835D01*
G01X3916Y33864D01*
G01X3878Y33890D01*
G01X3838Y33915D01*
G01X3797Y33939D01*
G01X3756Y33960D01*
G01X3713Y33979D01*
G01X3670Y33997D01*
G01X3625Y34012D01*
G01X3580Y34026D01*
G01X3535Y34037D01*
G01X3489Y34047D01*
G01X3443Y34054D01*
G01X3396Y34059D01*
G01X3349Y34062D01*
G37*
G36*
G01X24218Y38698D02*
G01X22519Y38698D01*
G01X22495Y38697D01*
G01X22471Y38694D01*
G01X22448Y38688D01*
G01X22426Y38681D01*
G01X22404Y38671D01*
G01X22383Y38659D01*
G01X22364Y38646D01*
G01X22346Y38631D01*
G01X22329Y38614D01*
G01X22314Y38596D01*
G01X22300Y38576D01*
G01X22289Y38556D01*
G01X22279Y38534D01*
G01X22272Y38512D01*
G01X22266Y38489D01*
G01X22263Y38465D01*
G01X22262Y38441D01*
G01X22262Y36742D01*
G01X22263Y36718D01*
G01X22266Y36694D01*
G01X22272Y36671D01*
G01X22279Y36649D01*
G01X22289Y36627D01*
G01X22300Y36607D01*
G01X22314Y36587D01*
G01X22329Y36569D01*
G01X22346Y36552D01*
G01X22364Y36537D01*
G01X22383Y36524D01*
G01X22404Y36512D01*
G01X22426Y36502D01*
G01X22448Y36495D01*
G01X22471Y36489D01*
G01X22495Y36486D01*
G01X22519Y36485D01*
G01X22830Y36485D01*
G01X22846Y36484D01*
G01X22861Y36480D01*
G01X22876Y36474D01*
G01X22890Y36465D01*
G01X22902Y36455D01*
G01X22912Y36443D01*
G01X22920Y36429D01*
G01X22974Y36322D01*
G01X22980Y36307D01*
G01X22984Y36292D01*
G01X22985Y36276D01*
G01X22985Y34998D01*
G01X22984Y34983D01*
G01X22980Y34967D01*
G01X22974Y34952D01*
G01X22965Y34939D01*
G01X22955Y34927D01*
G01X21562Y33533D01*
G01X21550Y33523D01*
G01X21537Y33515D01*
G01X21522Y33509D01*
G01X21253Y33419D01*
G01X21238Y33415D01*
G01X21221Y33414D01*
G01X19928Y33414D01*
G01X19905Y33413D01*
G01X19881Y33410D01*
G01X19858Y33404D01*
G01X19836Y33397D01*
G01X19814Y33387D01*
G01X19793Y33376D01*
G01X19774Y33362D01*
G01X19756Y33347D01*
G01X19739Y33330D01*
G01X19724Y33312D01*
G01X19710Y33293D01*
G01X19699Y33272D01*
G01X19689Y33250D01*
G01X19682Y33228D01*
G01X19676Y33205D01*
G01X19673Y33181D01*
G01X19672Y33157D01*
G01X19672Y31358D01*
G01X19673Y31334D01*
G01X19676Y31310D01*
G01X19682Y31287D01*
G01X19689Y31265D01*
G01X19699Y31243D01*
G01X19710Y31222D01*
G01X19724Y31203D01*
G01X19739Y31185D01*
G01X19756Y31168D01*
G01X19774Y31153D01*
G01X19793Y31139D01*
G01X19814Y31128D01*
G01X19836Y31118D01*
G01X19858Y31111D01*
G01X19881Y31105D01*
G01X19905Y31102D01*
G01X19928Y31101D01*
G01X21728Y31101D01*
G01X21752Y31102D01*
G01X21776Y31105D01*
G01X21799Y31111D01*
G01X21821Y31118D01*
G01X21843Y31128D01*
G01X21863Y31139D01*
G01X21883Y31153D01*
G01X21901Y31168D01*
G01X21918Y31185D01*
G01X21933Y31203D01*
G01X21947Y31222D01*
G01X21958Y31243D01*
G01X21968Y31265D01*
G01X21975Y31287D01*
G01X21981Y31310D01*
G01X21984Y31334D01*
G01X21985Y31358D01*
G01X21985Y32650D01*
G01X21986Y32667D01*
G01X21990Y32683D01*
G01X22080Y32951D01*
G01X22086Y32966D01*
G01X22094Y32979D01*
G01X22104Y32991D01*
G01X23640Y34526D01*
G01X23660Y34548D01*
G01X23679Y34572D01*
G01X23695Y34597D01*
G01X23710Y34623D01*
G01X23723Y34651D01*
G01X23733Y34679D01*
G01X23741Y34708D01*
G01X23747Y34738D01*
G01X23751Y34767D01*
G01X23752Y34797D01*
G01X23752Y36276D01*
G01X23753Y36292D01*
G01X23757Y36307D01*
G01X23763Y36322D01*
G01X23788Y36373D01*
G01X23797Y36387D01*
G01X23807Y36399D01*
G01X23819Y36409D01*
G01X23833Y36418D01*
G01X23848Y36424D01*
G01X23863Y36428D01*
G01X23879Y36429D01*
G01X23896Y36428D01*
G01X23911Y36424D01*
G01X24012Y36390D01*
G01X24027Y36384D01*
G01X24040Y36376D01*
G01X24052Y36366D01*
G01X25256Y35161D01*
G01X25278Y35141D01*
G01X25302Y35122D01*
G01X25327Y35105D01*
G01X25353Y35091D01*
G01X25381Y35078D01*
G01X25409Y35068D01*
G01X25438Y35060D01*
G01X25467Y35054D01*
G01X25497Y35050D01*
G01X25527Y35049D01*
G01X32402Y35049D01*
G01X32418Y35048D01*
G01X32433Y35044D01*
G01X32448Y35038D01*
G01X32555Y34985D01*
G01X32569Y34976D01*
G01X32581Y34966D01*
G01X32592Y34954D01*
G01X32600Y34940D01*
G01X32606Y34925D01*
G01X32610Y34910D01*
G01X32611Y34894D01*
G01X32611Y34645D01*
G01X32613Y34621D01*
G01X32616Y34598D01*
G01X32621Y34575D01*
G01X32629Y34552D01*
G01X32638Y34531D01*
G01X32650Y34510D01*
G01X32663Y34491D01*
G01X32678Y34472D01*
G01X32695Y34456D01*
G01X32713Y34440D01*
G01X32733Y34427D01*
G01X32754Y34415D01*
G01X32775Y34406D01*
G01X32798Y34398D01*
G01X32821Y34393D01*
G01X32844Y34390D01*
G01X32868Y34389D01*
G01X34443Y34389D01*
G01X34466Y34390D01*
G01X34490Y34393D01*
G01X34513Y34398D01*
G01X34535Y34406D01*
G01X34557Y34415D01*
G01X34578Y34427D01*
G01X34597Y34440D01*
G01X34616Y34456D01*
G01X34632Y34472D01*
G01X34648Y34491D01*
G01X34661Y34510D01*
G01X34672Y34531D01*
G01X34682Y34552D01*
G01X34690Y34575D01*
G01X34695Y34598D01*
G01X34698Y34621D01*
G01X34699Y34645D01*
G01X34699Y36220D01*
G01X34698Y36244D01*
G01X34695Y36267D01*
G01X34690Y36290D01*
G01X34682Y36313D01*
G01X34672Y36334D01*
G01X34661Y36355D01*
G01X34648Y36374D01*
G01X34632Y36393D01*
G01X34616Y36409D01*
G01X34597Y36425D01*
G01X34578Y36438D01*
G01X34557Y36450D01*
G01X34535Y36459D01*
G01X34513Y36467D01*
G01X34490Y36472D01*
G01X34466Y36475D01*
G01X34443Y36476D01*
G01X32868Y36476D01*
G01X32844Y36475D01*
G01X32821Y36472D01*
G01X32798Y36467D01*
G01X32775Y36459D01*
G01X32754Y36450D01*
G01X32733Y36438D01*
G01X32713Y36425D01*
G01X32695Y36409D01*
G01X32678Y36393D01*
G01X32663Y36374D01*
G01X32650Y36355D01*
G01X32638Y36334D01*
G01X32629Y36313D01*
G01X32621Y36290D01*
G01X32616Y36267D01*
G01X32613Y36244D01*
G01X32611Y36220D01*
G01X32611Y35971D01*
G01X32610Y35955D01*
G01X32606Y35940D01*
G01X32600Y35925D01*
G01X32592Y35911D01*
G01X32581Y35899D01*
G01X32569Y35889D01*
G01X32555Y35880D01*
G01X32448Y35827D01*
G01X32433Y35821D01*
G01X32418Y35817D01*
G01X32402Y35816D01*
G01X25728Y35816D01*
G01X25712Y35817D01*
G01X25697Y35821D01*
G01X25682Y35827D01*
G01X25669Y35835D01*
G01X25657Y35846D01*
G01X24594Y36908D01*
G01X24584Y36920D01*
G01X24576Y36933D01*
G01X24570Y36948D01*
G01X24480Y37217D01*
G01X24476Y37232D01*
G01X24475Y37249D01*
G01X24475Y38441D01*
G01X24474Y38465D01*
G01X24470Y38489D01*
G01X24465Y38512D01*
G01X24458Y38534D01*
G01X24448Y38556D01*
G01X24436Y38576D01*
G01X24423Y38596D01*
G01X24408Y38614D01*
G01X24391Y38631D01*
G01X24373Y38646D01*
G01X24353Y38659D01*
G01X24333Y38671D01*
G01X24311Y38681D01*
G01X24289Y38688D01*
G01X24265Y38694D01*
G01X24242Y38697D01*
G01X24218Y38698D01*
G37*
G36*
G01X32639Y24894D02*
G01X31877Y24894D01*
G01X31817Y24893D01*
G01X31756Y24890D01*
G01X31695Y24885D01*
G01X31635Y24877D01*
G01X31575Y24868D01*
G01X31515Y24857D01*
G01X31456Y24843D01*
G01X31397Y24828D01*
G01X31339Y24811D01*
G01X31281Y24791D01*
G01X31224Y24770D01*
G01X31168Y24747D01*
G01X31113Y24721D01*
G01X31058Y24694D01*
G01X31005Y24666D01*
G01X30952Y24635D01*
G01X30901Y24602D01*
G01X30851Y24568D01*
G01X30802Y24532D01*
G01X30754Y24495D01*
G01X30707Y24456D01*
G01X30662Y24415D01*
G01X30618Y24373D01*
G01X30576Y24329D01*
G01X30535Y24284D01*
G01X30496Y24237D01*
G01X30459Y24189D01*
G01X30423Y24140D01*
G01X30389Y24090D01*
G01X30356Y24039D01*
G01X30325Y23986D01*
G01X30296Y23933D01*
G01X30269Y23878D01*
G01X30244Y23823D01*
G01X30221Y23767D01*
G01X30200Y23710D01*
G01X30180Y23652D01*
G01X30163Y23594D01*
G01X30147Y23535D01*
G01X30134Y23476D01*
G01X30123Y23416D01*
G01X30113Y23356D01*
G01X30106Y23296D01*
G01X30101Y23235D01*
G01X30098Y23174D01*
G01X30097Y23114D01*
G01X30098Y23051D01*
G01X30101Y22989D01*
G01X30107Y22927D01*
G01X30114Y22865D01*
G01X30124Y22803D01*
G01X30136Y22742D01*
G01X30150Y22681D01*
G01X30166Y22621D01*
G01X30185Y22561D01*
G01X30205Y22502D01*
G01X30227Y22444D01*
G01X30252Y22387D01*
G01X30278Y22330D01*
G01X30307Y22275D01*
G01X30337Y22220D01*
G01X30369Y22167D01*
G01X30403Y22115D01*
G01X30439Y22064D01*
G01X30477Y22014D01*
G01X30516Y21965D01*
G01X30557Y21919D01*
G01X30600Y21873D01*
G01X30610Y21861D01*
G01X30618Y21848D01*
G01X30624Y21833D01*
G01X30628Y21818D01*
G01X30629Y21802D01*
G01X30629Y21798D01*
G01X30624Y21678D01*
G01X30622Y21663D01*
G01X30618Y21649D01*
G01X30612Y21635D01*
G01X30604Y21622D01*
G01X30594Y21611D01*
G01X29716Y20733D01*
G01X29704Y20722D01*
G01X29691Y20714D01*
G01X29676Y20708D01*
G01X29660Y20704D01*
G01X29644Y20703D01*
G01X28321Y20703D01*
G01X28291Y20702D01*
G01X28261Y20698D01*
G01X28232Y20692D01*
G01X28203Y20684D01*
G01X28175Y20674D01*
G01X28147Y20661D01*
G01X28121Y20647D01*
G01X28096Y20630D01*
G01X28072Y20611D01*
G01X28050Y20591D01*
G01X26145Y18686D01*
G01X26125Y18664D01*
G01X26106Y18640D01*
G01X26089Y18615D01*
G01X26075Y18589D01*
G01X26062Y18561D01*
G01X26052Y18533D01*
G01X26043Y18504D01*
G01X26038Y18474D01*
G01X26034Y18445D01*
G01X26033Y18415D01*
G01X26033Y15308D01*
G01X26032Y15292D01*
G01X26028Y15277D01*
G01X26022Y15263D01*
G01X25968Y15155D01*
G01X25960Y15141D01*
G01X25950Y15129D01*
G01X25938Y15119D01*
G01X25924Y15110D01*
G01X25909Y15104D01*
G01X25894Y15100D01*
G01X25878Y15099D01*
G01X25416Y15099D01*
G01X25393Y15098D01*
G01X25369Y15095D01*
G01X25346Y15089D01*
G01X25324Y15082D01*
G01X25302Y15072D01*
G01X25281Y15061D01*
G01X25262Y15047D01*
G01X25244Y15032D01*
G01X25227Y15015D01*
G01X25212Y14997D01*
G01X25198Y14978D01*
G01X25187Y14957D01*
G01X25177Y14935D01*
G01X25170Y14913D01*
G01X25164Y14890D01*
G01X25161Y14866D01*
G01X25160Y14842D01*
G01X25160Y12843D01*
G01X25161Y12819D01*
G01X25164Y12795D01*
G01X25170Y12772D01*
G01X25177Y12750D01*
G01X25187Y12728D01*
G01X25198Y12707D01*
G01X25212Y12688D01*
G01X25227Y12670D01*
G01X25244Y12653D01*
G01X25262Y12638D01*
G01X25281Y12624D01*
G01X25302Y12613D01*
G01X25324Y12603D01*
G01X25346Y12596D01*
G01X25369Y12590D01*
G01X25393Y12587D01*
G01X25416Y12586D01*
G01X27416Y12586D01*
G01X27440Y12587D01*
G01X27464Y12590D01*
G01X27487Y12596D01*
G01X27509Y12603D01*
G01X27531Y12613D01*
G01X27551Y12624D01*
G01X27571Y12638D01*
G01X27589Y12653D01*
G01X27606Y12670D01*
G01X27621Y12688D01*
G01X27635Y12707D01*
G01X27646Y12728D01*
G01X27656Y12750D01*
G01X27663Y12772D01*
G01X27669Y12795D01*
G01X27672Y12819D01*
G01X27673Y12843D01*
G01X27673Y14842D01*
G01X27672Y14866D01*
G01X27669Y14890D01*
G01X27663Y14913D01*
G01X27656Y14935D01*
G01X27646Y14957D01*
G01X27635Y14978D01*
G01X27621Y14997D01*
G01X27606Y15015D01*
G01X27589Y15032D01*
G01X27571Y15047D01*
G01X27551Y15061D01*
G01X27531Y15072D01*
G01X27509Y15082D01*
G01X27487Y15089D01*
G01X27464Y15095D01*
G01X27440Y15098D01*
G01X27416Y15099D01*
G01X26955Y15099D01*
G01X26939Y15100D01*
G01X26924Y15104D01*
G01X26909Y15110D01*
G01X26895Y15119D01*
G01X26883Y15129D01*
G01X26873Y15141D01*
G01X26864Y15155D01*
G01X26811Y15263D01*
G01X26805Y15277D01*
G01X26801Y15292D01*
G01X26800Y15308D01*
G01X26800Y18214D01*
G01X26801Y18229D01*
G01X26805Y18245D01*
G01X26811Y18260D01*
G01X26819Y18273D01*
G01X26830Y18285D01*
G01X28451Y19906D01*
G01X28463Y19917D01*
G01X28476Y19925D01*
G01X28491Y19931D01*
G01X28506Y19935D01*
G01X28522Y19936D01*
G01X29845Y19936D01*
G01X29876Y19937D01*
G01X29905Y19941D01*
G01X29935Y19947D01*
G01X29964Y19955D01*
G01X29992Y19965D01*
G01X30020Y19978D01*
G01X30046Y19992D01*
G01X30071Y20009D01*
G01X30095Y20028D01*
G01X30117Y20048D01*
G01X31269Y21201D01*
G01X31281Y21211D01*
G01X31469Y21346D01*
G01X31482Y21355D01*
G01X31497Y21361D01*
G01X31512Y21364D01*
G01X31528Y21366D01*
G01X31547Y21364D01*
G01X31612Y21353D01*
G01X31678Y21344D01*
G01X31745Y21338D01*
G01X31811Y21334D01*
G01X31877Y21333D01*
G01X32639Y21333D01*
G01X32700Y21334D01*
G01X32761Y21337D01*
G01X32821Y21342D01*
G01X32882Y21350D01*
G01X32942Y21359D01*
G01X33002Y21370D01*
G01X33061Y21384D01*
G01X33120Y21399D01*
G01X33178Y21416D01*
G01X33236Y21436D01*
G01X33293Y21457D01*
G01X33349Y21480D01*
G01X33404Y21506D01*
G01X33459Y21533D01*
G01X33512Y21561D01*
G01X33565Y21592D01*
G01X33616Y21625D01*
G01X33666Y21659D01*
G01X33715Y21695D01*
G01X33763Y21732D01*
G01X33810Y21771D01*
G01X33855Y21812D01*
G01X33898Y21854D01*
G01X33941Y21898D01*
G01X33981Y21943D01*
G01X34021Y21990D01*
G01X34058Y22038D01*
G01X34094Y22087D01*
G01X34128Y22137D01*
G01X34161Y22188D01*
G01X34191Y22241D01*
G01X34220Y22294D01*
G01X34247Y22349D01*
G01X34273Y22404D01*
G01X34296Y22460D01*
G01X34317Y22517D01*
G01X34337Y22575D01*
G01X34354Y22633D01*
G01X34369Y22692D01*
G01X34383Y22751D01*
G01X34394Y22811D01*
G01X34403Y22871D01*
G01X34411Y22931D01*
G01X34416Y22992D01*
G01X34419Y23053D01*
G01X34420Y23114D01*
G01X34419Y23174D01*
G01X34416Y23235D01*
G01X34411Y23296D01*
G01X34403Y23356D01*
G01X34394Y23416D01*
G01X34383Y23476D01*
G01X34369Y23535D01*
G01X34354Y23594D01*
G01X34337Y23652D01*
G01X34317Y23710D01*
G01X34296Y23767D01*
G01X34273Y23823D01*
G01X34247Y23878D01*
G01X34220Y23933D01*
G01X34191Y23986D01*
G01X34161Y24039D01*
G01X34128Y24090D01*
G01X34094Y24140D01*
G01X34058Y24189D01*
G01X34021Y24237D01*
G01X33981Y24284D01*
G01X33941Y24329D01*
G01X33898Y24373D01*
G01X33855Y24415D01*
G01X33810Y24456D01*
G01X33763Y24495D01*
G01X33715Y24532D01*
G01X33666Y24568D01*
G01X33616Y24602D01*
G01X33565Y24635D01*
G01X33512Y24666D01*
G01X33459Y24694D01*
G01X33404Y24721D01*
G01X33349Y24747D01*
G01X33293Y24770D01*
G01X33236Y24791D01*
G01X33178Y24811D01*
G01X33120Y24828D01*
G01X33061Y24843D01*
G01X33002Y24857D01*
G01X32942Y24868D01*
G01X32882Y24877D01*
G01X32821Y24885D01*
G01X32761Y24890D01*
G01X32700Y24893D01*
G01X32639Y24894D01*
G37*
G36*
G01X32512Y19941D02*
G01X32004Y19941D01*
G01X31942Y19940D01*
G01X31880Y19937D01*
G01X31817Y19932D01*
G01X31755Y19925D01*
G01X31694Y19916D01*
G01X31632Y19904D01*
G01X31571Y19891D01*
G01X31511Y19876D01*
G01X31451Y19859D01*
G01X31391Y19840D01*
G01X31332Y19819D01*
G01X31274Y19796D01*
G01X31217Y19771D01*
G01X31161Y19744D01*
G01X31105Y19716D01*
G01X31051Y19685D01*
G01X30997Y19653D01*
G01X30945Y19620D01*
G01X30893Y19584D01*
G01X30843Y19547D01*
G01X30794Y19508D01*
G01X30747Y19468D01*
G01X30700Y19426D01*
G01X30656Y19382D01*
G01X30612Y19337D01*
G01X30570Y19291D01*
G01X30530Y19244D01*
G01X30491Y19195D01*
G01X30454Y19145D01*
G01X30418Y19093D01*
G01X30385Y19041D01*
G01X30352Y18987D01*
G01X30322Y18933D01*
G01X30294Y18877D01*
G01X30267Y18821D01*
G01X30242Y18763D01*
G01X30219Y18705D01*
G01X30198Y18647D01*
G01X30179Y18587D01*
G01X30162Y18527D01*
G01X30147Y18467D01*
G01X30134Y18406D01*
G01X30122Y18344D01*
G01X30113Y18282D01*
G01X30106Y18220D01*
G01X30101Y18158D01*
G01X30098Y18096D01*
G01X30097Y18034D01*
G01X30098Y17971D01*
G01X30101Y17909D01*
G01X30106Y17847D01*
G01X30113Y17785D01*
G01X30122Y17723D01*
G01X30134Y17661D01*
G01X30147Y17600D01*
G01X30162Y17540D01*
G01X30179Y17480D01*
G01X30198Y17420D01*
G01X30219Y17362D01*
G01X30242Y17304D01*
G01X30267Y17246D01*
G01X30294Y17190D01*
G01X30322Y17134D01*
G01X30352Y17080D01*
G01X30385Y17026D01*
G01X30418Y16974D01*
G01X30454Y16922D01*
G01X30491Y16872D01*
G01X30530Y16823D01*
G01X30570Y16776D01*
G01X30612Y16730D01*
G01X30656Y16685D01*
G01X30700Y16641D01*
G01X30747Y16599D01*
G01X30794Y16559D01*
G01X30843Y16520D01*
G01X30893Y16483D01*
G01X30945Y16447D01*
G01X30997Y16414D01*
G01X31051Y16382D01*
G01X31105Y16351D01*
G01X31161Y16323D01*
G01X31217Y16296D01*
G01X31274Y16271D01*
G01X31332Y16248D01*
G01X31391Y16227D01*
G01X31451Y16208D01*
G01X31511Y16191D01*
G01X31571Y16176D01*
G01X31632Y16163D01*
G01X31694Y16151D01*
G01X31755Y16142D01*
G01X31817Y16135D01*
G01X31880Y16130D01*
G01X31942Y16127D01*
G01X32004Y16126D01*
G01X32512Y16126D01*
G01X32575Y16127D01*
G01X32637Y16130D01*
G01X32699Y16135D01*
G01X32761Y16142D01*
G01X32823Y16151D01*
G01X32885Y16163D01*
G01X32946Y16176D01*
G01X33006Y16191D01*
G01X33066Y16208D01*
G01X33126Y16227D01*
G01X33184Y16248D01*
G01X33242Y16271D01*
G01X33300Y16296D01*
G01X33356Y16323D01*
G01X33412Y16351D01*
G01X33466Y16382D01*
G01X33520Y16414D01*
G01X33572Y16447D01*
G01X33624Y16483D01*
G01X33674Y16520D01*
G01X33723Y16559D01*
G01X33770Y16599D01*
G01X33816Y16641D01*
G01X33861Y16685D01*
G01X33905Y16730D01*
G01X33947Y16776D01*
G01X33987Y16823D01*
G01X34026Y16872D01*
G01X34063Y16922D01*
G01X34098Y16974D01*
G01X34132Y17026D01*
G01X34164Y17080D01*
G01X34195Y17134D01*
G01X34223Y17190D01*
G01X34250Y17246D01*
G01X34275Y17304D01*
G01X34298Y17362D01*
G01X34319Y17420D01*
G01X34338Y17480D01*
G01X34355Y17540D01*
G01X34370Y17600D01*
G01X34383Y17661D01*
G01X34394Y17723D01*
G01X34404Y17785D01*
G01X34411Y17847D01*
G01X34416Y17909D01*
G01X34419Y17971D01*
G01X34420Y18034D01*
G01X34419Y18096D01*
G01X34416Y18158D01*
G01X34411Y18220D01*
G01X34404Y18282D01*
G01X34394Y18344D01*
G01X34383Y18406D01*
G01X34370Y18467D01*
G01X34355Y18527D01*
G01X34338Y18587D01*
G01X34319Y18647D01*
G01X34298Y18705D01*
G01X34275Y18763D01*
G01X34250Y18821D01*
G01X34223Y18877D01*
G01X34195Y18933D01*
G01X34164Y18987D01*
G01X34132Y19041D01*
G01X34098Y19093D01*
G01X34063Y19145D01*
G01X34026Y19195D01*
G01X33987Y19244D01*
G01X33947Y19291D01*
G01X33905Y19337D01*
G01X33861Y19382D01*
G01X33816Y19426D01*
G01X33770Y19468D01*
G01X33723Y19508D01*
G01X33674Y19547D01*
G01X33624Y19584D01*
G01X33572Y19620D01*
G01X33520Y19653D01*
G01X33466Y19685D01*
G01X33412Y19716D01*
G01X33356Y19744D01*
G01X33300Y19771D01*
G01X33242Y19796D01*
G01X33184Y19819D01*
G01X33126Y19840D01*
G01X33066Y19859D01*
G01X33006Y19876D01*
G01X32946Y19891D01*
G01X32885Y19904D01*
G01X32823Y19916D01*
G01X32761Y19925D01*
G01X32699Y19932D01*
G01X32637Y19937D01*
G01X32575Y19940D01*
G01X32512Y19941D01*
G37*
G36*
G01X4369Y41083D02*
G01X4318Y41084D01*
G01X4269Y41083D01*
G01X4219Y41080D01*
G01X4169Y41075D01*
G01X4120Y41068D01*
G01X4071Y41058D01*
G01X4022Y41047D01*
G01X3974Y41034D01*
G01X3927Y41019D01*
G01X3880Y41002D01*
G01X3834Y40982D01*
G01X3789Y40961D01*
G01X3744Y40939D01*
G01X3701Y40914D01*
G01X3658Y40888D01*
G01X3617Y40859D01*
G01X3577Y40830D01*
G01X3539Y40798D01*
G01X3501Y40765D01*
G01X3465Y40731D01*
G01X3431Y40695D01*
G01X3398Y40657D01*
G01X3366Y40619D01*
G01X3336Y40579D01*
G01X3308Y40537D01*
G01X3282Y40495D01*
G01X3257Y40452D01*
G01X3234Y40407D01*
G01X3213Y40362D01*
G01X3194Y40316D01*
G01X3177Y40269D01*
G01X3162Y40222D01*
G01X3149Y40174D01*
G01X3138Y40125D01*
G01X3128Y40076D01*
G01X3121Y40027D01*
G01X3116Y39977D01*
G01X3113Y39927D01*
G01X3112Y39878D01*
G01X3113Y39828D01*
G01X3116Y39778D01*
G01X3121Y39728D01*
G01X3128Y39679D01*
G01X3138Y39630D01*
G01X3149Y39581D01*
G01X3162Y39533D01*
G01X3177Y39486D01*
G01X3194Y39439D01*
G01X3213Y39393D01*
G01X3234Y39348D01*
G01X3257Y39303D01*
G01X3282Y39260D01*
G01X3308Y39218D01*
G01X3336Y39176D01*
G01X3366Y39136D01*
G01X3398Y39098D01*
G01X3431Y39060D01*
G01X3465Y39024D01*
G01X3501Y38990D01*
G01X3539Y38957D01*
G01X3577Y38925D01*
G01X3617Y38896D01*
G01X3658Y38867D01*
G01X3701Y38841D01*
G01X3744Y38816D01*
G01X3789Y38794D01*
G01X3834Y38773D01*
G01X3880Y38753D01*
G01X3927Y38736D01*
G01X3974Y38721D01*
G01X4022Y38708D01*
G01X4071Y38697D01*
G01X4120Y38687D01*
G01X4169Y38680D01*
G01X4219Y38675D01*
G01X4269Y38672D01*
G01X4318Y38671D01*
G01X4369Y38672D01*
G01X4420Y38675D01*
G01X4471Y38681D01*
G01X4522Y38688D01*
G01X4572Y38698D01*
G01X4622Y38710D01*
G01X4671Y38724D01*
G01X4719Y38739D01*
G01X4767Y38757D01*
G01X4814Y38777D01*
G01X4860Y38799D01*
G01X4905Y38823D01*
G01X4949Y38849D01*
G01X4992Y38877D01*
G01X5034Y38906D01*
G01X5075Y38937D01*
G01X5114Y38970D01*
G01X5151Y39005D01*
G01X5188Y39041D01*
G01X5222Y39078D01*
G01X5255Y39117D01*
G01X5287Y39157D01*
G01X5316Y39199D01*
G01X5344Y39242D01*
G01X5370Y39286D01*
G01X5394Y39331D01*
G01X5416Y39377D01*
G01X5436Y39424D01*
G01X5455Y39472D01*
G01X5461Y39487D01*
G01X5471Y39500D01*
G01X5471Y39504D01*
G01X5472Y39519D01*
G01X5475Y39533D01*
G01X5488Y39581D01*
G01X5499Y39630D01*
G01X5508Y39679D01*
G01X5516Y39728D01*
G01X5521Y39778D01*
G01X5524Y39828D01*
G01X5525Y39877D01*
G01X5524Y39927D01*
G01X5521Y39977D01*
G01X5516Y40027D01*
G01X5508Y40076D01*
G01X5499Y40125D01*
G01X5488Y40174D01*
G01X5475Y40222D01*
G01X5472Y40236D01*
G01X5471Y40251D01*
G01X5471Y40255D01*
G01X5461Y40268D01*
G01X5455Y40283D01*
G01X5436Y40331D01*
G01X5416Y40378D01*
G01X5394Y40424D01*
G01X5370Y40469D01*
G01X5344Y40513D01*
G01X5316Y40556D01*
G01X5287Y40598D01*
G01X5255Y40638D01*
G01X5222Y40677D01*
G01X5188Y40714D01*
G01X5151Y40750D01*
G01X5114Y40785D01*
G01X5075Y40818D01*
G01X5034Y40849D01*
G01X4992Y40878D01*
G01X4949Y40906D01*
G01X4905Y40932D01*
G01X4860Y40956D01*
G01X4814Y40978D01*
G01X4767Y40998D01*
G01X4719Y41016D01*
G01X4671Y41031D01*
G01X4622Y41045D01*
G01X4572Y41057D01*
G01X4522Y41067D01*
G01X4471Y41074D01*
G01X4420Y41080D01*
G01X4369Y41083D01*
G37*
G36*
G01X15797Y33413D02*
G01X15748Y33414D01*
G01X15699Y33413D01*
G01X15650Y33410D01*
G01X15602Y33405D01*
G01X15553Y33397D01*
G01X15505Y33388D01*
G01X15457Y33377D01*
G01X15410Y33363D01*
G01X15363Y33348D01*
G01X15317Y33331D01*
G01X15272Y33311D01*
G01X15228Y33290D01*
G01X15184Y33267D01*
G01X15142Y33242D01*
G01X15101Y33216D01*
G01X15061Y33187D01*
G01X15022Y33157D01*
G01X14984Y33126D01*
G01X14948Y33092D01*
G01X14913Y33058D01*
G01X14880Y33022D01*
G01X14849Y32984D01*
G01X14819Y32945D01*
G01X14790Y32905D01*
G01X14764Y32864D01*
G01X14739Y32822D01*
G01X14716Y32778D01*
G01X14695Y32734D01*
G01X14675Y32689D01*
G01X14658Y32643D01*
G01X14643Y32596D01*
G01X14629Y32549D01*
G01X14618Y32501D01*
G01X14609Y32453D01*
G01X14601Y32404D01*
G01X14596Y32356D01*
G01X14593Y32307D01*
G01X14592Y32258D01*
G01X14593Y32208D01*
G01X14596Y32159D01*
G01X14601Y32111D01*
G01X14609Y32062D01*
G01X14618Y32014D01*
G01X14629Y31966D01*
G01X14643Y31919D01*
G01X14658Y31872D01*
G01X14675Y31826D01*
G01X14695Y31781D01*
G01X14716Y31737D01*
G01X14739Y31693D01*
G01X14764Y31651D01*
G01X14790Y31610D01*
G01X14819Y31570D01*
G01X14849Y31531D01*
G01X14880Y31493D01*
G01X14913Y31457D01*
G01X14948Y31423D01*
G01X14984Y31389D01*
G01X15022Y31358D01*
G01X15061Y31328D01*
G01X15101Y31299D01*
G01X15142Y31273D01*
G01X15184Y31248D01*
G01X15228Y31225D01*
G01X15272Y31204D01*
G01X15317Y31184D01*
G01X15363Y31167D01*
G01X15410Y31152D01*
G01X15457Y31138D01*
G01X15505Y31127D01*
G01X15553Y31118D01*
G01X15602Y31110D01*
G01X15650Y31105D01*
G01X15699Y31102D01*
G01X15748Y31101D01*
G01X15797Y31102D01*
G01X15846Y31105D01*
G01X15895Y31110D01*
G01X15944Y31118D01*
G01X15992Y31127D01*
G01X16040Y31138D01*
G01X16087Y31152D01*
G01X16134Y31167D01*
G01X16180Y31184D01*
G01X16225Y31204D01*
G01X16269Y31225D01*
G01X16312Y31248D01*
G01X16355Y31273D01*
G01X16396Y31299D01*
G01X16436Y31328D01*
G01X16475Y31358D01*
G01X16513Y31389D01*
G01X16549Y31423D01*
G01X16583Y31457D01*
G01X16617Y31493D01*
G01X16648Y31531D01*
G01X16678Y31570D01*
G01X16707Y31610D01*
G01X16733Y31651D01*
G01X16758Y31693D01*
G01X16781Y31737D01*
G01X16802Y31781D01*
G01X16822Y31826D01*
G01X16839Y31872D01*
G01X16854Y31919D01*
G01X16868Y31966D01*
G01X16879Y32014D01*
G01X16888Y32062D01*
G01X16896Y32111D01*
G01X16901Y32159D01*
G01X16904Y32208D01*
G01X16905Y32258D01*
G01X16904Y32307D01*
G01X16901Y32356D01*
G01X16896Y32404D01*
G01X16888Y32453D01*
G01X16879Y32501D01*
G01X16868Y32549D01*
G01X16854Y32596D01*
G01X16839Y32643D01*
G01X16822Y32689D01*
G01X16802Y32734D01*
G01X16781Y32778D01*
G01X16758Y32822D01*
G01X16733Y32864D01*
G01X16707Y32905D01*
G01X16678Y32945D01*
G01X16648Y32984D01*
G01X16617Y33022D01*
G01X16583Y33058D01*
G01X16549Y33092D01*
G01X16513Y33126D01*
G01X16475Y33157D01*
G01X16436Y33187D01*
G01X16396Y33216D01*
G01X16355Y33242D01*
G01X16312Y33267D01*
G01X16269Y33290D01*
G01X16225Y33311D01*
G01X16180Y33331D01*
G01X16134Y33348D01*
G01X16087Y33363D01*
G01X16040Y33377D01*
G01X15992Y33388D01*
G01X15944Y33397D01*
G01X15895Y33405D01*
G01X15846Y33410D01*
G01X15797Y33413D01*
G37*
G36*
G01X18337Y33413D02*
G01X18288Y33414D01*
G01X18239Y33413D01*
G01X18190Y33410D01*
G01X18142Y33405D01*
G01X18093Y33397D01*
G01X18045Y33388D01*
G01X17997Y33377D01*
G01X17950Y33363D01*
G01X17903Y33348D01*
G01X17857Y33331D01*
G01X17812Y33311D01*
G01X17768Y33290D01*
G01X17724Y33267D01*
G01X17682Y33242D01*
G01X17641Y33216D01*
G01X17601Y33187D01*
G01X17562Y33157D01*
G01X17524Y33126D01*
G01X17488Y33092D01*
G01X17453Y33058D01*
G01X17420Y33022D01*
G01X17389Y32984D01*
G01X17359Y32945D01*
G01X17330Y32905D01*
G01X17304Y32864D01*
G01X17279Y32822D01*
G01X17256Y32778D01*
G01X17235Y32734D01*
G01X17215Y32689D01*
G01X17198Y32643D01*
G01X17183Y32596D01*
G01X17169Y32549D01*
G01X17158Y32501D01*
G01X17149Y32453D01*
G01X17141Y32404D01*
G01X17136Y32356D01*
G01X17133Y32307D01*
G01X17132Y32258D01*
G01X17133Y32208D01*
G01X17136Y32159D01*
G01X17141Y32111D01*
G01X17149Y32062D01*
G01X17158Y32014D01*
G01X17169Y31966D01*
G01X17183Y31919D01*
G01X17198Y31872D01*
G01X17215Y31826D01*
G01X17235Y31781D01*
G01X17256Y31737D01*
G01X17279Y31693D01*
G01X17304Y31651D01*
G01X17330Y31610D01*
G01X17359Y31570D01*
G01X17389Y31531D01*
G01X17420Y31493D01*
G01X17453Y31457D01*
G01X17488Y31423D01*
G01X17524Y31389D01*
G01X17562Y31358D01*
G01X17601Y31328D01*
G01X17641Y31299D01*
G01X17682Y31273D01*
G01X17724Y31248D01*
G01X17768Y31225D01*
G01X17812Y31204D01*
G01X17857Y31184D01*
G01X17903Y31167D01*
G01X17950Y31152D01*
G01X17997Y31138D01*
G01X18045Y31127D01*
G01X18093Y31118D01*
G01X18142Y31110D01*
G01X18190Y31105D01*
G01X18239Y31102D01*
G01X18288Y31101D01*
G01X18337Y31102D01*
G01X18386Y31105D01*
G01X18435Y31110D01*
G01X18484Y31118D01*
G01X18532Y31127D01*
G01X18580Y31138D01*
G01X18627Y31152D01*
G01X18674Y31167D01*
G01X18720Y31184D01*
G01X18765Y31204D01*
G01X18809Y31225D01*
G01X18852Y31248D01*
G01X18895Y31273D01*
G01X18936Y31299D01*
G01X18976Y31328D01*
G01X19015Y31358D01*
G01X19053Y31389D01*
G01X19089Y31423D01*
G01X19123Y31457D01*
G01X19157Y31493D01*
G01X19188Y31531D01*
G01X19218Y31570D01*
G01X19247Y31610D01*
G01X19273Y31651D01*
G01X19298Y31693D01*
G01X19321Y31737D01*
G01X19342Y31781D01*
G01X19362Y31826D01*
G01X19379Y31872D01*
G01X19394Y31919D01*
G01X19408Y31966D01*
G01X19419Y32014D01*
G01X19428Y32062D01*
G01X19436Y32111D01*
G01X19441Y32159D01*
G01X19444Y32208D01*
G01X19445Y32258D01*
G01X19444Y32307D01*
G01X19441Y32356D01*
G01X19436Y32404D01*
G01X19428Y32453D01*
G01X19419Y32501D01*
G01X19408Y32549D01*
G01X19394Y32596D01*
G01X19379Y32643D01*
G01X19362Y32689D01*
G01X19342Y32734D01*
G01X19321Y32778D01*
G01X19298Y32822D01*
G01X19273Y32864D01*
G01X19247Y32905D01*
G01X19218Y32945D01*
G01X19188Y32984D01*
G01X19157Y33022D01*
G01X19123Y33058D01*
G01X19089Y33092D01*
G01X19053Y33126D01*
G01X19015Y33157D01*
G01X18976Y33187D01*
G01X18936Y33216D01*
G01X18895Y33242D01*
G01X18852Y33267D01*
G01X18809Y33290D01*
G01X18765Y33311D01*
G01X18720Y33331D01*
G01X18674Y33348D01*
G01X18627Y33363D01*
G01X18580Y33377D01*
G01X18532Y33388D01*
G01X18484Y33397D01*
G01X18435Y33405D01*
G01X18386Y33410D01*
G01X18337Y33413D01*
G37*
G36*
G01X15797Y38697D02*
G01X15748Y38698D01*
G01X15700Y38697D01*
G01X15652Y38694D01*
G01X15604Y38689D01*
G01X15556Y38681D01*
G01X15509Y38672D01*
G01X15462Y38660D01*
G01X15416Y38647D01*
G01X15370Y38631D01*
G01X15325Y38614D01*
G01X15281Y38594D01*
G01X15237Y38573D01*
G01X15195Y38550D01*
G01X15154Y38525D01*
G01X15114Y38498D01*
G01X15075Y38469D01*
G01X15037Y38439D01*
G01X15001Y38407D01*
G01X14966Y38374D01*
G01X14933Y38339D01*
G01X14901Y38303D01*
G01X14871Y38265D01*
G01X14842Y38226D01*
G01X14815Y38186D01*
G01X14790Y38145D01*
G01X14767Y38102D01*
G01X14746Y38059D01*
G01X14726Y38015D01*
G01X14709Y37970D01*
G01X14693Y37924D01*
G01X14680Y37878D01*
G01X14668Y37831D01*
G01X14659Y37784D01*
G01X14651Y37736D01*
G01X14646Y37688D01*
G01X14643Y37640D01*
G01X14642Y37592D01*
G01X14643Y37543D01*
G01X14646Y37495D01*
G01X14651Y37447D01*
G01X14659Y37399D01*
G01X14668Y37352D01*
G01X14680Y37305D01*
G01X14693Y37259D01*
G01X14709Y37213D01*
G01X14726Y37168D01*
G01X14746Y37124D01*
G01X14767Y37081D01*
G01X14790Y37038D01*
G01X14815Y36997D01*
G01X14842Y36957D01*
G01X14871Y36918D01*
G01X14901Y36880D01*
G01X14933Y36844D01*
G01X14966Y36809D01*
G01X15001Y36776D01*
G01X15037Y36744D01*
G01X15075Y36714D01*
G01X15114Y36685D01*
G01X15154Y36658D01*
G01X15195Y36633D01*
G01X15237Y36610D01*
G01X15281Y36589D01*
G01X15325Y36569D01*
G01X15370Y36552D01*
G01X15416Y36536D01*
G01X15462Y36523D01*
G01X15509Y36511D01*
G01X15556Y36502D01*
G01X15604Y36494D01*
G01X15652Y36489D01*
G01X15700Y36486D01*
G01X15748Y36485D01*
G01X15797Y36486D01*
G01X15845Y36489D01*
G01X15893Y36494D01*
G01X15941Y36502D01*
G01X15988Y36511D01*
G01X16035Y36523D01*
G01X16081Y36536D01*
G01X16127Y36552D01*
G01X16172Y36569D01*
G01X16216Y36589D01*
G01X16259Y36610D01*
G01X16302Y36633D01*
G01X16343Y36658D01*
G01X16383Y36685D01*
G01X16422Y36714D01*
G01X16460Y36744D01*
G01X16496Y36776D01*
G01X16531Y36809D01*
G01X16564Y36844D01*
G01X16596Y36880D01*
G01X16626Y36918D01*
G01X16655Y36957D01*
G01X16682Y36997D01*
G01X16707Y37038D01*
G01X16730Y37081D01*
G01X16751Y37124D01*
G01X16771Y37168D01*
G01X16788Y37213D01*
G01X16804Y37259D01*
G01X16817Y37305D01*
G01X16829Y37352D01*
G01X16838Y37399D01*
G01X16845Y37447D01*
G01X16851Y37495D01*
G01X16854Y37543D01*
G01X16855Y37592D01*
G01X16854Y37640D01*
G01X16851Y37688D01*
G01X16845Y37736D01*
G01X16838Y37784D01*
G01X16829Y37831D01*
G01X16817Y37878D01*
G01X16804Y37924D01*
G01X16788Y37970D01*
G01X16771Y38015D01*
G01X16751Y38059D01*
G01X16730Y38102D01*
G01X16707Y38145D01*
G01X16682Y38186D01*
G01X16655Y38226D01*
G01X16626Y38265D01*
G01X16596Y38303D01*
G01X16564Y38339D01*
G01X16531Y38374D01*
G01X16496Y38407D01*
G01X16460Y38439D01*
G01X16422Y38469D01*
G01X16383Y38498D01*
G01X16343Y38525D01*
G01X16302Y38550D01*
G01X16259Y38573D01*
G01X16216Y38594D01*
G01X16172Y38614D01*
G01X16127Y38631D01*
G01X16081Y38647D01*
G01X16035Y38660D01*
G01X15988Y38672D01*
G01X15941Y38681D01*
G01X15893Y38689D01*
G01X15845Y38694D01*
G01X15797Y38697D01*
G37*
G36*
G01X18337Y38697D02*
G01X18288Y38698D01*
G01X18240Y38697D01*
G01X18192Y38694D01*
G01X18144Y38689D01*
G01X18096Y38681D01*
G01X18049Y38672D01*
G01X18002Y38660D01*
G01X17956Y38647D01*
G01X17910Y38631D01*
G01X17865Y38614D01*
G01X17821Y38594D01*
G01X17777Y38573D01*
G01X17735Y38550D01*
G01X17694Y38525D01*
G01X17654Y38498D01*
G01X17615Y38469D01*
G01X17577Y38439D01*
G01X17541Y38407D01*
G01X17506Y38374D01*
G01X17473Y38339D01*
G01X17441Y38303D01*
G01X17411Y38265D01*
G01X17382Y38226D01*
G01X17355Y38186D01*
G01X17330Y38145D01*
G01X17307Y38102D01*
G01X17286Y38059D01*
G01X17266Y38015D01*
G01X17249Y37970D01*
G01X17233Y37924D01*
G01X17220Y37878D01*
G01X17208Y37831D01*
G01X17199Y37784D01*
G01X17191Y37736D01*
G01X17186Y37688D01*
G01X17183Y37640D01*
G01X17182Y37592D01*
G01X17183Y37543D01*
G01X17186Y37495D01*
G01X17191Y37447D01*
G01X17199Y37399D01*
G01X17208Y37352D01*
G01X17220Y37305D01*
G01X17233Y37259D01*
G01X17249Y37213D01*
G01X17266Y37168D01*
G01X17286Y37124D01*
G01X17307Y37081D01*
G01X17330Y37038D01*
G01X17355Y36997D01*
G01X17382Y36957D01*
G01X17411Y36918D01*
G01X17441Y36880D01*
G01X17473Y36844D01*
G01X17506Y36809D01*
G01X17541Y36776D01*
G01X17577Y36744D01*
G01X17615Y36714D01*
G01X17654Y36685D01*
G01X17694Y36658D01*
G01X17735Y36633D01*
G01X17777Y36610D01*
G01X17821Y36589D01*
G01X17865Y36569D01*
G01X17910Y36552D01*
G01X17956Y36536D01*
G01X18002Y36523D01*
G01X18049Y36511D01*
G01X18096Y36502D01*
G01X18144Y36494D01*
G01X18192Y36489D01*
G01X18240Y36486D01*
G01X18288Y36485D01*
G01X18337Y36486D01*
G01X18385Y36489D01*
G01X18433Y36494D01*
G01X18481Y36502D01*
G01X18528Y36511D01*
G01X18575Y36523D01*
G01X18621Y36536D01*
G01X18667Y36552D01*
G01X18712Y36569D01*
G01X18756Y36589D01*
G01X18799Y36610D01*
G01X18842Y36633D01*
G01X18883Y36658D01*
G01X18923Y36685D01*
G01X18962Y36714D01*
G01X19000Y36744D01*
G01X19036Y36776D01*
G01X19071Y36809D01*
G01X19104Y36844D01*
G01X19136Y36880D01*
G01X19166Y36918D01*
G01X19195Y36957D01*
G01X19222Y36997D01*
G01X19247Y37038D01*
G01X19270Y37081D01*
G01X19291Y37124D01*
G01X19311Y37168D01*
G01X19328Y37213D01*
G01X19344Y37259D01*
G01X19357Y37305D01*
G01X19369Y37352D01*
G01X19378Y37399D01*
G01X19385Y37447D01*
G01X19391Y37495D01*
G01X19394Y37543D01*
G01X19395Y37592D01*
G01X19394Y37640D01*
G01X19391Y37688D01*
G01X19385Y37736D01*
G01X19378Y37784D01*
G01X19369Y37831D01*
G01X19357Y37878D01*
G01X19344Y37924D01*
G01X19328Y37970D01*
G01X19311Y38015D01*
G01X19291Y38059D01*
G01X19270Y38102D01*
G01X19247Y38145D01*
G01X19222Y38186D01*
G01X19195Y38226D01*
G01X19166Y38265D01*
G01X19136Y38303D01*
G01X19104Y38339D01*
G01X19071Y38374D01*
G01X19036Y38407D01*
G01X19000Y38439D01*
G01X18962Y38469D01*
G01X18923Y38498D01*
G01X18883Y38525D01*
G01X18842Y38550D01*
G01X18799Y38573D01*
G01X18756Y38594D01*
G01X18712Y38614D01*
G01X18667Y38631D01*
G01X18621Y38647D01*
G01X18575Y38660D01*
G01X18528Y38672D01*
G01X18481Y38681D01*
G01X18433Y38689D01*
G01X18385Y38694D01*
G01X18337Y38697D01*
G37*
G36*
G01X13257Y38697D02*
G01X13208Y38698D01*
G01X13160Y38697D01*
G01X13112Y38694D01*
G01X13064Y38689D01*
G01X13016Y38681D01*
G01X12969Y38672D01*
G01X12922Y38660D01*
G01X12876Y38647D01*
G01X12830Y38631D01*
G01X12785Y38614D01*
G01X12741Y38594D01*
G01X12697Y38573D01*
G01X12655Y38550D01*
G01X12614Y38525D01*
G01X12574Y38498D01*
G01X12535Y38469D01*
G01X12497Y38439D01*
G01X12461Y38407D01*
G01X12426Y38374D01*
G01X12393Y38339D01*
G01X12361Y38303D01*
G01X12331Y38265D01*
G01X12302Y38226D01*
G01X12275Y38186D01*
G01X12250Y38145D01*
G01X12227Y38102D01*
G01X12206Y38059D01*
G01X12186Y38015D01*
G01X12169Y37970D01*
G01X12153Y37924D01*
G01X12140Y37878D01*
G01X12128Y37831D01*
G01X12119Y37784D01*
G01X12111Y37736D01*
G01X12106Y37688D01*
G01X12103Y37640D01*
G01X12102Y37592D01*
G01X12103Y37543D01*
G01X12106Y37495D01*
G01X12111Y37447D01*
G01X12119Y37399D01*
G01X12128Y37352D01*
G01X12140Y37305D01*
G01X12153Y37259D01*
G01X12169Y37213D01*
G01X12186Y37168D01*
G01X12206Y37124D01*
G01X12227Y37081D01*
G01X12250Y37038D01*
G01X12275Y36997D01*
G01X12302Y36957D01*
G01X12331Y36918D01*
G01X12361Y36880D01*
G01X12393Y36844D01*
G01X12426Y36809D01*
G01X12461Y36776D01*
G01X12497Y36744D01*
G01X12535Y36714D01*
G01X12574Y36685D01*
G01X12614Y36658D01*
G01X12655Y36633D01*
G01X12697Y36610D01*
G01X12741Y36589D01*
G01X12785Y36569D01*
G01X12830Y36552D01*
G01X12876Y36536D01*
G01X12922Y36523D01*
G01X12969Y36511D01*
G01X13016Y36502D01*
G01X13064Y36494D01*
G01X13112Y36489D01*
G01X13160Y36486D01*
G01X13208Y36485D01*
G01X13257Y36486D01*
G01X13305Y36489D01*
G01X13353Y36494D01*
G01X13401Y36502D01*
G01X13448Y36511D01*
G01X13495Y36523D01*
G01X13541Y36536D01*
G01X13587Y36552D01*
G01X13632Y36569D01*
G01X13676Y36589D01*
G01X13719Y36610D01*
G01X13762Y36633D01*
G01X13803Y36658D01*
G01X13843Y36685D01*
G01X13882Y36714D01*
G01X13920Y36744D01*
G01X13956Y36776D01*
G01X13991Y36809D01*
G01X14024Y36844D01*
G01X14056Y36880D01*
G01X14086Y36918D01*
G01X14115Y36957D01*
G01X14142Y36997D01*
G01X14167Y37038D01*
G01X14190Y37081D01*
G01X14211Y37124D01*
G01X14231Y37168D01*
G01X14248Y37213D01*
G01X14264Y37259D01*
G01X14277Y37305D01*
G01X14289Y37352D01*
G01X14298Y37399D01*
G01X14305Y37447D01*
G01X14311Y37495D01*
G01X14314Y37543D01*
G01X14315Y37592D01*
G01X14314Y37640D01*
G01X14311Y37688D01*
G01X14305Y37736D01*
G01X14298Y37784D01*
G01X14289Y37831D01*
G01X14277Y37878D01*
G01X14264Y37924D01*
G01X14248Y37970D01*
G01X14231Y38015D01*
G01X14211Y38059D01*
G01X14190Y38102D01*
G01X14167Y38145D01*
G01X14142Y38186D01*
G01X14115Y38226D01*
G01X14086Y38265D01*
G01X14056Y38303D01*
G01X14024Y38339D01*
G01X13991Y38374D01*
G01X13956Y38407D01*
G01X13920Y38439D01*
G01X13882Y38469D01*
G01X13843Y38498D01*
G01X13803Y38525D01*
G01X13762Y38550D01*
G01X13719Y38573D01*
G01X13676Y38594D01*
G01X13632Y38614D01*
G01X13587Y38631D01*
G01X13541Y38647D01*
G01X13495Y38660D01*
G01X13448Y38672D01*
G01X13401Y38681D01*
G01X13353Y38689D01*
G01X13305Y38694D01*
G01X13257Y38697D01*
G37*
G36*
G01X29998Y40921D02*
G01X28423Y40921D01*
G01X28399Y40920D01*
G01X28376Y40917D01*
G01X28353Y40912D01*
G01X28330Y40904D01*
G01X28309Y40895D01*
G01X28288Y40883D01*
G01X28268Y40870D01*
G01X28250Y40854D01*
G01X28233Y40838D01*
G01X28218Y40819D01*
G01X28205Y40800D01*
G01X28193Y40779D01*
G01X28184Y40758D01*
G01X28176Y40735D01*
G01X28171Y40712D01*
G01X28168Y40689D01*
G01X28166Y40665D01*
G01X28166Y39090D01*
G01X28168Y39066D01*
G01X28171Y39043D01*
G01X28176Y39020D01*
G01X28184Y38997D01*
G01X28193Y38976D01*
G01X28205Y38955D01*
G01X28218Y38936D01*
G01X28233Y38917D01*
G01X28250Y38901D01*
G01X28268Y38885D01*
G01X28288Y38872D01*
G01X28309Y38860D01*
G01X28330Y38851D01*
G01X28353Y38843D01*
G01X28376Y38838D01*
G01X28399Y38835D01*
G01X28423Y38834D01*
G01X29998Y38834D01*
G01X30021Y38835D01*
G01X30045Y38838D01*
G01X30068Y38843D01*
G01X30090Y38851D01*
G01X30112Y38860D01*
G01X30133Y38872D01*
G01X30152Y38885D01*
G01X30171Y38901D01*
G01X30187Y38917D01*
G01X30203Y38936D01*
G01X30216Y38955D01*
G01X30227Y38976D01*
G01X30237Y38997D01*
G01X30245Y39020D01*
G01X30250Y39043D01*
G01X30253Y39066D01*
G01X30254Y39090D01*
G01X30254Y40665D01*
G01X30253Y40689D01*
G01X30250Y40712D01*
G01X30245Y40735D01*
G01X30237Y40758D01*
G01X30227Y40779D01*
G01X30216Y40800D01*
G01X30203Y40819D01*
G01X30187Y40838D01*
G01X30171Y40854D01*
G01X30152Y40870D01*
G01X30133Y40883D01*
G01X30112Y40895D01*
G01X30090Y40904D01*
G01X30068Y40912D01*
G01X30045Y40917D01*
G01X30021Y40920D01*
G01X29998Y40921D01*
G37*
G36*
G01X33702Y33935D02*
G01X33655Y33936D01*
G01X33609Y33935D01*
G01X33562Y33932D01*
G01X33515Y33927D01*
G01X33469Y33920D01*
G01X33423Y33910D01*
G01X33378Y33899D01*
G01X33333Y33885D01*
G01X33289Y33870D01*
G01X33245Y33852D01*
G01X33202Y33833D01*
G01X33161Y33812D01*
G01X33120Y33789D01*
G01X33080Y33764D01*
G01X33042Y33737D01*
G01X33005Y33709D01*
G01X32969Y33679D01*
G01X32934Y33647D01*
G01X32901Y33614D01*
G01X32869Y33579D01*
G01X32839Y33543D01*
G01X32811Y33506D01*
G01X32784Y33468D01*
G01X32759Y33428D01*
G01X32736Y33387D01*
G01X32715Y33345D01*
G01X32695Y33303D01*
G01X32678Y33259D01*
G01X32663Y33215D01*
G01X32649Y33170D01*
G01X32638Y33125D01*
G01X32628Y33079D01*
G01X32621Y33033D01*
G01X32616Y32986D01*
G01X32613Y32939D01*
G01X32611Y32893D01*
G01X32611Y32892D01*
G01X32613Y32846D01*
G01X32616Y32799D01*
G01X32621Y32752D01*
G01X32628Y32706D01*
G01X32638Y32660D01*
G01X32649Y32615D01*
G01X32663Y32570D01*
G01X32678Y32526D01*
G01X32695Y32482D01*
G01X32715Y32440D01*
G01X32736Y32398D01*
G01X32759Y32357D01*
G01X32784Y32317D01*
G01X32811Y32279D01*
G01X32839Y32242D01*
G01X32869Y32206D01*
G01X32901Y32171D01*
G01X32934Y32138D01*
G01X32969Y32106D01*
G01X33005Y32076D01*
G01X33042Y32048D01*
G01X33080Y32021D01*
G01X33120Y31996D01*
G01X33161Y31973D01*
G01X33202Y31952D01*
G01X33245Y31933D01*
G01X33289Y31915D01*
G01X33333Y31900D01*
G01X33378Y31886D01*
G01X33423Y31875D01*
G01X33469Y31865D01*
G01X33515Y31858D01*
G01X33562Y31853D01*
G01X33609Y31850D01*
G01X33655Y31849D01*
G01X33702Y31850D01*
G01X33749Y31853D01*
G01X33796Y31858D01*
G01X33842Y31865D01*
G01X33888Y31875D01*
G01X33933Y31886D01*
G01X33978Y31900D01*
G01X34022Y31915D01*
G01X34066Y31933D01*
G01X34108Y31952D01*
G01X34150Y31973D01*
G01X34191Y31996D01*
G01X34231Y32021D01*
G01X34269Y32048D01*
G01X34306Y32076D01*
G01X34342Y32106D01*
G01X34377Y32138D01*
G01X34410Y32171D01*
G01X34442Y32206D01*
G01X34472Y32242D01*
G01X34500Y32279D01*
G01X34527Y32317D01*
G01X34552Y32357D01*
G01X34575Y32398D01*
G01X34596Y32440D01*
G01X34615Y32482D01*
G01X34633Y32526D01*
G01X34648Y32570D01*
G01X34662Y32615D01*
G01X34673Y32660D01*
G01X34683Y32706D01*
G01X34690Y32752D01*
G01X34695Y32799D01*
G01X34698Y32846D01*
G01X34699Y32893D01*
G01X34698Y32939D01*
G01X34695Y32986D01*
G01X34690Y33033D01*
G01X34683Y33079D01*
G01X34673Y33125D01*
G01X34662Y33170D01*
G01X34648Y33215D01*
G01X34633Y33259D01*
G01X34615Y33303D01*
G01X34596Y33345D01*
G01X34575Y33387D01*
G01X34552Y33428D01*
G01X34527Y33468D01*
G01X34500Y33506D01*
G01X34472Y33543D01*
G01X34442Y33579D01*
G01X34410Y33614D01*
G01X34377Y33647D01*
G01X34342Y33679D01*
G01X34306Y33709D01*
G01X34269Y33737D01*
G01X34231Y33764D01*
G01X34191Y33789D01*
G01X34150Y33812D01*
G01X34108Y33833D01*
G01X34066Y33852D01*
G01X34022Y33870D01*
G01X33978Y33885D01*
G01X33933Y33899D01*
G01X33888Y33910D01*
G01X33842Y33920D01*
G01X33796Y33927D01*
G01X33749Y33932D01*
G01X33702Y33935D01*
G37*
G36*
G01X31797Y40920D02*
G01X31750Y40921D01*
G01X31704Y40920D01*
G01X31657Y40917D01*
G01X31610Y40912D01*
G01X31564Y40905D01*
G01X31518Y40895D01*
G01X31473Y40884D01*
G01X31428Y40870D01*
G01X31384Y40855D01*
G01X31340Y40837D01*
G01X31297Y40818D01*
G01X31256Y40797D01*
G01X31215Y40774D01*
G01X31175Y40749D01*
G01X31137Y40722D01*
G01X31100Y40694D01*
G01X31064Y40664D01*
G01X31029Y40632D01*
G01X30996Y40599D01*
G01X30964Y40564D01*
G01X30934Y40528D01*
G01X30906Y40491D01*
G01X30879Y40453D01*
G01X30854Y40413D01*
G01X30831Y40372D01*
G01X30810Y40330D01*
G01X30790Y40288D01*
G01X30773Y40244D01*
G01X30758Y40200D01*
G01X30744Y40155D01*
G01X30733Y40110D01*
G01X30723Y40064D01*
G01X30716Y40018D01*
G01X30711Y39971D01*
G01X30708Y39924D01*
G01X30706Y39878D01*
G01X30706Y39877D01*
G01X30708Y39831D01*
G01X30711Y39784D01*
G01X30716Y39737D01*
G01X30723Y39691D01*
G01X30733Y39645D01*
G01X30744Y39600D01*
G01X30758Y39555D01*
G01X30773Y39511D01*
G01X30790Y39467D01*
G01X30810Y39425D01*
G01X30831Y39383D01*
G01X30854Y39342D01*
G01X30879Y39302D01*
G01X30906Y39264D01*
G01X30934Y39227D01*
G01X30964Y39191D01*
G01X30996Y39156D01*
G01X31029Y39123D01*
G01X31064Y39091D01*
G01X31100Y39061D01*
G01X31137Y39033D01*
G01X31175Y39006D01*
G01X31215Y38981D01*
G01X31256Y38958D01*
G01X31297Y38937D01*
G01X31340Y38918D01*
G01X31384Y38900D01*
G01X31428Y38885D01*
G01X31473Y38871D01*
G01X31518Y38860D01*
G01X31564Y38850D01*
G01X31610Y38843D01*
G01X31657Y38838D01*
G01X31704Y38835D01*
G01X31750Y38834D01*
G01X31797Y38835D01*
G01X31844Y38838D01*
G01X31891Y38843D01*
G01X31937Y38850D01*
G01X31983Y38860D01*
G01X32028Y38871D01*
G01X32073Y38885D01*
G01X32117Y38900D01*
G01X32161Y38918D01*
G01X32203Y38937D01*
G01X32245Y38958D01*
G01X32286Y38981D01*
G01X32326Y39006D01*
G01X32364Y39033D01*
G01X32401Y39061D01*
G01X32437Y39091D01*
G01X32472Y39123D01*
G01X32505Y39156D01*
G01X32537Y39191D01*
G01X32567Y39227D01*
G01X32595Y39264D01*
G01X32622Y39302D01*
G01X32647Y39342D01*
G01X32670Y39383D01*
G01X32691Y39425D01*
G01X32710Y39467D01*
G01X32728Y39511D01*
G01X32743Y39555D01*
G01X32757Y39600D01*
G01X32768Y39645D01*
G01X32778Y39691D01*
G01X32785Y39737D01*
G01X32790Y39784D01*
G01X32793Y39831D01*
G01X32794Y39878D01*
G01X32793Y39924D01*
G01X32790Y39971D01*
G01X32785Y40018D01*
G01X32778Y40064D01*
G01X32768Y40110D01*
G01X32757Y40155D01*
G01X32743Y40200D01*
G01X32728Y40244D01*
G01X32710Y40288D01*
G01X32691Y40330D01*
G01X32670Y40372D01*
G01X32647Y40413D01*
G01X32622Y40453D01*
G01X32595Y40491D01*
G01X32567Y40528D01*
G01X32537Y40564D01*
G01X32505Y40599D01*
G01X32472Y40632D01*
G01X32437Y40664D01*
G01X32401Y40694D01*
G01X32364Y40722D01*
G01X32326Y40749D01*
G01X32286Y40774D01*
G01X32245Y40797D01*
G01X32203Y40818D01*
G01X32161Y40837D01*
G01X32117Y40855D01*
G01X32073Y40870D01*
G01X32028Y40884D01*
G01X31983Y40895D01*
G01X31937Y40905D01*
G01X31891Y40912D01*
G01X31844Y40917D01*
G01X31797Y40920D01*
G37*
G36*
G01X34337Y40920D02*
G01X34290Y40921D01*
G01X34244Y40920D01*
G01X34197Y40917D01*
G01X34150Y40912D01*
G01X34104Y40905D01*
G01X34058Y40895D01*
G01X34013Y40884D01*
G01X33968Y40870D01*
G01X33924Y40855D01*
G01X33880Y40837D01*
G01X33837Y40818D01*
G01X33796Y40797D01*
G01X33755Y40774D01*
G01X33715Y40749D01*
G01X33677Y40722D01*
G01X33640Y40694D01*
G01X33604Y40664D01*
G01X33569Y40632D01*
G01X33536Y40599D01*
G01X33504Y40564D01*
G01X33474Y40528D01*
G01X33446Y40491D01*
G01X33419Y40453D01*
G01X33394Y40413D01*
G01X33371Y40372D01*
G01X33350Y40330D01*
G01X33330Y40288D01*
G01X33313Y40244D01*
G01X33298Y40200D01*
G01X33284Y40155D01*
G01X33273Y40110D01*
G01X33263Y40064D01*
G01X33256Y40018D01*
G01X33251Y39971D01*
G01X33248Y39924D01*
G01X33246Y39878D01*
G01X33246Y39877D01*
G01X33248Y39831D01*
G01X33251Y39784D01*
G01X33256Y39737D01*
G01X33263Y39691D01*
G01X33273Y39645D01*
G01X33284Y39600D01*
G01X33298Y39555D01*
G01X33313Y39511D01*
G01X33330Y39467D01*
G01X33350Y39425D01*
G01X33371Y39383D01*
G01X33394Y39342D01*
G01X33419Y39302D01*
G01X33446Y39264D01*
G01X33474Y39227D01*
G01X33504Y39191D01*
G01X33536Y39156D01*
G01X33569Y39123D01*
G01X33604Y39091D01*
G01X33640Y39061D01*
G01X33677Y39033D01*
G01X33715Y39006D01*
G01X33755Y38981D01*
G01X33796Y38958D01*
G01X33837Y38937D01*
G01X33880Y38918D01*
G01X33924Y38900D01*
G01X33968Y38885D01*
G01X34013Y38871D01*
G01X34058Y38860D01*
G01X34104Y38850D01*
G01X34150Y38843D01*
G01X34197Y38838D01*
G01X34244Y38835D01*
G01X34290Y38834D01*
G01X34337Y38835D01*
G01X34384Y38838D01*
G01X34431Y38843D01*
G01X34477Y38850D01*
G01X34523Y38860D01*
G01X34568Y38871D01*
G01X34613Y38885D01*
G01X34657Y38900D01*
G01X34701Y38918D01*
G01X34743Y38937D01*
G01X34785Y38958D01*
G01X34826Y38981D01*
G01X34866Y39006D01*
G01X34904Y39033D01*
G01X34941Y39061D01*
G01X34977Y39091D01*
G01X35012Y39123D01*
G01X35045Y39156D01*
G01X35077Y39191D01*
G01X35107Y39227D01*
G01X35135Y39264D01*
G01X35162Y39302D01*
G01X35187Y39342D01*
G01X35210Y39383D01*
G01X35231Y39425D01*
G01X35250Y39467D01*
G01X35268Y39511D01*
G01X35283Y39555D01*
G01X35297Y39600D01*
G01X35308Y39645D01*
G01X35318Y39691D01*
G01X35325Y39737D01*
G01X35330Y39784D01*
G01X35333Y39831D01*
G01X35334Y39878D01*
G01X35333Y39924D01*
G01X35330Y39971D01*
G01X35325Y40018D01*
G01X35318Y40064D01*
G01X35308Y40110D01*
G01X35297Y40155D01*
G01X35283Y40200D01*
G01X35268Y40244D01*
G01X35250Y40288D01*
G01X35231Y40330D01*
G01X35210Y40372D01*
G01X35187Y40413D01*
G01X35162Y40453D01*
G01X35135Y40491D01*
G01X35107Y40528D01*
G01X35077Y40564D01*
G01X35045Y40599D01*
G01X35012Y40632D01*
G01X34977Y40664D01*
G01X34941Y40694D01*
G01X34904Y40722D01*
G01X34866Y40749D01*
G01X34826Y40774D01*
G01X34785Y40797D01*
G01X34743Y40818D01*
G01X34701Y40837D01*
G01X34657Y40855D01*
G01X34613Y40870D01*
G01X34568Y40884D01*
G01X34523Y40895D01*
G01X34477Y40905D01*
G01X34431Y40912D01*
G01X34384Y40917D01*
G01X34337Y40920D01*
G37*
G36*
G01X33230Y14721D02*
G01X33171Y14744D01*
G01X33171Y13779D01*
G01X34232Y13779D01*
G01X34203Y13836D01*
G01X34173Y13892D01*
G01X34141Y13947D01*
G01X34106Y14001D01*
G01X34070Y14054D01*
G01X34032Y14106D01*
G01X33993Y14156D01*
G01X33952Y14205D01*
G01X33909Y14253D01*
G01X33865Y14299D01*
G01X33819Y14343D01*
G01X33772Y14386D01*
G01X33723Y14428D01*
G01X33673Y14468D01*
G01X33621Y14506D01*
G01X33569Y14542D01*
G01X33515Y14576D01*
G01X33460Y14609D01*
G01X33404Y14640D01*
G01X33347Y14669D01*
G01X33289Y14696D01*
G01X33230Y14721D01*
G37*
G36*
G01X31346Y12128D02*
G01X30285Y12128D01*
G01X30313Y12071D01*
G01X30344Y12015D01*
G01X30376Y11960D01*
G01X30411Y11906D01*
G01X30447Y11853D01*
G01X30484Y11801D01*
G01X30524Y11751D01*
G01X30565Y11702D01*
G01X30608Y11654D01*
G01X30652Y11608D01*
G01X30698Y11564D01*
G01X30745Y11521D01*
G01X30794Y11479D01*
G01X30844Y11439D01*
G01X30895Y11401D01*
G01X30948Y11365D01*
G01X31002Y11331D01*
G01X31057Y11298D01*
G01X31113Y11267D01*
G01X31170Y11238D01*
G01X31228Y11211D01*
G01X31287Y11186D01*
G01X31346Y11163D01*
G01X31346Y12128D01*
G37*
G36*
G01X34232Y12128D02*
G01X33171Y12128D01*
G01X33171Y11163D01*
G01X33230Y11186D01*
G01X33289Y11211D01*
G01X33347Y11238D01*
G01X33404Y11267D01*
G01X33460Y11298D01*
G01X33515Y11331D01*
G01X33569Y11365D01*
G01X33621Y11401D01*
G01X33673Y11439D01*
G01X33723Y11479D01*
G01X33772Y11521D01*
G01X33819Y11564D01*
G01X33865Y11608D01*
G01X33909Y11654D01*
G01X33952Y11702D01*
G01X33993Y11751D01*
G01X34032Y11801D01*
G01X34070Y11853D01*
G01X34106Y11906D01*
G01X34141Y11960D01*
G01X34173Y12015D01*
G01X34203Y12071D01*
G01X34232Y12128D01*
G37*
G36*
G01X31346Y13779D02*
G01X31346Y14744D01*
G01X31287Y14721D01*
G01X31228Y14696D01*
G01X31170Y14669D01*
G01X31113Y14640D01*
G01X31057Y14609D01*
G01X31002Y14576D01*
G01X30948Y14542D01*
G01X30895Y14506D01*
G01X30844Y14468D01*
G01X30794Y14428D01*
G01X30745Y14386D01*
G01X30698Y14343D01*
G01X30652Y14299D01*
G01X30608Y14253D01*
G01X30565Y14205D01*
G01X30524Y14156D01*
G01X30484Y14106D01*
G01X30447Y14054D01*
G01X30411Y14001D01*
G01X30376Y13947D01*
G01X30344Y13892D01*
G01X30313Y13836D01*
G01X30285Y13779D01*
G01X31346Y13779D01*
G37*
G36*
G01X11798Y21598D02*
G01X11041Y21598D01*
G01X11041Y20841D01*
G01X11541Y20841D01*
G01X11565Y20842D01*
G01X11589Y20845D01*
G01X11612Y20851D01*
G01X11634Y20858D01*
G01X11656Y20868D01*
G01X11676Y20879D01*
G01X11696Y20893D01*
G01X11714Y20908D01*
G01X11731Y20925D01*
G01X11746Y20943D01*
G01X11760Y20962D01*
G01X11771Y20983D01*
G01X11781Y21005D01*
G01X11788Y21027D01*
G01X11794Y21050D01*
G01X11797Y21074D01*
G01X11798Y21098D01*
G01X11798Y21598D01*
G37*
G36*
G01X11541Y23354D02*
G01X11041Y23354D01*
G01X11041Y22597D01*
G01X11798Y22597D01*
G01X11798Y23097D01*
G01X11797Y23121D01*
G01X11794Y23145D01*
G01X11788Y23168D01*
G01X11781Y23190D01*
G01X11771Y23212D01*
G01X11760Y23233D01*
G01X11746Y23252D01*
G01X11731Y23270D01*
G01X11714Y23287D01*
G01X11696Y23302D01*
G01X11676Y23316D01*
G01X11656Y23327D01*
G01X11634Y23337D01*
G01X11612Y23344D01*
G01X11589Y23350D01*
G01X11565Y23353D01*
G01X11541Y23354D01*
G37*
G36*
G01X10041Y21598D02*
G01X9285Y21598D01*
G01X9285Y21098D01*
G01X9286Y21074D01*
G01X9289Y21050D01*
G01X9295Y21027D01*
G01X9302Y21005D01*
G01X9312Y20983D01*
G01X9323Y20962D01*
G01X9337Y20943D01*
G01X9352Y20925D01*
G01X9369Y20908D01*
G01X9387Y20893D01*
G01X9406Y20879D01*
G01X9427Y20868D01*
G01X9449Y20858D01*
G01X9471Y20851D01*
G01X9494Y20845D01*
G01X9518Y20842D01*
G01X9541Y20841D01*
G01X10041Y20841D01*
G01X10041Y21598D01*
G37*
G36*
G01X27673Y21598D02*
G01X26916Y21598D01*
G01X26916Y20841D01*
G01X27416Y20841D01*
G01X27440Y20842D01*
G01X27464Y20845D01*
G01X27487Y20851D01*
G01X27509Y20858D01*
G01X27531Y20868D01*
G01X27551Y20879D01*
G01X27571Y20893D01*
G01X27589Y20908D01*
G01X27606Y20925D01*
G01X27621Y20943D01*
G01X27635Y20962D01*
G01X27646Y20983D01*
G01X27656Y21005D01*
G01X27663Y21027D01*
G01X27669Y21050D01*
G01X27672Y21074D01*
G01X27673Y21098D01*
G01X27673Y21598D01*
G37*
G36*
G01X27416Y23354D02*
G01X26916Y23354D01*
G01X26916Y22597D01*
G01X27673Y22597D01*
G01X27673Y23097D01*
G01X27672Y23121D01*
G01X27669Y23145D01*
G01X27663Y23168D01*
G01X27656Y23190D01*
G01X27646Y23212D01*
G01X27635Y23233D01*
G01X27621Y23252D01*
G01X27606Y23270D01*
G01X27589Y23287D01*
G01X27571Y23302D01*
G01X27551Y23316D01*
G01X27531Y23327D01*
G01X27509Y23337D01*
G01X27487Y23344D01*
G01X27464Y23350D01*
G01X27440Y23353D01*
G01X27416Y23354D01*
G37*
G36*
G01X25916Y21598D02*
G01X25160Y21598D01*
G01X25160Y21098D01*
G01X25161Y21074D01*
G01X25164Y21050D01*
G01X25170Y21027D01*
G01X25177Y21005D01*
G01X25187Y20983D01*
G01X25198Y20962D01*
G01X25212Y20943D01*
G01X25227Y20925D01*
G01X25244Y20908D01*
G01X25262Y20893D01*
G01X25281Y20879D01*
G01X25302Y20868D01*
G01X25324Y20858D01*
G01X25346Y20851D01*
G01X25369Y20845D01*
G01X25393Y20842D01*
G01X25416Y20841D01*
G01X25916Y20841D01*
G01X25916Y21598D01*
G37*
G36*
G01X25916Y23354D02*
G01X25416Y23354D01*
G01X25393Y23353D01*
G01X25369Y23350D01*
G01X25346Y23344D01*
G01X25324Y23337D01*
G01X25302Y23327D01*
G01X25281Y23316D01*
G01X25262Y23302D01*
G01X25244Y23287D01*
G01X25227Y23270D01*
G01X25212Y23252D01*
G01X25198Y23233D01*
G01X25187Y23212D01*
G01X25177Y23190D01*
G01X25170Y23168D01*
G01X25164Y23145D01*
G01X25161Y23121D01*
G01X25160Y23097D01*
G01X25160Y22597D01*
G01X25916Y22597D01*
G01X25916Y23354D01*
G37*
G36*
G01X10041Y23354D02*
G01X9541Y23354D01*
G01X9518Y23353D01*
G01X9494Y23350D01*
G01X9471Y23344D01*
G01X9449Y23337D01*
G01X9427Y23327D01*
G01X9406Y23316D01*
G01X9387Y23302D01*
G01X9369Y23287D01*
G01X9352Y23270D01*
G01X9337Y23252D01*
G01X9323Y23233D01*
G01X9312Y23212D01*
G01X9302Y23190D01*
G01X9295Y23168D01*
G01X9289Y23145D01*
G01X9286Y23121D01*
G01X9285Y23097D01*
G01X9285Y22597D01*
G01X10041Y22597D01*
G01X10041Y23354D01*
G37*
G36*
G01X8065Y39403D02*
G01X7333Y39403D01*
G01X7333Y38671D01*
G01X7808Y38671D01*
G01X7832Y38672D01*
G01X7856Y38675D01*
G01X7879Y38681D01*
G01X7901Y38688D01*
G01X7923Y38698D01*
G01X7943Y38709D01*
G01X7963Y38723D01*
G01X7981Y38738D01*
G01X7998Y38755D01*
G01X8013Y38773D01*
G01X8027Y38792D01*
G01X8038Y38813D01*
G01X8048Y38835D01*
G01X8055Y38857D01*
G01X8061Y38880D01*
G01X8064Y38904D01*
G01X8065Y38927D01*
G01X8065Y39403D01*
G37*
G36*
G01X6383Y39403D02*
G01X5652Y39403D01*
G01X5652Y38927D01*
G01X5653Y38904D01*
G01X5656Y38880D01*
G01X5662Y38857D01*
G01X5669Y38835D01*
G01X5679Y38813D01*
G01X5690Y38792D01*
G01X5704Y38773D01*
G01X5719Y38755D01*
G01X5736Y38738D01*
G01X5754Y38723D01*
G01X5773Y38709D01*
G01X5794Y38698D01*
G01X5816Y38688D01*
G01X5838Y38681D01*
G01X5861Y38675D01*
G01X5885Y38672D01*
G01X5908Y38671D01*
G01X6383Y38671D01*
G01X6383Y39403D01*
G37*
G36*
G01X7808Y41084D02*
G01X7333Y41084D01*
G01X7333Y40353D01*
G01X8065Y40353D01*
G01X8065Y40827D01*
G01X8064Y40851D01*
G01X8061Y40875D01*
G01X8055Y40898D01*
G01X8048Y40920D01*
G01X8038Y40942D01*
G01X8027Y40963D01*
G01X8013Y40982D01*
G01X7998Y41000D01*
G01X7981Y41017D01*
G01X7963Y41032D01*
G01X7943Y41046D01*
G01X7923Y41057D01*
G01X7901Y41067D01*
G01X7879Y41074D01*
G01X7856Y41080D01*
G01X7832Y41083D01*
G01X7808Y41084D01*
G37*
G36*
G01X6383Y41084D02*
G01X5908Y41084D01*
G01X5885Y41083D01*
G01X5861Y41080D01*
G01X5838Y41074D01*
G01X5816Y41067D01*
G01X5794Y41057D01*
G01X5773Y41046D01*
G01X5754Y41032D01*
G01X5736Y41017D01*
G01X5719Y41000D01*
G01X5704Y40982D01*
G01X5690Y40963D01*
G01X5679Y40942D01*
G01X5669Y40920D01*
G01X5662Y40898D01*
G01X5656Y40875D01*
G01X5653Y40851D01*
G01X5652Y40827D01*
G01X5652Y40353D01*
G01X6383Y40353D01*
G01X6383Y41084D01*
G37*
G36*
G01X12758Y32707D02*
G01X12758Y33323D01*
G01X12713Y33303D01*
G01X12669Y33280D01*
G01X12626Y33256D01*
G01X12583Y33231D01*
G01X12542Y33203D01*
G01X12502Y33173D01*
G01X12464Y33142D01*
G01X12426Y33110D01*
G01X12356Y33040D01*
G01X12324Y33002D01*
G01X12293Y32964D01*
G01X12263Y32924D01*
G01X12235Y32883D01*
G01X12185Y32797D01*
G01X12163Y32753D01*
G01X12143Y32707D01*
G01X12758Y32707D01*
G37*
G36*
G01X13704Y33303D02*
G01X13658Y33323D01*
G01X13658Y32707D01*
G01X14274Y32707D01*
G01X14254Y32753D01*
G01X14231Y32797D01*
G01X14207Y32840D01*
G01X14181Y32883D01*
G01X14154Y32924D01*
G01X14124Y32964D01*
G01X14093Y33002D01*
G01X14061Y33040D01*
G01X14026Y33075D01*
G01X13990Y33110D01*
G01X13953Y33142D01*
G01X13915Y33173D01*
G01X13875Y33203D01*
G01X13834Y33231D01*
G01X13791Y33256D01*
G01X13748Y33280D01*
G01X13704Y33303D01*
G37*
G36*
G01X14274Y31808D02*
G01X13658Y31808D01*
G01X13658Y31192D01*
G01X13704Y31212D01*
G01X13748Y31235D01*
G01X13791Y31259D01*
G01X13834Y31284D01*
G01X13875Y31312D01*
G01X13915Y31342D01*
G01X13953Y31373D01*
G01X13990Y31405D01*
G01X14026Y31440D01*
G01X14061Y31475D01*
G01X14093Y31513D01*
G01X14124Y31551D01*
G01X14154Y31591D01*
G01X14181Y31632D01*
G01X14207Y31675D01*
G01X14231Y31718D01*
G01X14254Y31762D01*
G01X14274Y31808D01*
G37*
G36*
G01X12758Y31808D02*
G01X12143Y31808D01*
G01X12163Y31762D01*
G01X12185Y31718D01*
G01X12235Y31632D01*
G01X12263Y31591D01*
G01X12293Y31551D01*
G01X12324Y31513D01*
G01X12356Y31475D01*
G01X12426Y31405D01*
G01X12464Y31373D01*
G01X12502Y31342D01*
G01X12542Y31312D01*
G01X12583Y31284D01*
G01X12626Y31259D01*
G01X12669Y31235D01*
G01X12713Y31212D01*
G01X12758Y31192D01*
G01X12758Y31808D01*
G37*
G36*
G01X21850Y37167D02*
G01X21253Y37167D01*
G01X21253Y36570D01*
G01X21297Y36589D01*
G01X21341Y36611D01*
G01X21383Y36634D01*
G01X21424Y36659D01*
G01X21464Y36686D01*
G01X21502Y36714D01*
G01X21540Y36744D01*
G01X21576Y36776D01*
G01X21611Y36809D01*
G01X21644Y36844D01*
G01X21676Y36880D01*
G01X21706Y36917D01*
G01X21734Y36956D01*
G01X21761Y36996D01*
G01X21786Y37037D01*
G01X21809Y37079D01*
G01X21831Y37123D01*
G01X21850Y37167D01*
G37*
G36*
G01X21297Y38594D02*
G01X21253Y38613D01*
G01X21253Y38017D01*
G01X21850Y38017D01*
G01X21831Y38060D01*
G01X21809Y38104D01*
G01X21786Y38146D01*
G01X21761Y38187D01*
G01X21734Y38227D01*
G01X21706Y38266D01*
G01X21676Y38303D01*
G01X21644Y38339D01*
G01X21611Y38374D01*
G01X21576Y38407D01*
G01X21540Y38439D01*
G01X21502Y38469D01*
G01X21464Y38497D01*
G01X21424Y38524D01*
G01X21383Y38549D01*
G01X21341Y38572D01*
G01X21297Y38594D01*
G37*
G36*
G01X20403Y38017D02*
G01X20403Y38613D01*
G01X20359Y38594D01*
G01X20316Y38572D01*
G01X20274Y38549D01*
G01X20233Y38524D01*
G01X20193Y38497D01*
G01X20154Y38469D01*
G01X20117Y38439D01*
G01X20081Y38407D01*
G01X20046Y38374D01*
G01X20013Y38339D01*
G01X19981Y38303D01*
G01X19951Y38266D01*
G01X19922Y38227D01*
G01X19896Y38187D01*
G01X19871Y38146D01*
G01X19848Y38104D01*
G01X19826Y38060D01*
G01X19807Y38017D01*
G01X20403Y38017D01*
G37*
G36*
G01X20403Y37167D02*
G01X19807Y37167D01*
G01X19826Y37123D01*
G01X19848Y37079D01*
G01X19871Y37037D01*
G01X19896Y36996D01*
G01X19922Y36956D01*
G01X19951Y36917D01*
G01X19981Y36880D01*
G01X20013Y36844D01*
G01X20046Y36809D01*
G01X20081Y36776D01*
G01X20117Y36744D01*
G01X20154Y36714D01*
G01X20193Y36686D01*
G01X20233Y36659D01*
G01X20274Y36634D01*
G01X20316Y36611D01*
G01X20359Y36589D01*
G01X20403Y36570D01*
G01X20403Y37167D01*
G37*
G36*
G01X33262Y30746D02*
G01X33262Y31319D01*
G01X33219Y31301D01*
G01X33178Y31281D01*
G01X33137Y31259D01*
G01X33097Y31235D01*
G01X33059Y31209D01*
G01X33022Y31182D01*
G01X32985Y31153D01*
G01X32951Y31123D01*
G01X32917Y31091D01*
G01X32885Y31057D01*
G01X32855Y31022D01*
G01X32826Y30986D01*
G01X32799Y30949D01*
G01X32773Y30910D01*
G01X32749Y30871D01*
G01X32727Y30830D01*
G01X32707Y30789D01*
G01X32689Y30746D01*
G01X33262Y30746D01*
G37*
G36*
G01X34622Y29959D02*
G01X34049Y29959D01*
G01X34049Y29386D01*
G01X34092Y29404D01*
G01X34133Y29424D01*
G01X34174Y29446D01*
G01X34213Y29470D01*
G01X34252Y29496D01*
G01X34289Y29523D01*
G01X34325Y29552D01*
G01X34360Y29582D01*
G01X34394Y29614D01*
G01X34426Y29648D01*
G01X34456Y29683D01*
G01X34485Y29719D01*
G01X34512Y29756D01*
G01X34538Y29795D01*
G01X34562Y29834D01*
G01X34584Y29875D01*
G01X34604Y29916D01*
G01X34622Y29959D01*
G37*
G36*
G01X33262Y29959D02*
G01X32689Y29959D01*
G01X32707Y29916D01*
G01X32727Y29875D01*
G01X32749Y29834D01*
G01X32773Y29795D01*
G01X32799Y29756D01*
G01X32826Y29719D01*
G01X32855Y29683D01*
G01X32885Y29648D01*
G01X32917Y29614D01*
G01X32951Y29582D01*
G01X32985Y29552D01*
G01X33022Y29523D01*
G01X33059Y29496D01*
G01X33097Y29470D01*
G01X33137Y29446D01*
G01X33178Y29424D01*
G01X33219Y29404D01*
G01X33262Y29386D01*
G01X33262Y29959D01*
G37*
G36*
G01X34092Y31301D02*
G01X34049Y31319D01*
G01X34049Y30746D01*
G01X34622Y30746D01*
G01X34604Y30789D01*
G01X34584Y30830D01*
G01X34562Y30871D01*
G01X34538Y30910D01*
G01X34512Y30949D01*
G01X34485Y30986D01*
G01X34456Y31022D01*
G01X34426Y31057D01*
G01X34394Y31091D01*
G01X34360Y31123D01*
G01X34325Y31153D01*
G01X34289Y31182D01*
G01X34252Y31209D01*
G01X34213Y31235D01*
G01X34174Y31259D01*
G01X34133Y31281D01*
G01X34092Y31301D01*
G37*
G36*
G01X3739Y36508D02*
G01X3696Y36526D01*
G01X3696Y35953D01*
G01X4269Y35953D01*
G01X4251Y35996D01*
G01X4231Y36037D01*
G01X4209Y36078D01*
G01X4185Y36117D01*
G01X4159Y36156D01*
G01X4132Y36193D01*
G01X4103Y36229D01*
G01X4073Y36264D01*
G01X4041Y36298D01*
G01X4007Y36330D01*
G01X3972Y36360D01*
G01X3936Y36389D01*
G01X3899Y36416D01*
G01X3860Y36442D01*
G01X3821Y36466D01*
G01X3780Y36488D01*
G01X3739Y36508D01*
G37*
G36*
G01X2909Y35166D02*
G01X2336Y35166D01*
G01X2354Y35123D01*
G01X2374Y35082D01*
G01X2396Y35041D01*
G01X2420Y35002D01*
G01X2446Y34963D01*
G01X2473Y34926D01*
G01X2502Y34890D01*
G01X2532Y34855D01*
G01X2564Y34821D01*
G01X2598Y34789D01*
G01X2632Y34759D01*
G01X2669Y34730D01*
G01X2706Y34703D01*
G01X2744Y34677D01*
G01X2784Y34653D01*
G01X2825Y34631D01*
G01X2866Y34611D01*
G01X2909Y34593D01*
G01X2909Y35166D01*
G37*
G36*
G01X4269Y35166D02*
G01X3696Y35166D01*
G01X3696Y34593D01*
G01X3739Y34611D01*
G01X3780Y34631D01*
G01X3821Y34653D01*
G01X3860Y34677D01*
G01X3899Y34703D01*
G01X3936Y34730D01*
G01X3972Y34759D01*
G01X4007Y34789D01*
G01X4041Y34821D01*
G01X4073Y34855D01*
G01X4103Y34890D01*
G01X4132Y34926D01*
G01X4159Y34963D01*
G01X4185Y35002D01*
G01X4209Y35041D01*
G01X4231Y35082D01*
G01X4251Y35123D01*
G01X4269Y35166D01*
G37*
G36*
G01X2909Y35953D02*
G01X2909Y36526D01*
G01X2866Y36508D01*
G01X2825Y36488D01*
G01X2784Y36466D01*
G01X2744Y36442D01*
G01X2706Y36416D01*
G01X2669Y36389D01*
G01X2632Y36360D01*
G01X2598Y36330D01*
G01X2564Y36298D01*
G01X2532Y36264D01*
G01X2502Y36229D01*
G01X2473Y36193D01*
G01X2446Y36156D01*
G01X2420Y36117D01*
G01X2396Y36078D01*
G01X2374Y36037D01*
G01X2354Y35996D01*
G01X2336Y35953D01*
G01X2909Y35953D01*
G37*

%LPD*%
G54D10*
G01X22860Y13843D02*
G01X10541Y13843D01*
G01X3302Y30480D02*
G01X10160Y30480D01*
G01X12573Y28067D01*
G01X12573Y15875D01*
G01X10541Y13843D01*
G01X20955Y16129D02*
G01X20955Y21590D01*
G01X19685Y22860D01*
G01X18034Y22860D01*
G01X16637Y24257D01*
G01X16637Y29210D01*
G01X15494Y30353D01*
G01X11938Y30353D01*
G01X9271Y33020D01*
G01X3302Y33020D01*
G01X26416Y13843D02*
G01X26416Y18415D01*
G01X28321Y20320D01*
G01X29845Y20320D01*
G01X32258Y22733D01*
G01X32258Y23114D01*
G01X20828Y32258D02*
G01X23368Y34798D01*
G01X23368Y37592D01*
G01X23368Y37592D02*
G01X25527Y35433D01*
G01X33655Y35433D01*
G54D23*
G01X26416Y22098D03*
G01X10541Y22098D03*
G01X10541Y13843D03*
G01X26416Y13843D03*

%LPD*%
G36*
G01X4374Y33147D02*
G01X3823Y33610D01*
G01X3823Y32429D01*
G01X4374Y32893D01*
G01X4374Y33147D01*
G37*

%LPD*%
G36*
G01X22655Y13610D02*
G01X22655Y14075D01*
G01X22438Y13970D01*
G01X22438Y13716D01*
G01X22655Y13610D01*
G37*

%LPD*%
G36*
G01X21082Y16551D02*
G01X20828Y16551D01*
G01X20723Y16334D01*
G01X21188Y16334D01*
G01X21082Y16551D01*
G37*

%LPD*%
G36*
G01X11922Y13970D02*
G01X11541Y14160D01*
G01X11541Y13525D01*
G01X11922Y13716D01*
G01X11922Y13970D01*
G37*

%LPD*%
G36*
G01X11676Y14798D02*
G01X11497Y14977D01*
G01X11092Y14843D01*
G01X11541Y14393D01*
G01X11676Y14798D01*
G37*

%LPD*%
G36*
G01X26543Y15224D02*
G01X26289Y15224D01*
G01X26099Y14843D01*
G01X26734Y14843D01*
G01X26543Y15224D01*
G37*

%LPD*%
G36*
G01X23686Y36742D02*
G01X23051Y36742D01*
G01X23241Y36361D01*
G01X23495Y36361D01*
G01X23686Y36742D01*
G37*

%LPD*%
G36*
G01X24353Y36786D02*
G01X24218Y37190D01*
G01X23769Y36742D01*
G01X24173Y36607D01*
G01X24353Y36786D01*
G37*

%LPD*%
G36*
G01X4471Y30607D02*
G01X4090Y30797D01*
G01X4090Y30162D01*
G01X4471Y30353D01*
G01X4471Y30607D01*
G37*

%LPD*%
G36*
G01X32868Y35115D02*
G01X32868Y35750D01*
G01X32487Y35560D01*
G01X32487Y35306D01*
G01X32868Y35115D01*
G37*

%LPD*%
G36*
G01X21863Y33113D02*
G01X21683Y33292D01*
G01X21279Y33157D01*
G01X21728Y32709D01*
G01X21863Y33113D01*
G37*

%LPD*%
G36*
G01X31451Y21650D02*
G01X30892Y21951D01*
G01X30874Y21528D01*
G01X31108Y21402D01*
G01X31451Y21650D01*
G37*
G36*
G01X24218Y36742D02*
G01X22519Y36742D01*
G01X22519Y38441D01*
G01X24218Y38441D01*
G01X24218Y36742D01*
G37*
G54D14*
G01X20828Y37592D03*
G01X18288Y37592D03*
G01X15748Y37592D03*
G01X13208Y37592D03*
G54D15*
G01X3302Y35560D03*
G01X3302Y33020D03*
G36*
G01X2515Y29692D02*
G01X2515Y31267D01*
G01X4090Y31267D01*
G01X4090Y29692D01*
G01X2515Y29692D01*
G37*
G01X33655Y30353D03*
G01X33655Y32893D03*
G36*
G01X34443Y36220D02*
G01X34443Y34645D01*
G01X32868Y34645D01*
G01X32868Y36220D01*
G01X34443Y36220D01*
G37*
G01X34290Y39878D03*
G01X31750Y39878D03*
G54D16*
G01X29210Y39878D03*
G36*
G01X21728Y31358D02*
G01X19928Y31358D01*
G01X19928Y33157D01*
G01X21728Y33157D01*
G01X21728Y31358D01*
G37*
G54D18*
G01X18288Y32258D03*
G01X15748Y32258D03*
G01X13208Y32258D03*
G36*
G01X7808Y38927D02*
G01X5908Y38927D01*
G01X5908Y40827D01*
G01X7808Y40827D01*
G01X7808Y38927D01*
G37*
G54D20*
G01X4318Y39878D03*
G54D11*
G01X22860Y13843D03*
G01X20955Y16129D03*
G54D21*
G01X32512Y18034D02*
G01X32004Y18034D01*
G54D22*
G01X32639Y23114D02*
G01X31877Y23114D01*
G54D21*
G01X32512Y12954D02*
G01X32004Y12954D01*
M00*
M02*
