G04 Layer: TopSilkLayer*
G04 EasyEDA v6.1.30, Mon, 22 Apr 2019 04:26:04 GMT*
G04 3299eb1e32c44027902f169d4311eafc,c4e59543e3c44a9793b0b0a188f79ba1,10*
G04 Gerber Generator version 0.2*
G04 Scale: 100 percent, Rotated: No, Reflected: No *
G04 Dimensions in millimeters *
G04 leading zeros omitted , absolute positions ,3 integer and 3 decimal *
%FSLAX33Y33*%
%MOMM*%
G90*
G71D02*

%ADD10C,0.254000*%
%ADD24C,0.203200*%
%ADD25C,0.202999*%
%ADD26C,0.399999*%
%ADD27C,0.152400*%

%LPD*%
G54D10*
G01X24892Y36068D02*
G01X11684Y36068D01*
G01X11684Y39116D01*
G01X24892Y39116D01*
G01X24892Y36068D01*
G01X22098Y36068D02*
G01X22098Y39116D01*
G54D24*
G01X2032Y31115D02*
G01X2032Y29210D01*
G01X4572Y29210D01*
G01X4572Y36830D01*
G01X2032Y36830D01*
G54D25*
G01X2032Y36830D02*
G01X2032Y31115D01*
G54D24*
G01X34925Y34798D02*
G01X34925Y36703D01*
G01X32385Y36703D01*
G01X32385Y29083D01*
G01X34925Y29083D01*
G54D25*
G01X34925Y29083D02*
G01X34925Y34798D01*
G54D24*
G01X29845Y41148D02*
G01X27940Y41148D01*
G01X27940Y38608D01*
G01X35560Y38608D01*
G01X35560Y41148D01*
G54D25*
G01X35560Y41148D02*
G01X29845Y41148D01*
G54D10*
G01X22352Y30734D02*
G01X11684Y30734D01*
G01X11684Y33782D01*
G01X22352Y33782D01*
G01X22352Y30734D01*
G01X19558Y30734D02*
G01X19558Y33782D01*
G01X28956Y25654D02*
G01X36576Y25654D01*
G01X36576Y10414D01*
G01X28956Y10414D01*
G01X28956Y25654D01*
G01X29972Y25400D02*
G01X29972Y10668D01*
G54D24*
G01X3048Y38608D02*
G01X3048Y41148D01*
G01X8128Y41148D01*
G01X8128Y38608D01*
G01X6223Y38608D01*
G54D25*
G01X3048Y38608D02*
G01X6223Y38608D01*
G54D10*
G01X1081Y10034D02*
G01X1081Y26033D01*
G01X25081Y26033D02*
G01X25081Y10034D01*
G01X1081Y10034D02*
G01X8481Y10034D01*
G01X25081Y10034D02*
G01X24681Y10034D01*
G01X1081Y26033D02*
G01X8481Y26033D01*
G01X25081Y26033D02*
G01X24681Y26033D01*
G01X7081Y10034D02*
G01X7081Y26033D01*
G01X5882Y14034D02*
G01X2281Y14034D01*
G01X2281Y12034D01*
G01X5882Y12034D01*
G01X2281Y14034D02*
G01X2281Y16034D01*
G01X4081Y16034D01*
G01X4081Y18034D01*
G01X2281Y18034D01*
G01X2281Y20033D01*
G01X4081Y20033D01*
G01X4081Y22033D01*
G01X2281Y22033D01*
G01X2281Y24033D01*
G01X5882Y24033D01*
G01X8481Y12434D02*
G01X8481Y23633D01*
G01X24281Y23633D01*
G01X24281Y12434D01*
G01X8481Y12434D01*

%LPD*%
G36*
G01X23940Y35808D02*
G01X23897Y35814D01*
G01X23853Y35808D01*
G01X23810Y35793D01*
G01X23770Y35766D01*
G01X23735Y35727D01*
G01X23705Y35675D01*
G01X23683Y35609D01*
G01X23668Y35529D01*
G01X23663Y35433D01*
G01X23668Y35333D01*
G01X23683Y35250D01*
G01X23705Y35182D01*
G01X23735Y35128D01*
G01X23770Y35088D01*
G01X23810Y35060D01*
G01X23853Y35044D01*
G01X23897Y35039D01*
G01X23940Y35044D01*
G01X23982Y35060D01*
G01X24021Y35088D01*
G01X24056Y35128D01*
G01X24086Y35182D01*
G01X24108Y35250D01*
G01X24123Y35333D01*
G01X24128Y35433D01*
G01X24123Y35529D01*
G01X24108Y35609D01*
G01X24086Y35675D01*
G01X24056Y35727D01*
G01X24021Y35766D01*
G01X23982Y35793D01*
G01X23940Y35808D01*
G37*

%LPC*%
G36*
G01X23922Y35767D02*
G01X23897Y35770D01*
G01X23870Y35767D01*
G01X23845Y35755D01*
G01X23822Y35734D01*
G01X23801Y35701D01*
G01X23784Y35657D01*
G01X23771Y35598D01*
G01X23763Y35523D01*
G01X23760Y35433D01*
G01X23763Y35338D01*
G01X23771Y35261D01*
G01X23784Y35200D01*
G01X23801Y35154D01*
G01X23822Y35120D01*
G01X23845Y35098D01*
G01X23870Y35086D01*
G01X23897Y35082D01*
G01X23922Y35086D01*
G01X23946Y35098D01*
G01X23968Y35120D01*
G01X23989Y35154D01*
G01X24005Y35200D01*
G01X24018Y35261D01*
G01X24026Y35338D01*
G01X24029Y35433D01*
G01X24026Y35523D01*
G01X24018Y35598D01*
G01X24005Y35657D01*
G01X23989Y35701D01*
G01X23968Y35734D01*
G01X23946Y35755D01*
G01X23922Y35767D01*
G37*

%LPD*%
G36*
G01X23549Y35798D02*
G01X23186Y35798D01*
G01X23160Y35450D01*
G01X23191Y35443D01*
G01X23217Y35449D01*
G01X23244Y35454D01*
G01X23270Y35457D01*
G01X23297Y35458D01*
G01X23369Y35446D01*
G01X23424Y35410D01*
G01X23458Y35353D01*
G01X23470Y35275D01*
G01X23459Y35196D01*
G01X23427Y35135D01*
G01X23375Y35096D01*
G01X23302Y35082D01*
G01X23284Y35082D01*
G01X23267Y35084D01*
G01X23250Y35088D01*
G01X23231Y35092D01*
G01X23213Y35161D01*
G01X23203Y35194D01*
G01X23191Y35215D01*
G01X23175Y35226D01*
G01X23155Y35229D01*
G01X23137Y35227D01*
G01X23122Y35220D01*
G01X23110Y35209D01*
G01X23102Y35194D01*
G01X23128Y35127D01*
G01X23171Y35078D01*
G01X23231Y35049D01*
G01X23307Y35039D01*
G01X23364Y35043D01*
G01X23415Y35057D01*
G01X23459Y35078D01*
G01X23497Y35106D01*
G01X23528Y35142D01*
G01X23550Y35184D01*
G01X23564Y35231D01*
G01X23569Y35283D01*
G01X23565Y35335D01*
G01X23551Y35382D01*
G01X23530Y35422D01*
G01X23502Y35456D01*
G01X23466Y35482D01*
G01X23424Y35501D01*
G01X23377Y35512D01*
G01X23325Y35516D01*
G01X23296Y35515D01*
G01X23267Y35512D01*
G01X23240Y35508D01*
G01X23213Y35501D01*
G01X23226Y35712D01*
G01X23549Y35712D01*
G01X23549Y35798D01*
G37*

%LPD*%
G36*
G01X23008Y35798D02*
G01X22556Y35798D01*
G01X22556Y35712D01*
G01X22947Y35712D01*
G01X22650Y35064D01*
G01X22660Y35054D01*
G01X22746Y35054D01*
G01X23008Y35745D01*
G01X23008Y35798D01*
G37*

%LPD*%
G36*
G01X22281Y35798D02*
G01X22266Y35811D01*
G01X22037Y35750D01*
G01X22037Y35712D01*
G01X22187Y35725D01*
G01X22187Y35244D01*
G01X22186Y35200D01*
G01X22185Y35155D01*
G01X22185Y35110D01*
G01X22027Y35090D01*
G01X22027Y35054D01*
G01X22436Y35054D01*
G01X22436Y35090D01*
G01X22281Y35110D01*
G01X22279Y35200D01*
G01X22279Y35638D01*
G01X22281Y35798D01*
G37*

%LPD*%
G36*
G01X21428Y35798D02*
G01X21115Y35798D01*
G01X21115Y35760D01*
G01X21220Y35750D01*
G01X21221Y35676D01*
G01X21222Y35601D01*
G01X21222Y35250D01*
G01X21221Y35177D01*
G01X21220Y35105D01*
G01X21115Y35092D01*
G01X21115Y35054D01*
G01X21428Y35054D01*
G01X21428Y35092D01*
G01X21326Y35105D01*
G01X21325Y35178D01*
G01X21324Y35253D01*
G01X21324Y35415D01*
G01X21687Y35415D01*
G01X21687Y35330D01*
G01X21686Y35251D01*
G01X21686Y35176D01*
G01X21684Y35105D01*
G01X21580Y35092D01*
G01X21580Y35054D01*
G01X21893Y35054D01*
G01X21893Y35092D01*
G01X21789Y35105D01*
G01X21789Y35750D01*
G01X21893Y35760D01*
G01X21893Y35798D01*
G01X21580Y35798D01*
G01X21580Y35760D01*
G01X21684Y35750D01*
G01X21686Y35677D01*
G01X21686Y35604D01*
G01X21687Y35531D01*
G01X21687Y35458D01*
G01X21324Y35458D01*
G01X21324Y35605D01*
G01X21325Y35677D01*
G01X21326Y35750D01*
G01X21428Y35760D01*
G01X21428Y35798D01*
G37*

%LPD*%
G36*
G01X20765Y35798D02*
G01X20447Y35798D01*
G01X20447Y35760D01*
G01X20549Y35750D01*
G01X20551Y35676D01*
G01X20552Y35529D01*
G01X20552Y35327D01*
G01X20551Y35178D01*
G01X20549Y35105D01*
G01X20447Y35092D01*
G01X20447Y35054D01*
G01X20750Y35054D01*
G01X20823Y35059D01*
G01X20886Y35071D01*
G01X20937Y35092D01*
G01X20977Y35118D01*
G01X21007Y35149D01*
G01X21028Y35183D01*
G01X21040Y35219D01*
G01X21044Y35257D01*
G01X21032Y35322D01*
G01X20994Y35377D01*
G01X20927Y35418D01*
G01X20831Y35443D01*
G01X20911Y35470D01*
G01X20965Y35511D01*
G01X20996Y35562D01*
G01X21006Y35618D01*
G01X20990Y35691D01*
G01X20945Y35748D01*
G01X20869Y35785D01*
G01X20765Y35798D01*
G37*

%LPC*%
G36*
G01X20717Y35417D02*
G01X20653Y35417D01*
G01X20653Y35332D01*
G01X20654Y35252D01*
G01X20654Y35175D01*
G01X20656Y35100D01*
G01X20729Y35100D01*
G01X20821Y35110D01*
G01X20887Y35140D01*
G01X20927Y35190D01*
G01X20940Y35257D01*
G01X20927Y35327D01*
G01X20886Y35377D01*
G01X20817Y35407D01*
G01X20717Y35417D01*
G37*
G36*
G01X20734Y35755D02*
G01X20656Y35755D01*
G01X20654Y35682D01*
G01X20654Y35610D01*
G01X20653Y35537D01*
G01X20653Y35463D01*
G01X20712Y35463D01*
G01X20799Y35472D01*
G01X20860Y35500D01*
G01X20895Y35547D01*
G01X20907Y35613D01*
G01X20896Y35678D01*
G01X20864Y35722D01*
G01X20811Y35747D01*
G01X20734Y35755D01*
G37*

%LPD*%

%LPD*%
G36*
G01X34101Y28673D02*
G01X34014Y28686D01*
G01X33941Y28678D01*
G01X33879Y28651D01*
G01X33832Y28607D01*
G01X33805Y28544D01*
G01X33814Y28526D01*
G01X33826Y28515D01*
G01X33841Y28508D01*
G01X33859Y28506D01*
G01X33881Y28510D01*
G01X33899Y28522D01*
G01X33911Y28542D01*
G01X33920Y28572D01*
G01X33940Y28638D01*
G01X33955Y28641D01*
G01X33968Y28643D01*
G01X33993Y28643D01*
G01X34051Y28634D01*
G01X34094Y28606D01*
G01X34121Y28562D01*
G01X34130Y28501D01*
G01X34119Y28433D01*
G01X34086Y28384D01*
G01X34035Y28354D01*
G01X33968Y28343D01*
G01X33925Y28343D01*
G01X33925Y28295D01*
G01X33978Y28295D01*
G01X34053Y28283D01*
G01X34107Y28249D01*
G01X34140Y28196D01*
G01X34151Y28125D01*
G01X34140Y28056D01*
G01X34107Y28002D01*
G01X34054Y27967D01*
G01X33983Y27955D01*
G01X33967Y27955D01*
G01X33952Y27957D01*
G01X33935Y27959D01*
G01X33920Y27962D01*
G01X33899Y28028D01*
G01X33890Y28061D01*
G01X33877Y28084D01*
G01X33861Y28097D01*
G01X33838Y28102D01*
G01X33822Y28100D01*
G01X33808Y28094D01*
G01X33796Y28083D01*
G01X33785Y28067D01*
G01X33811Y27997D01*
G01X33858Y27949D01*
G01X33922Y27921D01*
G01X33998Y27912D01*
G01X34052Y27916D01*
G01X34100Y27928D01*
G01X34143Y27947D01*
G01X34179Y27973D01*
G01X34208Y28004D01*
G01X34229Y28040D01*
G01X34243Y28081D01*
G01X34247Y28125D01*
G01X34237Y28194D01*
G01X34204Y28251D01*
G01X34148Y28294D01*
G01X34067Y28321D01*
G01X34134Y28350D01*
G01X34184Y28392D01*
G01X34214Y28445D01*
G01X34224Y28506D01*
G01X34210Y28579D01*
G01X34167Y28636D01*
G01X34101Y28673D01*
G37*

%LPD*%
G36*
G01X35218Y28672D02*
G01X35126Y28686D01*
G01X35046Y28676D01*
G01X34978Y28644D01*
G01X34928Y28592D01*
G01X34903Y28519D01*
G01X34912Y28505D01*
G01X34924Y28495D01*
G01X34939Y28488D01*
G01X34956Y28486D01*
G01X34975Y28489D01*
G01X34992Y28501D01*
G01X35006Y28522D01*
G01X35017Y28554D01*
G01X35040Y28635D01*
G01X35056Y28639D01*
G01X35072Y28641D01*
G01X35086Y28643D01*
G01X35098Y28643D01*
G01X35155Y28632D01*
G01X35198Y28599D01*
G01X35226Y28550D01*
G01X35235Y28486D01*
G01X35226Y28418D01*
G01X35196Y28348D01*
G01X35146Y28272D01*
G01X35075Y28186D01*
G01X35037Y28142D01*
G01X34996Y28095D01*
G01X34953Y28046D01*
G01X34908Y27995D01*
G01X34908Y27927D01*
G01X35365Y27927D01*
G01X35365Y28013D01*
G01X34979Y28013D01*
G01X35016Y28052D01*
G01X35052Y28089D01*
G01X35083Y28121D01*
G01X35108Y28148D01*
G01X35166Y28209D01*
G01X35214Y28262D01*
G01X35253Y28308D01*
G01X35283Y28349D01*
G01X35305Y28386D01*
G01X35321Y28421D01*
G01X35329Y28456D01*
G01X35332Y28491D01*
G01X35320Y28569D01*
G01X35283Y28631D01*
G01X35218Y28672D01*
G37*

%LPD*%
G36*
G01X34633Y28671D02*
G01X34618Y28684D01*
G01X34389Y28623D01*
G01X34389Y28585D01*
G01X34539Y28597D01*
G01X34539Y28117D01*
G01X34538Y28073D01*
G01X34537Y28028D01*
G01X34537Y27983D01*
G01X34377Y27962D01*
G01X34377Y27927D01*
G01X34788Y27927D01*
G01X34788Y27962D01*
G01X34631Y27983D01*
G01X34631Y28511D01*
G01X34633Y28671D01*
G37*

%LPD*%
G36*
G01X32980Y28671D02*
G01X32777Y28671D01*
G01X32777Y28633D01*
G01X32878Y28620D01*
G01X32878Y27980D01*
G01X32777Y27965D01*
G01X32777Y27927D01*
G01X33025Y27927D01*
G01X33025Y27965D01*
G01X32929Y27980D01*
G01X32929Y28333D01*
G01X32928Y28358D01*
G01X32926Y28414D01*
G01X32925Y28488D01*
G01X32924Y28564D01*
G01X33183Y27927D01*
G01X33231Y27927D01*
G01X33483Y28567D01*
G01X33480Y28267D01*
G01X33480Y28195D01*
G01X33479Y28050D01*
G01X33478Y27978D01*
G01X33381Y27965D01*
G01X33381Y27927D01*
G01X33686Y27927D01*
G01X33686Y27965D01*
G01X33582Y27978D01*
G01X33580Y28050D01*
G01X33580Y28124D01*
G01X33579Y28198D01*
G01X33579Y28400D01*
G01X33580Y28550D01*
G01X33582Y28623D01*
G01X33686Y28633D01*
G01X33686Y28671D01*
G01X33473Y28671D01*
G01X33231Y28054D01*
G01X32980Y28671D01*
G37*

%LPD*%
G36*
G01X32406Y28676D02*
G01X32340Y28676D01*
G01X32103Y27980D01*
G01X32012Y27965D01*
G01X32012Y27927D01*
G01X32261Y27927D01*
G01X32261Y27965D01*
G01X32152Y27980D01*
G01X32215Y28173D01*
G01X32474Y28173D01*
G01X32538Y27978D01*
G01X32429Y27965D01*
G01X32429Y27927D01*
G01X32731Y27927D01*
G01X32731Y27965D01*
G01X32644Y27975D01*
G01X32406Y28676D01*
G37*

%LPC*%
G36*
G01X32459Y28216D02*
G01X32345Y28562D01*
G01X32230Y28216D01*
G01X32459Y28216D01*
G37*

%LPD*%

%LPD*%
G36*
G01X30107Y38477D02*
G01X30064Y38481D01*
G01X30020Y38477D01*
G01X29978Y38469D01*
G01X29937Y38454D01*
G01X29898Y38434D01*
G01X29861Y38408D01*
G01X29828Y38378D01*
G01X29798Y38342D01*
G01X29773Y38301D01*
G01X29752Y38255D01*
G01X29737Y38205D01*
G01X29727Y38151D01*
G01X29723Y38092D01*
G01X29727Y38031D01*
G01X29737Y37975D01*
G01X29752Y37924D01*
G01X29773Y37878D01*
G01X29798Y37838D01*
G01X29828Y37802D01*
G01X29861Y37772D01*
G01X29898Y37747D01*
G01X29937Y37728D01*
G01X29978Y37714D01*
G01X30020Y37706D01*
G01X30064Y37703D01*
G01X30108Y37706D01*
G01X30150Y37715D01*
G01X30190Y37729D01*
G01X30229Y37749D01*
G01X30266Y37774D01*
G01X30299Y37805D01*
G01X30328Y37841D01*
G01X30353Y37882D01*
G01X30374Y37927D01*
G01X30389Y37978D01*
G01X30399Y38032D01*
G01X30402Y38092D01*
G01X30398Y38152D01*
G01X30388Y38208D01*
G01X30373Y38259D01*
G01X30352Y38304D01*
G01X30327Y38345D01*
G01X30298Y38380D01*
G01X30265Y38411D01*
G01X30228Y38436D01*
G01X30189Y38455D01*
G01X30149Y38469D01*
G01X30107Y38477D01*
G37*

%LPC*%
G36*
G01X30118Y38425D02*
G01X30064Y38432D01*
G01X30009Y38425D01*
G01X29963Y38404D01*
G01X29924Y38371D01*
G01X29893Y38328D01*
G01X29868Y38277D01*
G01X29852Y38219D01*
G01X29841Y38157D01*
G01X29838Y38092D01*
G01X29841Y38027D01*
G01X29852Y37964D01*
G01X29868Y37906D01*
G01X29893Y37855D01*
G01X29924Y37811D01*
G01X29963Y37778D01*
G01X30009Y37757D01*
G01X30064Y37749D01*
G01X30118Y37757D01*
G01X30164Y37778D01*
G01X30202Y37811D01*
G01X30233Y37855D01*
G01X30256Y37906D01*
G01X30272Y37964D01*
G01X30282Y38027D01*
G01X30285Y38092D01*
G01X30282Y38157D01*
G01X30272Y38219D01*
G01X30256Y38277D01*
G01X30233Y38328D01*
G01X30202Y38371D01*
G01X30164Y38404D01*
G01X30118Y38425D01*
G37*

%LPD*%
G36*
G01X28385Y38477D02*
G01X28319Y38481D01*
G01X28265Y38477D01*
G01X28213Y38467D01*
G01X28165Y38452D01*
G01X28121Y38430D01*
G01X28082Y38403D01*
G01X28046Y38371D01*
G01X28015Y38334D01*
G01X27989Y38293D01*
G01X27968Y38248D01*
G01X27953Y38199D01*
G01X27943Y38147D01*
G01X27940Y38092D01*
G01X27943Y38036D01*
G01X27953Y37984D01*
G01X27968Y37935D01*
G01X27988Y37890D01*
G01X28014Y37849D01*
G01X28045Y37812D01*
G01X28080Y37780D01*
G01X28120Y37753D01*
G01X28163Y37732D01*
G01X28211Y37716D01*
G01X28262Y37706D01*
G01X28316Y37703D01*
G01X28382Y37707D01*
G01X28443Y37720D01*
G01X28501Y37740D01*
G01X28558Y37767D01*
G01X28558Y37872D01*
G01X28559Y37925D01*
G01X28561Y37977D01*
G01X28563Y38028D01*
G01X28629Y38033D01*
G01X28629Y38074D01*
G01X28339Y38074D01*
G01X28339Y38033D01*
G01X28456Y38026D01*
G01X28458Y37974D01*
G01X28459Y37869D01*
G01X28459Y37774D01*
G01X28429Y37764D01*
G01X28398Y37757D01*
G01X28367Y37753D01*
G01X28334Y37752D01*
G01X28273Y37758D01*
G01X28219Y37775D01*
G01X28171Y37803D01*
G01X28130Y37841D01*
G01X28098Y37890D01*
G01X28075Y37949D01*
G01X28060Y38016D01*
G01X28055Y38092D01*
G01X28060Y38169D01*
G01X28076Y38236D01*
G01X28100Y38295D01*
G01X28133Y38343D01*
G01X28174Y38381D01*
G01X28221Y38409D01*
G01X28274Y38427D01*
G01X28332Y38432D01*
G01X28365Y38430D01*
G01X28397Y38424D01*
G01X28427Y38414D01*
G01X28456Y38399D01*
G01X28484Y38262D01*
G01X28545Y38262D01*
G01X28542Y38425D01*
G01X28495Y38450D01*
G01X28443Y38467D01*
G01X28385Y38477D01*
G37*

%LPD*%
G36*
G01X29645Y38463D02*
G01X29332Y38463D01*
G01X29332Y38425D01*
G01X29436Y38414D01*
G01X29436Y37769D01*
G01X29332Y37757D01*
G01X29332Y37719D01*
G01X29645Y37719D01*
G01X29645Y37757D01*
G01X29541Y37769D01*
G01X29539Y37842D01*
G01X29539Y37916D01*
G01X29538Y37990D01*
G01X29538Y38192D01*
G01X29539Y38341D01*
G01X29541Y38414D01*
G01X29645Y38425D01*
G01X29645Y38463D01*
G37*

%LPD*%
G36*
G01X28984Y38463D02*
G01X28687Y38463D01*
G01X28687Y38425D01*
G01X28791Y38414D01*
G01X28791Y37769D01*
G01X28687Y37757D01*
G01X28687Y37719D01*
G01X29002Y37719D01*
G01X29002Y37757D01*
G01X28895Y37769D01*
G01X28894Y37832D01*
G01X28893Y37955D01*
G01X28893Y38016D01*
G01X28954Y38016D01*
G01X29032Y38020D01*
G01X29097Y38034D01*
G01X29150Y38055D01*
G01X29193Y38083D01*
G01X29225Y38117D01*
G01X29247Y38155D01*
G01X29260Y38197D01*
G01X29264Y38242D01*
G01X29260Y38289D01*
G01X29246Y38332D01*
G01X29225Y38370D01*
G01X29195Y38402D01*
G01X29156Y38428D01*
G01X29107Y38447D01*
G01X29050Y38459D01*
G01X28984Y38463D01*
G37*

%LPC*%
G36*
G01X28967Y38420D02*
G01X28895Y38420D01*
G01X28894Y38345D01*
G01X28893Y38193D01*
G01X28893Y38061D01*
G01X28964Y38061D01*
G01X29053Y38075D01*
G01X29114Y38112D01*
G01X29149Y38169D01*
G01X29160Y38242D01*
G01X29148Y38318D01*
G01X29113Y38373D01*
G01X29053Y38408D01*
G01X28967Y38420D01*
G37*

%LPD*%
G54D27*
G01X10033Y31254D02*
G01X11123Y31254D01*
G01X10033Y30891D02*
G01X10033Y31617D01*
G01X10033Y32326D02*
G01X11123Y32326D01*
G01X10033Y31960D02*
G01X10033Y32689D01*
G01X10033Y33032D02*
G01X11123Y33032D01*
G01X11123Y33032D02*
G01X11123Y33654D01*
G54D24*
G01X35162Y23368D02*
G01X35207Y23276D01*
G01X35345Y23141D01*
G01X34389Y23141D01*
G01X35116Y18242D02*
G01X35162Y18242D01*
G01X35253Y18196D01*
G01X35299Y18150D01*
G01X35345Y18061D01*
G01X35345Y17879D01*
G01X35299Y17787D01*
G01X35253Y17741D01*
G01X35162Y17696D01*
G01X35070Y17696D01*
G01X34981Y17741D01*
G01X34844Y17833D01*
G01X34389Y18288D01*
G01X34389Y17650D01*
G01X35345Y13116D02*
G01X35345Y12616D01*
G01X34981Y12890D01*
G01X34981Y12753D01*
G01X34936Y12661D01*
G01X34890Y12616D01*
G01X34753Y12570D01*
G01X34661Y12570D01*
G01X34527Y12616D01*
G01X34435Y12707D01*
G01X34389Y12844D01*
G01X34389Y12981D01*
G01X34435Y13116D01*
G01X34481Y13162D01*
G01X34572Y13208D01*
G54D27*
G01X8931Y39461D02*
G01X8827Y39357D01*
G01X8776Y39202D01*
G01X8776Y38994D01*
G01X8827Y38839D01*
G01X8931Y38735D01*
G01X9035Y38735D01*
G01X9139Y38785D01*
G01X9190Y38839D01*
G01X9243Y38943D01*
G01X9348Y39255D01*
G01X9398Y39357D01*
G01X9449Y39410D01*
G01X9553Y39461D01*
G01X9711Y39461D01*
G01X9815Y39357D01*
G01X9866Y39202D01*
G01X9866Y38994D01*
G01X9815Y38839D01*
G01X9711Y38735D01*
G01X8776Y39804D02*
G01X9866Y40065D01*
G01X8776Y40325D02*
G01X9866Y40065D01*
G01X8776Y40325D02*
G01X9866Y40584D01*
G01X8776Y40843D02*
G01X9866Y40584D01*
G54D24*
G01X9481Y22789D02*
G01X9481Y21834D01*
G01X9481Y22789D02*
G01X10071Y22789D01*
G01X9481Y22334D02*
G01X9845Y22334D01*
G01X9481Y21834D02*
G01X10071Y21834D01*
G01X11008Y22651D02*
G01X10917Y22743D01*
G01X10779Y22789D01*
G01X10599Y22789D01*
G01X10462Y22743D01*
G01X10370Y22651D01*
G01X10370Y22563D01*
G01X10416Y22471D01*
G01X10462Y22425D01*
G01X10553Y22380D01*
G01X10825Y22288D01*
G01X10917Y22243D01*
G01X10962Y22197D01*
G01X11008Y22108D01*
G01X11008Y21971D01*
G01X10917Y21879D01*
G01X10779Y21834D01*
G01X10599Y21834D01*
G01X10462Y21879D01*
G01X10370Y21971D01*
G01X11308Y22789D02*
G01X11308Y21834D01*
G01X11308Y22789D02*
G01X11717Y22789D01*
G01X11854Y22743D01*
G01X11900Y22697D01*
G01X11945Y22606D01*
G01X11945Y22471D01*
G01X11900Y22380D01*
G01X11854Y22334D01*
G01X11717Y22288D01*
G01X11308Y22288D01*
G01X12245Y22243D02*
G01X13063Y22243D01*
G01X13363Y22606D02*
G01X13454Y22651D01*
G01X13589Y22789D01*
G01X13589Y21834D01*
G01X13934Y22563D02*
G01X13934Y22606D01*
G01X13980Y22697D01*
G01X14026Y22743D01*
G01X14117Y22789D01*
G01X14300Y22789D01*
G01X14389Y22743D01*
G01X14434Y22697D01*
G01X14480Y22606D01*
G01X14480Y22517D01*
G01X14434Y22425D01*
G01X14343Y22288D01*
G01X13888Y21834D01*
G01X14526Y21834D01*
G01X15463Y22651D02*
G01X15372Y22743D01*
G01X15235Y22789D01*
G01X15054Y22789D01*
G01X14917Y22743D01*
G01X14826Y22651D01*
G01X14826Y22563D01*
G01X14871Y22471D01*
G01X14917Y22425D01*
G01X15008Y22380D01*
G01X15280Y22288D01*
G01X15372Y22243D01*
G01X15417Y22197D01*
G01X15463Y22108D01*
G01X15463Y21971D01*
G01X15372Y21879D01*
G01X15235Y21834D01*
G01X15054Y21834D01*
G01X14917Y21879D01*
G01X14826Y21971D01*

%LPD*%
G36*
G01X3613Y28688D02*
G01X3526Y28702D01*
G01X3453Y28693D01*
G01X3391Y28666D01*
G01X3345Y28622D01*
G01X3318Y28559D01*
G01X3327Y28541D01*
G01X3338Y28530D01*
G01X3353Y28523D01*
G01X3371Y28521D01*
G01X3394Y28525D01*
G01X3411Y28537D01*
G01X3423Y28558D01*
G01X3432Y28587D01*
G01X3452Y28653D01*
G01X3467Y28656D01*
G01X3481Y28658D01*
G01X3506Y28658D01*
G01X3564Y28649D01*
G01X3607Y28621D01*
G01X3634Y28577D01*
G01X3643Y28516D01*
G01X3631Y28449D01*
G01X3599Y28399D01*
G01X3547Y28369D01*
G01X3480Y28359D01*
G01X3437Y28359D01*
G01X3437Y28310D01*
G01X3490Y28310D01*
G01X3566Y28298D01*
G01X3619Y28264D01*
G01X3652Y28211D01*
G01X3663Y28140D01*
G01X3652Y28072D01*
G01X3619Y28018D01*
G01X3567Y27983D01*
G01X3495Y27970D01*
G01X3480Y27970D01*
G01X3448Y27974D01*
G01X3432Y27978D01*
G01X3402Y28077D01*
G01X3390Y28100D01*
G01X3374Y28113D01*
G01X3351Y28117D01*
G01X3334Y28115D01*
G01X3320Y28109D01*
G01X3308Y28098D01*
G01X3297Y28082D01*
G01X3324Y28013D01*
G01X3370Y27964D01*
G01X3434Y27936D01*
G01X3511Y27927D01*
G01X3565Y27931D01*
G01X3613Y27943D01*
G01X3655Y27962D01*
G01X3692Y27988D01*
G01X3720Y28019D01*
G01X3742Y28055D01*
G01X3755Y28096D01*
G01X3760Y28140D01*
G01X3749Y28209D01*
G01X3716Y28267D01*
G01X3660Y28309D01*
G01X3579Y28336D01*
G01X3647Y28365D01*
G01X3696Y28407D01*
G01X3727Y28460D01*
G01X3737Y28521D01*
G01X3722Y28594D01*
G01X3680Y28651D01*
G01X3613Y28688D01*
G37*

%LPD*%
G36*
G01X4730Y28687D02*
G01X4638Y28702D01*
G01X4559Y28691D01*
G01X4491Y28659D01*
G01X4440Y28607D01*
G01X4415Y28534D01*
G01X4425Y28520D01*
G01X4437Y28509D01*
G01X4452Y28503D01*
G01X4468Y28501D01*
G01X4488Y28504D01*
G01X4504Y28516D01*
G01X4518Y28537D01*
G01X4529Y28569D01*
G01X4552Y28651D01*
G01X4569Y28654D01*
G01X4584Y28656D01*
G01X4598Y28658D01*
G01X4611Y28658D01*
G01X4667Y28647D01*
G01X4711Y28615D01*
G01X4738Y28565D01*
G01X4748Y28501D01*
G01X4738Y28433D01*
G01X4709Y28363D01*
G01X4659Y28287D01*
G01X4588Y28201D01*
G01X4550Y28157D01*
G01X4508Y28111D01*
G01X4465Y28061D01*
G01X4420Y28011D01*
G01X4420Y27942D01*
G01X4877Y27942D01*
G01X4877Y28028D01*
G01X4491Y28028D01*
G01X4529Y28068D01*
G01X4564Y28104D01*
G01X4596Y28137D01*
G01X4621Y28163D01*
G01X4679Y28224D01*
G01X4726Y28277D01*
G01X4765Y28323D01*
G01X4795Y28364D01*
G01X4818Y28401D01*
G01X4833Y28436D01*
G01X4842Y28471D01*
G01X4844Y28506D01*
G01X4832Y28585D01*
G01X4795Y28647D01*
G01X4730Y28687D01*
G37*

%LPD*%
G36*
G01X4146Y28686D02*
G01X4130Y28699D01*
G01X3902Y28638D01*
G01X3902Y28600D01*
G01X4052Y28613D01*
G01X4052Y28176D01*
G01X4050Y28088D01*
G01X4050Y28043D01*
G01X4049Y27998D01*
G01X3889Y27978D01*
G01X3889Y27942D01*
G01X4301Y27942D01*
G01X4301Y27978D01*
G01X4143Y27998D01*
G01X4143Y28526D01*
G01X4146Y28686D01*
G37*

%LPD*%
G36*
G01X2492Y28686D02*
G01X2289Y28686D01*
G01X2289Y28648D01*
G01X2391Y28635D01*
G01X2391Y27995D01*
G01X2289Y27980D01*
G01X2289Y27942D01*
G01X2538Y27942D01*
G01X2538Y27980D01*
G01X2441Y27995D01*
G01X2441Y28348D01*
G01X2440Y28373D01*
G01X2439Y28430D01*
G01X2437Y28503D01*
G01X2436Y28580D01*
G01X2695Y27942D01*
G01X2744Y27942D01*
G01X2995Y28582D01*
G01X2993Y28282D01*
G01X2993Y28210D01*
G01X2992Y28138D01*
G01X2992Y28065D01*
G01X2990Y27993D01*
G01X2893Y27980D01*
G01X2893Y27942D01*
G01X3198Y27942D01*
G01X3198Y27980D01*
G01X3094Y27993D01*
G01X3093Y28065D01*
G01X3092Y28139D01*
G01X3092Y28415D01*
G01X3093Y28565D01*
G01X3094Y28638D01*
G01X3198Y28648D01*
G01X3198Y28686D01*
G01X2985Y28686D01*
G01X2744Y28069D01*
G01X2492Y28686D01*
G37*

%LPD*%
G36*
G01X1918Y28691D02*
G01X1852Y28691D01*
G01X1616Y27995D01*
G01X1524Y27980D01*
G01X1524Y27942D01*
G01X1773Y27942D01*
G01X1773Y27980D01*
G01X1664Y27995D01*
G01X1728Y28188D01*
G01X1987Y28188D01*
G01X2050Y27993D01*
G01X1941Y27980D01*
G01X1941Y27942D01*
G01X2243Y27942D01*
G01X2243Y27980D01*
G01X2157Y27990D01*
G01X1918Y28691D01*
G37*

%LPC*%
G36*
G01X1971Y28232D02*
G01X1857Y28577D01*
G01X1743Y28232D01*
G01X1971Y28232D01*
G37*

%LPD*%

%LPD*%
G36*
G01X36183Y35979D02*
G01X36135Y35979D01*
G01X36124Y35874D01*
G01X35243Y35549D01*
G01X35243Y35491D01*
G01X36119Y35199D01*
G01X36137Y35077D01*
G01X36183Y35077D01*
G01X36183Y35397D01*
G01X36129Y35397D01*
G01X36117Y35267D01*
G01X35418Y35493D01*
G01X36119Y35737D01*
G01X36129Y35603D01*
G01X36183Y35603D01*
G01X36183Y35979D01*
G37*

%LPD*%

%LPD*%
G36*
G01X20961Y30312D02*
G01X20905Y30312D01*
G01X20610Y29436D01*
G01X20491Y29418D01*
G01X20491Y29372D01*
G01X20811Y29372D01*
G01X20811Y29425D01*
G01X20681Y29438D01*
G01X20907Y30137D01*
G01X21151Y29436D01*
G01X21014Y29425D01*
G01X21014Y29372D01*
G01X21392Y29372D01*
G01X21392Y29420D01*
G01X21288Y29430D01*
G01X20961Y30312D01*
G37*

%LPD*%

%LPD*%
G36*
G01X32827Y26116D02*
G01X32784Y26116D01*
G01X32756Y25920D01*
G01X32646Y25918D01*
G01X32098Y25918D01*
G01X31898Y25923D01*
G01X31882Y25905D01*
G01X31956Y25618D01*
G01X32004Y25618D01*
G01X31987Y25803D01*
G01X32590Y25803D01*
G01X32646Y25802D01*
G01X32756Y25801D01*
G01X32784Y25603D01*
G01X32827Y25603D01*
G01X32827Y26116D01*
G37*

%LPD*%
G36*
G01X32827Y26837D02*
G01X32718Y26837D01*
G01X32718Y26352D01*
G01X32625Y26445D01*
G01X32584Y26485D01*
G01X32551Y26517D01*
G01X32475Y26589D01*
G01X32409Y26649D01*
G01X32352Y26697D01*
G01X32301Y26735D01*
G01X32254Y26763D01*
G01X32211Y26782D01*
G01X32167Y26793D01*
G01X32124Y26797D01*
G01X32071Y26793D01*
G01X32024Y26781D01*
G01X31982Y26762D01*
G01X31947Y26735D01*
G01X31917Y26698D01*
G01X31896Y26654D01*
G01X31882Y26600D01*
G01X31877Y26537D01*
G01X31880Y26487D01*
G01X31890Y26438D01*
G01X31906Y26394D01*
G01X31929Y26353D01*
G01X31959Y26318D01*
G01X31995Y26290D01*
G01X32038Y26270D01*
G01X32088Y26258D01*
G01X32106Y26271D01*
G01X32119Y26286D01*
G01X32128Y26305D01*
G01X32131Y26327D01*
G01X32126Y26350D01*
G01X32111Y26370D01*
G01X32083Y26388D01*
G01X32043Y26403D01*
G01X31941Y26428D01*
G01X31937Y26450D01*
G01X31935Y26470D01*
G01X31934Y26488D01*
G01X31933Y26504D01*
G01X31947Y26575D01*
G01X31987Y26628D01*
G01X32049Y26662D01*
G01X32131Y26675D01*
G01X32173Y26672D01*
G01X32214Y26662D01*
G01X32256Y26647D01*
G01X32300Y26626D01*
G01X32346Y26598D01*
G01X32394Y26564D01*
G01X32446Y26524D01*
G01X32502Y26476D01*
G01X32556Y26427D01*
G01X32615Y26375D01*
G01X32677Y26321D01*
G01X32741Y26266D01*
G01X32827Y26266D01*
G01X32827Y26837D01*
G37*

%LPD*%
G36*
G01X31943Y27813D02*
G01X31898Y27813D01*
G01X31898Y27492D01*
G01X31951Y27492D01*
G01X31961Y27622D01*
G01X32660Y27396D01*
G01X31961Y27152D01*
G01X31951Y27289D01*
G01X31898Y27289D01*
G01X31898Y26911D01*
G01X31943Y26911D01*
G01X31956Y27015D01*
G01X32835Y27343D01*
G01X32835Y27398D01*
G01X31961Y27693D01*
G01X31943Y27813D01*
G37*

%LPD*%

%LPD*%
G36*
G01X32561Y10033D02*
G01X32515Y10033D01*
G01X32515Y9672D01*
G01X32561Y9672D01*
G01X32573Y9819D01*
G01X32888Y9819D01*
G01X32901Y9781D01*
G01X32910Y9744D01*
G01X32915Y9705D01*
G01X32916Y9664D01*
G01X32913Y9613D01*
G01X32903Y9564D01*
G01X32887Y9520D01*
G01X32865Y9479D01*
G01X32838Y9443D01*
G01X32804Y9410D01*
G01X32765Y9382D01*
G01X32720Y9359D01*
G01X32670Y9341D01*
G01X32615Y9327D01*
G01X32555Y9319D01*
G01X32490Y9316D01*
G01X32425Y9319D01*
G01X32365Y9328D01*
G01X32310Y9342D01*
G01X32260Y9361D01*
G01X32215Y9385D01*
G01X32176Y9414D01*
G01X32143Y9446D01*
G01X32116Y9483D01*
G01X32094Y9523D01*
G01X32078Y9566D01*
G01X32069Y9613D01*
G01X32065Y9662D01*
G01X32068Y9703D01*
G01X32075Y9742D01*
G01X32088Y9781D01*
G01X32106Y9819D01*
G01X32279Y9852D01*
G01X32279Y9926D01*
G01X32073Y9926D01*
G01X32043Y9866D01*
G01X32022Y9801D01*
G01X32009Y9729D01*
G01X32004Y9646D01*
G01X32009Y9578D01*
G01X32021Y9514D01*
G01X32041Y9455D01*
G01X32068Y9400D01*
G01X32102Y9350D01*
G01X32142Y9305D01*
G01X32188Y9267D01*
G01X32240Y9234D01*
G01X32296Y9209D01*
G01X32357Y9190D01*
G01X32421Y9178D01*
G01X32490Y9174D01*
G01X32559Y9178D01*
G01X32624Y9189D01*
G01X32686Y9208D01*
G01X32742Y9234D01*
G01X32794Y9266D01*
G01X32840Y9304D01*
G01X32880Y9348D01*
G01X32914Y9397D01*
G01X32941Y9452D01*
G01X32961Y9511D01*
G01X32973Y9574D01*
G01X32977Y9641D01*
G01X32972Y9724D01*
G01X32956Y9800D01*
G01X32930Y9874D01*
G01X32896Y9946D01*
G01X32700Y9946D01*
G01X32635Y9947D01*
G01X32571Y9949D01*
G01X32561Y10033D01*
G37*

%LPD*%

%LPD*%
G36*
G01X28279Y18146D02*
G01X28207Y18150D01*
G01X28135Y18147D01*
G01X28068Y18136D01*
G01X28008Y18117D01*
G01X27954Y18093D01*
G01X27905Y18062D01*
G01X27862Y18025D01*
G01X27826Y17983D01*
G01X27796Y17935D01*
G01X27773Y17883D01*
G01X27756Y17825D01*
G01X27746Y17764D01*
G01X27742Y17698D01*
G01X27742Y17294D01*
G01X27791Y17294D01*
G01X27803Y17424D01*
G01X27895Y17425D01*
G01X27988Y17426D01*
G01X28471Y17426D01*
G01X28519Y17425D01*
G01X28565Y17425D01*
G01X28611Y17424D01*
G01X28624Y17294D01*
G01X28672Y17294D01*
G01X28672Y17673D01*
G01X28668Y17740D01*
G01X28658Y17804D01*
G01X28641Y17864D01*
G01X28618Y17920D01*
G01X28588Y17970D01*
G01X28552Y18015D01*
G01X28509Y18055D01*
G01X28461Y18088D01*
G01X28406Y18115D01*
G01X28346Y18134D01*
G01X28279Y18146D01*
G37*

%LPC*%
G36*
G01X28270Y18003D02*
G01X28207Y18006D01*
G01X28143Y18003D01*
G01X28083Y17996D01*
G01X28029Y17984D01*
G01X27981Y17967D01*
G01X27938Y17946D01*
G01X27900Y17920D01*
G01X27869Y17889D01*
G01X27842Y17855D01*
G01X27822Y17816D01*
G01X27807Y17773D01*
G01X27799Y17726D01*
G01X27796Y17675D01*
G01X27796Y17553D01*
G01X28616Y17553D01*
G01X28616Y17665D01*
G01X28613Y17719D01*
G01X28604Y17767D01*
G01X28589Y17812D01*
G01X28568Y17852D01*
G01X28541Y17887D01*
G01X28509Y17918D01*
G01X28471Y17945D01*
G01X28428Y17966D01*
G01X28380Y17983D01*
G01X28328Y17996D01*
G01X28270Y18003D01*
G37*

%LPD*%
G36*
G01X28450Y18848D02*
G01X28385Y18854D01*
G01X28319Y18848D01*
G01X28261Y18832D01*
G01X28211Y18805D01*
G01X28170Y18769D01*
G01X28137Y18725D01*
G01X28113Y18673D01*
G01X28098Y18614D01*
G01X28093Y18549D01*
G01X28094Y18514D01*
G01X28097Y18479D01*
G01X28103Y18444D01*
G01X28113Y18409D01*
G01X27852Y18427D01*
G01X27852Y18829D01*
G01X27742Y18829D01*
G01X27742Y18374D01*
G01X28177Y18346D01*
G01X28187Y18381D01*
G01X28178Y18415D01*
G01X28172Y18448D01*
G01X28170Y18481D01*
G01X28169Y18514D01*
G01X28173Y18562D01*
G01X28184Y18604D01*
G01X28203Y18642D01*
G01X28228Y18673D01*
G01X28260Y18698D01*
G01X28299Y18717D01*
G01X28344Y18728D01*
G01X28395Y18732D01*
G01X28448Y18728D01*
G01X28495Y18718D01*
G01X28536Y18702D01*
G01X28571Y18678D01*
G01X28599Y18648D01*
G01X28620Y18612D01*
G01X28632Y18569D01*
G01X28636Y18521D01*
G01X28636Y18499D01*
G01X28634Y18476D01*
G01X28630Y18455D01*
G01X28624Y18432D01*
G01X28540Y18412D01*
G01X28499Y18398D01*
G01X28472Y18382D01*
G01X28458Y18362D01*
G01X28453Y18336D01*
G01X28457Y18314D01*
G01X28465Y18296D01*
G01X28478Y18281D01*
G01X28497Y18270D01*
G01X28541Y18283D01*
G01X28580Y18302D01*
G01X28614Y18327D01*
G01X28641Y18357D01*
G01X28662Y18393D01*
G01X28678Y18433D01*
G01X28687Y18479D01*
G01X28690Y18529D01*
G01X28684Y18599D01*
G01X28668Y18663D01*
G01X28641Y18719D01*
G01X28606Y18766D01*
G01X28562Y18803D01*
G01X28510Y18831D01*
G01X28450Y18848D01*
G37*

%LPD*%

%LPD*%
G36*
G01X1298Y36122D02*
G01X1230Y36126D01*
G01X1160Y36122D01*
G01X1095Y36111D01*
G01X1034Y36092D01*
G01X977Y36066D01*
G01X925Y36034D01*
G01X879Y35996D01*
G01X839Y35952D01*
G01X805Y35903D01*
G01X778Y35848D01*
G01X758Y35789D01*
G01X746Y35726D01*
G01X742Y35659D01*
G01X748Y35576D01*
G01X764Y35499D01*
G01X789Y35426D01*
G01X823Y35354D01*
G01X953Y35354D01*
G01X1020Y35353D01*
G01X1085Y35353D01*
G01X1148Y35351D01*
G01X1159Y35267D01*
G01X1204Y35267D01*
G01X1204Y35628D01*
G01X1159Y35628D01*
G01X1146Y35481D01*
G01X831Y35481D01*
G01X818Y35519D01*
G01X809Y35556D01*
G01X805Y35595D01*
G01X803Y35636D01*
G01X806Y35687D01*
G01X816Y35736D01*
G01X832Y35780D01*
G01X854Y35821D01*
G01X882Y35857D01*
G01X915Y35890D01*
G01X955Y35918D01*
G01X999Y35941D01*
G01X1050Y35959D01*
G01X1105Y35973D01*
G01X1165Y35981D01*
G01X1230Y35984D01*
G01X1295Y35981D01*
G01X1355Y35972D01*
G01X1410Y35958D01*
G01X1459Y35939D01*
G01X1504Y35915D01*
G01X1543Y35886D01*
G01X1576Y35854D01*
G01X1604Y35817D01*
G01X1626Y35777D01*
G01X1641Y35734D01*
G01X1651Y35687D01*
G01X1654Y35638D01*
G01X1652Y35597D01*
G01X1644Y35558D01*
G01X1631Y35519D01*
G01X1613Y35481D01*
G01X1441Y35448D01*
G01X1441Y35374D01*
G01X1646Y35374D01*
G01X1676Y35433D01*
G01X1698Y35499D01*
G01X1711Y35571D01*
G01X1715Y35653D01*
G01X1711Y35721D01*
G01X1698Y35785D01*
G01X1678Y35845D01*
G01X1651Y35900D01*
G01X1617Y35950D01*
G01X1577Y35994D01*
G01X1531Y36033D01*
G01X1480Y36066D01*
G01X1423Y36091D01*
G01X1363Y36110D01*
G01X1298Y36122D01*
G37*

%LPD*%

%LPD*%
G36*
G01X13248Y30369D02*
G01X13181Y30373D01*
G01X13098Y30367D01*
G01X13022Y30351D01*
G01X12948Y30326D01*
G01X12876Y30292D01*
G01X12876Y30161D01*
G01X12875Y30095D01*
G01X12875Y30030D01*
G01X12873Y29966D01*
G01X12789Y29956D01*
G01X12789Y29911D01*
G01X13150Y29911D01*
G01X13150Y29956D01*
G01X13003Y29969D01*
G01X13003Y30284D01*
G01X13041Y30297D01*
G01X13078Y30306D01*
G01X13117Y30310D01*
G01X13158Y30312D01*
G01X13209Y30309D01*
G01X13258Y30299D01*
G01X13302Y30283D01*
G01X13343Y30261D01*
G01X13379Y30233D01*
G01X13412Y30199D01*
G01X13440Y30160D01*
G01X13463Y30115D01*
G01X13481Y30065D01*
G01X13495Y30010D01*
G01X13503Y29950D01*
G01X13506Y29885D01*
G01X13503Y29820D01*
G01X13494Y29760D01*
G01X13480Y29705D01*
G01X13461Y29656D01*
G01X13437Y29611D01*
G01X13408Y29572D01*
G01X13376Y29539D01*
G01X13339Y29511D01*
G01X13299Y29489D01*
G01X13256Y29474D01*
G01X13209Y29464D01*
G01X13160Y29461D01*
G01X13119Y29463D01*
G01X13080Y29471D01*
G01X13041Y29483D01*
G01X13003Y29502D01*
G01X12970Y29674D01*
G01X12896Y29674D01*
G01X12896Y29469D01*
G01X12955Y29439D01*
G01X13021Y29417D01*
G01X13093Y29404D01*
G01X13175Y29400D01*
G01X13243Y29404D01*
G01X13308Y29417D01*
G01X13367Y29437D01*
G01X13422Y29464D01*
G01X13472Y29498D01*
G01X13516Y29538D01*
G01X13555Y29584D01*
G01X13588Y29635D01*
G01X13613Y29691D01*
G01X13632Y29752D01*
G01X13644Y29817D01*
G01X13648Y29885D01*
G01X13644Y29954D01*
G01X13633Y30020D01*
G01X13614Y30081D01*
G01X13588Y30138D01*
G01X13556Y30190D01*
G01X13518Y30236D01*
G01X13474Y30276D01*
G01X13425Y30310D01*
G01X13370Y30337D01*
G01X13311Y30356D01*
G01X13248Y30369D01*
G37*

%LPD*%

%LPD*%
G36*
G01X20868Y40529D02*
G01X20800Y40533D01*
G01X20718Y40527D01*
G01X20641Y40511D01*
G01X20568Y40486D01*
G01X20496Y40452D01*
G01X20496Y40321D01*
G01X20495Y40255D01*
G01X20495Y40190D01*
G01X20493Y40126D01*
G01X20409Y40116D01*
G01X20409Y40071D01*
G01X20770Y40071D01*
G01X20770Y40116D01*
G01X20623Y40129D01*
G01X20623Y40444D01*
G01X20660Y40457D01*
G01X20698Y40466D01*
G01X20737Y40470D01*
G01X20778Y40472D01*
G01X20829Y40469D01*
G01X20877Y40459D01*
G01X20922Y40443D01*
G01X20963Y40421D01*
G01X20999Y40393D01*
G01X21032Y40359D01*
G01X21060Y40320D01*
G01X21083Y40275D01*
G01X21101Y40225D01*
G01X21115Y40170D01*
G01X21123Y40110D01*
G01X21126Y40045D01*
G01X21123Y39980D01*
G01X21114Y39920D01*
G01X21100Y39865D01*
G01X21081Y39816D01*
G01X21057Y39771D01*
G01X21028Y39732D01*
G01X20995Y39699D01*
G01X20959Y39671D01*
G01X20919Y39649D01*
G01X20875Y39634D01*
G01X20829Y39624D01*
G01X20780Y39621D01*
G01X20739Y39623D01*
G01X20700Y39631D01*
G01X20661Y39643D01*
G01X20623Y39662D01*
G01X20590Y39834D01*
G01X20516Y39834D01*
G01X20516Y39629D01*
G01X20575Y39599D01*
G01X20640Y39577D01*
G01X20713Y39564D01*
G01X20795Y39560D01*
G01X20863Y39564D01*
G01X20927Y39577D01*
G01X20987Y39597D01*
G01X21042Y39624D01*
G01X21092Y39658D01*
G01X21136Y39698D01*
G01X21175Y39744D01*
G01X21207Y39795D01*
G01X21233Y39851D01*
G01X21252Y39912D01*
G01X21264Y39977D01*
G01X21268Y40045D01*
G01X21264Y40114D01*
G01X21252Y40180D01*
G01X21234Y40241D01*
G01X21208Y40298D01*
G01X21176Y40350D01*
G01X21138Y40396D01*
G01X21094Y40436D01*
G01X21045Y40470D01*
G01X20990Y40497D01*
G01X20931Y40516D01*
G01X20868Y40529D01*
G37*

%LPD*%

%LPD*%
G36*
G01X1639Y30899D02*
G01X1591Y30899D01*
G01X1580Y30794D01*
G01X699Y30469D01*
G01X699Y30411D01*
G01X1575Y30119D01*
G01X1593Y29997D01*
G01X1639Y29997D01*
G01X1639Y30317D01*
G01X1585Y30317D01*
G01X1573Y30187D01*
G01X874Y30413D01*
G01X1575Y30657D01*
G01X1585Y30523D01*
G01X1639Y30523D01*
G01X1639Y30899D01*
G37*

%LPD*%

%LPD*%
G36*
G01X1324Y32865D02*
G01X1270Y32867D01*
G01X1181Y32862D01*
G01X1102Y32846D01*
G01X1034Y32820D01*
G01X977Y32785D01*
G01X932Y32742D01*
G01X899Y32690D01*
G01X878Y32631D01*
G01X872Y32565D01*
G01X877Y32504D01*
G01X892Y32450D01*
G01X917Y32401D01*
G01X952Y32360D01*
G01X996Y32326D01*
G01X1048Y32301D01*
G01X1109Y32286D01*
G01X1179Y32280D01*
G01X1240Y32285D01*
G01X1294Y32299D01*
G01X1342Y32320D01*
G01X1383Y32350D01*
G01X1415Y32387D01*
G01X1439Y32430D01*
G01X1453Y32479D01*
G01X1458Y32534D01*
G01X1452Y32590D01*
G01X1434Y32644D01*
G01X1406Y32694D01*
G01X1367Y32740D01*
G01X1422Y32732D01*
G01X1474Y32720D01*
G01X1523Y32703D01*
G01X1568Y32681D01*
G01X1609Y32654D01*
G01X1647Y32622D01*
G01X1681Y32586D01*
G01X1712Y32544D01*
G01X1740Y32497D01*
G01X1764Y32444D01*
G01X1785Y32387D01*
G01X1801Y32324D01*
G01X1839Y32331D01*
G01X1829Y32394D01*
G01X1815Y32453D01*
G01X1796Y32508D01*
G01X1774Y32560D01*
G01X1747Y32608D01*
G01X1717Y32651D01*
G01X1684Y32691D01*
G01X1647Y32728D01*
G01X1608Y32760D01*
G01X1566Y32788D01*
G01X1521Y32812D01*
G01X1475Y32832D01*
G01X1426Y32847D01*
G01X1376Y32858D01*
G01X1324Y32865D01*
G37*

%LPC*%
G36*
G01X1316Y32745D02*
G01X1288Y32745D01*
G01X1203Y32742D01*
G01X1130Y32732D01*
G01X1067Y32717D01*
G01X1016Y32696D01*
G01X976Y32671D01*
G01X948Y32639D01*
G01X931Y32603D01*
G01X925Y32562D01*
G01X940Y32497D01*
G01X984Y32446D01*
G01X1057Y32414D01*
G01X1159Y32402D01*
G01X1259Y32414D01*
G01X1330Y32446D01*
G01X1371Y32498D01*
G01X1385Y32565D01*
G01X1381Y32611D01*
G01X1369Y32657D01*
G01X1348Y32702D01*
G01X1316Y32745D01*
G37*

%LPD*%
G36*
G01X938Y33848D02*
G01X889Y33848D01*
G01X889Y33467D01*
G01X893Y33399D01*
G01X903Y33335D01*
G01X920Y33275D01*
G01X944Y33220D01*
G01X974Y33169D01*
G01X1010Y33124D01*
G01X1053Y33085D01*
G01X1102Y33052D01*
G01X1156Y33025D01*
G01X1217Y33005D01*
G01X1283Y32993D01*
G01X1354Y32989D01*
G01X1426Y32993D01*
G01X1493Y33004D01*
G01X1553Y33022D01*
G01X1608Y33046D01*
G01X1656Y33076D01*
G01X1699Y33113D01*
G01X1735Y33156D01*
G01X1765Y33203D01*
G01X1789Y33256D01*
G01X1805Y33313D01*
G01X1815Y33375D01*
G01X1819Y33441D01*
G01X1819Y33848D01*
G01X1771Y33848D01*
G01X1758Y33715D01*
G01X950Y33715D01*
G01X938Y33848D01*
G37*

%LPC*%
G36*
G01X1579Y33588D02*
G01X1137Y33588D01*
G01X1041Y33586D01*
G01X945Y33583D01*
G01X945Y33477D01*
G01X948Y33423D01*
G01X958Y33374D01*
G01X973Y33329D01*
G01X994Y33288D01*
G01X1021Y33253D01*
G01X1053Y33221D01*
G01X1091Y33195D01*
G01X1134Y33173D01*
G01X1182Y33156D01*
G01X1235Y33143D01*
G01X1292Y33136D01*
G01X1354Y33134D01*
G01X1419Y33136D01*
G01X1478Y33143D01*
G01X1532Y33156D01*
G01X1581Y33172D01*
G01X1623Y33194D01*
G01X1661Y33220D01*
G01X1693Y33250D01*
G01X1719Y33285D01*
G01X1739Y33323D01*
G01X1754Y33366D01*
G01X1763Y33413D01*
G01X1766Y33464D01*
G01X1766Y33583D01*
G01X1673Y33586D01*
G01X1579Y33588D01*
G37*

%LPD*%

%LPD*%
G36*
G01X18735Y40513D02*
G01X18354Y40513D01*
G01X18287Y40509D01*
G01X18223Y40499D01*
G01X18163Y40482D01*
G01X18108Y40458D01*
G01X18057Y40428D01*
G01X18012Y40392D01*
G01X17972Y40349D01*
G01X17939Y40300D01*
G01X17912Y40246D01*
G01X17893Y40185D01*
G01X17881Y40119D01*
G01X17877Y40048D01*
G01X17880Y39976D01*
G01X17892Y39909D01*
G01X17910Y39849D01*
G01X17934Y39794D01*
G01X17965Y39745D01*
G01X18002Y39703D01*
G01X18045Y39667D01*
G01X18092Y39637D01*
G01X18145Y39613D01*
G01X18202Y39597D01*
G01X18264Y39586D01*
G01X18329Y39583D01*
G01X18735Y39583D01*
G01X18735Y39631D01*
G01X18603Y39644D01*
G01X18601Y39828D01*
G01X18601Y40312D01*
G01X18602Y40359D01*
G01X18602Y40406D01*
G01X18603Y40452D01*
G01X18735Y40464D01*
G01X18735Y40513D01*
G37*

%LPC*%
G36*
G01X18474Y40457D02*
G01X18365Y40457D01*
G01X18311Y40454D01*
G01X18261Y40444D01*
G01X18217Y40429D01*
G01X18176Y40408D01*
G01X18141Y40381D01*
G01X18110Y40348D01*
G01X18083Y40311D01*
G01X18061Y40268D01*
G01X18044Y40220D01*
G01X18031Y40167D01*
G01X18024Y40110D01*
G01X18022Y40048D01*
G01X18024Y39983D01*
G01X18031Y39924D01*
G01X18044Y39870D01*
G01X18060Y39821D01*
G01X18082Y39778D01*
G01X18108Y39741D01*
G01X18138Y39709D01*
G01X18173Y39683D01*
G01X18211Y39663D01*
G01X18254Y39648D01*
G01X18301Y39639D01*
G01X18352Y39636D01*
G01X18474Y39636D01*
G01X18474Y40457D01*
G37*

%LPD*%

%LPD*%
G36*
G01X16195Y40513D02*
G01X15814Y40513D01*
G01X15747Y40509D01*
G01X15683Y40499D01*
G01X15623Y40482D01*
G01X15568Y40458D01*
G01X15517Y40428D01*
G01X15472Y40392D01*
G01X15432Y40349D01*
G01X15399Y40300D01*
G01X15372Y40246D01*
G01X15353Y40185D01*
G01X15341Y40119D01*
G01X15337Y40048D01*
G01X15340Y39976D01*
G01X15352Y39909D01*
G01X15370Y39849D01*
G01X15394Y39794D01*
G01X15425Y39745D01*
G01X15462Y39703D01*
G01X15505Y39667D01*
G01X15552Y39637D01*
G01X15605Y39613D01*
G01X15662Y39597D01*
G01X15724Y39586D01*
G01X15789Y39583D01*
G01X16195Y39583D01*
G01X16195Y39631D01*
G01X16063Y39644D01*
G01X16061Y39828D01*
G01X16061Y40312D01*
G01X16062Y40359D01*
G01X16062Y40406D01*
G01X16063Y40452D01*
G01X16195Y40464D01*
G01X16195Y40513D01*
G37*

%LPC*%
G36*
G01X15934Y40457D02*
G01X15825Y40457D01*
G01X15771Y40454D01*
G01X15721Y40444D01*
G01X15677Y40429D01*
G01X15637Y40408D01*
G01X15601Y40381D01*
G01X15570Y40348D01*
G01X15543Y40311D01*
G01X15521Y40268D01*
G01X15504Y40220D01*
G01X15492Y40167D01*
G01X15484Y40110D01*
G01X15482Y40048D01*
G01X15484Y39983D01*
G01X15491Y39924D01*
G01X15504Y39870D01*
G01X15520Y39821D01*
G01X15542Y39778D01*
G01X15568Y39741D01*
G01X15598Y39709D01*
G01X15633Y39683D01*
G01X15671Y39663D01*
G01X15714Y39648D01*
G01X15761Y39639D01*
G01X15812Y39636D01*
G01X15934Y39636D01*
G01X15934Y40457D01*
G37*

%LPD*%

%LPD*%
G36*
G01X23374Y40599D02*
G01X23318Y40599D01*
G01X23023Y39723D01*
G01X22904Y39705D01*
G01X22904Y39659D01*
G01X23224Y39659D01*
G01X23224Y39712D01*
G01X23094Y39725D01*
G01X23320Y40424D01*
G01X23564Y39723D01*
G01X23427Y39712D01*
G01X23427Y39659D01*
G01X23805Y39659D01*
G01X23805Y39707D01*
G01X23701Y39717D01*
G01X23374Y40599D01*
G37*

%LPD*%

%LPD*%
G36*
G01X18070Y30361D02*
G01X18014Y30365D01*
G01X17983Y30364D01*
G01X17955Y30362D01*
G01X17931Y30358D01*
G01X17910Y30353D01*
G01X17910Y30304D01*
G01X18017Y30294D01*
G01X18083Y30076D01*
G01X18109Y30006D01*
G01X18143Y29956D01*
G01X18189Y29921D01*
G01X18248Y29900D01*
G01X18192Y29887D01*
G01X18144Y29867D01*
G01X18103Y29842D01*
G01X18069Y29813D01*
G01X18043Y29780D01*
G01X18024Y29744D01*
G01X18013Y29706D01*
G01X18009Y29667D01*
G01X18015Y29612D01*
G01X18032Y29563D01*
G01X18059Y29521D01*
G01X18097Y29487D01*
G01X18146Y29459D01*
G01X18203Y29439D01*
G01X18270Y29427D01*
G01X18344Y29423D01*
G01X18735Y29423D01*
G01X18735Y29471D01*
G01X18603Y29484D01*
G01X18601Y29668D01*
G01X18601Y30108D01*
G01X18603Y30292D01*
G01X18735Y30304D01*
G01X18735Y30353D01*
G01X18344Y30353D01*
G01X18344Y30304D01*
G01X18474Y30289D01*
G01X18474Y29918D01*
G01X18400Y29918D01*
G01X18327Y29924D01*
G01X18274Y29945D01*
G01X18237Y29988D01*
G01X18212Y30058D01*
G01X18156Y30276D01*
G01X18139Y30318D01*
G01X18111Y30345D01*
G01X18070Y30361D01*
G37*

%LPC*%
G36*
G01X18474Y29865D02*
G01X18362Y29865D01*
G01X18264Y29850D01*
G01X18194Y29807D01*
G01X18152Y29744D01*
G01X18139Y29664D01*
G01X18152Y29584D01*
G01X18191Y29525D01*
G01X18257Y29489D01*
G01X18352Y29476D01*
G01X18474Y29476D01*
G01X18474Y29865D01*
G37*

%LPD*%

%LPD*%
G36*
G01X15967Y30353D02*
G01X15548Y30353D01*
G01X15548Y30304D01*
G01X15693Y30289D01*
G01X15695Y30105D01*
G01X15695Y29667D01*
G01X15693Y29481D01*
G01X15474Y29481D01*
G01X15433Y29669D01*
G01X15367Y29669D01*
G01X15375Y29423D01*
G01X16140Y29423D01*
G01X16150Y29669D01*
G01X16079Y29669D01*
G01X16043Y29481D01*
G01X15822Y29481D01*
G01X15822Y30289D01*
G01X15967Y30304D01*
G01X15967Y30353D01*
G37*

%LPD*%

%LPD*%
G36*
G01X35842Y30788D02*
G01X35774Y30792D01*
G01X35704Y30788D01*
G01X35639Y30777D01*
G01X35578Y30758D01*
G01X35521Y30732D01*
G01X35469Y30700D01*
G01X35423Y30662D01*
G01X35383Y30618D01*
G01X35349Y30569D01*
G01X35322Y30514D01*
G01X35302Y30455D01*
G01X35290Y30392D01*
G01X35286Y30325D01*
G01X35292Y30242D01*
G01X35308Y30166D01*
G01X35333Y30092D01*
G01X35367Y30020D01*
G01X35497Y30020D01*
G01X35564Y30019D01*
G01X35629Y30019D01*
G01X35693Y30017D01*
G01X35703Y29933D01*
G01X35748Y29933D01*
G01X35748Y30294D01*
G01X35703Y30294D01*
G01X35690Y30147D01*
G01X35375Y30147D01*
G01X35362Y30185D01*
G01X35353Y30222D01*
G01X35349Y30261D01*
G01X35347Y30302D01*
G01X35350Y30353D01*
G01X35360Y30402D01*
G01X35376Y30446D01*
G01X35398Y30487D01*
G01X35426Y30523D01*
G01X35459Y30556D01*
G01X35499Y30584D01*
G01X35544Y30607D01*
G01X35594Y30625D01*
G01X35649Y30639D01*
G01X35709Y30647D01*
G01X35774Y30650D01*
G01X35839Y30647D01*
G01X35899Y30638D01*
G01X35954Y30624D01*
G01X36003Y30605D01*
G01X36048Y30581D01*
G01X36087Y30552D01*
G01X36120Y30520D01*
G01X36148Y30483D01*
G01X36170Y30443D01*
G01X36185Y30400D01*
G01X36195Y30353D01*
G01X36198Y30304D01*
G01X36196Y30263D01*
G01X36188Y30224D01*
G01X36175Y30185D01*
G01X36157Y30147D01*
G01X35985Y30114D01*
G01X35985Y30040D01*
G01X36190Y30040D01*
G01X36220Y30099D01*
G01X36242Y30165D01*
G01X36255Y30237D01*
G01X36259Y30320D01*
G01X36255Y30387D01*
G01X36242Y30452D01*
G01X36222Y30511D01*
G01X36195Y30566D01*
G01X36161Y30616D01*
G01X36121Y30661D01*
G01X36075Y30699D01*
G01X36024Y30732D01*
G01X35967Y30757D01*
G01X35907Y30776D01*
G01X35842Y30788D01*
G37*

%LPD*%

%LPD*%
G36*
G01X35861Y32735D02*
G01X35779Y32738D01*
G01X35694Y32735D01*
G01X35617Y32726D01*
G01X35550Y32713D01*
G01X35491Y32695D01*
G01X35441Y32673D01*
G01X35398Y32648D01*
G01X35363Y32619D01*
G01X35335Y32588D01*
G01X35315Y32554D01*
G01X35300Y32519D01*
G01X35291Y32483D01*
G01X35289Y32445D01*
G01X35291Y32409D01*
G01X35300Y32373D01*
G01X35315Y32338D01*
G01X35335Y32305D01*
G01X35363Y32274D01*
G01X35398Y32245D01*
G01X35441Y32220D01*
G01X35491Y32198D01*
G01X35550Y32180D01*
G01X35617Y32167D01*
G01X35694Y32159D01*
G01X35779Y32156D01*
G01X35861Y32159D01*
G01X35935Y32167D01*
G01X36000Y32180D01*
G01X36057Y32198D01*
G01X36107Y32220D01*
G01X36148Y32245D01*
G01X36183Y32274D01*
G01X36210Y32305D01*
G01X36230Y32338D01*
G01X36245Y32373D01*
G01X36254Y32409D01*
G01X36256Y32445D01*
G01X36254Y32483D01*
G01X36245Y32519D01*
G01X36230Y32554D01*
G01X36210Y32588D01*
G01X36183Y32619D01*
G01X36148Y32648D01*
G01X36107Y32673D01*
G01X36057Y32695D01*
G01X36000Y32713D01*
G01X35935Y32726D01*
G01X35861Y32735D01*
G37*

%LPC*%
G36*
G01X35893Y32612D02*
G01X35779Y32616D01*
G01X35660Y32612D01*
G01X35564Y32601D01*
G01X35488Y32585D01*
G01X35430Y32564D01*
G01X35388Y32538D01*
G01X35361Y32509D01*
G01X35347Y32478D01*
G01X35342Y32445D01*
G01X35347Y32413D01*
G01X35362Y32383D01*
G01X35389Y32355D01*
G01X35431Y32331D01*
G01X35489Y32310D01*
G01X35565Y32294D01*
G01X35661Y32284D01*
G01X35779Y32280D01*
G01X35893Y32284D01*
G01X35986Y32294D01*
G01X36060Y32310D01*
G01X36116Y32331D01*
G01X36155Y32355D01*
G01X36182Y32383D01*
G01X36196Y32413D01*
G01X36200Y32445D01*
G01X36196Y32478D01*
G01X36182Y32509D01*
G01X36155Y32538D01*
G01X36116Y32564D01*
G01X36060Y32585D01*
G01X35986Y32601D01*
G01X35893Y32612D01*
G37*

%LPD*%
G36*
G01X35355Y33721D02*
G01X35306Y33721D01*
G01X35306Y33340D01*
G01X35310Y33272D01*
G01X35320Y33208D01*
G01X35337Y33148D01*
G01X35361Y33093D01*
G01X35391Y33042D01*
G01X35427Y32997D01*
G01X35470Y32958D01*
G01X35519Y32925D01*
G01X35573Y32898D01*
G01X35634Y32878D01*
G01X35700Y32866D01*
G01X35771Y32862D01*
G01X35843Y32866D01*
G01X35910Y32877D01*
G01X35970Y32895D01*
G01X36025Y32919D01*
G01X36073Y32950D01*
G01X36116Y32987D01*
G01X36152Y33030D01*
G01X36182Y33077D01*
G01X36206Y33130D01*
G01X36222Y33187D01*
G01X36232Y33249D01*
G01X36236Y33314D01*
G01X36236Y33721D01*
G01X36190Y33721D01*
G01X36175Y33588D01*
G01X35991Y33586D01*
G01X35508Y33586D01*
G01X35461Y33587D01*
G01X35414Y33587D01*
G01X35367Y33588D01*
G01X35355Y33721D01*
G37*

%LPC*%
G36*
G01X36183Y33459D02*
G01X35362Y33459D01*
G01X35362Y33350D01*
G01X35365Y33296D01*
G01X35375Y33247D01*
G01X35390Y33202D01*
G01X35411Y33161D01*
G01X35438Y33126D01*
G01X35470Y33094D01*
G01X35508Y33068D01*
G01X35551Y33046D01*
G01X35599Y33029D01*
G01X35652Y33016D01*
G01X35709Y33009D01*
G01X35771Y33007D01*
G01X35836Y33009D01*
G01X35895Y33016D01*
G01X35949Y33029D01*
G01X35998Y33045D01*
G01X36040Y33067D01*
G01X36078Y33093D01*
G01X36110Y33123D01*
G01X36136Y33158D01*
G01X36156Y33196D01*
G01X36171Y33239D01*
G01X36180Y33286D01*
G01X36183Y33337D01*
G01X36183Y33459D01*
G37*

%LPD*%

%LPD*%
G36*
G01X13952Y16715D02*
G01X13904Y16720D01*
G01X13863Y16717D01*
G01X13824Y16705D01*
G01X13788Y16685D01*
G01X13756Y16657D01*
G01X13728Y16621D01*
G01X13704Y16575D01*
G01X13686Y16519D01*
G01X13673Y16454D01*
G01X13639Y16555D01*
G01X13587Y16623D01*
G01X13524Y16662D01*
G01X13452Y16675D01*
G01X13405Y16670D01*
G01X13362Y16655D01*
G01X13324Y16630D01*
G01X13291Y16596D01*
G01X13265Y16553D01*
G01X13245Y16501D01*
G01X13233Y16440D01*
G01X13229Y16370D01*
G01X13229Y15971D01*
G01X13277Y15971D01*
G01X13290Y16103D01*
G01X14097Y16103D01*
G01X14110Y15971D01*
G01X14158Y15971D01*
G01X14158Y16352D01*
G01X14153Y16443D01*
G01X14137Y16521D01*
G01X14112Y16585D01*
G01X14079Y16635D01*
G01X14041Y16674D01*
G01X13998Y16700D01*
G01X13952Y16715D01*
G37*

%LPC*%
G36*
G01X13504Y16544D02*
G01X13457Y16548D01*
G01X13379Y16534D01*
G01X13324Y16495D01*
G01X13292Y16428D01*
G01X13282Y16332D01*
G01X13282Y16235D01*
G01X13372Y16232D01*
G01X13556Y16230D01*
G01X13648Y16230D01*
G01X13648Y16304D01*
G01X13645Y16363D01*
G01X13637Y16413D01*
G01X13622Y16456D01*
G01X13602Y16490D01*
G01X13576Y16515D01*
G01X13543Y16533D01*
G01X13504Y16544D01*
G37*
G36*
G01X13952Y16584D02*
G01X13907Y16588D01*
G01X13860Y16584D01*
G01X13819Y16572D01*
G01X13784Y16552D01*
G01X13756Y16522D01*
G01X13734Y16484D01*
G01X13718Y16436D01*
G01X13709Y16378D01*
G01X13706Y16311D01*
G01X13706Y16230D01*
G01X13861Y16230D01*
G01X13910Y16231D01*
G01X13959Y16231D01*
G01X14007Y16232D01*
G01X14102Y16235D01*
G01X14102Y16327D01*
G01X14099Y16388D01*
G01X14090Y16440D01*
G01X14074Y16485D01*
G01X14052Y16522D01*
G01X14025Y16551D01*
G01X13991Y16571D01*
G01X13952Y16584D01*
G37*

%LPD*%
G36*
G01X13277Y17780D02*
G01X13229Y17780D01*
G01X13229Y17391D01*
G01X13277Y17391D01*
G01X13290Y17520D01*
G01X13380Y17522D01*
G01X13561Y17523D01*
G01X13653Y17523D01*
G01X13653Y17068D01*
G01X13561Y17068D01*
G01X13380Y17069D01*
G01X13290Y17071D01*
G01X13277Y17198D01*
G01X13229Y17198D01*
G01X13229Y16809D01*
G01X13277Y16809D01*
G01X13290Y16939D01*
G01X13474Y16941D01*
G01X13914Y16941D01*
G01X14006Y16940D01*
G01X14097Y16939D01*
G01X14110Y16809D01*
G01X14158Y16809D01*
G01X14158Y17198D01*
G01X14110Y17198D01*
G01X14097Y17071D01*
G01X14052Y17070D01*
G01X14005Y17069D01*
G01X13911Y17069D01*
G01X13862Y17068D01*
G01X13709Y17068D01*
G01X13709Y17523D01*
G01X13863Y17523D01*
G01X13911Y17522D01*
G01X13959Y17522D01*
G01X14052Y17521D01*
G01X14097Y17520D01*
G01X14110Y17391D01*
G01X14158Y17391D01*
G01X14158Y17780D01*
G01X14110Y17780D01*
G01X14097Y17653D01*
G01X14004Y17651D01*
G01X13911Y17650D01*
G01X13473Y17650D01*
G01X13381Y17651D01*
G01X13290Y17653D01*
G01X13277Y17780D01*
G37*

%LPD*%
G36*
G01X14158Y18460D02*
G01X14115Y18460D01*
G01X14087Y18265D01*
G01X14032Y18263D01*
G01X13977Y18263D01*
G01X13921Y18262D01*
G01X13429Y18262D01*
G01X13229Y18267D01*
G01X13213Y18247D01*
G01X13287Y17962D01*
G01X13335Y17962D01*
G01X13320Y18148D01*
G01X13864Y18148D01*
G01X13921Y18147D01*
G01X13977Y18146D01*
G01X14087Y18145D01*
G01X14115Y17947D01*
G01X14158Y17947D01*
G01X14158Y18460D01*
G37*

%LPD*%
G36*
G01X13297Y19174D02*
G01X13229Y19174D01*
G01X13229Y18610D01*
G01X13335Y18610D01*
G01X13335Y19098D01*
G01X14146Y18727D01*
G01X14158Y18740D01*
G01X14158Y18846D01*
G01X13297Y19174D01*
G37*

%LPD*%
G36*
G01X13937Y19869D02*
G01X13871Y19875D01*
G01X13805Y19869D01*
G01X13747Y19853D01*
G01X13698Y19826D01*
G01X13656Y19790D01*
G01X13623Y19746D01*
G01X13599Y19694D01*
G01X13584Y19635D01*
G01X13579Y19570D01*
G01X13580Y19533D01*
G01X13584Y19499D01*
G01X13590Y19465D01*
G01X13600Y19431D01*
G01X13335Y19448D01*
G01X13335Y19850D01*
G01X13229Y19850D01*
G01X13229Y19395D01*
G01X13663Y19364D01*
G01X13673Y19400D01*
G01X13664Y19434D01*
G01X13657Y19468D01*
G01X13654Y19502D01*
G01X13653Y19535D01*
G01X13657Y19582D01*
G01X13668Y19625D01*
G01X13687Y19662D01*
G01X13713Y19693D01*
G01X13745Y19719D01*
G01X13784Y19737D01*
G01X13830Y19749D01*
G01X13882Y19753D01*
G01X13934Y19750D01*
G01X13982Y19739D01*
G01X14023Y19722D01*
G01X14057Y19698D01*
G01X14085Y19668D01*
G01X14106Y19632D01*
G01X14118Y19590D01*
G01X14123Y19542D01*
G01X14122Y19520D01*
G01X14119Y19498D01*
G01X14115Y19476D01*
G01X14110Y19453D01*
G01X14026Y19431D01*
G01X13985Y19418D01*
G01X13958Y19403D01*
G01X13944Y19383D01*
G01X13940Y19357D01*
G01X13943Y19335D01*
G01X13951Y19316D01*
G01X13965Y19301D01*
G01X13983Y19291D01*
G01X14029Y19304D01*
G01X14068Y19323D01*
G01X14101Y19348D01*
G01X14128Y19378D01*
G01X14149Y19413D01*
G01X14164Y19453D01*
G01X14173Y19499D01*
G01X14176Y19550D01*
G01X14171Y19620D01*
G01X14154Y19683D01*
G01X14128Y19739D01*
G01X14092Y19786D01*
G01X14048Y19824D01*
G01X13996Y19852D01*
G01X13937Y19869D01*
G37*

%LPD*%
G36*
G01X13771Y20570D02*
G01X13686Y20574D01*
G01X13604Y20570D01*
G01X13530Y20562D01*
G01X13464Y20549D01*
G01X13408Y20531D01*
G01X13358Y20509D01*
G01X13317Y20484D01*
G01X13282Y20456D01*
G01X13255Y20425D01*
G01X13234Y20391D01*
G01X13220Y20357D01*
G01X13211Y20321D01*
G01X13208Y20284D01*
G01X13211Y20247D01*
G01X13220Y20210D01*
G01X13234Y20175D01*
G01X13255Y20142D01*
G01X13282Y20110D01*
G01X13317Y20082D01*
G01X13358Y20056D01*
G01X13408Y20034D01*
G01X13464Y20016D01*
G01X13530Y20003D01*
G01X13604Y19995D01*
G01X13686Y19992D01*
G01X13771Y19995D01*
G01X13846Y20003D01*
G01X13914Y20016D01*
G01X13972Y20034D01*
G01X14023Y20056D01*
G01X14065Y20082D01*
G01X14100Y20110D01*
G01X14128Y20142D01*
G01X14150Y20175D01*
G01X14164Y20210D01*
G01X14173Y20247D01*
G01X14176Y20284D01*
G01X14173Y20321D01*
G01X14164Y20357D01*
G01X14150Y20391D01*
G01X14128Y20425D01*
G01X14100Y20456D01*
G01X14065Y20484D01*
G01X14023Y20509D01*
G01X13972Y20531D01*
G01X13914Y20549D01*
G01X13846Y20562D01*
G01X13771Y20570D01*
G37*

%LPC*%
G36*
G01X13804Y20445D02*
G01X13686Y20449D01*
G01X13572Y20445D01*
G01X13479Y20435D01*
G01X13405Y20420D01*
G01X13350Y20399D01*
G01X13310Y20374D01*
G01X13283Y20346D01*
G01X13269Y20316D01*
G01X13264Y20284D01*
G01X13269Y20251D01*
G01X13283Y20220D01*
G01X13310Y20191D01*
G01X13350Y20166D01*
G01X13405Y20144D01*
G01X13479Y20128D01*
G01X13572Y20117D01*
G01X13686Y20114D01*
G01X13805Y20117D01*
G01X13901Y20128D01*
G01X13977Y20144D01*
G01X14035Y20166D01*
G01X14077Y20191D01*
G01X14104Y20220D01*
G01X14118Y20251D01*
G01X14123Y20284D01*
G01X14118Y20316D01*
G01X14103Y20346D01*
G01X14076Y20374D01*
G01X14034Y20399D01*
G01X13976Y20420D01*
G01X13900Y20435D01*
G01X13804Y20445D01*
G37*

%LPD*%

%LPD*%
G36*
G01X16952Y17028D02*
G01X16904Y17028D01*
G01X16891Y16918D01*
G01X16015Y16619D01*
G01X16015Y16537D01*
G01X16886Y16240D01*
G01X16904Y16129D01*
G01X16952Y16129D01*
G01X16952Y16438D01*
G01X16904Y16438D01*
G01X16886Y16304D01*
G01X16642Y16383D01*
G01X16642Y16705D01*
G01X16886Y16786D01*
G01X16904Y16649D01*
G01X16952Y16649D01*
G01X16952Y17028D01*
G37*

%LPC*%
G36*
G01X16589Y16400D02*
G01X16589Y16687D01*
G01X16157Y16543D01*
G01X16589Y16400D01*
G37*

%LPD*%
G36*
G01X16068Y18221D02*
G01X16023Y18221D01*
G01X16023Y17952D01*
G01X16795Y17650D01*
G01X16023Y17338D01*
G01X16023Y17084D01*
G01X16068Y17084D01*
G01X16086Y17211D01*
G01X16886Y17211D01*
G01X16904Y17084D01*
G01X16952Y17084D01*
G01X16952Y17396D01*
G01X16904Y17396D01*
G01X16886Y17274D01*
G01X16447Y17274D01*
G01X16415Y17273D01*
G01X16344Y17271D01*
G01X16251Y17268D01*
G01X16155Y17266D01*
G01X16952Y17592D01*
G01X16952Y17650D01*
G01X16152Y17965D01*
G01X16617Y17965D01*
G01X16800Y17964D01*
G01X16891Y17962D01*
G01X16904Y17840D01*
G01X16952Y17840D01*
G01X16952Y18219D01*
G01X16904Y18219D01*
G01X16891Y18092D01*
G01X16798Y18090D01*
G01X16705Y18090D01*
G01X16614Y18089D01*
G01X16360Y18089D01*
G01X16268Y18090D01*
G01X16176Y18090D01*
G01X16084Y18092D01*
G01X16068Y18221D01*
G37*

%LPD*%
G36*
G01X16761Y18917D02*
G01X16706Y18923D01*
G01X16661Y18919D01*
G01X16619Y18909D01*
G01X16582Y18892D01*
G01X16548Y18868D01*
G01X16519Y18836D01*
G01X16495Y18797D01*
G01X16475Y18751D01*
G01X16462Y18696D01*
G01X16424Y18781D01*
G01X16370Y18843D01*
G01X16305Y18881D01*
G01X16231Y18895D01*
G01X16182Y18890D01*
G01X16138Y18876D01*
G01X16098Y18854D01*
G01X16065Y18823D01*
G01X16038Y18785D01*
G01X16019Y18740D01*
G01X16006Y18688D01*
G01X16002Y18630D01*
G01X16014Y18540D01*
G01X16047Y18463D01*
G01X16103Y18405D01*
G01X16183Y18371D01*
G01X16204Y18382D01*
G01X16219Y18397D01*
G01X16228Y18415D01*
G01X16231Y18435D01*
G01X16226Y18464D01*
G01X16210Y18486D01*
G01X16183Y18501D01*
G01X16145Y18514D01*
G01X16066Y18536D01*
G01X16061Y18555D01*
G01X16059Y18572D01*
G01X16058Y18589D01*
G01X16058Y18605D01*
G01X16070Y18678D01*
G01X16105Y18733D01*
G01X16160Y18766D01*
G01X16236Y18778D01*
G01X16319Y18763D01*
G01X16379Y18723D01*
G01X16416Y18659D01*
G01X16429Y18575D01*
G01X16429Y18519D01*
G01X16493Y18519D01*
G01X16493Y18585D01*
G01X16496Y18635D01*
G01X16507Y18680D01*
G01X16525Y18717D01*
G01X16550Y18747D01*
G01X16580Y18771D01*
G01X16616Y18787D01*
G01X16657Y18797D01*
G01X16703Y18801D01*
G01X16789Y18786D01*
G01X16857Y18746D01*
G01X16901Y18681D01*
G01X16917Y18592D01*
G01X16916Y18573D01*
G01X16915Y18553D01*
G01X16912Y18532D01*
G01X16907Y18511D01*
G01X16823Y18488D01*
G01X16782Y18476D01*
G01X16755Y18461D01*
G01X16739Y18440D01*
G01X16734Y18412D01*
G01X16736Y18392D01*
G01X16744Y18374D01*
G01X16758Y18359D01*
G01X16777Y18346D01*
G01X16824Y18359D01*
G01X16864Y18378D01*
G01X16898Y18405D01*
G01X16924Y18436D01*
G01X16945Y18473D01*
G01X16959Y18516D01*
G01X16968Y18562D01*
G01X16970Y18613D01*
G01X16965Y18679D01*
G01X16950Y18739D01*
G01X16927Y18792D01*
G01X16895Y18837D01*
G01X16856Y18873D01*
G01X16812Y18900D01*
G01X16761Y18917D01*
G37*

%LPD*%
G36*
G01X16952Y19598D02*
G01X16909Y19598D01*
G01X16881Y19403D01*
G01X16771Y19401D01*
G01X16715Y19401D01*
G01X16658Y19400D01*
G01X16223Y19400D01*
G01X16023Y19405D01*
G01X16007Y19387D01*
G01X16081Y19100D01*
G01X16129Y19100D01*
G01X16112Y19286D01*
G01X16715Y19286D01*
G01X16771Y19285D01*
G01X16826Y19285D01*
G01X16881Y19283D01*
G01X16909Y19085D01*
G01X16952Y19085D01*
G01X16952Y19598D01*
G37*

%LPD*%
G36*
G01X16952Y20320D02*
G01X16843Y20320D01*
G01X16843Y19837D01*
G01X16795Y19884D01*
G01X16750Y19929D01*
G01X16709Y19968D01*
G01X16676Y19999D01*
G01X16600Y20071D01*
G01X16535Y20131D01*
G01X16477Y20179D01*
G01X16426Y20217D01*
G01X16379Y20245D01*
G01X16336Y20265D01*
G01X16292Y20275D01*
G01X16249Y20279D01*
G01X16196Y20275D01*
G01X16149Y20264D01*
G01X16107Y20244D01*
G01X16072Y20217D01*
G01X16042Y20181D01*
G01X16021Y20136D01*
G01X16007Y20083D01*
G01X16002Y20020D01*
G01X16005Y19969D01*
G01X16016Y19921D01*
G01X16032Y19877D01*
G01X16055Y19836D01*
G01X16084Y19801D01*
G01X16120Y19773D01*
G01X16163Y19753D01*
G01X16213Y19740D01*
G01X16231Y19753D01*
G01X16244Y19769D01*
G01X16253Y19788D01*
G01X16256Y19809D01*
G01X16251Y19832D01*
G01X16236Y19853D01*
G01X16208Y19870D01*
G01X16168Y19885D01*
G01X16066Y19913D01*
G01X16060Y19953D01*
G01X16059Y19971D01*
G01X16058Y19987D01*
G01X16072Y20057D01*
G01X16112Y20111D01*
G01X16174Y20145D01*
G01X16256Y20157D01*
G01X16298Y20154D01*
G01X16339Y20145D01*
G01X16381Y20130D01*
G01X16425Y20108D01*
G01X16471Y20081D01*
G01X16520Y20047D01*
G01X16571Y20006D01*
G01X16627Y19959D01*
G01X16682Y19910D01*
G01X16740Y19858D01*
G01X16802Y19804D01*
G01X16866Y19748D01*
G01X16952Y19748D01*
G01X16952Y20320D01*
G37*

%LPD*%

%LPD*%
G36*
G01X19558Y16880D02*
G01X19297Y16891D01*
G01X19297Y16819D01*
G01X19497Y16771D01*
G01X19497Y16451D01*
G01X18690Y16451D01*
G01X18674Y16583D01*
G01X18629Y16583D01*
G01X18629Y16189D01*
G01X18674Y16189D01*
G01X18690Y16322D01*
G01X18874Y16324D01*
G01X19312Y16324D01*
G01X19404Y16323D01*
G01X19497Y16322D01*
G01X19510Y16189D01*
G01X19558Y16189D01*
G01X19558Y16880D01*
G37*

%LPD*%
G36*
G01X18674Y17381D02*
G01X18629Y17381D01*
G01X18629Y16990D01*
G01X18674Y16990D01*
G01X18690Y17119D01*
G01X18782Y17121D01*
G01X18874Y17121D01*
G01X18966Y17122D01*
G01X19222Y17122D01*
G01X19314Y17121D01*
G01X19405Y17121D01*
G01X19497Y17119D01*
G01X19510Y16990D01*
G01X19558Y16990D01*
G01X19558Y17381D01*
G01X19510Y17381D01*
G01X19495Y17251D01*
G01X19311Y17249D01*
G01X18874Y17249D01*
G01X18690Y17251D01*
G01X18674Y17381D01*
G37*

%LPD*%
G36*
G01X19162Y18338D02*
G01X19116Y18338D01*
G01X19116Y17978D01*
G01X19162Y17978D01*
G01X19175Y18125D01*
G01X19240Y18125D01*
G01X19370Y18127D01*
G01X19490Y18127D01*
G01X19503Y18088D01*
G01X19512Y18050D01*
G01X19516Y18011D01*
G01X19518Y17970D01*
G01X19515Y17918D01*
G01X19505Y17870D01*
G01X19489Y17826D01*
G01X19467Y17785D01*
G01X19439Y17749D01*
G01X19406Y17716D01*
G01X19366Y17688D01*
G01X19321Y17665D01*
G01X19271Y17646D01*
G01X19216Y17633D01*
G01X19156Y17625D01*
G01X19091Y17622D01*
G01X19026Y17625D01*
G01X18966Y17634D01*
G01X18911Y17648D01*
G01X18861Y17667D01*
G01X18817Y17691D01*
G01X18778Y17720D01*
G01X18745Y17752D01*
G01X18717Y17789D01*
G01X18695Y17829D01*
G01X18680Y17872D01*
G01X18670Y17919D01*
G01X18667Y17967D01*
G01X18669Y18010D01*
G01X18677Y18050D01*
G01X18689Y18088D01*
G01X18708Y18125D01*
G01X18880Y18158D01*
G01X18880Y18234D01*
G01X18674Y18232D01*
G01X18645Y18172D01*
G01X18623Y18107D01*
G01X18610Y18035D01*
G01X18606Y17952D01*
G01X18610Y17884D01*
G01X18623Y17820D01*
G01X18642Y17761D01*
G01X18669Y17705D01*
G01X18703Y17656D01*
G01X18744Y17611D01*
G01X18790Y17573D01*
G01X18841Y17540D01*
G01X18898Y17514D01*
G01X18958Y17496D01*
G01X19023Y17484D01*
G01X19091Y17480D01*
G01X19161Y17484D01*
G01X19226Y17495D01*
G01X19287Y17514D01*
G01X19344Y17540D01*
G01X19395Y17572D01*
G01X19442Y17610D01*
G01X19482Y17654D01*
G01X19516Y17704D01*
G01X19543Y17758D01*
G01X19562Y17818D01*
G01X19575Y17882D01*
G01X19579Y17950D01*
G01X19573Y18030D01*
G01X19557Y18107D01*
G01X19531Y18180D01*
G01X19497Y18252D01*
G01X19301Y18252D01*
G01X19236Y18253D01*
G01X19172Y18254D01*
G01X19162Y18338D01*
G37*

%LPD*%
G36*
G01X18674Y19382D02*
G01X18629Y19382D01*
G01X18629Y18994D01*
G01X18674Y18994D01*
G01X18690Y19121D01*
G01X18872Y19123D01*
G01X19053Y19123D01*
G01X19053Y18671D01*
G01X18962Y18671D01*
G01X18780Y18672D01*
G01X18690Y18674D01*
G01X18674Y18801D01*
G01X18629Y18801D01*
G01X18629Y18412D01*
G01X18674Y18412D01*
G01X18690Y18542D01*
G01X18874Y18544D01*
G01X19314Y18544D01*
G01X19405Y18543D01*
G01X19497Y18542D01*
G01X19510Y18412D01*
G01X19558Y18412D01*
G01X19558Y18801D01*
G01X19510Y18801D01*
G01X19497Y18674D01*
G01X19452Y18673D01*
G01X19406Y18672D01*
G01X19311Y18672D01*
G01X19262Y18671D01*
G01X19109Y18671D01*
G01X19109Y19123D01*
G01X19359Y19123D01*
G01X19452Y19122D01*
G01X19497Y19121D01*
G01X19510Y18994D01*
G01X19558Y18994D01*
G01X19558Y19382D01*
G01X19510Y19382D01*
G01X19497Y19253D01*
G01X19404Y19251D01*
G01X19312Y19251D01*
G01X19220Y19250D01*
G01X18966Y19250D01*
G01X18874Y19251D01*
G01X18782Y19251D01*
G01X18690Y19253D01*
G01X18674Y19382D01*
G37*

%LPD*%
G36*
G01X18875Y20190D02*
G01X18875Y20256D01*
G01X18629Y20248D01*
G01X18629Y19484D01*
G01X18875Y19474D01*
G01X18875Y19542D01*
G01X18687Y19580D01*
G01X18687Y19799D01*
G01X18781Y19800D01*
G01X18874Y19801D01*
G01X19313Y19801D01*
G01X19495Y19799D01*
G01X19510Y19657D01*
G01X19558Y19657D01*
G01X19558Y20076D01*
G01X19510Y20076D01*
G01X19495Y19931D01*
G01X19403Y19929D01*
G01X19311Y19929D01*
G01X19220Y19928D01*
G01X18966Y19928D01*
G01X18874Y19929D01*
G01X18781Y19929D01*
G01X18687Y19931D01*
G01X18687Y20149D01*
G01X18875Y20190D01*
G37*

%LPD*%

%LPD*%
G36*
G01X26925Y32571D02*
G01X26843Y32575D01*
G01X26775Y32571D01*
G01X26711Y32559D01*
G01X26652Y32539D01*
G01X26596Y32512D01*
G01X26546Y32478D01*
G01X26502Y32438D01*
G01X26464Y32392D01*
G01X26431Y32341D01*
G01X26405Y32284D01*
G01X26386Y32223D01*
G01X26375Y32158D01*
G01X26371Y32090D01*
G01X26375Y32020D01*
G01X26386Y31955D01*
G01X26405Y31894D01*
G01X26431Y31837D01*
G01X26463Y31786D01*
G01X26501Y31739D01*
G01X26545Y31699D01*
G01X26595Y31665D01*
G01X26649Y31638D01*
G01X26709Y31618D01*
G01X26773Y31606D01*
G01X26841Y31602D01*
G01X26921Y31608D01*
G01X26998Y31624D01*
G01X27071Y31649D01*
G01X27143Y31683D01*
G01X27143Y31880D01*
G01X27144Y31946D01*
G01X27145Y32011D01*
G01X27229Y32016D01*
G01X27229Y32064D01*
G01X26869Y32064D01*
G01X26869Y32016D01*
G01X27016Y32006D01*
G01X27016Y31941D01*
G01X27017Y31875D01*
G01X27018Y31810D01*
G01X27018Y31691D01*
G01X26979Y31679D01*
G01X26941Y31670D01*
G01X26902Y31665D01*
G01X26861Y31663D01*
G01X26809Y31666D01*
G01X26761Y31676D01*
G01X26717Y31692D01*
G01X26676Y31714D01*
G01X26639Y31742D01*
G01X26607Y31775D01*
G01X26579Y31815D01*
G01X26556Y31860D01*
G01X26537Y31910D01*
G01X26524Y31965D01*
G01X26515Y32025D01*
G01X26513Y32090D01*
G01X26516Y32155D01*
G01X26525Y32215D01*
G01X26539Y32270D01*
G01X26558Y32319D01*
G01X26582Y32364D01*
G01X26610Y32403D01*
G01X26643Y32436D01*
G01X26680Y32464D01*
G01X26720Y32486D01*
G01X26763Y32501D01*
G01X26810Y32511D01*
G01X26858Y32514D01*
G01X26901Y32512D01*
G01X26941Y32504D01*
G01X26979Y32492D01*
G01X27016Y32473D01*
G01X27049Y32301D01*
G01X27125Y32301D01*
G01X27123Y32506D01*
G01X27063Y32536D01*
G01X26998Y32558D01*
G01X26925Y32571D01*
G37*

%LPD*%
G36*
G01X30493Y31788D02*
G01X30455Y31795D01*
G01X30419Y31788D01*
G01X30389Y31767D01*
G01X30369Y31736D01*
G01X30361Y31699D01*
G01X30369Y31663D01*
G01X30389Y31633D01*
G01X30419Y31612D01*
G01X30455Y31605D01*
G01X30493Y31612D01*
G01X30523Y31633D01*
G01X30544Y31663D01*
G01X30552Y31699D01*
G01X30544Y31736D01*
G01X30523Y31767D01*
G01X30493Y31788D01*
G37*

%LPD*%
G36*
G01X31069Y32568D02*
G01X31006Y32572D01*
G01X30955Y32569D01*
G01X30908Y32560D01*
G01X30863Y32544D01*
G01X30823Y32520D01*
G01X30788Y32491D01*
G01X30760Y32455D01*
G01X30739Y32411D01*
G01X30727Y32362D01*
G01X30740Y32344D01*
G01X30756Y32331D01*
G01X30775Y32322D01*
G01X30795Y32318D01*
G01X30820Y32324D01*
G01X30840Y32339D01*
G01X30857Y32367D01*
G01X30872Y32407D01*
G01X30900Y32509D01*
G01X30920Y32513D01*
G01X30939Y32516D01*
G01X30957Y32518D01*
G01X30973Y32519D01*
G01X31044Y32505D01*
G01X31097Y32464D01*
G01X31131Y32401D01*
G01X31143Y32318D01*
G01X31140Y32277D01*
G01X31131Y32235D01*
G01X31116Y32193D01*
G01X31095Y32149D01*
G01X31067Y32104D01*
G01X31033Y32055D01*
G01X30992Y32004D01*
G01X30945Y31948D01*
G01X30897Y31894D01*
G01X30846Y31835D01*
G01X30791Y31773D01*
G01X30734Y31709D01*
G01X30734Y31623D01*
G01X31306Y31623D01*
G01X31306Y31732D01*
G01X30823Y31732D01*
G01X30871Y31779D01*
G01X30915Y31825D01*
G01X30954Y31866D01*
G01X30986Y31899D01*
G01X31058Y31976D01*
G01X31117Y32042D01*
G01X31166Y32099D01*
G01X31204Y32150D01*
G01X31232Y32196D01*
G01X31251Y32240D01*
G01X31262Y32282D01*
G01X31265Y32326D01*
G01X31262Y32378D01*
G01X31250Y32426D01*
G01X31231Y32468D01*
G01X31203Y32503D01*
G01X31167Y32533D01*
G01X31123Y32554D01*
G01X31069Y32568D01*
G37*

%LPD*%
G36*
G01X29954Y32568D02*
G01X29891Y32572D01*
G01X29840Y32569D01*
G01X29793Y32560D01*
G01X29748Y32544D01*
G01X29708Y32520D01*
G01X29673Y32491D01*
G01X29645Y32455D01*
G01X29624Y32411D01*
G01X29612Y32362D01*
G01X29624Y32344D01*
G01X29640Y32331D01*
G01X29659Y32322D01*
G01X29680Y32318D01*
G01X29705Y32324D01*
G01X29725Y32339D01*
G01X29742Y32367D01*
G01X29757Y32407D01*
G01X29784Y32509D01*
G01X29805Y32513D01*
G01X29824Y32516D01*
G01X29842Y32518D01*
G01X29858Y32519D01*
G01X29929Y32505D01*
G01X29982Y32464D01*
G01X30016Y32401D01*
G01X30028Y32318D01*
G01X30025Y32277D01*
G01X30016Y32235D01*
G01X30001Y32193D01*
G01X29980Y32149D01*
G01X29952Y32104D01*
G01X29918Y32055D01*
G01X29877Y32004D01*
G01X29830Y31948D01*
G01X29782Y31894D01*
G01X29731Y31835D01*
G01X29676Y31773D01*
G01X29619Y31709D01*
G01X29619Y31623D01*
G01X30191Y31623D01*
G01X30191Y31732D01*
G01X29708Y31732D01*
G01X29755Y31779D01*
G01X29800Y31825D01*
G01X29839Y31866D01*
G01X29871Y31899D01*
G01X29942Y31976D01*
G01X30002Y32042D01*
G01X30051Y32099D01*
G01X30089Y32150D01*
G01X30117Y32196D01*
G01X30136Y32240D01*
G01X30147Y32282D01*
G01X30150Y32326D01*
G01X30147Y32378D01*
G01X30135Y32426D01*
G01X30116Y32468D01*
G01X30088Y32503D01*
G01X30052Y32533D01*
G01X30007Y32554D01*
G01X29954Y32568D01*
G37*

%LPD*%
G36*
G01X29139Y32552D02*
G01X28375Y32552D01*
G01X28365Y32306D01*
G01X28433Y32306D01*
G01X28471Y32494D01*
G01X28690Y32494D01*
G01X28691Y32401D01*
G01X28692Y32215D01*
G01X28692Y31867D01*
G01X28691Y31776D01*
G01X28690Y31686D01*
G01X28547Y31671D01*
G01X28547Y31623D01*
G01X28967Y31623D01*
G01X28967Y31671D01*
G01X28822Y31686D01*
G01X28820Y31778D01*
G01X28820Y31870D01*
G01X28819Y31962D01*
G01X28819Y32215D01*
G01X28820Y32401D01*
G01X28822Y32494D01*
G01X29040Y32494D01*
G01X29081Y32306D01*
G01X29147Y32306D01*
G01X29139Y32552D01*
G37*

%LPD*%
G36*
G01X27691Y32552D02*
G01X27303Y32552D01*
G01X27303Y32504D01*
G01X27432Y32491D01*
G01X27434Y32399D01*
G01X27434Y32307D01*
G01X27435Y32215D01*
G01X27435Y31960D01*
G01X27434Y31867D01*
G01X27434Y31775D01*
G01X27432Y31683D01*
G01X27303Y31671D01*
G01X27303Y31623D01*
G01X27691Y31623D01*
G01X27691Y31671D01*
G01X27564Y31683D01*
G01X27563Y31729D01*
G01X27563Y31775D01*
G01X27562Y31823D01*
G01X27562Y32072D01*
G01X28014Y32072D01*
G01X28014Y31822D01*
G01X28013Y31729D01*
G01X28012Y31683D01*
G01X27885Y31671D01*
G01X27885Y31623D01*
G01X28273Y31623D01*
G01X28273Y31671D01*
G01X28144Y31683D01*
G01X28142Y31777D01*
G01X28142Y31870D01*
G01X28141Y31962D01*
G01X28141Y32215D01*
G01X28142Y32308D01*
G01X28142Y32400D01*
G01X28144Y32491D01*
G01X28273Y32504D01*
G01X28273Y32552D01*
G01X27885Y32552D01*
G01X27885Y32504D01*
G01X28012Y32491D01*
G01X28013Y32401D01*
G01X28014Y32219D01*
G01X28014Y32128D01*
G01X27562Y32128D01*
G01X27562Y32219D01*
G01X27563Y32401D01*
G01X27564Y32491D01*
G01X27691Y32504D01*
G01X27691Y32552D01*
G37*

%LPD*%
G36*
G01X26272Y32552D02*
G01X25880Y32552D01*
G01X25880Y32504D01*
G01X26010Y32491D01*
G01X26012Y32399D01*
G01X26012Y32307D01*
G01X26013Y32215D01*
G01X26013Y31960D01*
G01X26012Y31867D01*
G01X26012Y31775D01*
G01X26010Y31683D01*
G01X25880Y31671D01*
G01X25880Y31623D01*
G01X26272Y31623D01*
G01X26272Y31671D01*
G01X26142Y31686D01*
G01X26140Y31870D01*
G01X26140Y32308D01*
G01X26141Y32400D01*
G01X26142Y32491D01*
G01X26272Y32504D01*
G01X26272Y32552D01*
G37*

%LPD*%
G36*
G01X25474Y32552D02*
G01X25080Y32552D01*
G01X25080Y32504D01*
G01X25212Y32491D01*
G01X25214Y32400D01*
G01X25214Y32308D01*
G01X25215Y32215D01*
G01X25215Y31960D01*
G01X25214Y31869D01*
G01X25214Y31777D01*
G01X25212Y31683D01*
G01X25080Y31671D01*
G01X25080Y31623D01*
G01X25771Y31623D01*
G01X25781Y31884D01*
G01X25710Y31884D01*
G01X25662Y31683D01*
G01X25342Y31683D01*
G01X25342Y32491D01*
G01X25474Y32504D01*
G01X25474Y32552D01*
G37*

%LPD*%
G36*
G01X29495Y32011D02*
G01X29170Y32011D01*
G01X29170Y31932D01*
G01X29495Y31932D01*
G01X29495Y32011D01*
G37*

%LPD*%

%LPD*%
G36*
G01X28827Y42305D02*
G01X28766Y42308D01*
G01X28706Y42304D01*
G01X28652Y42291D01*
G01X28603Y42269D01*
G01X28562Y42240D01*
G01X28528Y42205D01*
G01X28503Y42162D01*
G01X28487Y42115D01*
G01X28481Y42062D01*
G01X28484Y42017D01*
G01X28494Y41977D01*
G01X28510Y41940D01*
G01X28532Y41906D01*
G01X28561Y41874D01*
G01X28597Y41845D01*
G01X28640Y41817D01*
G01X28690Y41790D01*
G01X28609Y41733D01*
G01X28559Y41674D01*
G01X28532Y41615D01*
G01X28525Y41556D01*
G01X28529Y41511D01*
G01X28541Y41470D01*
G01X28561Y41434D01*
G01X28588Y41402D01*
G01X28621Y41376D01*
G01X28662Y41357D01*
G01X28709Y41345D01*
G01X28761Y41341D01*
G01X28814Y41345D01*
G01X28864Y41357D01*
G01X28908Y41376D01*
G01X28947Y41403D01*
G01X28979Y41436D01*
G01X29002Y41476D01*
G01X29017Y41521D01*
G01X29022Y41572D01*
G01X29013Y41648D01*
G01X28982Y41717D01*
G01X28928Y41778D01*
G01X28850Y41833D01*
G01X28937Y41884D01*
G01X29001Y41940D01*
G01X29040Y42005D01*
G01X29053Y42080D01*
G01X29047Y42132D01*
G01X29032Y42178D01*
G01X29007Y42217D01*
G01X28973Y42249D01*
G01X28932Y42275D01*
G01X28883Y42293D01*
G01X28827Y42305D01*
G37*

%LPC*%
G36*
G01X28825Y41717D02*
G01X28735Y41770D01*
G01X28682Y41723D01*
G01X28647Y41674D01*
G01X28627Y41619D01*
G01X28621Y41556D01*
G01X28631Y41495D01*
G01X28659Y41444D01*
G01X28703Y41408D01*
G01X28763Y41394D01*
G01X28822Y41405D01*
G01X28872Y41435D01*
G01X28906Y41483D01*
G01X28918Y41546D01*
G01X28910Y41605D01*
G01X28881Y41662D01*
G01X28825Y41717D01*
G37*
G36*
G01X28834Y42242D02*
G01X28761Y42255D01*
G01X28693Y42243D01*
G01X28640Y42208D01*
G01X28605Y42153D01*
G01X28593Y42082D01*
G01X28604Y42021D01*
G01X28639Y41965D01*
G01X28704Y41911D01*
G01X28807Y41854D01*
G01X28866Y41898D01*
G01X28908Y41946D01*
G01X28933Y42001D01*
G01X28941Y42067D01*
G01X28928Y42145D01*
G01X28891Y42204D01*
G01X28834Y42242D01*
G37*

%LPD*%
G36*
G01X30038Y42291D02*
G01X29657Y42291D01*
G01X29590Y42287D01*
G01X29526Y42277D01*
G01X29466Y42260D01*
G01X29411Y42236D01*
G01X29360Y42206D01*
G01X29315Y42170D01*
G01X29275Y42127D01*
G01X29242Y42078D01*
G01X29215Y42024D01*
G01X29196Y41963D01*
G01X29184Y41897D01*
G01X29180Y41826D01*
G01X29183Y41754D01*
G01X29195Y41687D01*
G01X29213Y41627D01*
G01X29237Y41572D01*
G01X29268Y41523D01*
G01X29305Y41481D01*
G01X29348Y41445D01*
G01X29395Y41415D01*
G01X29448Y41391D01*
G01X29505Y41375D01*
G01X29567Y41364D01*
G01X29632Y41361D01*
G01X30038Y41361D01*
G01X30038Y41409D01*
G01X29906Y41422D01*
G01X29904Y41606D01*
G01X29904Y42090D01*
G01X29905Y42137D01*
G01X29905Y42184D01*
G01X29906Y42230D01*
G01X30038Y42242D01*
G01X30038Y42291D01*
G37*

%LPC*%
G36*
G01X29777Y42235D02*
G01X29668Y42235D01*
G01X29614Y42232D01*
G01X29564Y42222D01*
G01X29520Y42207D01*
G01X29479Y42186D01*
G01X29444Y42159D01*
G01X29413Y42126D01*
G01X29386Y42089D01*
G01X29364Y42046D01*
G01X29347Y41998D01*
G01X29334Y41945D01*
G01X29327Y41888D01*
G01X29325Y41826D01*
G01X29327Y41761D01*
G01X29334Y41702D01*
G01X29347Y41648D01*
G01X29363Y41599D01*
G01X29385Y41556D01*
G01X29411Y41519D01*
G01X29441Y41487D01*
G01X29476Y41461D01*
G01X29514Y41441D01*
G01X29557Y41426D01*
G01X29604Y41417D01*
G01X29655Y41414D01*
G01X29777Y41414D01*
G01X29777Y42235D01*
G37*

%LPD*%

%LPD*%
G36*
G01X31110Y42291D02*
G01X31001Y42291D01*
G01X31001Y42001D01*
G01X30854Y42001D01*
G01X30854Y41920D01*
G01X31001Y41920D01*
G01X31001Y41346D01*
G01X31077Y41346D01*
G01X31489Y41932D01*
G01X31489Y42001D01*
G01X31110Y42001D01*
G01X31110Y42291D01*
G37*

%LPC*%
G36*
G01X31418Y41920D02*
G01X31110Y41920D01*
G01X31110Y41478D01*
G01X31418Y41920D01*
G37*

%LPD*%
G36*
G01X32451Y42291D02*
G01X32070Y42291D01*
G01X32003Y42287D01*
G01X31939Y42277D01*
G01X31879Y42260D01*
G01X31824Y42236D01*
G01X31773Y42206D01*
G01X31728Y42170D01*
G01X31688Y42127D01*
G01X31655Y42078D01*
G01X31628Y42024D01*
G01X31609Y41963D01*
G01X31597Y41897D01*
G01X31593Y41826D01*
G01X31596Y41754D01*
G01X31608Y41687D01*
G01X31626Y41627D01*
G01X31650Y41572D01*
G01X31681Y41523D01*
G01X31718Y41481D01*
G01X31761Y41445D01*
G01X31808Y41415D01*
G01X31861Y41391D01*
G01X31918Y41375D01*
G01X31980Y41364D01*
G01X32045Y41361D01*
G01X32451Y41361D01*
G01X32451Y41409D01*
G01X32319Y41422D01*
G01X32317Y41606D01*
G01X32317Y42090D01*
G01X32318Y42137D01*
G01X32318Y42184D01*
G01X32319Y42230D01*
G01X32451Y42242D01*
G01X32451Y42291D01*
G37*

%LPC*%
G36*
G01X32190Y42235D02*
G01X32081Y42235D01*
G01X32027Y42232D01*
G01X31977Y42222D01*
G01X31933Y42207D01*
G01X31892Y42186D01*
G01X31857Y42159D01*
G01X31826Y42126D01*
G01X31799Y42089D01*
G01X31777Y42046D01*
G01X31760Y41998D01*
G01X31747Y41945D01*
G01X31740Y41888D01*
G01X31738Y41826D01*
G01X31740Y41761D01*
G01X31747Y41702D01*
G01X31760Y41648D01*
G01X31776Y41599D01*
G01X31798Y41556D01*
G01X31824Y41519D01*
G01X31854Y41487D01*
G01X31889Y41461D01*
G01X31927Y41441D01*
G01X31970Y41426D01*
G01X32017Y41417D01*
G01X32068Y41414D01*
G01X32190Y41414D01*
G01X32190Y42235D01*
G37*

%LPD*%

%LPD*%
G36*
G01X33942Y42255D02*
G01X33836Y42255D01*
G01X33508Y41391D01*
G01X33508Y41323D01*
G01X34072Y41323D01*
G01X34072Y41432D01*
G01X33584Y41432D01*
G01X33955Y42242D01*
G01X33942Y42255D01*
G37*

%LPD*%
G36*
G01X35065Y42255D02*
G01X34687Y42255D01*
G01X34619Y42251D01*
G01X34555Y42241D01*
G01X34495Y42224D01*
G01X34440Y42201D01*
G01X34389Y42171D01*
G01X34344Y42134D01*
G01X34305Y42091D01*
G01X34272Y42043D01*
G01X34245Y41988D01*
G01X34225Y41928D01*
G01X34213Y41862D01*
G01X34209Y41790D01*
G01X34213Y41718D01*
G01X34224Y41651D01*
G01X34242Y41590D01*
G01X34266Y41536D01*
G01X34297Y41487D01*
G01X34333Y41444D01*
G01X34376Y41408D01*
G01X34423Y41377D01*
G01X34476Y41354D01*
G01X34533Y41336D01*
G01X34595Y41326D01*
G01X34661Y41323D01*
G01X35065Y41323D01*
G01X35065Y41371D01*
G01X34936Y41386D01*
G01X34934Y41478D01*
G01X34934Y41571D01*
G01X34933Y41664D01*
G01X34933Y41957D01*
G01X34934Y42005D01*
G01X34934Y42099D01*
G01X34935Y42146D01*
G01X34936Y42191D01*
G01X35065Y42207D01*
G01X35065Y42255D01*
G37*

%LPC*%
G36*
G01X34803Y42199D02*
G01X34694Y42199D01*
G01X34641Y42196D01*
G01X34592Y42186D01*
G01X34548Y42171D01*
G01X34508Y42150D01*
G01X34472Y42123D01*
G01X34441Y42091D01*
G01X34415Y42053D01*
G01X34393Y42010D01*
G01X34376Y41962D01*
G01X34364Y41910D01*
G01X34356Y41852D01*
G01X34354Y41790D01*
G01X34356Y41726D01*
G01X34364Y41666D01*
G01X34376Y41612D01*
G01X34393Y41564D01*
G01X34414Y41521D01*
G01X34440Y41483D01*
G01X34470Y41452D01*
G01X34505Y41425D01*
G01X34543Y41405D01*
G01X34587Y41390D01*
G01X34633Y41382D01*
G01X34684Y41379D01*
G01X34803Y41379D01*
G01X34805Y41471D01*
G01X34806Y41565D01*
G01X34806Y42055D01*
G01X34805Y42104D01*
G01X34805Y42151D01*
G01X34803Y42199D01*
G37*

%LPD*%
G54D26*
G75*
G01X8284Y11036D02*
G03X8284Y11036I-201J0D01*
G01*
M00*
M02*
