G04 Layer: TopSolderMaskLayer*
G04 EasyEDA v6.1.30, Mon, 22 Apr 2019 04:26:04 GMT*
G04 3299eb1e32c44027902f169d4311eafc,c4e59543e3c44a9793b0b0a188f79ba1,10*
G04 Gerber Generator version 0.2*
G04 Scale: 100 percent, Rotated: No, Reflected: No *
G04 Dimensions in millimeters *
G04 leading zeros omitted , absolute positions ,3 integer and 3 decimal *
%FSLAX33Y33*%
%MOMM*%
G90*
G71D02*

%ADD29C,3.505200*%
%ADD30C,3.251200*%
%ADD32C,1.903197*%
%ADD33C,1.778000*%
%ADD34R,1.778000X1.778000*%
%ADD36C,2.003196*%
%ADD38C,2.103196*%

%LPD*%
G54D29*
G01X32512Y18034D02*
G01X32004Y18034D01*
G54D30*
G01X32639Y23114D02*
G01X31877Y23114D01*
G54D29*
G01X32512Y12954D02*
G01X32004Y12954D01*
G36*
G01X22416Y36639D02*
G01X22416Y38544D01*
G01X24321Y38544D01*
G01X24321Y36639D01*
G01X22416Y36639D01*
G37*
G54D32*
G01X20828Y37592D03*
G01X18288Y37592D03*
G01X15748Y37592D03*
G01X13208Y37592D03*
G54D33*
G01X3302Y35560D03*
G01X3302Y33020D03*
G36*
G01X2413Y29591D02*
G01X2413Y31369D01*
G01X4191Y31369D01*
G01X4191Y29591D01*
G01X2413Y29591D01*
G37*
G01X33655Y30353D03*
G01X33655Y32893D03*
G36*
G01X32766Y34544D02*
G01X32766Y36322D01*
G01X34544Y36322D01*
G01X34544Y34544D01*
G01X32766Y34544D01*
G37*
G01X34290Y39878D03*
G01X31750Y39878D03*
G54D34*
G01X29210Y39878D03*
G36*
G01X19828Y31257D02*
G01X19828Y33258D01*
G01X21829Y33258D01*
G01X21829Y31257D01*
G01X19828Y31257D01*
G37*
G54D36*
G01X18288Y32258D03*
G01X15748Y32258D03*
G01X13208Y32258D03*
G36*
G01X5807Y38826D02*
G01X5807Y40929D01*
G01X7910Y40929D01*
G01X7910Y38826D01*
G01X5807Y38826D01*
G37*
G54D38*
G01X4318Y39878D03*
G36*
G01X8931Y8633D02*
G01X8931Y11435D01*
G01X10234Y11435D01*
G01X10234Y8633D01*
G01X8931Y8633D01*
G37*
G36*
G01X10933Y8633D02*
G01X10933Y11437D01*
G01X12236Y11437D01*
G01X12236Y8633D01*
G01X10933Y8633D01*
G37*
G36*
G01X12929Y8633D02*
G01X12929Y11435D01*
G01X14232Y11435D01*
G01X14232Y8633D01*
G01X12929Y8633D01*
G37*
G36*
G01X14931Y8633D02*
G01X14931Y11435D01*
G01X16234Y11435D01*
G01X16234Y8633D01*
G01X14931Y8633D01*
G37*
G36*
G01X16930Y8633D02*
G01X16930Y11435D01*
G01X18233Y11435D01*
G01X18233Y8633D01*
G01X16930Y8633D01*
G37*
G36*
G01X18931Y8633D02*
G01X18931Y11435D01*
G01X20234Y11435D01*
G01X20234Y8633D01*
G01X18931Y8633D01*
G37*
G36*
G01X20930Y8633D02*
G01X20930Y11435D01*
G01X22233Y11435D01*
G01X22233Y8633D01*
G01X20930Y8633D01*
G37*
G36*
G01X22929Y8633D02*
G01X22929Y11435D01*
G01X24232Y11435D01*
G01X24232Y8633D01*
G01X22929Y8633D01*
G37*
G36*
G01X22929Y24632D02*
G01X22929Y27434D01*
G01X24232Y27434D01*
G01X24232Y24632D01*
G01X22929Y24632D01*
G37*
G36*
G01X20930Y24632D02*
G01X20930Y27434D01*
G01X22233Y27434D01*
G01X22233Y24632D01*
G01X20930Y24632D01*
G37*
G36*
G01X18931Y24632D02*
G01X18931Y27434D01*
G01X20234Y27434D01*
G01X20234Y24632D01*
G01X18931Y24632D01*
G37*
G36*
G01X16930Y24632D02*
G01X16930Y27434D01*
G01X18233Y27434D01*
G01X18233Y24632D01*
G01X16930Y24632D01*
G37*
G36*
G01X14931Y24632D02*
G01X14931Y27434D01*
G01X16234Y27434D01*
G01X16234Y24632D01*
G01X14931Y24632D01*
G37*
G36*
G01X12929Y24632D02*
G01X12929Y27434D01*
G01X14232Y27434D01*
G01X14232Y24632D01*
G01X12929Y24632D01*
G37*
G36*
G01X10930Y24632D02*
G01X10930Y27434D01*
G01X12233Y27434D01*
G01X12233Y24632D01*
G01X10930Y24632D01*
G37*
G36*
G01X8931Y24632D02*
G01X8931Y27434D01*
G01X10234Y27434D01*
G01X10234Y24632D01*
G01X8931Y24632D01*
G37*
M00*
M02*
