;Layer: Drill PTH
;EasyEDA v6.1.30, Mon, 22 Apr 2019 04:26:04 GMT
;3299eb1e32c44027902f169d4311eafc,c4e59543e3c44a9793b0b0a188f79ba1,10
;Gerber Generator version 0.2
M48
METRIC,LZ,000.000
;Holesize 1 = 0.305 METRIC
T01C0.305
;Holesize 2 = 0.889 METRIC
T02C0.889
;Holesize 3 = 1.101 METRIC
T03C1.101
;Holesize 4 = 1.200 METRIC
T04C1.200
;Holesize 5 = 1.301 METRIC
T05C1.301
;Holesize 6 = 1.778 METRIC
T06C1.778
%
G05
G90
T01
X+022860Y+013843
X+020955Y+016129
T02
X+003302Y+035560
X+003302Y+033020
X+003302Y+030480
X+033655Y+030353
X+033655Y+032893
X+033655Y+035433
X+034290Y+039878
X+031750Y+039878
X+029210Y+039878
T03
X+023368Y+037592
X+020828Y+037592
X+018288Y+037592
X+015748Y+037592
X+013208Y+037592
T04
X+020828Y+032258
X+018288Y+032258
X+015748Y+032258
X+013208Y+032258
T05
X+006858Y+039878
X+004318Y+039878
T06
X+032258Y+018034
X+032258Y+023114
X+032258Y+012954
M30
