G04 Layer: TopLayer*
G04 EasyEDA v6.1.30, Mon, 22 Apr 2019 04:26:04 GMT*
G04 3299eb1e32c44027902f169d4311eafc,c4e59543e3c44a9793b0b0a188f79ba1,10*
G04 Gerber Generator version 0.2*
G04 Scale: 100 percent, Rotated: No, Reflected: No *
G04 Dimensions in millimeters *
G04 leading zeros omitted , absolute positions ,3 integer and 3 decimal *
%FSLAX33Y33*%
%MOMM*%
G90*
G71D02*

%ADD10C,0.254000*%
%ADD11C,0.620014*%
%ADD14C,1.699997*%
%ADD15C,1.574800*%
%ADD16R,1.574800X1.574800*%
%ADD18C,1.799996*%
%ADD20C,1.899996*%
%ADD21C,3.302000*%
%ADD22C,3.048000*%

%LPD*%
G36*
G01X34439Y42427D02*
G01X3078Y42427D01*
G01X3001Y42425D01*
G01X2924Y42420D01*
G01X2847Y42414D01*
G01X2771Y42405D01*
G01X2695Y42395D01*
G01X2619Y42382D01*
G01X2543Y42367D01*
G01X2468Y42350D01*
G01X2393Y42332D01*
G01X2319Y42311D01*
G01X2246Y42288D01*
G01X2173Y42263D01*
G01X2101Y42237D01*
G01X2029Y42208D01*
G01X1959Y42177D01*
G01X1889Y42145D01*
G01X1820Y42111D01*
G01X1752Y42075D01*
G01X1685Y42037D01*
G01X1619Y41997D01*
G01X1554Y41955D01*
G01X1491Y41912D01*
G01X1428Y41867D01*
G01X1367Y41821D01*
G01X1307Y41772D01*
G01X1248Y41723D01*
G01X1191Y41671D01*
G01X1135Y41618D01*
G01X1081Y41564D01*
G01X1028Y41508D01*
G01X976Y41451D01*
G01X926Y41392D01*
G01X878Y41332D01*
G01X831Y41271D01*
G01X786Y41209D01*
G01X743Y41145D01*
G01X702Y41080D01*
G01X662Y41014D01*
G01X624Y40947D01*
G01X588Y40879D01*
G01X553Y40811D01*
G01X521Y40741D01*
G01X490Y40670D01*
G01X461Y40599D01*
G01X435Y40527D01*
G01X410Y40454D01*
G01X387Y40380D01*
G01X366Y40306D01*
G01X347Y40232D01*
G01X330Y40157D01*
G01X316Y40081D01*
G01X303Y40005D01*
G01X292Y39929D01*
G01X283Y39852D01*
G01X277Y39776D01*
G01X272Y39699D01*
G01X270Y39622D01*
G01X270Y26674D01*
G01X271Y26660D01*
G01X274Y26646D01*
G01X279Y26632D01*
G01X286Y26619D01*
G01X294Y26608D01*
G01X305Y26597D01*
G01X316Y26589D01*
G01X329Y26582D01*
G01X343Y26577D01*
G01X357Y26574D01*
G01X371Y26573D01*
G01X372Y26573D01*
G01X8509Y26670D01*
G01X8509Y8498D01*
G01X8510Y8484D01*
G01X8514Y8470D01*
G01X8519Y8456D01*
G01X8526Y8443D01*
G01X8534Y8432D01*
G01X8544Y8422D01*
G01X8556Y8413D01*
G01X8569Y8406D01*
G01X8582Y8401D01*
G01X8597Y8398D01*
G01X8611Y8397D01*
G01X8761Y8397D01*
G01X8776Y8398D01*
G01X8790Y8401D01*
G01X8804Y8406D01*
G01X8816Y8413D01*
G01X8828Y8422D01*
G01X8838Y8432D01*
G01X8847Y8443D01*
G01X8854Y8456D01*
G01X8859Y8470D01*
G01X8862Y8484D01*
G01X8863Y8498D01*
G01X8862Y8513D01*
G01X8859Y8527D01*
G01X8854Y8541D01*
G01X8847Y8553D01*
G01X8838Y8565D01*
G01X8824Y8583D01*
G01X8811Y8602D01*
G01X8800Y8622D01*
G01X8791Y8644D01*
G01X8784Y8665D01*
G01X8779Y8688D01*
G01X8776Y8711D01*
G01X8775Y8734D01*
G01X8775Y11333D01*
G01X8776Y11357D01*
G01X8779Y11381D01*
G01X8785Y11404D01*
G01X8792Y11426D01*
G01X8802Y11448D01*
G01X8813Y11469D01*
G01X8827Y11488D01*
G01X8842Y11506D01*
G01X8859Y11523D01*
G01X8877Y11538D01*
G01X8896Y11552D01*
G01X8917Y11563D01*
G01X8939Y11573D01*
G01X8961Y11580D01*
G01X8984Y11586D01*
G01X9008Y11589D01*
G01X9031Y11590D01*
G01X10131Y11590D01*
G01X10155Y11589D01*
G01X10179Y11586D01*
G01X10202Y11580D01*
G01X10224Y11573D01*
G01X10246Y11563D01*
G01X10267Y11552D01*
G01X10286Y11538D01*
G01X10304Y11523D01*
G01X10321Y11506D01*
G01X10336Y11488D01*
G01X10350Y11469D01*
G01X10361Y11448D01*
G01X10371Y11426D01*
G01X10378Y11404D01*
G01X10384Y11381D01*
G01X10387Y11357D01*
G01X10388Y11333D01*
G01X10388Y8734D01*
G01X10387Y8711D01*
G01X10384Y8688D01*
G01X10379Y8665D01*
G01X10372Y8644D01*
G01X10363Y8622D01*
G01X10352Y8602D01*
G01X10339Y8583D01*
G01X10325Y8565D01*
G01X10316Y8553D01*
G01X10309Y8541D01*
G01X10304Y8527D01*
G01X10301Y8513D01*
G01X10300Y8498D01*
G01X10301Y8484D01*
G01X10304Y8470D01*
G01X10309Y8456D01*
G01X10316Y8443D01*
G01X10325Y8432D01*
G01X10335Y8422D01*
G01X10347Y8413D01*
G01X10359Y8406D01*
G01X10373Y8401D01*
G01X10387Y8398D01*
G01X10402Y8397D01*
G01X10765Y8397D01*
G01X10779Y8398D01*
G01X10793Y8401D01*
G01X10807Y8406D01*
G01X10820Y8413D01*
G01X10831Y8422D01*
G01X10842Y8432D01*
G01X10850Y8443D01*
G01X10857Y8456D01*
G01X10862Y8470D01*
G01X10865Y8484D01*
G01X10866Y8498D01*
G01X10865Y8513D01*
G01X10862Y8527D01*
G01X10857Y8541D01*
G01X10850Y8554D01*
G01X10841Y8566D01*
G01X10826Y8584D01*
G01X10814Y8603D01*
G01X10802Y8623D01*
G01X10793Y8645D01*
G01X10786Y8667D01*
G01X10781Y8689D01*
G01X10778Y8712D01*
G01X10777Y8736D01*
G01X10777Y11336D01*
G01X10778Y11359D01*
G01X10781Y11383D01*
G01X10786Y11406D01*
G01X10794Y11428D01*
G01X10804Y11450D01*
G01X10815Y11471D01*
G01X10828Y11490D01*
G01X10844Y11508D01*
G01X10860Y11525D01*
G01X10879Y11540D01*
G01X10898Y11554D01*
G01X10919Y11565D01*
G01X10940Y11575D01*
G01X10963Y11582D01*
G01X10986Y11588D01*
G01X11009Y11591D01*
G01X11033Y11592D01*
G01X12133Y11592D01*
G01X12157Y11591D01*
G01X12180Y11588D01*
G01X12203Y11582D01*
G01X12226Y11575D01*
G01X12247Y11565D01*
G01X12268Y11554D01*
G01X12288Y11540D01*
G01X12306Y11525D01*
G01X12323Y11508D01*
G01X12338Y11490D01*
G01X12351Y11471D01*
G01X12363Y11450D01*
G01X12372Y11428D01*
G01X12380Y11406D01*
G01X12385Y11383D01*
G01X12388Y11359D01*
G01X12390Y11336D01*
G01X12390Y8736D01*
G01X12388Y8712D01*
G01X12385Y8689D01*
G01X12380Y8667D01*
G01X12373Y8645D01*
G01X12364Y8623D01*
G01X12353Y8603D01*
G01X12340Y8584D01*
G01X12325Y8566D01*
G01X12316Y8554D01*
G01X12309Y8541D01*
G01X12304Y8527D01*
G01X12301Y8513D01*
G01X12300Y8498D01*
G01X12301Y8484D01*
G01X12304Y8470D01*
G01X12309Y8456D01*
G01X12316Y8443D01*
G01X12324Y8432D01*
G01X12335Y8422D01*
G01X12346Y8413D01*
G01X12359Y8406D01*
G01X12373Y8401D01*
G01X12387Y8398D01*
G01X12401Y8397D01*
G01X12762Y8397D01*
G01X12776Y8398D01*
G01X12790Y8401D01*
G01X12804Y8406D01*
G01X12816Y8413D01*
G01X12828Y8422D01*
G01X12838Y8432D01*
G01X12847Y8443D01*
G01X12854Y8456D01*
G01X12859Y8470D01*
G01X12862Y8484D01*
G01X12863Y8498D01*
G01X12862Y8513D01*
G01X12859Y8527D01*
G01X12854Y8541D01*
G01X12847Y8553D01*
G01X12838Y8565D01*
G01X12824Y8583D01*
G01X12811Y8602D01*
G01X12800Y8622D01*
G01X12791Y8644D01*
G01X12784Y8665D01*
G01X12779Y8688D01*
G01X12776Y8711D01*
G01X12775Y8734D01*
G01X12775Y11333D01*
G01X12776Y11357D01*
G01X12779Y11381D01*
G01X12785Y11404D01*
G01X12792Y11426D01*
G01X12802Y11448D01*
G01X12814Y11469D01*
G01X12827Y11488D01*
G01X12842Y11506D01*
G01X12859Y11523D01*
G01X12877Y11538D01*
G01X12897Y11552D01*
G01X12917Y11563D01*
G01X12939Y11573D01*
G01X12961Y11580D01*
G01X12984Y11586D01*
G01X13008Y11589D01*
G01X13032Y11590D01*
G01X14131Y11590D01*
G01X14155Y11589D01*
G01X14179Y11586D01*
G01X14202Y11580D01*
G01X14224Y11573D01*
G01X14246Y11563D01*
G01X14267Y11552D01*
G01X14286Y11538D01*
G01X14304Y11523D01*
G01X14321Y11506D01*
G01X14336Y11488D01*
G01X14350Y11469D01*
G01X14361Y11448D01*
G01X14371Y11426D01*
G01X14378Y11404D01*
G01X14384Y11381D01*
G01X14387Y11357D01*
G01X14388Y11333D01*
G01X14388Y8734D01*
G01X14387Y8711D01*
G01X14384Y8688D01*
G01X14379Y8665D01*
G01X14372Y8644D01*
G01X14363Y8622D01*
G01X14352Y8602D01*
G01X14339Y8583D01*
G01X14325Y8565D01*
G01X14316Y8553D01*
G01X14309Y8541D01*
G01X14304Y8527D01*
G01X14301Y8513D01*
G01X14300Y8498D01*
G01X14301Y8484D01*
G01X14304Y8470D01*
G01X14309Y8456D01*
G01X14316Y8443D01*
G01X14325Y8432D01*
G01X14335Y8422D01*
G01X14347Y8413D01*
G01X14359Y8406D01*
G01X14373Y8401D01*
G01X14387Y8398D01*
G01X14402Y8397D01*
G01X14762Y8397D01*
G01X14776Y8398D01*
G01X14790Y8401D01*
G01X14804Y8406D01*
G01X14816Y8413D01*
G01X14828Y8422D01*
G01X14838Y8432D01*
G01X14847Y8443D01*
G01X14854Y8456D01*
G01X14859Y8470D01*
G01X14862Y8484D01*
G01X14863Y8498D01*
G01X14862Y8513D01*
G01X14859Y8527D01*
G01X14854Y8541D01*
G01X14847Y8553D01*
G01X14838Y8565D01*
G01X14824Y8583D01*
G01X14811Y8602D01*
G01X14800Y8622D01*
G01X14791Y8644D01*
G01X14784Y8665D01*
G01X14779Y8688D01*
G01X14776Y8711D01*
G01X14775Y8734D01*
G01X14775Y11333D01*
G01X14776Y11357D01*
G01X14779Y11381D01*
G01X14785Y11404D01*
G01X14792Y11426D01*
G01X14802Y11448D01*
G01X14814Y11469D01*
G01X14827Y11488D01*
G01X14842Y11506D01*
G01X14859Y11523D01*
G01X14877Y11538D01*
G01X14897Y11552D01*
G01X14917Y11563D01*
G01X14939Y11573D01*
G01X14961Y11580D01*
G01X14984Y11586D01*
G01X15008Y11589D01*
G01X15032Y11590D01*
G01X15043Y11590D01*
G01X15059Y11591D01*
G01X15074Y11595D01*
G01X15089Y11601D01*
G01X15103Y11610D01*
G01X15115Y11620D01*
G01X15125Y11632D01*
G01X15133Y11646D01*
G01X15187Y11754D01*
G01X15193Y11768D01*
G01X15197Y11784D01*
G01X15198Y11799D01*
G01X15198Y14184D01*
G01X15199Y14214D01*
G01X15203Y14244D01*
G01X15209Y14273D01*
G01X15217Y14302D01*
G01X15227Y14330D01*
G01X15240Y14358D01*
G01X15255Y14384D01*
G01X15271Y14409D01*
G01X15290Y14433D01*
G01X15310Y14455D01*
G01X19033Y18178D01*
G01X19055Y18198D01*
G01X19079Y18217D01*
G01X19104Y18234D01*
G01X19130Y18248D01*
G01X19158Y18261D01*
G01X19186Y18271D01*
G01X19215Y18279D01*
G01X19244Y18285D01*
G01X19274Y18289D01*
G01X19304Y18290D01*
G01X27358Y18290D01*
G01X27374Y18291D01*
G01X27390Y18295D01*
G01X27405Y18301D01*
G01X27418Y18309D01*
G01X27430Y18320D01*
G01X28543Y19433D01*
G01X28553Y19445D01*
G01X28562Y19458D01*
G01X28568Y19473D01*
G01X28572Y19489D01*
G01X28573Y19504D01*
G01X28573Y25908D01*
G01X28574Y25938D01*
G01X28578Y25967D01*
G01X28583Y25997D01*
G01X28592Y26026D01*
G01X28602Y26054D01*
G01X28615Y26082D01*
G01X28629Y26108D01*
G01X28646Y26133D01*
G01X28665Y26157D01*
G01X28685Y26179D01*
G01X30067Y27561D01*
G01X30077Y27573D01*
G01X30086Y27586D01*
G01X30092Y27601D01*
G01X30096Y27617D01*
G01X30097Y27632D01*
G01X30097Y29718D01*
G01X30098Y29748D01*
G01X30102Y29777D01*
G01X30107Y29807D01*
G01X30116Y29836D01*
G01X30126Y29864D01*
G01X30139Y29892D01*
G01X30153Y29918D01*
G01X30170Y29943D01*
G01X30189Y29967D01*
G01X30209Y29989D01*
G01X32534Y32313D01*
G01X32545Y32327D01*
G01X32554Y32342D01*
G01X32560Y32359D01*
G01X32563Y32376D01*
G01X32614Y32960D01*
G01X32614Y32962D01*
G01X32618Y33008D01*
G01X32624Y33054D01*
G01X32632Y33099D01*
G01X32642Y33144D01*
G01X32654Y33189D01*
G01X32669Y33233D01*
G01X32685Y33276D01*
G01X32702Y33319D01*
G01X32722Y33360D01*
G01X32744Y33401D01*
G01X32767Y33441D01*
G01X32792Y33480D01*
G01X32819Y33517D01*
G01X32848Y33554D01*
G01X32878Y33589D01*
G01X32909Y33623D01*
G01X32942Y33655D01*
G01X32977Y33686D01*
G01X33012Y33715D01*
G01X33049Y33743D01*
G01X33088Y33769D01*
G01X33127Y33793D01*
G01X33167Y33815D01*
G01X33209Y33836D01*
G01X33251Y33855D01*
G01X33294Y33872D01*
G01X33337Y33887D01*
G01X33382Y33900D01*
G01X33426Y33911D01*
G01X33472Y33920D01*
G01X33517Y33927D01*
G01X33563Y33932D01*
G01X33609Y33935D01*
G01X33655Y33936D01*
G01X33702Y33935D01*
G01X33749Y33932D01*
G01X33796Y33927D01*
G01X33842Y33920D01*
G01X33888Y33910D01*
G01X33933Y33899D01*
G01X33978Y33885D01*
G01X34022Y33870D01*
G01X34066Y33852D01*
G01X34108Y33833D01*
G01X34150Y33812D01*
G01X34191Y33789D01*
G01X34231Y33764D01*
G01X34269Y33737D01*
G01X34306Y33709D01*
G01X34342Y33679D01*
G01X34377Y33647D01*
G01X34410Y33614D01*
G01X34442Y33579D01*
G01X34472Y33543D01*
G01X34500Y33506D01*
G01X34527Y33468D01*
G01X34552Y33428D01*
G01X34575Y33387D01*
G01X34596Y33345D01*
G01X34615Y33303D01*
G01X34633Y33259D01*
G01X34648Y33215D01*
G01X34662Y33170D01*
G01X34673Y33125D01*
G01X34683Y33079D01*
G01X34690Y33033D01*
G01X34695Y32986D01*
G01X34698Y32939D01*
G01X34699Y32893D01*
G01X34698Y32846D01*
G01X34695Y32800D01*
G01X34690Y32754D01*
G01X34683Y32709D01*
G01X34674Y32663D01*
G01X34663Y32619D01*
G01X34650Y32574D01*
G01X34635Y32531D01*
G01X34618Y32488D01*
G01X34599Y32446D01*
G01X34578Y32404D01*
G01X34556Y32364D01*
G01X34531Y32325D01*
G01X34505Y32287D01*
G01X34478Y32250D01*
G01X34449Y32214D01*
G01X34418Y32179D01*
G01X34386Y32146D01*
G01X34352Y32115D01*
G01X34317Y32085D01*
G01X34280Y32056D01*
G01X34243Y32029D01*
G01X34204Y32004D01*
G01X34164Y31981D01*
G01X34123Y31959D01*
G01X34082Y31940D01*
G01X34039Y31922D01*
G01X33996Y31906D01*
G01X33952Y31892D01*
G01X33907Y31879D01*
G01X33862Y31869D01*
G01X33817Y31861D01*
G01X33771Y31855D01*
G01X33725Y31851D01*
G01X33723Y31851D01*
G01X33139Y31800D01*
G01X33122Y31797D01*
G01X33105Y31791D01*
G01X33090Y31782D01*
G01X33076Y31771D01*
G01X30894Y29588D01*
G01X30883Y29576D01*
G01X30875Y29563D01*
G01X30869Y29548D01*
G01X30865Y29532D01*
G01X30864Y29517D01*
G01X30864Y27431D01*
G01X30863Y27401D01*
G01X30859Y27372D01*
G01X30853Y27342D01*
G01X30845Y27313D01*
G01X30835Y27285D01*
G01X30822Y27257D01*
G01X30807Y27231D01*
G01X30791Y27206D01*
G01X30772Y27182D01*
G01X30752Y27160D01*
G01X29370Y25778D01*
G01X29359Y25766D01*
G01X29351Y25753D01*
G01X29345Y25738D01*
G01X29341Y25722D01*
G01X29340Y25707D01*
G01X29340Y19303D01*
G01X29339Y19273D01*
G01X29335Y19244D01*
G01X29329Y19214D01*
G01X29321Y19185D01*
G01X29311Y19157D01*
G01X29298Y19129D01*
G01X29283Y19103D01*
G01X29267Y19078D01*
G01X29248Y19054D01*
G01X29228Y19032D01*
G01X28024Y17828D01*
G01X28013Y17816D01*
G01X28005Y17803D01*
G01X27999Y17788D01*
G01X27995Y17773D01*
G01X27994Y17757D01*
G01X27995Y17742D01*
G01X27998Y17728D01*
G01X28003Y17714D01*
G01X28010Y17702D01*
G01X28019Y17690D01*
G01X28029Y17680D01*
G01X28041Y17671D01*
G01X28053Y17664D01*
G01X28067Y17659D01*
G01X28081Y17656D01*
G01X28096Y17655D01*
G01X29943Y17655D01*
G01X29960Y17656D01*
G01X29977Y17661D01*
G01X29992Y17667D01*
G01X30006Y17677D01*
G01X30019Y17688D01*
G01X30081Y17757D01*
G01X30090Y17769D01*
G01X30098Y17782D01*
G01X30103Y17796D01*
G01X30107Y17811D01*
G01X30108Y17825D01*
G01X30101Y17902D01*
G01X30098Y17968D01*
G01X30097Y18034D01*
G01X30098Y18096D01*
G01X30101Y18158D01*
G01X30106Y18220D01*
G01X30113Y18282D01*
G01X30122Y18344D01*
G01X30134Y18406D01*
G01X30147Y18467D01*
G01X30162Y18527D01*
G01X30179Y18587D01*
G01X30198Y18647D01*
G01X30219Y18705D01*
G01X30242Y18763D01*
G01X30267Y18821D01*
G01X30294Y18877D01*
G01X30322Y18933D01*
G01X30352Y18987D01*
G01X30385Y19041D01*
G01X30418Y19093D01*
G01X30454Y19145D01*
G01X30491Y19195D01*
G01X30530Y19244D01*
G01X30570Y19291D01*
G01X30612Y19337D01*
G01X30656Y19382D01*
G01X30700Y19426D01*
G01X30747Y19468D01*
G01X30794Y19508D01*
G01X30843Y19547D01*
G01X30893Y19584D01*
G01X30945Y19620D01*
G01X30997Y19653D01*
G01X31051Y19685D01*
G01X31105Y19716D01*
G01X31161Y19744D01*
G01X31217Y19771D01*
G01X31274Y19796D01*
G01X31332Y19819D01*
G01X31391Y19840D01*
G01X31451Y19859D01*
G01X31511Y19876D01*
G01X31571Y19891D01*
G01X31632Y19904D01*
G01X31694Y19916D01*
G01X31755Y19925D01*
G01X31817Y19932D01*
G01X31880Y19937D01*
G01X31942Y19940D01*
G01X32004Y19941D01*
G01X32512Y19941D01*
G01X32575Y19940D01*
G01X32637Y19937D01*
G01X32699Y19932D01*
G01X32761Y19925D01*
G01X32823Y19916D01*
G01X32885Y19904D01*
G01X32946Y19891D01*
G01X33006Y19876D01*
G01X33066Y19859D01*
G01X33126Y19840D01*
G01X33184Y19819D01*
G01X33242Y19796D01*
G01X33300Y19771D01*
G01X33356Y19744D01*
G01X33412Y19716D01*
G01X33466Y19685D01*
G01X33520Y19653D01*
G01X33572Y19620D01*
G01X33624Y19584D01*
G01X33674Y19547D01*
G01X33723Y19508D01*
G01X33770Y19468D01*
G01X33816Y19426D01*
G01X33861Y19382D01*
G01X33905Y19337D01*
G01X33947Y19291D01*
G01X33987Y19244D01*
G01X34026Y19195D01*
G01X34063Y19145D01*
G01X34098Y19093D01*
G01X34132Y19041D01*
G01X34164Y18987D01*
G01X34195Y18933D01*
G01X34223Y18877D01*
G01X34250Y18821D01*
G01X34275Y18763D01*
G01X34298Y18705D01*
G01X34319Y18647D01*
G01X34338Y18587D01*
G01X34355Y18527D01*
G01X34370Y18467D01*
G01X34383Y18406D01*
G01X34394Y18344D01*
G01X34404Y18282D01*
G01X34411Y18220D01*
G01X34416Y18158D01*
G01X34419Y18096D01*
G01X34420Y18034D01*
G01X34419Y17971D01*
G01X34416Y17909D01*
G01X34411Y17847D01*
G01X34404Y17785D01*
G01X34394Y17723D01*
G01X34383Y17661D01*
G01X34370Y17600D01*
G01X34355Y17540D01*
G01X34338Y17480D01*
G01X34319Y17420D01*
G01X34298Y17362D01*
G01X34275Y17304D01*
G01X34250Y17246D01*
G01X34223Y17190D01*
G01X34195Y17134D01*
G01X34164Y17080D01*
G01X34132Y17026D01*
G01X34098Y16974D01*
G01X34063Y16922D01*
G01X34026Y16872D01*
G01X33987Y16823D01*
G01X33947Y16776D01*
G01X33905Y16730D01*
G01X33861Y16685D01*
G01X33816Y16641D01*
G01X33770Y16599D01*
G01X33723Y16559D01*
G01X33674Y16520D01*
G01X33624Y16483D01*
G01X33572Y16447D01*
G01X33520Y16414D01*
G01X33466Y16382D01*
G01X33412Y16351D01*
G01X33356Y16323D01*
G01X33300Y16296D01*
G01X33242Y16271D01*
G01X33184Y16248D01*
G01X33126Y16227D01*
G01X33066Y16208D01*
G01X33006Y16191D01*
G01X32946Y16176D01*
G01X32885Y16163D01*
G01X32823Y16151D01*
G01X32761Y16142D01*
G01X32699Y16135D01*
G01X32637Y16130D01*
G01X32575Y16127D01*
G01X32512Y16126D01*
G01X32004Y16126D01*
G01X31941Y16127D01*
G01X31878Y16130D01*
G01X31815Y16135D01*
G01X31753Y16143D01*
G01X31690Y16152D01*
G01X31628Y16163D01*
G01X31567Y16177D01*
G01X31505Y16192D01*
G01X31445Y16210D01*
G01X31385Y16229D01*
G01X31325Y16251D01*
G01X31267Y16274D01*
G01X31209Y16300D01*
G01X31152Y16327D01*
G01X31096Y16356D01*
G01X31041Y16387D01*
G01X30987Y16420D01*
G01X30934Y16454D01*
G01X30883Y16491D01*
G01X30832Y16529D01*
G01X30783Y16568D01*
G01X30735Y16609D01*
G01X30689Y16652D01*
G01X30644Y16696D01*
G01X30601Y16742D01*
G01X30559Y16789D01*
G01X30518Y16838D01*
G01X30506Y16850D01*
G01X30493Y16860D01*
G01X30478Y16868D01*
G01X30461Y16873D01*
G01X30444Y16875D01*
G01X30202Y16888D01*
G01X21072Y16888D01*
G01X21058Y16887D01*
G01X21044Y16884D01*
G01X21030Y16879D01*
G01X21017Y16872D01*
G01X21006Y16863D01*
G01X20995Y16853D01*
G01X20987Y16841D01*
G01X20980Y16829D01*
G01X20975Y16815D01*
G01X20972Y16801D01*
G01X20971Y16786D01*
G01X20972Y16771D01*
G01X20975Y16755D01*
G01X20981Y16741D01*
G01X20990Y16727D01*
G01X21000Y16715D01*
G01X21011Y16705D01*
G01X21025Y16697D01*
G01X21039Y16690D01*
G01X21054Y16686D01*
G01X21088Y16679D01*
G01X21121Y16670D01*
G01X21154Y16659D01*
G01X21186Y16646D01*
G01X21217Y16631D01*
G01X21247Y16615D01*
G01X21275Y16596D01*
G01X21303Y16576D01*
G01X21330Y16554D01*
G01X21355Y16530D01*
G01X21378Y16505D01*
G01X21400Y16479D01*
G01X21421Y16451D01*
G01X21440Y16423D01*
G01X21457Y16393D01*
G01X21472Y16362D01*
G01X21485Y16330D01*
G01X21496Y16298D01*
G01X21505Y16265D01*
G01X21513Y16231D01*
G01X21518Y16197D01*
G01X21521Y16163D01*
G01X21522Y16129D01*
G01X21521Y16094D01*
G01X21518Y16059D01*
G01X21512Y16024D01*
G01X21505Y15990D01*
G01X21495Y15956D01*
G01X21483Y15923D01*
G01X21470Y15891D01*
G01X21454Y15860D01*
G01X21437Y15829D01*
G01X21417Y15800D01*
G01X21396Y15772D01*
G01X21373Y15746D01*
G01X21349Y15721D01*
G01X21323Y15697D01*
G01X21295Y15675D01*
G01X21267Y15655D01*
G01X21237Y15637D01*
G01X21206Y15620D01*
G01X21174Y15606D01*
G01X21141Y15593D01*
G01X21108Y15583D01*
G01X21074Y15575D01*
G01X21040Y15568D01*
G01X21021Y15564D01*
G01X20909Y15525D01*
G01X20894Y15519D01*
G01X20881Y15511D01*
G01X20870Y15501D01*
G01X19972Y14602D01*
G01X19961Y14590D01*
G01X19953Y14577D01*
G01X19947Y14562D01*
G01X19943Y14546D01*
G01X19942Y14531D01*
G01X19942Y11799D01*
G01X19943Y11783D01*
G01X19947Y11768D01*
G01X19953Y11754D01*
G01X20006Y11646D01*
G01X20015Y11632D01*
G01X20025Y11620D01*
G01X20037Y11610D01*
G01X20051Y11601D01*
G01X20066Y11595D01*
G01X20081Y11591D01*
G01X20097Y11590D01*
G01X20131Y11590D01*
G01X20155Y11589D01*
G01X20179Y11586D01*
G01X20202Y11580D01*
G01X20224Y11573D01*
G01X20246Y11563D01*
G01X20266Y11552D01*
G01X20286Y11538D01*
G01X20304Y11523D01*
G01X20321Y11506D01*
G01X20336Y11488D01*
G01X20350Y11469D01*
G01X20361Y11448D01*
G01X20371Y11426D01*
G01X20378Y11404D01*
G01X20384Y11381D01*
G01X20387Y11357D01*
G01X20388Y11333D01*
G01X20388Y8734D01*
G01X20387Y8711D01*
G01X20384Y8688D01*
G01X20379Y8665D01*
G01X20372Y8644D01*
G01X20363Y8622D01*
G01X20352Y8602D01*
G01X20339Y8583D01*
G01X20325Y8565D01*
G01X20316Y8553D01*
G01X20309Y8541D01*
G01X20304Y8527D01*
G01X20301Y8513D01*
G01X20300Y8498D01*
G01X20301Y8484D01*
G01X20304Y8470D01*
G01X20309Y8456D01*
G01X20316Y8443D01*
G01X20325Y8432D01*
G01X20335Y8422D01*
G01X20347Y8413D01*
G01X20359Y8406D01*
G01X20373Y8401D01*
G01X20387Y8398D01*
G01X20402Y8397D01*
G01X20762Y8397D01*
G01X20776Y8398D01*
G01X20790Y8401D01*
G01X20804Y8406D01*
G01X20816Y8413D01*
G01X20828Y8422D01*
G01X20838Y8432D01*
G01X20847Y8443D01*
G01X20854Y8456D01*
G01X20859Y8470D01*
G01X20862Y8484D01*
G01X20863Y8498D01*
G01X20862Y8513D01*
G01X20859Y8527D01*
G01X20854Y8541D01*
G01X20847Y8553D01*
G01X20838Y8565D01*
G01X20824Y8583D01*
G01X20811Y8602D01*
G01X20800Y8622D01*
G01X20791Y8644D01*
G01X20784Y8665D01*
G01X20779Y8688D01*
G01X20776Y8711D01*
G01X20775Y8734D01*
G01X20775Y11333D01*
G01X20776Y11357D01*
G01X20779Y11381D01*
G01X20785Y11404D01*
G01X20792Y11426D01*
G01X20802Y11448D01*
G01X20813Y11469D01*
G01X20827Y11488D01*
G01X20842Y11506D01*
G01X20859Y11523D01*
G01X20877Y11538D01*
G01X20897Y11552D01*
G01X20917Y11563D01*
G01X20939Y11573D01*
G01X20961Y11580D01*
G01X20984Y11586D01*
G01X21008Y11589D01*
G01X21032Y11590D01*
G01X21045Y11590D01*
G01X21061Y11591D01*
G01X21076Y11595D01*
G01X21091Y11601D01*
G01X21105Y11610D01*
G01X21117Y11620D01*
G01X21127Y11632D01*
G01X21135Y11646D01*
G01X21190Y11754D01*
G01X21196Y11769D01*
G01X21199Y11784D01*
G01X21200Y11800D01*
G01X21207Y14859D01*
G01X21208Y14889D01*
G01X21212Y14919D01*
G01X21218Y14949D01*
G01X21226Y14977D01*
G01X21236Y15006D01*
G01X21249Y15033D01*
G01X21264Y15059D01*
G01X21280Y15084D01*
G01X21299Y15108D01*
G01X21319Y15130D01*
G01X21954Y15765D01*
G01X21976Y15785D01*
G01X22000Y15804D01*
G01X22025Y15821D01*
G01X22051Y15835D01*
G01X22079Y15848D01*
G01X22107Y15858D01*
G01X22136Y15866D01*
G01X22165Y15872D01*
G01X22195Y15876D01*
G01X22225Y15877D01*
G01X34275Y15877D01*
G01X34290Y15878D01*
G01X34304Y15881D01*
G01X34317Y15886D01*
G01X34330Y15893D01*
G01X35257Y16488D01*
G01X35269Y16497D01*
G01X35279Y16507D01*
G01X35288Y16519D01*
G01X35295Y16532D01*
G01X35300Y16545D01*
G01X35303Y16559D01*
G01X35304Y16574D01*
G01X35304Y38280D01*
G01X35303Y38295D01*
G01X35299Y38311D01*
G01X35293Y38326D01*
G01X35284Y38339D01*
G01X35274Y38351D01*
G01X34870Y38756D01*
G01X34856Y38767D01*
G01X34841Y38776D01*
G01X34824Y38782D01*
G01X34806Y38785D01*
G01X34223Y38836D01*
G01X34221Y38836D01*
G01X34175Y38840D01*
G01X34129Y38846D01*
G01X34084Y38854D01*
G01X34039Y38864D01*
G01X33994Y38877D01*
G01X33950Y38891D01*
G01X33907Y38907D01*
G01X33864Y38925D01*
G01X33822Y38944D01*
G01X33782Y38966D01*
G01X33742Y38989D01*
G01X33703Y39014D01*
G01X33665Y39041D01*
G01X33629Y39070D01*
G01X33594Y39100D01*
G01X33560Y39131D01*
G01X33528Y39164D01*
G01X33497Y39199D01*
G01X33468Y39235D01*
G01X33440Y39272D01*
G01X33414Y39310D01*
G01X33390Y39349D01*
G01X33368Y39389D01*
G01X33347Y39431D01*
G01X33328Y39473D01*
G01X33311Y39516D01*
G01X33296Y39559D01*
G01X33283Y39604D01*
G01X33272Y39648D01*
G01X33263Y39694D01*
G01X33256Y39739D01*
G01X33251Y39785D01*
G01X33247Y39831D01*
G01X33246Y39878D01*
G01X33248Y39924D01*
G01X33251Y39971D01*
G01X33256Y40018D01*
G01X33263Y40064D01*
G01X33273Y40110D01*
G01X33284Y40155D01*
G01X33298Y40200D01*
G01X33313Y40244D01*
G01X33330Y40288D01*
G01X33350Y40330D01*
G01X33371Y40372D01*
G01X33394Y40413D01*
G01X33419Y40453D01*
G01X33446Y40491D01*
G01X33474Y40528D01*
G01X33504Y40564D01*
G01X33536Y40599D01*
G01X33569Y40632D01*
G01X33604Y40664D01*
G01X33640Y40694D01*
G01X33677Y40722D01*
G01X33715Y40749D01*
G01X33755Y40774D01*
G01X33796Y40797D01*
G01X33837Y40818D01*
G01X33880Y40837D01*
G01X33924Y40855D01*
G01X33968Y40870D01*
G01X34013Y40884D01*
G01X34058Y40895D01*
G01X34104Y40905D01*
G01X34150Y40912D01*
G01X34197Y40917D01*
G01X34244Y40920D01*
G01X34290Y40921D01*
G01X34337Y40920D01*
G01X34383Y40917D01*
G01X34429Y40912D01*
G01X34474Y40905D01*
G01X34519Y40896D01*
G01X34564Y40885D01*
G01X34609Y40872D01*
G01X34652Y40857D01*
G01X34695Y40840D01*
G01X34737Y40821D01*
G01X34779Y40800D01*
G01X34819Y40778D01*
G01X34858Y40754D01*
G01X34896Y40728D01*
G01X34933Y40700D01*
G01X34969Y40671D01*
G01X35004Y40640D01*
G01X35037Y40608D01*
G01X35068Y40574D01*
G01X35098Y40539D01*
G01X35127Y40502D01*
G01X35153Y40465D01*
G01X35179Y40426D01*
G01X35202Y40386D01*
G01X35224Y40345D01*
G01X35243Y40304D01*
G01X35261Y40261D01*
G01X35277Y40218D01*
G01X35291Y40174D01*
G01X35304Y40129D01*
G01X35314Y40084D01*
G01X35322Y40039D01*
G01X35328Y39993D01*
G01X35332Y39947D01*
G01X35332Y39945D01*
G01X35383Y39361D01*
G01X35386Y39344D01*
G01X35392Y39327D01*
G01X35401Y39312D01*
G01X35412Y39298D01*
G01X35959Y38752D01*
G01X35979Y38730D01*
G01X35998Y38706D01*
G01X36014Y38681D01*
G01X36029Y38655D01*
G01X36042Y38627D01*
G01X36052Y38599D01*
G01X36060Y38570D01*
G01X36066Y38540D01*
G01X36070Y38511D01*
G01X36071Y38480D01*
G01X36071Y16309D01*
G01X36070Y16279D01*
G01X36066Y16250D01*
G01X36061Y16221D01*
G01X36053Y16193D01*
G01X36043Y16165D01*
G01X36031Y16138D01*
G01X36017Y16112D01*
G01X36001Y16087D01*
G01X35983Y16064D01*
G01X35963Y16042D01*
G01X35942Y16022D01*
G01X35919Y16003D01*
G01X35895Y15986D01*
G01X34625Y15171D01*
G01X34598Y15155D01*
G01X34569Y15141D01*
G01X34540Y15130D01*
G01X34510Y15121D01*
G01X34480Y15115D01*
G01X34449Y15111D01*
G01X34417Y15110D01*
G01X22426Y15110D01*
G01X22410Y15109D01*
G01X22395Y15105D01*
G01X22380Y15099D01*
G01X22367Y15091D01*
G01X22355Y15080D01*
G01X22003Y14729D01*
G01X21993Y14717D01*
G01X21985Y14703D01*
G01X21979Y14689D01*
G01X21975Y14673D01*
G01X21974Y14657D01*
G01X21968Y11799D01*
G01X21968Y11798D01*
G01X21969Y11783D01*
G01X21972Y11768D01*
G01X21978Y11753D01*
G01X22031Y11646D01*
G01X22040Y11633D01*
G01X22050Y11620D01*
G01X22062Y11610D01*
G01X22076Y11601D01*
G01X22091Y11595D01*
G01X22106Y11591D01*
G01X22122Y11590D01*
G01X22131Y11590D01*
G01X22155Y11589D01*
G01X22179Y11586D01*
G01X22202Y11580D01*
G01X22224Y11573D01*
G01X22246Y11563D01*
G01X22266Y11552D01*
G01X22286Y11538D01*
G01X22304Y11523D01*
G01X22321Y11506D01*
G01X22336Y11488D01*
G01X22350Y11469D01*
G01X22361Y11448D01*
G01X22371Y11426D01*
G01X22378Y11404D01*
G01X22384Y11381D01*
G01X22387Y11357D01*
G01X22388Y11333D01*
G01X22388Y8734D01*
G01X22387Y8711D01*
G01X22384Y8688D01*
G01X22379Y8665D01*
G01X22372Y8644D01*
G01X22363Y8622D01*
G01X22352Y8602D01*
G01X22339Y8583D01*
G01X22325Y8565D01*
G01X22316Y8553D01*
G01X22309Y8541D01*
G01X22304Y8527D01*
G01X22301Y8513D01*
G01X22300Y8498D01*
G01X22301Y8484D01*
G01X22304Y8470D01*
G01X22309Y8456D01*
G01X22316Y8443D01*
G01X22325Y8432D01*
G01X22335Y8422D01*
G01X22347Y8413D01*
G01X22359Y8406D01*
G01X22373Y8401D01*
G01X22387Y8398D01*
G01X22402Y8397D01*
G01X22762Y8397D01*
G01X22776Y8398D01*
G01X22790Y8401D01*
G01X22804Y8406D01*
G01X22816Y8413D01*
G01X22828Y8422D01*
G01X22838Y8432D01*
G01X22847Y8443D01*
G01X22854Y8456D01*
G01X22859Y8470D01*
G01X22862Y8484D01*
G01X22863Y8498D01*
G01X22862Y8513D01*
G01X22859Y8527D01*
G01X22854Y8541D01*
G01X22847Y8553D01*
G01X22838Y8565D01*
G01X22824Y8583D01*
G01X22811Y8602D01*
G01X22800Y8622D01*
G01X22791Y8644D01*
G01X22784Y8665D01*
G01X22779Y8688D01*
G01X22776Y8711D01*
G01X22775Y8734D01*
G01X22775Y11333D01*
G01X22776Y11357D01*
G01X22779Y11381D01*
G01X22785Y11404D01*
G01X22792Y11426D01*
G01X22802Y11448D01*
G01X22813Y11469D01*
G01X22827Y11488D01*
G01X22842Y11506D01*
G01X22859Y11523D01*
G01X22877Y11538D01*
G01X22897Y11552D01*
G01X22917Y11563D01*
G01X22939Y11573D01*
G01X22961Y11580D01*
G01X22984Y11586D01*
G01X23008Y11589D01*
G01X23032Y11590D01*
G01X23084Y11590D01*
G01X23100Y11591D01*
G01X23115Y11595D01*
G01X23130Y11601D01*
G01X23144Y11610D01*
G01X23156Y11620D01*
G01X23166Y11632D01*
G01X23174Y11646D01*
G01X23228Y11754D01*
G01X23234Y11768D01*
G01X23238Y11783D01*
G01X23239Y11799D01*
G01X23239Y13134D01*
G01X23238Y13149D01*
G01X23234Y13165D01*
G01X23228Y13180D01*
G01X23219Y13193D01*
G01X23209Y13205D01*
G01X23142Y13273D01*
G01X23130Y13283D01*
G01X23116Y13291D01*
G01X23101Y13298D01*
G01X23086Y13301D01*
G01X23070Y13302D01*
G01X23064Y13302D01*
G01X23036Y13301D01*
G01X23014Y13297D01*
G01X22976Y13288D01*
G01X22938Y13281D01*
G01X22899Y13277D01*
G01X22860Y13276D01*
G01X22826Y13277D01*
G01X22792Y13280D01*
G01X22758Y13285D01*
G01X22725Y13292D01*
G01X22692Y13302D01*
G01X22660Y13313D01*
G01X22628Y13326D01*
G01X22597Y13341D01*
G01X22567Y13358D01*
G01X22539Y13376D01*
G01X22511Y13397D01*
G01X22485Y13418D01*
G01X22460Y13442D01*
G01X22436Y13467D01*
G01X22414Y13493D01*
G01X22394Y13521D01*
G01X22376Y13549D01*
G01X22359Y13579D01*
G01X22344Y13610D01*
G01X22331Y13642D01*
G01X22320Y13674D01*
G01X22310Y13707D01*
G01X22303Y13740D01*
G01X22298Y13774D01*
G01X22295Y13808D01*
G01X22294Y13843D01*
G01X22295Y13877D01*
G01X22298Y13911D01*
G01X22303Y13945D01*
G01X22310Y13978D01*
G01X22320Y14011D01*
G01X22331Y14043D01*
G01X22344Y14075D01*
G01X22359Y14106D01*
G01X22376Y14136D01*
G01X22394Y14164D01*
G01X22414Y14192D01*
G01X22436Y14218D01*
G01X22460Y14243D01*
G01X22485Y14267D01*
G01X22511Y14288D01*
G01X22539Y14309D01*
G01X22567Y14327D01*
G01X22597Y14344D01*
G01X22628Y14359D01*
G01X22660Y14372D01*
G01X22692Y14383D01*
G01X22725Y14393D01*
G01X22758Y14400D01*
G01X22792Y14405D01*
G01X22826Y14408D01*
G01X22860Y14409D01*
G01X22896Y14408D01*
G01X22932Y14405D01*
G01X22967Y14399D01*
G01X23002Y14391D01*
G01X23036Y14381D01*
G01X23070Y14369D01*
G01X23103Y14355D01*
G01X23135Y14338D01*
G01X23165Y14320D01*
G01X23195Y14300D01*
G01X23223Y14278D01*
G01X23250Y14254D01*
G01X23275Y14229D01*
G01X23299Y14202D01*
G01X23320Y14173D01*
G01X23331Y14161D01*
G01X23342Y14151D01*
G01X23365Y14133D01*
G01X23386Y14114D01*
G01X23486Y14013D01*
G01X23487Y14012D01*
G01X23894Y13606D01*
G01X23914Y13584D01*
G01X23933Y13560D01*
G01X23949Y13535D01*
G01X23964Y13509D01*
G01X23977Y13481D01*
G01X23987Y13453D01*
G01X23995Y13424D01*
G01X24001Y13394D01*
G01X24005Y13365D01*
G01X24006Y13334D01*
G01X24006Y11799D01*
G01X24007Y11783D01*
G01X24011Y11768D01*
G01X24017Y11754D01*
G01X24071Y11645D01*
G01X24079Y11632D01*
G01X24088Y11621D01*
G01X24099Y11611D01*
G01X24111Y11602D01*
G01X24124Y11596D01*
G01X24139Y11591D01*
G01X24153Y11589D01*
G01X24177Y11586D01*
G01X24200Y11581D01*
G01X24223Y11573D01*
G01X24245Y11564D01*
G01X24265Y11552D01*
G01X24285Y11539D01*
G01X24303Y11524D01*
G01X24320Y11507D01*
G01X24336Y11489D01*
G01X24349Y11469D01*
G01X24361Y11448D01*
G01X24370Y11427D01*
G01X24378Y11404D01*
G01X24384Y11381D01*
G01X24387Y11357D01*
G01X24388Y11333D01*
G01X24388Y8734D01*
G01X24387Y8711D01*
G01X24384Y8688D01*
G01X24379Y8665D01*
G01X24372Y8644D01*
G01X24363Y8622D01*
G01X24352Y8602D01*
G01X24339Y8583D01*
G01X24325Y8565D01*
G01X24316Y8553D01*
G01X24309Y8541D01*
G01X24304Y8527D01*
G01X24301Y8513D01*
G01X24300Y8498D01*
G01X24301Y8484D01*
G01X24304Y8470D01*
G01X24309Y8456D01*
G01X24316Y8443D01*
G01X24325Y8432D01*
G01X24335Y8422D01*
G01X24347Y8413D01*
G01X24359Y8406D01*
G01X24373Y8401D01*
G01X24387Y8398D01*
G01X24402Y8397D01*
G01X34415Y8397D01*
G01X34492Y8400D01*
G01X34568Y8405D01*
G01X34645Y8413D01*
G01X34721Y8422D01*
G01X34796Y8434D01*
G01X34872Y8447D01*
G01X34947Y8463D01*
G01X35022Y8480D01*
G01X35096Y8500D01*
G01X35169Y8522D01*
G01X35242Y8545D01*
G01X35315Y8571D01*
G01X35386Y8598D01*
G01X35457Y8628D01*
G01X35527Y8659D01*
G01X35596Y8692D01*
G01X35664Y8727D01*
G01X35731Y8764D01*
G01X35798Y8803D01*
G01X35863Y8843D01*
G01X35927Y8886D01*
G01X35990Y8929D01*
G01X36051Y8975D01*
G01X36112Y9022D01*
G01X36171Y9071D01*
G01X36228Y9122D01*
G01X36285Y9174D01*
G01X36340Y9227D01*
G01X36393Y9282D01*
G01X36445Y9338D01*
G01X36495Y9396D01*
G01X36544Y9455D01*
G01X36592Y9516D01*
G01X36637Y9577D01*
G01X36681Y9640D01*
G01X36723Y9704D01*
G01X36764Y9769D01*
G01X36802Y9836D01*
G01X36839Y9903D01*
G01X36874Y9971D01*
G01X36907Y10040D01*
G01X36939Y10110D01*
G01X36968Y10181D01*
G01X36995Y10253D01*
G01X37021Y10325D01*
G01X37044Y10398D01*
G01X37066Y10471D01*
G01X37086Y10545D01*
G01X37103Y10620D01*
G01X37119Y10695D01*
G01X37132Y10771D01*
G01X37144Y10846D01*
G01X37153Y10923D01*
G01X37161Y10999D01*
G01X37166Y11075D01*
G01X37169Y11152D01*
G01X37170Y11229D01*
G01X37170Y39696D01*
G01X37169Y39772D01*
G01X37166Y39847D01*
G01X37161Y39922D01*
G01X37154Y39997D01*
G01X37144Y40072D01*
G01X37133Y40146D01*
G01X37120Y40220D01*
G01X37104Y40294D01*
G01X37087Y40367D01*
G01X37067Y40440D01*
G01X37046Y40512D01*
G01X37022Y40583D01*
G01X36997Y40654D01*
G01X36969Y40724D01*
G01X36940Y40793D01*
G01X36909Y40862D01*
G01X36876Y40930D01*
G01X36841Y40996D01*
G01X36804Y41062D01*
G01X36766Y41127D01*
G01X36726Y41190D01*
G01X36683Y41253D01*
G01X36640Y41314D01*
G01X36594Y41374D01*
G01X36547Y41433D01*
G01X36499Y41490D01*
G01X36448Y41546D01*
G01X36397Y41601D01*
G01X36344Y41654D01*
G01X36289Y41706D01*
G01X36233Y41756D01*
G01X36175Y41804D01*
G01X36117Y41851D01*
G01X36057Y41897D01*
G01X35995Y41941D01*
G01X35933Y41983D01*
G01X35869Y42023D01*
G01X35805Y42061D01*
G01X35739Y42098D01*
G01X35672Y42133D01*
G01X35605Y42166D01*
G01X35536Y42197D01*
G01X35467Y42227D01*
G01X35397Y42254D01*
G01X35326Y42279D01*
G01X35255Y42303D01*
G01X35182Y42324D01*
G01X35110Y42344D01*
G01X35037Y42361D01*
G01X34963Y42377D01*
G01X34889Y42390D01*
G01X34814Y42401D01*
G01X34740Y42411D01*
G01X34665Y42418D01*
G01X34590Y42423D01*
G01X34515Y42426D01*
G01X34439Y42427D01*
G37*

%LPC*%
G36*
G01X4369Y41083D02*
G01X4318Y41084D01*
G01X4269Y41083D01*
G01X4219Y41080D01*
G01X4169Y41075D01*
G01X4120Y41068D01*
G01X4071Y41058D01*
G01X4022Y41047D01*
G01X3974Y41034D01*
G01X3927Y41019D01*
G01X3880Y41002D01*
G01X3834Y40982D01*
G01X3789Y40961D01*
G01X3744Y40939D01*
G01X3701Y40914D01*
G01X3658Y40888D01*
G01X3617Y40859D01*
G01X3577Y40830D01*
G01X3539Y40798D01*
G01X3501Y40765D01*
G01X3465Y40731D01*
G01X3431Y40695D01*
G01X3398Y40657D01*
G01X3366Y40619D01*
G01X3336Y40579D01*
G01X3308Y40537D01*
G01X3282Y40495D01*
G01X3257Y40452D01*
G01X3234Y40407D01*
G01X3213Y40362D01*
G01X3194Y40316D01*
G01X3177Y40269D01*
G01X3162Y40222D01*
G01X3149Y40174D01*
G01X3138Y40125D01*
G01X3128Y40076D01*
G01X3121Y40027D01*
G01X3116Y39977D01*
G01X3113Y39927D01*
G01X3112Y39878D01*
G01X3113Y39826D01*
G01X3116Y39775D01*
G01X3122Y39724D01*
G01X3129Y39673D01*
G01X3139Y39623D01*
G01X3151Y39573D01*
G01X3165Y39524D01*
G01X3181Y39475D01*
G01X3199Y39427D01*
G01X3219Y39380D01*
G01X3241Y39334D01*
G01X3265Y39288D01*
G01X3291Y39244D01*
G01X3319Y39201D01*
G01X3349Y39159D01*
G01X3380Y39119D01*
G01X3413Y39080D01*
G01X3910Y38516D01*
G01X3918Y38504D01*
G01X3925Y38492D01*
G01X3931Y38478D01*
G01X3934Y38464D01*
G01X3935Y38449D01*
G01X3935Y38354D01*
G01X3936Y38323D01*
G01X3940Y38294D01*
G01X3945Y38264D01*
G01X3954Y38235D01*
G01X3964Y38207D01*
G01X3977Y38179D01*
G01X3991Y38153D01*
G01X4008Y38128D01*
G01X4027Y38104D01*
G01X4047Y38082D01*
G01X4809Y37320D01*
G01X4831Y37300D01*
G01X4855Y37281D01*
G01X4880Y37264D01*
G01X4906Y37250D01*
G01X4934Y37237D01*
G01X4962Y37227D01*
G01X4991Y37219D01*
G01X5020Y37213D01*
G01X5050Y37209D01*
G01X5080Y37208D01*
G01X8128Y37208D01*
G01X8159Y37209D01*
G01X8188Y37213D01*
G01X8218Y37219D01*
G01X8247Y37227D01*
G01X8275Y37237D01*
G01X8303Y37250D01*
G01X8329Y37264D01*
G01X8354Y37281D01*
G01X8378Y37300D01*
G01X8400Y37320D01*
G01X9416Y38336D01*
G01X9436Y38358D01*
G01X9455Y38382D01*
G01X9471Y38407D01*
G01X9486Y38433D01*
G01X9499Y38461D01*
G01X9509Y38489D01*
G01X9517Y38518D01*
G01X9523Y38548D01*
G01X9527Y38577D01*
G01X9528Y38607D01*
G01X9528Y39423D01*
G01X9529Y39438D01*
G01X9533Y39454D01*
G01X9539Y39469D01*
G01X9547Y39482D01*
G01X9558Y39494D01*
G01X10036Y39972D01*
G01X10048Y39983D01*
G01X10061Y39991D01*
G01X10076Y39997D01*
G01X10091Y40001D01*
G01X10107Y40002D01*
G01X15350Y40002D01*
G01X15364Y40001D01*
G01X15379Y39998D01*
G01X15392Y39993D01*
G01X15405Y39986D01*
G01X15417Y39977D01*
G01X15427Y39967D01*
G01X15436Y39955D01*
G01X15442Y39943D01*
G01X15448Y39929D01*
G01X15451Y39915D01*
G01X15452Y39900D01*
G01X15450Y39885D01*
G01X15447Y39870D01*
G01X15441Y39856D01*
G01X15433Y39842D01*
G01X15418Y39818D01*
G01X15404Y39792D01*
G01X15392Y39766D01*
G01X15382Y39738D01*
G01X15375Y39710D01*
G01X15369Y39682D01*
G01X15366Y39653D01*
G01X15365Y39624D01*
G01X15365Y38881D01*
G01X15364Y38867D01*
G01X15361Y38853D01*
G01X15356Y38839D01*
G01X15349Y38827D01*
G01X15340Y38815D01*
G01X14918Y38322D01*
G01X14918Y38323D01*
G01X14917Y38322D01*
G01X14885Y38283D01*
G01X14855Y38244D01*
G01X14826Y38203D01*
G01X14800Y38161D01*
G01X14775Y38117D01*
G01X14752Y38073D01*
G01X14732Y38028D01*
G01X14713Y37982D01*
G01X14696Y37935D01*
G01X14682Y37887D01*
G01X14670Y37839D01*
G01X14660Y37790D01*
G01X14652Y37741D01*
G01X14646Y37691D01*
G01X14643Y37641D01*
G01X14642Y37592D01*
G01X14643Y37543D01*
G01X14646Y37495D01*
G01X14651Y37447D01*
G01X14659Y37399D01*
G01X14668Y37352D01*
G01X14680Y37305D01*
G01X14693Y37259D01*
G01X14709Y37213D01*
G01X14726Y37168D01*
G01X14746Y37124D01*
G01X14767Y37081D01*
G01X14790Y37038D01*
G01X14815Y36997D01*
G01X14842Y36957D01*
G01X14871Y36918D01*
G01X14901Y36880D01*
G01X14933Y36844D01*
G01X14966Y36809D01*
G01X15001Y36776D01*
G01X15037Y36744D01*
G01X15075Y36714D01*
G01X15114Y36685D01*
G01X15154Y36658D01*
G01X15195Y36633D01*
G01X15237Y36610D01*
G01X15281Y36589D01*
G01X15325Y36569D01*
G01X15370Y36552D01*
G01X15416Y36536D01*
G01X15462Y36523D01*
G01X15509Y36511D01*
G01X15556Y36502D01*
G01X15604Y36494D01*
G01X15652Y36489D01*
G01X15700Y36486D01*
G01X15748Y36485D01*
G01X15797Y36486D01*
G01X15845Y36489D01*
G01X15893Y36494D01*
G01X15941Y36502D01*
G01X15988Y36511D01*
G01X16035Y36523D01*
G01X16081Y36536D01*
G01X16127Y36552D01*
G01X16172Y36569D01*
G01X16216Y36589D01*
G01X16259Y36610D01*
G01X16302Y36633D01*
G01X16343Y36658D01*
G01X16383Y36685D01*
G01X16422Y36714D01*
G01X16460Y36744D01*
G01X16496Y36776D01*
G01X16531Y36809D01*
G01X16564Y36844D01*
G01X16596Y36880D01*
G01X16626Y36918D01*
G01X16655Y36957D01*
G01X16682Y36997D01*
G01X16707Y37038D01*
G01X16730Y37081D01*
G01X16751Y37124D01*
G01X16771Y37168D01*
G01X16788Y37213D01*
G01X16804Y37259D01*
G01X16817Y37305D01*
G01X16829Y37352D01*
G01X16838Y37399D01*
G01X16845Y37447D01*
G01X16851Y37495D01*
G01X16854Y37543D01*
G01X16855Y37592D01*
G01X16854Y37641D01*
G01X16850Y37691D01*
G01X16845Y37741D01*
G01X16837Y37790D01*
G01X16827Y37839D01*
G01X16815Y37887D01*
G01X16800Y37935D01*
G01X16784Y37982D01*
G01X16765Y38028D01*
G01X16745Y38073D01*
G01X16722Y38117D01*
G01X16697Y38161D01*
G01X16671Y38203D01*
G01X16642Y38244D01*
G01X16612Y38283D01*
G01X16581Y38321D01*
G01X16579Y38322D01*
G01X16156Y38815D01*
G01X16148Y38827D01*
G01X16141Y38839D01*
G01X16136Y38853D01*
G01X16133Y38867D01*
G01X16132Y38881D01*
G01X16132Y39392D01*
G01X16133Y39407D01*
G01X16136Y39421D01*
G01X16141Y39435D01*
G01X16148Y39447D01*
G01X16157Y39459D01*
G01X16167Y39469D01*
G01X16179Y39478D01*
G01X16191Y39485D01*
G01X16205Y39490D01*
G01X16219Y39493D01*
G01X16234Y39494D01*
G01X24564Y39494D01*
G01X24580Y39493D01*
G01X24596Y39489D01*
G01X24611Y39483D01*
G01X24624Y39475D01*
G01X24636Y39464D01*
G01X25495Y38605D01*
G01X25505Y38593D01*
G01X25514Y38580D01*
G01X25520Y38565D01*
G01X25524Y38549D01*
G01X25525Y38534D01*
G01X25525Y31442D01*
G01X25524Y31427D01*
G01X25520Y31411D01*
G01X25514Y31396D01*
G01X25505Y31383D01*
G01X25495Y31371D01*
G01X24687Y30563D01*
G01X24675Y30553D01*
G01X24662Y30544D01*
G01X24647Y30538D01*
G01X24631Y30534D01*
G01X24616Y30533D01*
G01X24601Y30534D01*
G01X24587Y30537D01*
G01X24573Y30542D01*
G01X24561Y30549D01*
G01X24549Y30558D01*
G01X24539Y30568D01*
G01X24530Y30580D01*
G01X24523Y30593D01*
G01X24518Y30606D01*
G01X24515Y30620D01*
G01X24514Y30635D01*
G01X24514Y33654D01*
G01X24513Y33685D01*
G01X24509Y33714D01*
G01X24503Y33744D01*
G01X24495Y33773D01*
G01X24485Y33801D01*
G01X24472Y33829D01*
G01X24457Y33855D01*
G01X24441Y33880D01*
G01X24422Y33904D01*
G01X24402Y33926D01*
G01X23132Y35196D01*
G01X23110Y35216D01*
G01X23086Y35235D01*
G01X23061Y35252D01*
G01X23035Y35266D01*
G01X23007Y35279D01*
G01X22979Y35289D01*
G01X22950Y35297D01*
G01X22920Y35303D01*
G01X22891Y35307D01*
G01X22860Y35308D01*
G01X18958Y35308D01*
G01X18942Y35309D01*
G01X18926Y35313D01*
G01X18911Y35320D01*
G01X18897Y35328D01*
G01X18713Y35467D01*
G01X18701Y35477D01*
G01X18691Y35489D01*
G01X18683Y35503D01*
G01X18677Y35517D01*
G01X18673Y35532D01*
G01X18672Y35548D01*
G01X18672Y36302D01*
G01X18673Y36316D01*
G01X18676Y36330D01*
G01X18681Y36344D01*
G01X18688Y36356D01*
G01X18696Y36368D01*
G01X19119Y36861D01*
G01X19119Y36860D01*
G01X19120Y36861D01*
G01X19152Y36900D01*
G01X19182Y36939D01*
G01X19211Y36980D01*
G01X19237Y37022D01*
G01X19262Y37066D01*
G01X19285Y37110D01*
G01X19305Y37155D01*
G01X19324Y37201D01*
G01X19340Y37248D01*
G01X19355Y37296D01*
G01X19367Y37344D01*
G01X19377Y37393D01*
G01X19385Y37442D01*
G01X19390Y37492D01*
G01X19394Y37542D01*
G01X19395Y37592D01*
G01X19394Y37640D01*
G01X19391Y37688D01*
G01X19385Y37736D01*
G01X19378Y37784D01*
G01X19369Y37831D01*
G01X19357Y37878D01*
G01X19344Y37924D01*
G01X19328Y37970D01*
G01X19311Y38015D01*
G01X19291Y38059D01*
G01X19270Y38102D01*
G01X19247Y38145D01*
G01X19222Y38186D01*
G01X19195Y38226D01*
G01X19166Y38265D01*
G01X19136Y38303D01*
G01X19104Y38339D01*
G01X19071Y38374D01*
G01X19036Y38407D01*
G01X19000Y38439D01*
G01X18962Y38469D01*
G01X18923Y38498D01*
G01X18883Y38525D01*
G01X18842Y38550D01*
G01X18799Y38573D01*
G01X18756Y38594D01*
G01X18712Y38614D01*
G01X18667Y38631D01*
G01X18621Y38647D01*
G01X18575Y38660D01*
G01X18528Y38672D01*
G01X18481Y38681D01*
G01X18433Y38689D01*
G01X18385Y38694D01*
G01X18337Y38697D01*
G01X18288Y38698D01*
G01X18240Y38697D01*
G01X18192Y38694D01*
G01X18144Y38689D01*
G01X18096Y38681D01*
G01X18049Y38672D01*
G01X18002Y38660D01*
G01X17956Y38647D01*
G01X17910Y38631D01*
G01X17865Y38614D01*
G01X17821Y38594D01*
G01X17777Y38573D01*
G01X17735Y38550D01*
G01X17694Y38525D01*
G01X17654Y38498D01*
G01X17615Y38469D01*
G01X17577Y38439D01*
G01X17541Y38407D01*
G01X17506Y38374D01*
G01X17473Y38339D01*
G01X17441Y38303D01*
G01X17411Y38265D01*
G01X17382Y38226D01*
G01X17355Y38186D01*
G01X17330Y38145D01*
G01X17307Y38102D01*
G01X17286Y38059D01*
G01X17266Y38015D01*
G01X17249Y37970D01*
G01X17233Y37924D01*
G01X17220Y37878D01*
G01X17208Y37831D01*
G01X17199Y37784D01*
G01X17191Y37736D01*
G01X17186Y37688D01*
G01X17183Y37640D01*
G01X17182Y37591D01*
G01X17183Y37542D01*
G01X17186Y37492D01*
G01X17192Y37442D01*
G01X17200Y37393D01*
G01X17210Y37344D01*
G01X17222Y37296D01*
G01X17236Y37248D01*
G01X17253Y37201D01*
G01X17272Y37155D01*
G01X17292Y37110D01*
G01X17315Y37066D01*
G01X17340Y37022D01*
G01X17366Y36980D01*
G01X17395Y36939D01*
G01X17425Y36900D01*
G01X17456Y36861D01*
G01X17458Y36861D01*
G01X17880Y36368D01*
G01X17889Y36356D01*
G01X17896Y36344D01*
G01X17901Y36330D01*
G01X17904Y36316D01*
G01X17905Y36302D01*
G01X17905Y35306D01*
G01X17906Y35276D01*
G01X17909Y35246D01*
G01X17915Y35217D01*
G01X17923Y35189D01*
G01X17933Y35161D01*
G01X17945Y35134D01*
G01X17960Y35108D01*
G01X17976Y35083D01*
G01X17994Y35060D01*
G01X18014Y35038D01*
G01X18035Y35017D01*
G01X18058Y34999D01*
G01X18249Y34856D01*
G01X18260Y34846D01*
G01X18270Y34834D01*
G01X18279Y34820D01*
G01X18284Y34806D01*
G01X18288Y34790D01*
G01X18289Y34775D01*
G01X18288Y34760D01*
G01X18285Y34746D01*
G01X18280Y34732D01*
G01X18273Y34720D01*
G01X18264Y34708D01*
G01X18254Y34698D01*
G01X18243Y34689D01*
G01X18230Y34682D01*
G01X18216Y34677D01*
G01X18202Y34674D01*
G01X18188Y34673D01*
G01X7112Y34673D01*
G01X7082Y34672D01*
G01X7052Y34668D01*
G01X7023Y34662D01*
G01X6994Y34654D01*
G01X6966Y34644D01*
G01X6938Y34631D01*
G01X6912Y34617D01*
G01X6887Y34600D01*
G01X6863Y34581D01*
G01X6841Y34561D01*
G01X3923Y31643D01*
G01X3911Y31633D01*
G01X3898Y31624D01*
G01X3884Y31618D01*
G01X3615Y31529D01*
G01X3599Y31525D01*
G01X3583Y31523D01*
G01X2515Y31523D01*
G01X2491Y31522D01*
G01X2468Y31519D01*
G01X2445Y31514D01*
G01X2422Y31506D01*
G01X2401Y31497D01*
G01X2380Y31485D01*
G01X2360Y31472D01*
G01X2342Y31456D01*
G01X2325Y31440D01*
G01X2310Y31421D01*
G01X2297Y31402D01*
G01X2285Y31381D01*
G01X2276Y31360D01*
G01X2268Y31337D01*
G01X2263Y31314D01*
G01X2260Y31291D01*
G01X2258Y31267D01*
G01X2258Y29692D01*
G01X2260Y29668D01*
G01X2263Y29645D01*
G01X2268Y29622D01*
G01X2276Y29599D01*
G01X2285Y29578D01*
G01X2297Y29557D01*
G01X2310Y29538D01*
G01X2325Y29519D01*
G01X2342Y29503D01*
G01X2360Y29487D01*
G01X2380Y29474D01*
G01X2401Y29462D01*
G01X2422Y29453D01*
G01X2445Y29445D01*
G01X2468Y29440D01*
G01X2491Y29437D01*
G01X2515Y29436D01*
G01X4090Y29436D01*
G01X4113Y29437D01*
G01X4137Y29440D01*
G01X4160Y29445D01*
G01X4182Y29453D01*
G01X4204Y29462D01*
G01X4225Y29474D01*
G01X4244Y29487D01*
G01X4263Y29503D01*
G01X4279Y29519D01*
G01X4295Y29538D01*
G01X4308Y29557D01*
G01X4319Y29578D01*
G01X4329Y29599D01*
G01X4337Y29622D01*
G01X4342Y29645D01*
G01X4345Y29668D01*
G01X4346Y29692D01*
G01X4346Y30760D01*
G01X4348Y30776D01*
G01X4352Y30792D01*
G01X4441Y31061D01*
G01X4447Y31075D01*
G01X4456Y31088D01*
G01X4466Y31100D01*
G01X7242Y33876D01*
G01X7254Y33887D01*
G01X7267Y33895D01*
G01X7282Y33901D01*
G01X7297Y33905D01*
G01X7313Y33906D01*
G01X18595Y33906D01*
G01X18611Y33905D01*
G01X18627Y33901D01*
G01X18642Y33895D01*
G01X18655Y33887D01*
G01X18667Y33876D01*
G01X19552Y32991D01*
G01X19563Y32979D01*
G01X19571Y32966D01*
G01X19577Y32951D01*
G01X19667Y32683D01*
G01X19671Y32667D01*
G01X19672Y32650D01*
G01X19672Y31358D01*
G01X19673Y31334D01*
G01X19676Y31310D01*
G01X19682Y31287D01*
G01X19689Y31265D01*
G01X19699Y31243D01*
G01X19710Y31222D01*
G01X19724Y31203D01*
G01X19739Y31185D01*
G01X19756Y31168D01*
G01X19774Y31153D01*
G01X19793Y31139D01*
G01X19814Y31128D01*
G01X19836Y31118D01*
G01X19858Y31111D01*
G01X19881Y31105D01*
G01X19905Y31102D01*
G01X19928Y31101D01*
G01X21728Y31101D01*
G01X21752Y31102D01*
G01X21776Y31105D01*
G01X21799Y31111D01*
G01X21821Y31118D01*
G01X21843Y31128D01*
G01X21863Y31139D01*
G01X21883Y31153D01*
G01X21901Y31168D01*
G01X21918Y31185D01*
G01X21933Y31203D01*
G01X21947Y31222D01*
G01X21958Y31243D01*
G01X21968Y31265D01*
G01X21975Y31287D01*
G01X21981Y31310D01*
G01X21984Y31334D01*
G01X21985Y31358D01*
G01X21985Y33157D01*
G01X21984Y33181D01*
G01X21981Y33205D01*
G01X21975Y33228D01*
G01X21968Y33250D01*
G01X21958Y33272D01*
G01X21947Y33293D01*
G01X21933Y33312D01*
G01X21918Y33330D01*
G01X21901Y33347D01*
G01X21883Y33362D01*
G01X21863Y33376D01*
G01X21843Y33387D01*
G01X21821Y33397D01*
G01X21799Y33404D01*
G01X21776Y33410D01*
G01X21752Y33413D01*
G01X21728Y33414D01*
G01X20436Y33414D01*
G01X20419Y33415D01*
G01X20403Y33419D01*
G01X20135Y33509D01*
G01X20120Y33515D01*
G01X20107Y33523D01*
G01X20095Y33533D01*
G01X19261Y34368D01*
G01X19250Y34380D01*
G01X19242Y34393D01*
G01X19236Y34408D01*
G01X19232Y34423D01*
G01X19231Y34439D01*
G01X19232Y34454D01*
G01X19235Y34468D01*
G01X19240Y34482D01*
G01X19247Y34494D01*
G01X19256Y34506D01*
G01X19266Y34516D01*
G01X19278Y34525D01*
G01X19290Y34532D01*
G01X19304Y34537D01*
G01X19318Y34540D01*
G01X19333Y34541D01*
G01X22659Y34541D01*
G01X22675Y34540D01*
G01X22691Y34536D01*
G01X22706Y34530D01*
G01X22719Y34522D01*
G01X22731Y34511D01*
G01X23717Y33525D01*
G01X23727Y33513D01*
G01X23736Y33500D01*
G01X23742Y33485D01*
G01X23746Y33469D01*
G01X23747Y33454D01*
G01X23747Y30426D01*
G01X23746Y30411D01*
G01X23742Y30395D01*
G01X23736Y30380D01*
G01X23727Y30367D01*
G01X23717Y30355D01*
G01X22477Y29115D01*
G01X22465Y29104D01*
G01X22452Y29096D01*
G01X22437Y29090D01*
G01X22421Y29086D01*
G01X22405Y29085D01*
G01X18444Y29085D01*
G01X18429Y29086D01*
G01X18415Y29089D01*
G01X18401Y29094D01*
G01X18389Y29101D01*
G01X18377Y29110D01*
G01X18367Y29120D01*
G01X18358Y29132D01*
G01X18351Y29144D01*
G01X18346Y29158D01*
G01X18343Y29172D01*
G01X18342Y29187D01*
G01X18343Y29203D01*
G01X18347Y29218D01*
G01X18353Y29233D01*
G01X18361Y29246D01*
G01X18372Y29258D01*
G01X18560Y29446D01*
G01X18580Y29468D01*
G01X18599Y29492D01*
G01X18615Y29517D01*
G01X18630Y29543D01*
G01X18643Y29571D01*
G01X18653Y29599D01*
G01X18661Y29628D01*
G01X18667Y29658D01*
G01X18671Y29687D01*
G01X18672Y29717D01*
G01X18672Y30898D01*
G01X18673Y30913D01*
G01X18676Y30927D01*
G01X18681Y30941D01*
G01X18688Y30953D01*
G01X18697Y30965D01*
G01X19156Y31493D01*
G01X19188Y31531D01*
G01X19218Y31570D01*
G01X19247Y31610D01*
G01X19273Y31651D01*
G01X19298Y31693D01*
G01X19321Y31737D01*
G01X19342Y31781D01*
G01X19362Y31826D01*
G01X19379Y31872D01*
G01X19394Y31919D01*
G01X19408Y31966D01*
G01X19419Y32014D01*
G01X19428Y32062D01*
G01X19436Y32111D01*
G01X19441Y32159D01*
G01X19444Y32208D01*
G01X19445Y32258D01*
G01X19444Y32307D01*
G01X19441Y32356D01*
G01X19436Y32404D01*
G01X19428Y32453D01*
G01X19419Y32501D01*
G01X19408Y32549D01*
G01X19394Y32596D01*
G01X19379Y32643D01*
G01X19362Y32689D01*
G01X19342Y32734D01*
G01X19321Y32778D01*
G01X19298Y32822D01*
G01X19273Y32864D01*
G01X19247Y32905D01*
G01X19218Y32945D01*
G01X19188Y32984D01*
G01X19157Y33022D01*
G01X19123Y33058D01*
G01X19089Y33092D01*
G01X19053Y33126D01*
G01X19015Y33157D01*
G01X18976Y33187D01*
G01X18936Y33216D01*
G01X18895Y33242D01*
G01X18852Y33267D01*
G01X18809Y33290D01*
G01X18765Y33311D01*
G01X18720Y33331D01*
G01X18674Y33348D01*
G01X18627Y33363D01*
G01X18580Y33377D01*
G01X18532Y33388D01*
G01X18484Y33397D01*
G01X18435Y33405D01*
G01X18386Y33410D01*
G01X18337Y33413D01*
G01X18288Y33414D01*
G01X18239Y33413D01*
G01X18190Y33410D01*
G01X18142Y33405D01*
G01X18093Y33397D01*
G01X18045Y33388D01*
G01X17997Y33377D01*
G01X17950Y33363D01*
G01X17903Y33348D01*
G01X17857Y33331D01*
G01X17812Y33311D01*
G01X17768Y33290D01*
G01X17724Y33267D01*
G01X17682Y33242D01*
G01X17641Y33216D01*
G01X17601Y33187D01*
G01X17562Y33157D01*
G01X17524Y33126D01*
G01X17488Y33092D01*
G01X17453Y33058D01*
G01X17420Y33022D01*
G01X17389Y32984D01*
G01X17359Y32945D01*
G01X17330Y32905D01*
G01X17304Y32864D01*
G01X17279Y32822D01*
G01X17256Y32778D01*
G01X17235Y32734D01*
G01X17215Y32689D01*
G01X17198Y32643D01*
G01X17183Y32596D01*
G01X17169Y32549D01*
G01X17158Y32501D01*
G01X17149Y32453D01*
G01X17141Y32404D01*
G01X17136Y32356D01*
G01X17133Y32307D01*
G01X17132Y32257D01*
G01X17133Y32208D01*
G01X17136Y32159D01*
G01X17141Y32111D01*
G01X17149Y32062D01*
G01X17158Y32014D01*
G01X17169Y31966D01*
G01X17183Y31919D01*
G01X17198Y31872D01*
G01X17215Y31826D01*
G01X17235Y31781D01*
G01X17256Y31737D01*
G01X17279Y31693D01*
G01X17304Y31651D01*
G01X17330Y31610D01*
G01X17359Y31570D01*
G01X17389Y31531D01*
G01X17420Y31493D01*
G01X17420Y31494D01*
G01X17421Y31493D01*
G01X17880Y30965D01*
G01X17889Y30953D01*
G01X17896Y30941D01*
G01X17901Y30927D01*
G01X17904Y30913D01*
G01X17905Y30898D01*
G01X17905Y29918D01*
G01X17904Y29903D01*
G01X17900Y29887D01*
G01X17894Y29872D01*
G01X17885Y29859D01*
G01X17875Y29847D01*
G01X17651Y29623D01*
G01X17639Y29612D01*
G01X17626Y29604D01*
G01X17611Y29598D01*
G01X17595Y29594D01*
G01X17579Y29593D01*
G01X15650Y29593D01*
G01X15635Y29594D01*
G01X15621Y29597D01*
G01X15607Y29602D01*
G01X15595Y29609D01*
G01X15583Y29618D01*
G01X15573Y29628D01*
G01X15564Y29640D01*
G01X15557Y29652D01*
G01X15552Y29666D01*
G01X15549Y29680D01*
G01X15548Y29695D01*
G01X15549Y29711D01*
G01X15553Y29726D01*
G01X15559Y29741D01*
G01X15567Y29754D01*
G01X15578Y29766D01*
G01X16020Y30208D01*
G01X16040Y30230D01*
G01X16059Y30254D01*
G01X16075Y30279D01*
G01X16090Y30305D01*
G01X16103Y30333D01*
G01X16113Y30361D01*
G01X16121Y30390D01*
G01X16127Y30420D01*
G01X16131Y30449D01*
G01X16132Y30479D01*
G01X16132Y30898D01*
G01X16133Y30913D01*
G01X16136Y30927D01*
G01X16141Y30941D01*
G01X16148Y30953D01*
G01X16157Y30965D01*
G01X16616Y31493D01*
G01X16648Y31531D01*
G01X16678Y31570D01*
G01X16707Y31610D01*
G01X16733Y31651D01*
G01X16758Y31693D01*
G01X16781Y31737D01*
G01X16802Y31781D01*
G01X16822Y31826D01*
G01X16839Y31872D01*
G01X16854Y31919D01*
G01X16868Y31966D01*
G01X16879Y32014D01*
G01X16888Y32062D01*
G01X16896Y32111D01*
G01X16901Y32159D01*
G01X16904Y32208D01*
G01X16905Y32258D01*
G01X16904Y32307D01*
G01X16901Y32356D01*
G01X16896Y32404D01*
G01X16888Y32453D01*
G01X16879Y32501D01*
G01X16868Y32549D01*
G01X16854Y32596D01*
G01X16839Y32643D01*
G01X16822Y32689D01*
G01X16802Y32734D01*
G01X16781Y32778D01*
G01X16758Y32822D01*
G01X16733Y32864D01*
G01X16707Y32905D01*
G01X16678Y32945D01*
G01X16648Y32984D01*
G01X16617Y33022D01*
G01X16583Y33058D01*
G01X16549Y33092D01*
G01X16513Y33126D01*
G01X16475Y33157D01*
G01X16436Y33187D01*
G01X16396Y33216D01*
G01X16355Y33242D01*
G01X16312Y33267D01*
G01X16269Y33290D01*
G01X16225Y33311D01*
G01X16180Y33331D01*
G01X16134Y33348D01*
G01X16087Y33363D01*
G01X16040Y33377D01*
G01X15992Y33388D01*
G01X15944Y33397D01*
G01X15895Y33405D01*
G01X15846Y33410D01*
G01X15797Y33413D01*
G01X15748Y33414D01*
G01X15699Y33413D01*
G01X15650Y33410D01*
G01X15602Y33405D01*
G01X15553Y33397D01*
G01X15505Y33388D01*
G01X15457Y33377D01*
G01X15410Y33363D01*
G01X15363Y33348D01*
G01X15317Y33331D01*
G01X15272Y33311D01*
G01X15228Y33290D01*
G01X15184Y33267D01*
G01X15142Y33242D01*
G01X15101Y33216D01*
G01X15061Y33187D01*
G01X15022Y33157D01*
G01X14984Y33126D01*
G01X14948Y33092D01*
G01X14913Y33058D01*
G01X14880Y33022D01*
G01X14849Y32984D01*
G01X14819Y32945D01*
G01X14790Y32905D01*
G01X14764Y32864D01*
G01X14739Y32822D01*
G01X14716Y32778D01*
G01X14695Y32734D01*
G01X14675Y32689D01*
G01X14658Y32643D01*
G01X14643Y32596D01*
G01X14629Y32549D01*
G01X14618Y32501D01*
G01X14609Y32453D01*
G01X14601Y32404D01*
G01X14596Y32356D01*
G01X14593Y32307D01*
G01X14592Y32257D01*
G01X14593Y32208D01*
G01X14596Y32159D01*
G01X14601Y32111D01*
G01X14609Y32062D01*
G01X14618Y32014D01*
G01X14629Y31966D01*
G01X14643Y31919D01*
G01X14658Y31872D01*
G01X14675Y31826D01*
G01X14695Y31781D01*
G01X14716Y31737D01*
G01X14739Y31693D01*
G01X14764Y31651D01*
G01X14790Y31610D01*
G01X14819Y31570D01*
G01X14849Y31531D01*
G01X14880Y31493D01*
G01X14880Y31494D01*
G01X14881Y31493D01*
G01X15340Y30965D01*
G01X15349Y30953D01*
G01X15356Y30941D01*
G01X15361Y30927D01*
G01X15364Y30913D01*
G01X15365Y30898D01*
G01X15365Y30680D01*
G01X15364Y30665D01*
G01X15360Y30649D01*
G01X15354Y30634D01*
G01X15345Y30621D01*
G01X15335Y30609D01*
G01X14857Y30131D01*
G01X14845Y30120D01*
G01X14832Y30112D01*
G01X14817Y30106D01*
G01X14801Y30102D01*
G01X14785Y30101D01*
G01X10287Y30101D01*
G01X10257Y30100D01*
G01X10227Y30096D01*
G01X10198Y30090D01*
G01X10169Y30082D01*
G01X10141Y30072D01*
G01X10113Y30059D01*
G01X10087Y30045D01*
G01X10062Y30028D01*
G01X10038Y30009D01*
G01X10016Y29989D01*
G01X9310Y29283D01*
G01X9290Y29261D01*
G01X9271Y29237D01*
G01X9255Y29212D01*
G01X9240Y29186D01*
G01X9227Y29158D01*
G01X9217Y29130D01*
G01X9209Y29101D01*
G01X9203Y29072D01*
G01X9199Y29042D01*
G01X9198Y29012D01*
G01X9198Y27799D01*
G01X9197Y27783D01*
G01X9193Y27768D01*
G01X9187Y27754D01*
G01X9134Y27646D01*
G01X9125Y27632D01*
G01X9115Y27620D01*
G01X9103Y27610D01*
G01X9089Y27601D01*
G01X9074Y27595D01*
G01X9059Y27591D01*
G01X9043Y27590D01*
G01X9032Y27590D01*
G01X9008Y27589D01*
G01X8984Y27586D01*
G01X8961Y27580D01*
G01X8939Y27573D01*
G01X8917Y27563D01*
G01X8897Y27552D01*
G01X8877Y27538D01*
G01X8859Y27523D01*
G01X8842Y27506D01*
G01X8827Y27488D01*
G01X8814Y27469D01*
G01X8802Y27448D01*
G01X8792Y27426D01*
G01X8785Y27404D01*
G01X8779Y27381D01*
G01X8776Y27357D01*
G01X8775Y27333D01*
G01X8775Y24734D01*
G01X8776Y24710D01*
G01X8779Y24686D01*
G01X8785Y24663D01*
G01X8792Y24641D01*
G01X8802Y24619D01*
G01X8814Y24598D01*
G01X8827Y24579D01*
G01X8842Y24561D01*
G01X8859Y24544D01*
G01X8877Y24529D01*
G01X8897Y24515D01*
G01X8917Y24504D01*
G01X8939Y24494D01*
G01X8961Y24487D01*
G01X8984Y24481D01*
G01X9008Y24478D01*
G01X9032Y24477D01*
G01X10131Y24477D01*
G01X10155Y24478D01*
G01X10179Y24481D01*
G01X10202Y24487D01*
G01X10224Y24494D01*
G01X10246Y24504D01*
G01X10267Y24515D01*
G01X10286Y24529D01*
G01X10304Y24544D01*
G01X10321Y24561D01*
G01X10336Y24579D01*
G01X10350Y24598D01*
G01X10361Y24619D01*
G01X10371Y24641D01*
G01X10378Y24663D01*
G01X10384Y24686D01*
G01X10387Y24710D01*
G01X10388Y24734D01*
G01X10388Y27333D01*
G01X10387Y27357D01*
G01X10384Y27381D01*
G01X10378Y27404D01*
G01X10371Y27426D01*
G01X10361Y27448D01*
G01X10350Y27469D01*
G01X10336Y27488D01*
G01X10321Y27506D01*
G01X10304Y27523D01*
G01X10286Y27538D01*
G01X10267Y27552D01*
G01X10246Y27563D01*
G01X10224Y27573D01*
G01X10202Y27580D01*
G01X10179Y27586D01*
G01X10155Y27589D01*
G01X10131Y27590D01*
G01X10120Y27590D01*
G01X10104Y27591D01*
G01X10089Y27595D01*
G01X10074Y27601D01*
G01X10060Y27610D01*
G01X10048Y27620D01*
G01X10038Y27632D01*
G01X10030Y27646D01*
G01X9976Y27754D01*
G01X9970Y27768D01*
G01X9966Y27783D01*
G01X9965Y27799D01*
G01X9965Y28811D01*
G01X9966Y28827D01*
G01X9970Y28842D01*
G01X9976Y28857D01*
G01X9984Y28870D01*
G01X9995Y28883D01*
G01X10417Y29304D01*
G01X10429Y29315D01*
G01X10442Y29323D01*
G01X10457Y29329D01*
G01X10472Y29333D01*
G01X10488Y29334D01*
G01X11402Y29334D01*
G01X11417Y29333D01*
G01X11431Y29330D01*
G01X11444Y29325D01*
G01X11457Y29318D01*
G01X11469Y29309D01*
G01X11479Y29299D01*
G01X11488Y29287D01*
G01X11495Y29275D01*
G01X11500Y29261D01*
G01X11503Y29247D01*
G01X11504Y29232D01*
G01X11503Y29216D01*
G01X11499Y29201D01*
G01X11493Y29186D01*
G01X11484Y29173D01*
G01X11474Y29161D01*
G01X11309Y28996D01*
G01X11289Y28973D01*
G01X11270Y28950D01*
G01X11253Y28925D01*
G01X11239Y28898D01*
G01X11226Y28871D01*
G01X11216Y28843D01*
G01X11207Y28814D01*
G01X11201Y28784D01*
G01X11198Y28754D01*
G01X11197Y28724D01*
G01X11197Y27799D01*
G01X11196Y27783D01*
G01X11192Y27768D01*
G01X11186Y27754D01*
G01X11132Y27646D01*
G01X11124Y27632D01*
G01X11114Y27620D01*
G01X11102Y27610D01*
G01X11088Y27601D01*
G01X11073Y27595D01*
G01X11057Y27591D01*
G01X11041Y27590D01*
G01X11032Y27590D01*
G01X11008Y27589D01*
G01X10984Y27586D01*
G01X10961Y27580D01*
G01X10939Y27573D01*
G01X10917Y27563D01*
G01X10897Y27552D01*
G01X10877Y27538D01*
G01X10859Y27523D01*
G01X10842Y27506D01*
G01X10827Y27488D01*
G01X10814Y27469D01*
G01X10802Y27448D01*
G01X10792Y27426D01*
G01X10785Y27404D01*
G01X10779Y27381D01*
G01X10776Y27357D01*
G01X10775Y27333D01*
G01X10775Y24734D01*
G01X10776Y24710D01*
G01X10779Y24686D01*
G01X10785Y24663D01*
G01X10792Y24641D01*
G01X10802Y24619D01*
G01X10814Y24598D01*
G01X10827Y24579D01*
G01X10842Y24561D01*
G01X10859Y24544D01*
G01X10877Y24529D01*
G01X10897Y24515D01*
G01X10917Y24504D01*
G01X10939Y24494D01*
G01X10961Y24487D01*
G01X10984Y24481D01*
G01X11008Y24478D01*
G01X11032Y24477D01*
G01X12131Y24477D01*
G01X12155Y24478D01*
G01X12179Y24481D01*
G01X12202Y24487D01*
G01X12224Y24494D01*
G01X12246Y24504D01*
G01X12267Y24515D01*
G01X12286Y24529D01*
G01X12304Y24544D01*
G01X12321Y24561D01*
G01X12336Y24579D01*
G01X12350Y24598D01*
G01X12361Y24619D01*
G01X12371Y24641D01*
G01X12378Y24663D01*
G01X12384Y24686D01*
G01X12387Y24710D01*
G01X12388Y24734D01*
G01X12388Y27333D01*
G01X12387Y27357D01*
G01X12384Y27381D01*
G01X12378Y27404D01*
G01X12371Y27426D01*
G01X12361Y27448D01*
G01X12350Y27469D01*
G01X12336Y27488D01*
G01X12321Y27506D01*
G01X12304Y27523D01*
G01X12286Y27538D01*
G01X12267Y27552D01*
G01X12246Y27563D01*
G01X12224Y27573D01*
G01X12202Y27580D01*
G01X12179Y27586D01*
G01X12155Y27589D01*
G01X12131Y27590D01*
G01X12119Y27590D01*
G01X12103Y27591D01*
G01X12088Y27595D01*
G01X12073Y27601D01*
G01X12059Y27610D01*
G01X12047Y27620D01*
G01X12037Y27632D01*
G01X12028Y27646D01*
G01X11975Y27754D01*
G01X11969Y27768D01*
G01X11965Y27783D01*
G01X11964Y27799D01*
G01X11964Y28523D01*
G01X11965Y28539D01*
G01X11969Y28555D01*
G01X11975Y28570D01*
G01X11983Y28583D01*
G01X11994Y28595D01*
G01X12195Y28796D01*
G01X12207Y28807D01*
G01X12220Y28815D01*
G01X12235Y28821D01*
G01X12250Y28825D01*
G01X12266Y28826D01*
G01X13561Y28826D01*
G01X13576Y28825D01*
G01X13590Y28822D01*
G01X13603Y28817D01*
G01X13616Y28810D01*
G01X13628Y28801D01*
G01X13638Y28791D01*
G01X13647Y28779D01*
G01X13654Y28767D01*
G01X13659Y28753D01*
G01X13662Y28739D01*
G01X13663Y28724D01*
G01X13662Y28708D01*
G01X13658Y28693D01*
G01X13652Y28678D01*
G01X13643Y28665D01*
G01X13633Y28653D01*
G01X13311Y28330D01*
G01X13290Y28308D01*
G01X13272Y28284D01*
G01X13255Y28259D01*
G01X13240Y28233D01*
G01X13227Y28206D01*
G01X13217Y28177D01*
G01X13209Y28148D01*
G01X13203Y28119D01*
G01X13199Y28089D01*
G01X13198Y28059D01*
G01X13198Y27799D01*
G01X13197Y27783D01*
G01X13193Y27768D01*
G01X13188Y27754D01*
G01X13134Y27646D01*
G01X13126Y27632D01*
G01X13115Y27620D01*
G01X13103Y27610D01*
G01X13089Y27601D01*
G01X13075Y27595D01*
G01X13059Y27591D01*
G01X13043Y27590D01*
G01X13032Y27590D01*
G01X13008Y27589D01*
G01X12984Y27586D01*
G01X12961Y27580D01*
G01X12939Y27573D01*
G01X12917Y27563D01*
G01X12897Y27552D01*
G01X12877Y27538D01*
G01X12859Y27523D01*
G01X12842Y27506D01*
G01X12827Y27488D01*
G01X12814Y27469D01*
G01X12802Y27448D01*
G01X12792Y27426D01*
G01X12785Y27404D01*
G01X12779Y27381D01*
G01X12776Y27357D01*
G01X12775Y27333D01*
G01X12775Y24734D01*
G01X12776Y24710D01*
G01X12779Y24686D01*
G01X12785Y24663D01*
G01X12792Y24641D01*
G01X12802Y24619D01*
G01X12814Y24598D01*
G01X12827Y24579D01*
G01X12842Y24561D01*
G01X12859Y24544D01*
G01X12877Y24529D01*
G01X12897Y24515D01*
G01X12917Y24504D01*
G01X12939Y24494D01*
G01X12961Y24487D01*
G01X12984Y24481D01*
G01X13008Y24478D01*
G01X13032Y24477D01*
G01X14131Y24477D01*
G01X14155Y24478D01*
G01X14179Y24481D01*
G01X14202Y24487D01*
G01X14224Y24494D01*
G01X14246Y24504D01*
G01X14267Y24515D01*
G01X14286Y24529D01*
G01X14304Y24544D01*
G01X14321Y24561D01*
G01X14336Y24579D01*
G01X14350Y24598D01*
G01X14361Y24619D01*
G01X14371Y24641D01*
G01X14378Y24663D01*
G01X14384Y24686D01*
G01X14387Y24710D01*
G01X14388Y24734D01*
G01X14388Y27333D01*
G01X14387Y27357D01*
G01X14384Y27381D01*
G01X14378Y27404D01*
G01X14371Y27426D01*
G01X14361Y27448D01*
G01X14350Y27469D01*
G01X14336Y27488D01*
G01X14321Y27506D01*
G01X14304Y27523D01*
G01X14286Y27538D01*
G01X14267Y27552D01*
G01X14246Y27563D01*
G01X14224Y27573D01*
G01X14202Y27580D01*
G01X14179Y27586D01*
G01X14155Y27589D01*
G01X14131Y27590D01*
G01X14121Y27590D01*
G01X14105Y27591D01*
G01X14089Y27595D01*
G01X14074Y27601D01*
G01X14061Y27610D01*
G01X14048Y27620D01*
G01X14038Y27632D01*
G01X14030Y27646D01*
G01X13976Y27754D01*
G01X13970Y27768D01*
G01X13967Y27783D01*
G01X13965Y27799D01*
G01X13965Y27858D01*
G01X13967Y27874D01*
G01X13970Y27889D01*
G01X13976Y27904D01*
G01X13985Y27918D01*
G01X13995Y27930D01*
G01X14354Y28288D01*
G01X14366Y28299D01*
G01X14379Y28307D01*
G01X14394Y28313D01*
G01X14409Y28317D01*
G01X14425Y28318D01*
G01X15593Y28318D01*
G01X15608Y28317D01*
G01X15622Y28314D01*
G01X15635Y28309D01*
G01X15648Y28302D01*
G01X15660Y28293D01*
G01X15670Y28283D01*
G01X15679Y28271D01*
G01X15686Y28259D01*
G01X15691Y28245D01*
G01X15694Y28231D01*
G01X15695Y28216D01*
G01X15694Y28200D01*
G01X15690Y28185D01*
G01X15684Y28170D01*
G01X15675Y28157D01*
G01X15665Y28145D01*
G01X15310Y27790D01*
G01X15290Y27768D01*
G01X15272Y27745D01*
G01X15255Y27720D01*
G01X15241Y27694D01*
G01X15228Y27668D01*
G01X15218Y27650D01*
G01X15205Y27634D01*
G01X15189Y27619D01*
G01X15177Y27609D01*
G01X15164Y27601D01*
G01X15149Y27595D01*
G01X15134Y27591D01*
G01X15119Y27590D01*
G01X15032Y27590D01*
G01X15008Y27589D01*
G01X14984Y27586D01*
G01X14961Y27580D01*
G01X14939Y27573D01*
G01X14917Y27563D01*
G01X14897Y27552D01*
G01X14877Y27538D01*
G01X14859Y27523D01*
G01X14842Y27506D01*
G01X14827Y27488D01*
G01X14814Y27469D01*
G01X14802Y27448D01*
G01X14792Y27426D01*
G01X14785Y27404D01*
G01X14779Y27381D01*
G01X14776Y27357D01*
G01X14775Y27333D01*
G01X14775Y24734D01*
G01X14776Y24710D01*
G01X14779Y24686D01*
G01X14785Y24663D01*
G01X14792Y24641D01*
G01X14802Y24619D01*
G01X14814Y24598D01*
G01X14827Y24579D01*
G01X14842Y24561D01*
G01X14859Y24544D01*
G01X14877Y24529D01*
G01X14897Y24515D01*
G01X14917Y24504D01*
G01X14939Y24494D01*
G01X14961Y24487D01*
G01X14984Y24481D01*
G01X15008Y24478D01*
G01X15032Y24477D01*
G01X16131Y24477D01*
G01X16155Y24478D01*
G01X16179Y24481D01*
G01X16202Y24487D01*
G01X16224Y24494D01*
G01X16246Y24504D01*
G01X16266Y24515D01*
G01X16286Y24529D01*
G01X16304Y24544D01*
G01X16321Y24561D01*
G01X16336Y24579D01*
G01X16350Y24598D01*
G01X16361Y24619D01*
G01X16371Y24641D01*
G01X16378Y24663D01*
G01X16384Y24686D01*
G01X16387Y24710D01*
G01X16388Y24734D01*
G01X16388Y27333D01*
G01X16387Y27359D01*
G01X16383Y27383D01*
G01X16377Y27408D01*
G01X16369Y27431D01*
G01X16358Y27454D01*
G01X16345Y27476D01*
G01X16330Y27496D01*
G01X16313Y27515D01*
G01X16294Y27532D01*
G01X16284Y27542D01*
G01X16274Y27554D01*
G01X16267Y27567D01*
G01X16262Y27581D01*
G01X16259Y27595D01*
G01X16257Y27610D01*
G01X16259Y27626D01*
G01X16262Y27641D01*
G01X16268Y27656D01*
G01X16277Y27670D01*
G01X16287Y27682D01*
G01X16386Y27780D01*
G01X16398Y27791D01*
G01X16411Y27799D01*
G01X16426Y27805D01*
G01X16441Y27809D01*
G01X16457Y27810D01*
G01X17270Y27810D01*
G01X17285Y27809D01*
G01X17299Y27806D01*
G01X17313Y27801D01*
G01X17325Y27794D01*
G01X17337Y27785D01*
G01X17347Y27775D01*
G01X17356Y27763D01*
G01X17363Y27751D01*
G01X17368Y27737D01*
G01X17371Y27723D01*
G01X17372Y27708D01*
G01X17371Y27693D01*
G01X17367Y27677D01*
G01X17361Y27662D01*
G01X17353Y27649D01*
G01X17342Y27637D01*
G01X17330Y27626D01*
G01X17308Y27610D01*
G01X17294Y27601D01*
G01X17279Y27595D01*
G01X17263Y27591D01*
G01X17247Y27590D01*
G01X17032Y27590D01*
G01X17008Y27589D01*
G01X16984Y27586D01*
G01X16961Y27580D01*
G01X16939Y27573D01*
G01X16917Y27563D01*
G01X16897Y27552D01*
G01X16877Y27538D01*
G01X16859Y27523D01*
G01X16842Y27506D01*
G01X16827Y27488D01*
G01X16814Y27469D01*
G01X16802Y27448D01*
G01X16792Y27426D01*
G01X16785Y27404D01*
G01X16779Y27381D01*
G01X16776Y27357D01*
G01X16775Y27333D01*
G01X16775Y24734D01*
G01X16776Y24710D01*
G01X16779Y24686D01*
G01X16785Y24663D01*
G01X16792Y24641D01*
G01X16802Y24619D01*
G01X16814Y24598D01*
G01X16827Y24579D01*
G01X16842Y24561D01*
G01X16859Y24544D01*
G01X16877Y24529D01*
G01X16897Y24515D01*
G01X16917Y24504D01*
G01X16939Y24494D01*
G01X16961Y24487D01*
G01X16984Y24481D01*
G01X17008Y24478D01*
G01X17032Y24477D01*
G01X18131Y24477D01*
G01X18155Y24478D01*
G01X18179Y24481D01*
G01X18202Y24487D01*
G01X18224Y24494D01*
G01X18246Y24504D01*
G01X18266Y24515D01*
G01X18286Y24529D01*
G01X18304Y24544D01*
G01X18321Y24561D01*
G01X18336Y24579D01*
G01X18350Y24598D01*
G01X18361Y24619D01*
G01X18371Y24641D01*
G01X18378Y24663D01*
G01X18384Y24686D01*
G01X18387Y24710D01*
G01X18388Y24734D01*
G01X18388Y27301D01*
G01X18389Y27315D01*
G01X18392Y27329D01*
G01X18397Y27343D01*
G01X18404Y27356D01*
G01X18413Y27367D01*
G01X18423Y27377D01*
G01X18435Y27386D01*
G01X18447Y27393D01*
G01X18461Y27398D01*
G01X18475Y27401D01*
G01X18490Y27402D01*
G01X18673Y27402D01*
G01X18688Y27401D01*
G01X18702Y27398D01*
G01X18716Y27393D01*
G01X18728Y27386D01*
G01X18740Y27377D01*
G01X18750Y27367D01*
G01X18759Y27356D01*
G01X18766Y27343D01*
G01X18771Y27329D01*
G01X18774Y27315D01*
G01X18775Y27301D01*
G01X18775Y24734D01*
G01X18776Y24710D01*
G01X18779Y24686D01*
G01X18785Y24663D01*
G01X18792Y24641D01*
G01X18802Y24619D01*
G01X18814Y24598D01*
G01X18827Y24579D01*
G01X18842Y24561D01*
G01X18859Y24544D01*
G01X18877Y24529D01*
G01X18897Y24515D01*
G01X18917Y24504D01*
G01X18939Y24494D01*
G01X18961Y24487D01*
G01X18984Y24481D01*
G01X19008Y24478D01*
G01X19032Y24477D01*
G01X19159Y24477D01*
G01X19175Y24476D01*
G01X19190Y24472D01*
G01X19204Y24467D01*
G01X19217Y24459D01*
G01X19229Y24449D01*
G01X19239Y24438D01*
G01X19248Y24425D01*
G01X19266Y24396D01*
G01X19287Y24369D01*
G01X19310Y24343D01*
G01X20430Y23223D01*
G01X20452Y23203D01*
G01X20476Y23184D01*
G01X20501Y23167D01*
G01X20527Y23153D01*
G01X20555Y23140D01*
G01X20583Y23130D01*
G01X20612Y23122D01*
G01X20641Y23116D01*
G01X20671Y23112D01*
G01X20701Y23111D01*
G01X24257Y23111D01*
G01X24288Y23112D01*
G01X24317Y23116D01*
G01X24347Y23122D01*
G01X24376Y23130D01*
G01X24404Y23140D01*
G01X24432Y23153D01*
G01X24458Y23167D01*
G01X24483Y23184D01*
G01X24507Y23203D01*
G01X24529Y23223D01*
G01X29101Y27795D01*
G01X29121Y27817D01*
G01X29140Y27841D01*
G01X29156Y27866D01*
G01X29171Y27892D01*
G01X29184Y27920D01*
G01X29194Y27948D01*
G01X29202Y27977D01*
G01X29208Y28007D01*
G01X29212Y28036D01*
G01X29213Y28066D01*
G01X29213Y35232D01*
G01X29214Y35247D01*
G01X29218Y35263D01*
G01X29224Y35278D01*
G01X29232Y35291D01*
G01X29243Y35303D01*
G01X30102Y36162D01*
G01X30114Y36173D01*
G01X30127Y36181D01*
G01X30142Y36187D01*
G01X30157Y36191D01*
G01X30173Y36192D01*
G01X30607Y36192D01*
G01X30638Y36193D01*
G01X30667Y36197D01*
G01X30697Y36203D01*
G01X30726Y36211D01*
G01X30754Y36221D01*
G01X30782Y36234D01*
G01X30808Y36248D01*
G01X30833Y36265D01*
G01X30857Y36284D01*
G01X30879Y36304D01*
G01X32022Y37447D01*
G01X32042Y37469D01*
G01X32061Y37493D01*
G01X32077Y37518D01*
G01X32092Y37544D01*
G01X32105Y37572D01*
G01X32115Y37600D01*
G01X32123Y37629D01*
G01X32129Y37659D01*
G01X32133Y37688D01*
G01X32134Y37718D01*
G01X32134Y38675D01*
G01X32136Y38693D01*
G01X32140Y38710D01*
G01X32148Y38726D01*
G01X32158Y38740D01*
G01X32535Y39189D01*
G01X32536Y39190D01*
G01X32566Y39226D01*
G01X32595Y39263D01*
G01X32621Y39302D01*
G01X32646Y39342D01*
G01X32669Y39382D01*
G01X32691Y39424D01*
G01X32710Y39467D01*
G01X32728Y39510D01*
G01X32743Y39555D01*
G01X32757Y39600D01*
G01X32768Y39645D01*
G01X32778Y39691D01*
G01X32785Y39737D01*
G01X32790Y39784D01*
G01X32793Y39831D01*
G01X32794Y39878D01*
G01X32793Y39924D01*
G01X32790Y39971D01*
G01X32785Y40018D01*
G01X32778Y40064D01*
G01X32768Y40110D01*
G01X32757Y40155D01*
G01X32743Y40200D01*
G01X32728Y40244D01*
G01X32710Y40288D01*
G01X32691Y40330D01*
G01X32670Y40372D01*
G01X32647Y40413D01*
G01X32622Y40453D01*
G01X32595Y40491D01*
G01X32567Y40528D01*
G01X32537Y40564D01*
G01X32505Y40599D01*
G01X32472Y40632D01*
G01X32437Y40664D01*
G01X32401Y40694D01*
G01X32364Y40722D01*
G01X32326Y40749D01*
G01X32286Y40774D01*
G01X32245Y40797D01*
G01X32203Y40818D01*
G01X32161Y40837D01*
G01X32117Y40855D01*
G01X32073Y40870D01*
G01X32028Y40884D01*
G01X31983Y40895D01*
G01X31937Y40905D01*
G01X31891Y40912D01*
G01X31844Y40917D01*
G01X31797Y40920D01*
G01X31750Y40921D01*
G01X31704Y40920D01*
G01X31657Y40917D01*
G01X31610Y40912D01*
G01X31564Y40905D01*
G01X31518Y40895D01*
G01X31473Y40884D01*
G01X31428Y40870D01*
G01X31384Y40855D01*
G01X31340Y40837D01*
G01X31297Y40818D01*
G01X31256Y40797D01*
G01X31215Y40774D01*
G01X31175Y40749D01*
G01X31137Y40722D01*
G01X31100Y40694D01*
G01X31064Y40664D01*
G01X31029Y40632D01*
G01X30996Y40599D01*
G01X30964Y40564D01*
G01X30934Y40528D01*
G01X30906Y40491D01*
G01X30879Y40453D01*
G01X30854Y40413D01*
G01X30831Y40372D01*
G01X30810Y40330D01*
G01X30790Y40288D01*
G01X30773Y40244D01*
G01X30758Y40200D01*
G01X30744Y40155D01*
G01X30733Y40110D01*
G01X30723Y40064D01*
G01X30716Y40018D01*
G01X30711Y39971D01*
G01X30708Y39924D01*
G01X30706Y39878D01*
G01X30708Y39831D01*
G01X30711Y39784D01*
G01X30716Y39737D01*
G01X30723Y39691D01*
G01X30733Y39645D01*
G01X30744Y39600D01*
G01X30758Y39555D01*
G01X30773Y39510D01*
G01X30791Y39467D01*
G01X30810Y39424D01*
G01X30831Y39382D01*
G01X30854Y39342D01*
G01X30879Y39302D01*
G01X30906Y39263D01*
G01X30935Y39226D01*
G01X30965Y39190D01*
G01X30966Y39189D01*
G01X31343Y38740D01*
G01X31353Y38726D01*
G01X31361Y38710D01*
G01X31365Y38693D01*
G01X31367Y38675D01*
G01X31367Y37919D01*
G01X31366Y37904D01*
G01X31362Y37888D01*
G01X31356Y37873D01*
G01X31347Y37860D01*
G01X31337Y37848D01*
G01X30478Y36989D01*
G01X30466Y36978D01*
G01X30453Y36970D01*
G01X30438Y36964D01*
G01X30422Y36960D01*
G01X30406Y36959D01*
G01X29972Y36959D01*
G01X29942Y36958D01*
G01X29912Y36954D01*
G01X29883Y36948D01*
G01X29854Y36940D01*
G01X29826Y36930D01*
G01X29798Y36917D01*
G01X29772Y36903D01*
G01X29747Y36886D01*
G01X29723Y36867D01*
G01X29701Y36847D01*
G01X28751Y35897D01*
G01X28739Y35887D01*
G01X28726Y35878D01*
G01X28711Y35872D01*
G01X28695Y35868D01*
G01X28680Y35867D01*
G01X28665Y35868D01*
G01X28651Y35871D01*
G01X28637Y35876D01*
G01X28625Y35883D01*
G01X28613Y35892D01*
G01X28603Y35902D01*
G01X28594Y35914D01*
G01X28587Y35927D01*
G01X28582Y35940D01*
G01X28579Y35954D01*
G01X28578Y35969D01*
G01X28578Y36121D01*
G01X28579Y36136D01*
G01X28583Y36152D01*
G01X28589Y36167D01*
G01X28597Y36180D01*
G01X28608Y36192D01*
G01X29482Y37066D01*
G01X29502Y37088D01*
G01X29521Y37112D01*
G01X29537Y37137D01*
G01X29552Y37163D01*
G01X29565Y37191D01*
G01X29575Y37219D01*
G01X29583Y37248D01*
G01X29589Y37278D01*
G01X29593Y37307D01*
G01X29594Y37337D01*
G01X29594Y38625D01*
G01X29595Y38640D01*
G01X29599Y38655D01*
G01X29605Y38670D01*
G01X29658Y38777D01*
G01X29667Y38791D01*
G01X29677Y38803D01*
G01X29689Y38814D01*
G01X29703Y38822D01*
G01X29718Y38829D01*
G01X29733Y38832D01*
G01X29749Y38834D01*
G01X29998Y38834D01*
G01X30021Y38835D01*
G01X30045Y38838D01*
G01X30068Y38843D01*
G01X30090Y38851D01*
G01X30112Y38860D01*
G01X30133Y38872D01*
G01X30152Y38885D01*
G01X30171Y38901D01*
G01X30187Y38917D01*
G01X30203Y38936D01*
G01X30216Y38955D01*
G01X30227Y38976D01*
G01X30237Y38997D01*
G01X30245Y39020D01*
G01X30250Y39043D01*
G01X30253Y39066D01*
G01X30254Y39090D01*
G01X30254Y40665D01*
G01X30253Y40689D01*
G01X30250Y40712D01*
G01X30245Y40735D01*
G01X30237Y40758D01*
G01X30227Y40779D01*
G01X30216Y40800D01*
G01X30203Y40819D01*
G01X30187Y40838D01*
G01X30171Y40854D01*
G01X30152Y40870D01*
G01X30133Y40883D01*
G01X30112Y40895D01*
G01X30090Y40904D01*
G01X30068Y40912D01*
G01X30045Y40917D01*
G01X30021Y40920D01*
G01X29998Y40921D01*
G01X28423Y40921D01*
G01X28399Y40920D01*
G01X28376Y40917D01*
G01X28353Y40912D01*
G01X28330Y40904D01*
G01X28309Y40895D01*
G01X28288Y40883D01*
G01X28268Y40870D01*
G01X28250Y40854D01*
G01X28233Y40838D01*
G01X28218Y40819D01*
G01X28205Y40800D01*
G01X28193Y40779D01*
G01X28184Y40758D01*
G01X28176Y40735D01*
G01X28171Y40712D01*
G01X28168Y40689D01*
G01X28166Y40665D01*
G01X28166Y39090D01*
G01X28168Y39066D01*
G01X28171Y39043D01*
G01X28176Y39020D01*
G01X28184Y38997D01*
G01X28193Y38976D01*
G01X28205Y38955D01*
G01X28218Y38936D01*
G01X28233Y38917D01*
G01X28250Y38901D01*
G01X28268Y38885D01*
G01X28288Y38872D01*
G01X28309Y38860D01*
G01X28330Y38851D01*
G01X28353Y38843D01*
G01X28376Y38838D01*
G01X28399Y38835D01*
G01X28423Y38834D01*
G01X28672Y38834D01*
G01X28688Y38832D01*
G01X28703Y38829D01*
G01X28718Y38822D01*
G01X28732Y38814D01*
G01X28744Y38803D01*
G01X28754Y38791D01*
G01X28762Y38777D01*
G01X28816Y38670D01*
G01X28822Y38655D01*
G01X28826Y38640D01*
G01X28827Y38625D01*
G01X28827Y37538D01*
G01X28826Y37523D01*
G01X28822Y37507D01*
G01X28816Y37492D01*
G01X28807Y37479D01*
G01X28797Y37467D01*
G01X27923Y36593D01*
G01X27903Y36571D01*
G01X27884Y36547D01*
G01X27867Y36522D01*
G01X27853Y36496D01*
G01X27840Y36468D01*
G01X27830Y36440D01*
G01X27821Y36411D01*
G01X27816Y36381D01*
G01X27812Y36352D01*
G01X27811Y36322D01*
G01X27811Y28267D01*
G01X27810Y28252D01*
G01X27806Y28236D01*
G01X27800Y28221D01*
G01X27791Y28208D01*
G01X27781Y28196D01*
G01X24561Y24976D01*
G01X24549Y24966D01*
G01X24536Y24957D01*
G01X24521Y24951D01*
G01X24505Y24947D01*
G01X24490Y24946D01*
G01X24475Y24947D01*
G01X24461Y24950D01*
G01X24447Y24955D01*
G01X24435Y24962D01*
G01X24423Y24971D01*
G01X24413Y24981D01*
G01X24404Y24993D01*
G01X24397Y25006D01*
G01X24392Y25019D01*
G01X24389Y25033D01*
G01X24388Y25048D01*
G01X24388Y25383D01*
G01X23856Y25383D01*
G01X23856Y24386D01*
G01X23855Y24372D01*
G01X23852Y24357D01*
G01X23847Y24344D01*
G01X23840Y24331D01*
G01X23832Y24320D01*
G01X23821Y24309D01*
G01X23810Y24301D01*
G01X23797Y24294D01*
G01X23783Y24289D01*
G01X23769Y24285D01*
G01X23755Y24284D01*
G01X23408Y24284D01*
G01X23394Y24285D01*
G01X23380Y24289D01*
G01X23366Y24294D01*
G01X23353Y24301D01*
G01X23342Y24309D01*
G01X23331Y24320D01*
G01X23323Y24331D01*
G01X23316Y24344D01*
G01X23311Y24357D01*
G01X23308Y24372D01*
G01X23307Y24386D01*
G01X23307Y25383D01*
G01X22775Y25383D01*
G01X22775Y24734D01*
G01X22776Y24709D01*
G01X22780Y24685D01*
G01X22785Y24662D01*
G01X22793Y24639D01*
G01X22803Y24617D01*
G01X22815Y24595D01*
G01X22829Y24576D01*
G01X22845Y24557D01*
G01X22863Y24540D01*
G01X22882Y24525D01*
G01X22902Y24512D01*
G01X22924Y24501D01*
G01X22946Y24492D01*
G01X22969Y24485D01*
G01X22984Y24480D01*
G01X22997Y24473D01*
G01X23009Y24465D01*
G01X23020Y24454D01*
G01X23029Y24443D01*
G01X23037Y24430D01*
G01X23042Y24416D01*
G01X23045Y24401D01*
G01X23046Y24386D01*
G01X23045Y24372D01*
G01X23042Y24357D01*
G01X23037Y24344D01*
G01X23030Y24331D01*
G01X23022Y24320D01*
G01X23011Y24309D01*
G01X23000Y24301D01*
G01X22987Y24294D01*
G01X22973Y24289D01*
G01X22959Y24285D01*
G01X22945Y24284D01*
G01X22273Y24284D01*
G01X22257Y24286D01*
G01X22242Y24289D01*
G01X22227Y24295D01*
G01X22214Y24304D01*
G01X22202Y24314D01*
G01X22188Y24327D01*
G01X22178Y24339D01*
G01X22170Y24353D01*
G01X22163Y24368D01*
G01X22160Y24383D01*
G01X22158Y24399D01*
G01X22160Y24414D01*
G01X22163Y24429D01*
G01X22169Y24444D01*
G01X22176Y24457D01*
G01X22186Y24469D01*
G01X22197Y24479D01*
G01X22210Y24488D01*
G01X22224Y24494D01*
G01X22245Y24504D01*
G01X22266Y24515D01*
G01X22286Y24528D01*
G01X22304Y24544D01*
G01X22321Y24560D01*
G01X22336Y24579D01*
G01X22349Y24598D01*
G01X22361Y24619D01*
G01X22371Y24641D01*
G01X22378Y24663D01*
G01X22384Y24686D01*
G01X22387Y24710D01*
G01X22388Y24734D01*
G01X22388Y27301D01*
G01X22389Y27315D01*
G01X22392Y27329D01*
G01X22397Y27343D01*
G01X22404Y27356D01*
G01X22413Y27367D01*
G01X22423Y27377D01*
G01X22435Y27386D01*
G01X22447Y27393D01*
G01X22461Y27398D01*
G01X22475Y27401D01*
G01X22490Y27402D01*
G01X22673Y27402D01*
G01X22688Y27401D01*
G01X22702Y27398D01*
G01X22716Y27393D01*
G01X22728Y27386D01*
G01X22740Y27377D01*
G01X22750Y27367D01*
G01X22759Y27356D01*
G01X22766Y27343D01*
G01X22771Y27329D01*
G01X22774Y27315D01*
G01X22775Y27301D01*
G01X22775Y26683D01*
G01X23307Y26683D01*
G01X23307Y27341D01*
G01X23308Y27356D01*
G01X23311Y27370D01*
G01X23316Y27384D01*
G01X23323Y27397D01*
G01X23332Y27408D01*
G01X23343Y27419D01*
G01X23355Y27427D01*
G01X23368Y27434D01*
G01X23394Y27447D01*
G01X23419Y27461D01*
G01X23442Y27477D01*
G01X23465Y27495D01*
G01X23486Y27515D01*
G01X23683Y27712D01*
G01X23697Y27724D01*
G01X23714Y27733D01*
G01X23723Y27749D01*
G01X23735Y27763D01*
G01X26688Y30716D01*
G01X26708Y30738D01*
G01X26727Y30762D01*
G01X26743Y30787D01*
G01X26758Y30813D01*
G01X26771Y30841D01*
G01X26781Y30869D01*
G01X26789Y30898D01*
G01X26795Y30928D01*
G01X26799Y30957D01*
G01X26800Y30987D01*
G01X26800Y38861D01*
G01X26799Y38892D01*
G01X26795Y38921D01*
G01X26789Y38951D01*
G01X26781Y38980D01*
G01X26771Y39008D01*
G01X26758Y39036D01*
G01X26743Y39062D01*
G01X26727Y39087D01*
G01X26708Y39111D01*
G01X26688Y39133D01*
G01X25164Y40657D01*
G01X25142Y40677D01*
G01X25118Y40696D01*
G01X25093Y40713D01*
G01X25067Y40727D01*
G01X25039Y40740D01*
G01X25011Y40750D01*
G01X24982Y40758D01*
G01X24952Y40764D01*
G01X24923Y40768D01*
G01X24892Y40769D01*
G01X9906Y40769D01*
G01X9876Y40768D01*
G01X9846Y40764D01*
G01X9817Y40758D01*
G01X9788Y40750D01*
G01X9760Y40740D01*
G01X9732Y40727D01*
G01X9706Y40713D01*
G01X9681Y40696D01*
G01X9657Y40677D01*
G01X9635Y40657D01*
G01X8873Y39895D01*
G01X8853Y39873D01*
G01X8834Y39849D01*
G01X8817Y39824D01*
G01X8803Y39798D01*
G01X8790Y39770D01*
G01X8780Y39742D01*
G01X8771Y39713D01*
G01X8766Y39683D01*
G01X8762Y39654D01*
G01X8761Y39624D01*
G01X8761Y38808D01*
G01X8760Y38793D01*
G01X8756Y38777D01*
G01X8750Y38762D01*
G01X8741Y38749D01*
G01X8731Y38737D01*
G01X7999Y38005D01*
G01X7987Y37994D01*
G01X7974Y37986D01*
G01X7959Y37980D01*
G01X7943Y37976D01*
G01X7927Y37975D01*
G01X5281Y37975D01*
G01X5265Y37976D01*
G01X5250Y37980D01*
G01X5235Y37986D01*
G01X5222Y37994D01*
G01X5210Y38005D01*
G01X4781Y38433D01*
G01X4771Y38445D01*
G01X4762Y38459D01*
G01X4756Y38474D01*
G01X4753Y38489D01*
G01X4751Y38505D01*
G01X4752Y38520D01*
G01X4756Y38534D01*
G01X4761Y38548D01*
G01X4768Y38561D01*
G01X4777Y38572D01*
G01X5223Y39080D01*
G01X5256Y39118D01*
G01X5287Y39159D01*
G01X5317Y39200D01*
G01X5345Y39243D01*
G01X5370Y39287D01*
G01X5394Y39332D01*
G01X5416Y39377D01*
G01X5436Y39424D01*
G01X5455Y39472D01*
G01X5461Y39487D01*
G01X5471Y39500D01*
G01X5471Y39504D01*
G01X5472Y39519D01*
G01X5475Y39533D01*
G01X5488Y39581D01*
G01X5499Y39630D01*
G01X5508Y39679D01*
G01X5516Y39728D01*
G01X5521Y39778D01*
G01X5524Y39828D01*
G01X5525Y39877D01*
G01X5524Y39927D01*
G01X5521Y39977D01*
G01X5516Y40027D01*
G01X5508Y40076D01*
G01X5499Y40125D01*
G01X5488Y40174D01*
G01X5475Y40222D01*
G01X5472Y40236D01*
G01X5471Y40251D01*
G01X5471Y40255D01*
G01X5461Y40268D01*
G01X5455Y40283D01*
G01X5436Y40331D01*
G01X5416Y40378D01*
G01X5394Y40424D01*
G01X5370Y40469D01*
G01X5344Y40513D01*
G01X5316Y40556D01*
G01X5287Y40598D01*
G01X5255Y40638D01*
G01X5222Y40677D01*
G01X5188Y40714D01*
G01X5151Y40750D01*
G01X5114Y40785D01*
G01X5075Y40818D01*
G01X5034Y40849D01*
G01X4992Y40878D01*
G01X4949Y40906D01*
G01X4905Y40932D01*
G01X4860Y40956D01*
G01X4814Y40978D01*
G01X4767Y40998D01*
G01X4719Y41016D01*
G01X4671Y41031D01*
G01X4622Y41045D01*
G01X4572Y41057D01*
G01X4522Y41067D01*
G01X4471Y41074D01*
G01X4420Y41080D01*
G01X4369Y41083D01*
G37*
G36*
G01X32639Y24894D02*
G01X31877Y24894D01*
G01X31817Y24893D01*
G01X31756Y24890D01*
G01X31695Y24885D01*
G01X31635Y24877D01*
G01X31575Y24868D01*
G01X31515Y24857D01*
G01X31456Y24843D01*
G01X31397Y24828D01*
G01X31339Y24811D01*
G01X31281Y24791D01*
G01X31224Y24770D01*
G01X31168Y24747D01*
G01X31113Y24721D01*
G01X31058Y24694D01*
G01X31005Y24666D01*
G01X30952Y24635D01*
G01X30901Y24602D01*
G01X30851Y24568D01*
G01X30802Y24532D01*
G01X30754Y24495D01*
G01X30707Y24456D01*
G01X30662Y24415D01*
G01X30618Y24373D01*
G01X30576Y24329D01*
G01X30535Y24284D01*
G01X30496Y24237D01*
G01X30459Y24189D01*
G01X30423Y24140D01*
G01X30389Y24090D01*
G01X30356Y24039D01*
G01X30325Y23986D01*
G01X30296Y23933D01*
G01X30269Y23878D01*
G01X30244Y23823D01*
G01X30221Y23767D01*
G01X30200Y23710D01*
G01X30180Y23652D01*
G01X30163Y23594D01*
G01X30147Y23535D01*
G01X30134Y23476D01*
G01X30123Y23416D01*
G01X30113Y23356D01*
G01X30106Y23296D01*
G01X30101Y23235D01*
G01X30098Y23174D01*
G01X30097Y23114D01*
G01X30098Y23053D01*
G01X30101Y22992D01*
G01X30106Y22931D01*
G01X30113Y22871D01*
G01X30123Y22811D01*
G01X30134Y22751D01*
G01X30147Y22692D01*
G01X30163Y22633D01*
G01X30180Y22575D01*
G01X30200Y22517D01*
G01X30221Y22460D01*
G01X30244Y22404D01*
G01X30269Y22349D01*
G01X30296Y22294D01*
G01X30325Y22241D01*
G01X30356Y22188D01*
G01X30389Y22137D01*
G01X30423Y22087D01*
G01X30459Y22038D01*
G01X30496Y21990D01*
G01X30535Y21943D01*
G01X30576Y21898D01*
G01X30618Y21854D01*
G01X30662Y21812D01*
G01X30707Y21771D01*
G01X30754Y21732D01*
G01X30802Y21695D01*
G01X30851Y21659D01*
G01X30901Y21625D01*
G01X30952Y21592D01*
G01X31005Y21561D01*
G01X31058Y21533D01*
G01X31113Y21506D01*
G01X31168Y21480D01*
G01X31224Y21457D01*
G01X31281Y21436D01*
G01X31339Y21416D01*
G01X31397Y21399D01*
G01X31456Y21384D01*
G01X31515Y21370D01*
G01X31575Y21359D01*
G01X31635Y21350D01*
G01X31695Y21342D01*
G01X31756Y21337D01*
G01X31817Y21334D01*
G01X31877Y21333D01*
G01X32639Y21333D01*
G01X32700Y21334D01*
G01X32761Y21337D01*
G01X32821Y21342D01*
G01X32882Y21350D01*
G01X32942Y21359D01*
G01X33002Y21370D01*
G01X33061Y21384D01*
G01X33120Y21399D01*
G01X33178Y21416D01*
G01X33236Y21436D01*
G01X33293Y21457D01*
G01X33349Y21480D01*
G01X33404Y21506D01*
G01X33459Y21533D01*
G01X33512Y21561D01*
G01X33565Y21592D01*
G01X33616Y21625D01*
G01X33666Y21659D01*
G01X33715Y21695D01*
G01X33763Y21732D01*
G01X33810Y21771D01*
G01X33855Y21812D01*
G01X33898Y21854D01*
G01X33941Y21898D01*
G01X33981Y21943D01*
G01X34021Y21990D01*
G01X34058Y22038D01*
G01X34094Y22087D01*
G01X34128Y22137D01*
G01X34161Y22188D01*
G01X34191Y22241D01*
G01X34220Y22294D01*
G01X34247Y22349D01*
G01X34273Y22404D01*
G01X34296Y22460D01*
G01X34317Y22517D01*
G01X34337Y22575D01*
G01X34354Y22633D01*
G01X34369Y22692D01*
G01X34383Y22751D01*
G01X34394Y22811D01*
G01X34403Y22871D01*
G01X34411Y22931D01*
G01X34416Y22992D01*
G01X34419Y23053D01*
G01X34420Y23114D01*
G01X34419Y23174D01*
G01X34416Y23235D01*
G01X34411Y23296D01*
G01X34403Y23356D01*
G01X34394Y23416D01*
G01X34383Y23476D01*
G01X34369Y23535D01*
G01X34354Y23594D01*
G01X34337Y23652D01*
G01X34317Y23710D01*
G01X34296Y23767D01*
G01X34273Y23823D01*
G01X34247Y23878D01*
G01X34220Y23933D01*
G01X34191Y23986D01*
G01X34161Y24039D01*
G01X34128Y24090D01*
G01X34094Y24140D01*
G01X34058Y24189D01*
G01X34021Y24237D01*
G01X33981Y24284D01*
G01X33941Y24329D01*
G01X33898Y24373D01*
G01X33855Y24415D01*
G01X33810Y24456D01*
G01X33763Y24495D01*
G01X33715Y24532D01*
G01X33666Y24568D01*
G01X33616Y24602D01*
G01X33565Y24635D01*
G01X33512Y24666D01*
G01X33459Y24694D01*
G01X33404Y24721D01*
G01X33349Y24747D01*
G01X33293Y24770D01*
G01X33236Y24791D01*
G01X33178Y24811D01*
G01X33120Y24828D01*
G01X33061Y24843D01*
G01X33002Y24857D01*
G01X32942Y24868D01*
G01X32882Y24877D01*
G01X32821Y24885D01*
G01X32761Y24890D01*
G01X32700Y24893D01*
G01X32639Y24894D01*
G37*
G36*
G01X13257Y38697D02*
G01X13208Y38698D01*
G01X13160Y38697D01*
G01X13112Y38694D01*
G01X13064Y38689D01*
G01X13016Y38681D01*
G01X12969Y38672D01*
G01X12922Y38660D01*
G01X12876Y38647D01*
G01X12830Y38631D01*
G01X12785Y38614D01*
G01X12741Y38594D01*
G01X12697Y38573D01*
G01X12655Y38550D01*
G01X12614Y38525D01*
G01X12574Y38498D01*
G01X12535Y38469D01*
G01X12497Y38439D01*
G01X12461Y38407D01*
G01X12426Y38374D01*
G01X12393Y38339D01*
G01X12361Y38303D01*
G01X12331Y38265D01*
G01X12302Y38226D01*
G01X12275Y38186D01*
G01X12250Y38145D01*
G01X12227Y38102D01*
G01X12206Y38059D01*
G01X12186Y38015D01*
G01X12169Y37970D01*
G01X12153Y37924D01*
G01X12140Y37878D01*
G01X12128Y37831D01*
G01X12119Y37784D01*
G01X12111Y37736D01*
G01X12106Y37688D01*
G01X12103Y37640D01*
G01X12102Y37592D01*
G01X12103Y37543D01*
G01X12106Y37495D01*
G01X12111Y37447D01*
G01X12119Y37399D01*
G01X12128Y37352D01*
G01X12140Y37305D01*
G01X12153Y37259D01*
G01X12169Y37213D01*
G01X12186Y37168D01*
G01X12206Y37124D01*
G01X12227Y37081D01*
G01X12250Y37038D01*
G01X12275Y36997D01*
G01X12302Y36957D01*
G01X12331Y36918D01*
G01X12361Y36880D01*
G01X12393Y36844D01*
G01X12426Y36809D01*
G01X12461Y36776D01*
G01X12497Y36744D01*
G01X12535Y36714D01*
G01X12574Y36685D01*
G01X12614Y36658D01*
G01X12655Y36633D01*
G01X12697Y36610D01*
G01X12741Y36589D01*
G01X12785Y36569D01*
G01X12830Y36552D01*
G01X12876Y36536D01*
G01X12922Y36523D01*
G01X12969Y36511D01*
G01X13016Y36502D01*
G01X13064Y36494D01*
G01X13112Y36489D01*
G01X13160Y36486D01*
G01X13208Y36485D01*
G01X13257Y36486D01*
G01X13305Y36489D01*
G01X13353Y36494D01*
G01X13401Y36502D01*
G01X13448Y36511D01*
G01X13495Y36523D01*
G01X13541Y36536D01*
G01X13587Y36552D01*
G01X13632Y36569D01*
G01X13676Y36589D01*
G01X13719Y36610D01*
G01X13762Y36633D01*
G01X13803Y36658D01*
G01X13843Y36685D01*
G01X13882Y36714D01*
G01X13920Y36744D01*
G01X13956Y36776D01*
G01X13991Y36809D01*
G01X14024Y36844D01*
G01X14056Y36880D01*
G01X14086Y36918D01*
G01X14115Y36957D01*
G01X14142Y36997D01*
G01X14167Y37038D01*
G01X14190Y37081D01*
G01X14211Y37124D01*
G01X14231Y37168D01*
G01X14248Y37213D01*
G01X14264Y37259D01*
G01X14277Y37305D01*
G01X14289Y37352D01*
G01X14298Y37399D01*
G01X14305Y37447D01*
G01X14311Y37495D01*
G01X14314Y37543D01*
G01X14315Y37592D01*
G01X14314Y37640D01*
G01X14311Y37688D01*
G01X14305Y37736D01*
G01X14298Y37784D01*
G01X14289Y37831D01*
G01X14277Y37878D01*
G01X14264Y37924D01*
G01X14248Y37970D01*
G01X14231Y38015D01*
G01X14211Y38059D01*
G01X14190Y38102D01*
G01X14167Y38145D01*
G01X14142Y38186D01*
G01X14115Y38226D01*
G01X14086Y38265D01*
G01X14056Y38303D01*
G01X14024Y38339D01*
G01X13991Y38374D01*
G01X13956Y38407D01*
G01X13920Y38439D01*
G01X13882Y38469D01*
G01X13843Y38498D01*
G01X13803Y38525D01*
G01X13762Y38550D01*
G01X13719Y38573D01*
G01X13676Y38594D01*
G01X13632Y38614D01*
G01X13587Y38631D01*
G01X13541Y38647D01*
G01X13495Y38660D01*
G01X13448Y38672D01*
G01X13401Y38681D01*
G01X13353Y38689D01*
G01X13305Y38694D01*
G01X13257Y38697D01*
G37*
G36*
G01X24218Y38698D02*
G01X22519Y38698D01*
G01X22495Y38697D01*
G01X22471Y38694D01*
G01X22448Y38688D01*
G01X22426Y38681D01*
G01X22404Y38671D01*
G01X22383Y38659D01*
G01X22364Y38646D01*
G01X22346Y38631D01*
G01X22329Y38614D01*
G01X22314Y38596D01*
G01X22300Y38576D01*
G01X22289Y38556D01*
G01X22279Y38534D01*
G01X22272Y38512D01*
G01X22266Y38489D01*
G01X22263Y38465D01*
G01X22262Y38441D01*
G01X22262Y36742D01*
G01X22263Y36718D01*
G01X22266Y36694D01*
G01X22272Y36671D01*
G01X22279Y36649D01*
G01X22289Y36627D01*
G01X22300Y36607D01*
G01X22314Y36587D01*
G01X22329Y36569D01*
G01X22346Y36552D01*
G01X22364Y36537D01*
G01X22383Y36524D01*
G01X22404Y36512D01*
G01X22426Y36502D01*
G01X22448Y36495D01*
G01X22471Y36489D01*
G01X22495Y36486D01*
G01X22519Y36485D01*
G01X24218Y36485D01*
G01X24242Y36486D01*
G01X24265Y36489D01*
G01X24289Y36495D01*
G01X24311Y36502D01*
G01X24333Y36512D01*
G01X24353Y36524D01*
G01X24373Y36537D01*
G01X24391Y36552D01*
G01X24408Y36569D01*
G01X24423Y36587D01*
G01X24436Y36607D01*
G01X24448Y36627D01*
G01X24458Y36649D01*
G01X24465Y36671D01*
G01X24470Y36694D01*
G01X24474Y36718D01*
G01X24475Y36742D01*
G01X24475Y38441D01*
G01X24474Y38465D01*
G01X24470Y38489D01*
G01X24465Y38512D01*
G01X24458Y38534D01*
G01X24448Y38556D01*
G01X24436Y38576D01*
G01X24423Y38596D01*
G01X24408Y38614D01*
G01X24391Y38631D01*
G01X24373Y38646D01*
G01X24353Y38659D01*
G01X24333Y38671D01*
G01X24311Y38681D01*
G01X24289Y38688D01*
G01X24265Y38694D01*
G01X24242Y38697D01*
G01X24218Y38698D01*
G37*
G36*
G01X34443Y36476D02*
G01X32868Y36476D01*
G01X32844Y36475D01*
G01X32821Y36472D01*
G01X32798Y36467D01*
G01X32775Y36459D01*
G01X32754Y36450D01*
G01X32733Y36438D01*
G01X32713Y36425D01*
G01X32695Y36409D01*
G01X32678Y36393D01*
G01X32663Y36374D01*
G01X32650Y36355D01*
G01X32638Y36334D01*
G01X32629Y36313D01*
G01X32621Y36290D01*
G01X32616Y36267D01*
G01X32613Y36244D01*
G01X32611Y36220D01*
G01X32611Y34645D01*
G01X32613Y34621D01*
G01X32616Y34598D01*
G01X32621Y34575D01*
G01X32629Y34552D01*
G01X32638Y34531D01*
G01X32650Y34510D01*
G01X32663Y34491D01*
G01X32678Y34472D01*
G01X32695Y34456D01*
G01X32713Y34440D01*
G01X32733Y34427D01*
G01X32754Y34415D01*
G01X32775Y34406D01*
G01X32798Y34398D01*
G01X32821Y34393D01*
G01X32844Y34390D01*
G01X32868Y34389D01*
G01X34443Y34389D01*
G01X34466Y34390D01*
G01X34490Y34393D01*
G01X34513Y34398D01*
G01X34535Y34406D01*
G01X34557Y34415D01*
G01X34578Y34427D01*
G01X34597Y34440D01*
G01X34616Y34456D01*
G01X34632Y34472D01*
G01X34648Y34491D01*
G01X34661Y34510D01*
G01X34672Y34531D01*
G01X34682Y34552D01*
G01X34690Y34575D01*
G01X34695Y34598D01*
G01X34698Y34621D01*
G01X34699Y34645D01*
G01X34699Y36220D01*
G01X34698Y36244D01*
G01X34695Y36267D01*
G01X34690Y36290D01*
G01X34682Y36313D01*
G01X34672Y36334D01*
G01X34661Y36355D01*
G01X34648Y36374D01*
G01X34632Y36393D01*
G01X34616Y36409D01*
G01X34597Y36425D01*
G01X34578Y36438D01*
G01X34557Y36450D01*
G01X34535Y36459D01*
G01X34513Y36467D01*
G01X34490Y36472D01*
G01X34466Y36475D01*
G01X34443Y36476D01*
G37*
G36*
G01X3349Y34062D02*
G01X3302Y34063D01*
G01X3256Y34062D01*
G01X3209Y34059D01*
G01X3162Y34054D01*
G01X3116Y34047D01*
G01X3070Y34037D01*
G01X3025Y34026D01*
G01X2980Y34012D01*
G01X2936Y33997D01*
G01X2892Y33979D01*
G01X2849Y33960D01*
G01X2808Y33939D01*
G01X2767Y33916D01*
G01X2727Y33891D01*
G01X2689Y33864D01*
G01X2652Y33836D01*
G01X2616Y33806D01*
G01X2581Y33774D01*
G01X2548Y33741D01*
G01X2516Y33706D01*
G01X2486Y33670D01*
G01X2458Y33633D01*
G01X2431Y33595D01*
G01X2406Y33555D01*
G01X2383Y33514D01*
G01X2362Y33472D01*
G01X2342Y33430D01*
G01X2325Y33386D01*
G01X2310Y33342D01*
G01X2296Y33297D01*
G01X2285Y33252D01*
G01X2275Y33206D01*
G01X2268Y33160D01*
G01X2263Y33113D01*
G01X2260Y33066D01*
G01X2258Y33019D01*
G01X2260Y32973D01*
G01X2263Y32926D01*
G01X2268Y32879D01*
G01X2275Y32833D01*
G01X2285Y32787D01*
G01X2296Y32742D01*
G01X2310Y32697D01*
G01X2325Y32653D01*
G01X2342Y32609D01*
G01X2362Y32567D01*
G01X2383Y32525D01*
G01X2406Y32484D01*
G01X2431Y32444D01*
G01X2458Y32406D01*
G01X2486Y32369D01*
G01X2516Y32333D01*
G01X2548Y32298D01*
G01X2581Y32265D01*
G01X2616Y32233D01*
G01X2652Y32203D01*
G01X2689Y32175D01*
G01X2727Y32148D01*
G01X2767Y32123D01*
G01X2808Y32100D01*
G01X2849Y32079D01*
G01X2892Y32060D01*
G01X2936Y32042D01*
G01X2980Y32027D01*
G01X3025Y32013D01*
G01X3070Y32002D01*
G01X3116Y31992D01*
G01X3162Y31985D01*
G01X3209Y31980D01*
G01X3256Y31977D01*
G01X3302Y31976D01*
G01X3349Y31977D01*
G01X3396Y31980D01*
G01X3443Y31985D01*
G01X3489Y31992D01*
G01X3535Y32002D01*
G01X3580Y32013D01*
G01X3625Y32027D01*
G01X3669Y32042D01*
G01X3713Y32060D01*
G01X3755Y32079D01*
G01X3797Y32100D01*
G01X3838Y32123D01*
G01X3878Y32148D01*
G01X3916Y32175D01*
G01X3953Y32203D01*
G01X3989Y32233D01*
G01X4024Y32265D01*
G01X4057Y32298D01*
G01X4089Y32333D01*
G01X4119Y32369D01*
G01X4147Y32406D01*
G01X4174Y32444D01*
G01X4199Y32484D01*
G01X4222Y32525D01*
G01X4243Y32567D01*
G01X4262Y32609D01*
G01X4280Y32653D01*
G01X4295Y32697D01*
G01X4309Y32742D01*
G01X4320Y32787D01*
G01X4330Y32833D01*
G01X4337Y32879D01*
G01X4342Y32926D01*
G01X4345Y32973D01*
G01X4346Y33020D01*
G01X4345Y33066D01*
G01X4342Y33113D01*
G01X4337Y33160D01*
G01X4330Y33206D01*
G01X4320Y33252D01*
G01X4309Y33297D01*
G01X4295Y33342D01*
G01X4280Y33386D01*
G01X4262Y33430D01*
G01X4243Y33472D01*
G01X4222Y33514D01*
G01X4199Y33555D01*
G01X4174Y33595D01*
G01X4147Y33633D01*
G01X4119Y33670D01*
G01X4089Y33706D01*
G01X4057Y33741D01*
G01X4024Y33774D01*
G01X3989Y33806D01*
G01X3953Y33836D01*
G01X3916Y33864D01*
G01X3878Y33891D01*
G01X3838Y33916D01*
G01X3797Y33939D01*
G01X3755Y33960D01*
G01X3713Y33979D01*
G01X3669Y33997D01*
G01X3625Y34012D01*
G01X3580Y34026D01*
G01X3535Y34037D01*
G01X3489Y34047D01*
G01X3443Y34054D01*
G01X3396Y34059D01*
G01X3349Y34062D01*
G37*
G36*
G01X34232Y12128D02*
G01X33171Y12128D01*
G01X33171Y11163D01*
G01X33230Y11186D01*
G01X33289Y11211D01*
G01X33347Y11238D01*
G01X33404Y11267D01*
G01X33460Y11298D01*
G01X33515Y11331D01*
G01X33569Y11365D01*
G01X33621Y11401D01*
G01X33673Y11439D01*
G01X33723Y11479D01*
G01X33772Y11521D01*
G01X33819Y11564D01*
G01X33865Y11608D01*
G01X33909Y11654D01*
G01X33952Y11702D01*
G01X33993Y11751D01*
G01X34032Y11801D01*
G01X34070Y11853D01*
G01X34106Y11906D01*
G01X34141Y11960D01*
G01X34173Y12015D01*
G01X34203Y12071D01*
G01X34232Y12128D01*
G37*
G36*
G01X33230Y14721D02*
G01X33171Y14744D01*
G01X33171Y13779D01*
G01X34232Y13779D01*
G01X34203Y13836D01*
G01X34173Y13892D01*
G01X34141Y13947D01*
G01X34106Y14001D01*
G01X34070Y14054D01*
G01X34032Y14106D01*
G01X33993Y14156D01*
G01X33952Y14205D01*
G01X33909Y14253D01*
G01X33865Y14299D01*
G01X33819Y14343D01*
G01X33772Y14386D01*
G01X33723Y14428D01*
G01X33673Y14468D01*
G01X33621Y14506D01*
G01X33569Y14542D01*
G01X33515Y14576D01*
G01X33460Y14609D01*
G01X33404Y14640D01*
G01X33347Y14669D01*
G01X33289Y14696D01*
G01X33230Y14721D01*
G37*
G36*
G01X31346Y13779D02*
G01X31346Y14744D01*
G01X31287Y14721D01*
G01X31228Y14696D01*
G01X31170Y14669D01*
G01X31113Y14640D01*
G01X31057Y14609D01*
G01X31002Y14576D01*
G01X30948Y14542D01*
G01X30895Y14506D01*
G01X30844Y14468D01*
G01X30794Y14428D01*
G01X30745Y14386D01*
G01X30698Y14343D01*
G01X30652Y14299D01*
G01X30608Y14253D01*
G01X30565Y14205D01*
G01X30524Y14156D01*
G01X30484Y14106D01*
G01X30447Y14054D01*
G01X30411Y14001D01*
G01X30376Y13947D01*
G01X30344Y13892D01*
G01X30313Y13836D01*
G01X30285Y13779D01*
G01X31346Y13779D01*
G37*
G36*
G01X31346Y12128D02*
G01X30285Y12128D01*
G01X30313Y12071D01*
G01X30344Y12015D01*
G01X30376Y11960D01*
G01X30411Y11906D01*
G01X30447Y11853D01*
G01X30484Y11801D01*
G01X30524Y11751D01*
G01X30565Y11702D01*
G01X30608Y11654D01*
G01X30652Y11608D01*
G01X30698Y11564D01*
G01X30745Y11521D01*
G01X30794Y11479D01*
G01X30844Y11439D01*
G01X30895Y11401D01*
G01X30948Y11365D01*
G01X31002Y11331D01*
G01X31057Y11298D01*
G01X31113Y11267D01*
G01X31170Y11238D01*
G01X31228Y11211D01*
G01X31287Y11186D01*
G01X31346Y11163D01*
G01X31346Y12128D01*
G37*
G36*
G01X8065Y39403D02*
G01X7333Y39403D01*
G01X7333Y38671D01*
G01X7808Y38671D01*
G01X7832Y38672D01*
G01X7856Y38675D01*
G01X7879Y38681D01*
G01X7901Y38688D01*
G01X7923Y38698D01*
G01X7943Y38709D01*
G01X7963Y38723D01*
G01X7981Y38738D01*
G01X7998Y38755D01*
G01X8013Y38773D01*
G01X8027Y38792D01*
G01X8038Y38813D01*
G01X8048Y38835D01*
G01X8055Y38857D01*
G01X8061Y38880D01*
G01X8064Y38904D01*
G01X8065Y38927D01*
G01X8065Y39403D01*
G37*
G36*
G01X6383Y39403D02*
G01X5652Y39403D01*
G01X5652Y38927D01*
G01X5653Y38904D01*
G01X5656Y38880D01*
G01X5662Y38857D01*
G01X5669Y38835D01*
G01X5679Y38813D01*
G01X5690Y38792D01*
G01X5704Y38773D01*
G01X5719Y38755D01*
G01X5736Y38738D01*
G01X5754Y38723D01*
G01X5773Y38709D01*
G01X5794Y38698D01*
G01X5816Y38688D01*
G01X5838Y38681D01*
G01X5861Y38675D01*
G01X5885Y38672D01*
G01X5908Y38671D01*
G01X6383Y38671D01*
G01X6383Y39403D01*
G37*
G36*
G01X7808Y41084D02*
G01X7333Y41084D01*
G01X7333Y40353D01*
G01X8065Y40353D01*
G01X8065Y40827D01*
G01X8064Y40851D01*
G01X8061Y40875D01*
G01X8055Y40898D01*
G01X8048Y40920D01*
G01X8038Y40942D01*
G01X8027Y40963D01*
G01X8013Y40982D01*
G01X7998Y41000D01*
G01X7981Y41017D01*
G01X7963Y41032D01*
G01X7943Y41046D01*
G01X7923Y41057D01*
G01X7901Y41067D01*
G01X7879Y41074D01*
G01X7856Y41080D01*
G01X7832Y41083D01*
G01X7808Y41084D01*
G37*
G36*
G01X6383Y41084D02*
G01X5908Y41084D01*
G01X5885Y41083D01*
G01X5861Y41080D01*
G01X5838Y41074D01*
G01X5816Y41067D01*
G01X5794Y41057D01*
G01X5773Y41046D01*
G01X5754Y41032D01*
G01X5736Y41017D01*
G01X5719Y41000D01*
G01X5704Y40982D01*
G01X5690Y40963D01*
G01X5679Y40942D01*
G01X5669Y40920D01*
G01X5662Y40898D01*
G01X5656Y40875D01*
G01X5653Y40851D01*
G01X5652Y40827D01*
G01X5652Y40353D01*
G01X6383Y40353D01*
G01X6383Y41084D01*
G37*
G36*
G01X24131Y27590D02*
G01X23856Y27590D01*
G01X23856Y26683D01*
G01X24388Y26683D01*
G01X24388Y27333D01*
G01X24387Y27357D01*
G01X24384Y27381D01*
G01X24378Y27404D01*
G01X24371Y27426D01*
G01X24361Y27448D01*
G01X24350Y27469D01*
G01X24336Y27488D01*
G01X24321Y27506D01*
G01X24304Y27523D01*
G01X24286Y27538D01*
G01X24266Y27552D01*
G01X24246Y27563D01*
G01X24224Y27573D01*
G01X24202Y27580D01*
G01X24179Y27586D01*
G01X24155Y27589D01*
G01X24131Y27590D01*
G37*
G36*
G01X12758Y32707D02*
G01X12758Y33323D01*
G01X12713Y33303D01*
G01X12669Y33280D01*
G01X12626Y33256D01*
G01X12583Y33231D01*
G01X12542Y33203D01*
G01X12502Y33173D01*
G01X12464Y33142D01*
G01X12426Y33110D01*
G01X12356Y33040D01*
G01X12324Y33002D01*
G01X12293Y32964D01*
G01X12263Y32924D01*
G01X12235Y32883D01*
G01X12185Y32797D01*
G01X12163Y32753D01*
G01X12143Y32707D01*
G01X12758Y32707D01*
G37*
G36*
G01X12758Y31808D02*
G01X12143Y31808D01*
G01X12163Y31762D01*
G01X12185Y31718D01*
G01X12235Y31632D01*
G01X12263Y31591D01*
G01X12293Y31551D01*
G01X12324Y31513D01*
G01X12356Y31475D01*
G01X12426Y31405D01*
G01X12464Y31373D01*
G01X12502Y31342D01*
G01X12542Y31312D01*
G01X12583Y31284D01*
G01X12626Y31259D01*
G01X12669Y31235D01*
G01X12713Y31212D01*
G01X12758Y31192D01*
G01X12758Y31808D01*
G37*
G36*
G01X14274Y31808D02*
G01X13658Y31808D01*
G01X13658Y31192D01*
G01X13704Y31212D01*
G01X13748Y31235D01*
G01X13791Y31259D01*
G01X13834Y31284D01*
G01X13875Y31312D01*
G01X13915Y31342D01*
G01X13953Y31373D01*
G01X13990Y31405D01*
G01X14026Y31440D01*
G01X14061Y31475D01*
G01X14093Y31513D01*
G01X14124Y31551D01*
G01X14154Y31591D01*
G01X14181Y31632D01*
G01X14207Y31675D01*
G01X14231Y31718D01*
G01X14254Y31762D01*
G01X14274Y31808D01*
G37*
G36*
G01X13704Y33303D02*
G01X13658Y33323D01*
G01X13658Y32707D01*
G01X14274Y32707D01*
G01X14254Y32753D01*
G01X14231Y32797D01*
G01X14207Y32840D01*
G01X14181Y32883D01*
G01X14154Y32924D01*
G01X14124Y32964D01*
G01X14093Y33002D01*
G01X14061Y33040D01*
G01X14026Y33075D01*
G01X13990Y33110D01*
G01X13953Y33142D01*
G01X13915Y33173D01*
G01X13875Y33203D01*
G01X13834Y33231D01*
G01X13791Y33256D01*
G01X13748Y33280D01*
G01X13704Y33303D01*
G37*
G36*
G01X21850Y37167D02*
G01X21253Y37167D01*
G01X21253Y36570D01*
G01X21297Y36589D01*
G01X21341Y36611D01*
G01X21383Y36634D01*
G01X21424Y36659D01*
G01X21464Y36686D01*
G01X21502Y36714D01*
G01X21540Y36744D01*
G01X21576Y36776D01*
G01X21611Y36809D01*
G01X21644Y36844D01*
G01X21676Y36880D01*
G01X21706Y36917D01*
G01X21734Y36956D01*
G01X21761Y36996D01*
G01X21786Y37037D01*
G01X21809Y37079D01*
G01X21831Y37123D01*
G01X21850Y37167D01*
G37*
G36*
G01X21297Y38594D02*
G01X21253Y38613D01*
G01X21253Y38017D01*
G01X21850Y38017D01*
G01X21831Y38060D01*
G01X21809Y38104D01*
G01X21786Y38146D01*
G01X21761Y38187D01*
G01X21734Y38227D01*
G01X21706Y38266D01*
G01X21676Y38303D01*
G01X21644Y38339D01*
G01X21611Y38374D01*
G01X21576Y38407D01*
G01X21540Y38439D01*
G01X21502Y38469D01*
G01X21464Y38497D01*
G01X21424Y38524D01*
G01X21383Y38549D01*
G01X21341Y38572D01*
G01X21297Y38594D01*
G37*
G36*
G01X20403Y38017D02*
G01X20403Y38613D01*
G01X20359Y38594D01*
G01X20316Y38572D01*
G01X20274Y38549D01*
G01X20233Y38524D01*
G01X20193Y38497D01*
G01X20154Y38469D01*
G01X20117Y38439D01*
G01X20081Y38407D01*
G01X20046Y38374D01*
G01X20013Y38339D01*
G01X19981Y38303D01*
G01X19951Y38266D01*
G01X19922Y38227D01*
G01X19896Y38187D01*
G01X19871Y38146D01*
G01X19848Y38104D01*
G01X19826Y38060D01*
G01X19807Y38017D01*
G01X20403Y38017D01*
G37*
G36*
G01X20403Y37167D02*
G01X19807Y37167D01*
G01X19826Y37123D01*
G01X19848Y37079D01*
G01X19871Y37037D01*
G01X19896Y36996D01*
G01X19922Y36956D01*
G01X19951Y36917D01*
G01X19981Y36880D01*
G01X20013Y36844D01*
G01X20046Y36809D01*
G01X20081Y36776D01*
G01X20117Y36744D01*
G01X20154Y36714D01*
G01X20193Y36686D01*
G01X20233Y36659D01*
G01X20274Y36634D01*
G01X20316Y36611D01*
G01X20359Y36589D01*
G01X20403Y36570D01*
G01X20403Y37167D01*
G37*
G36*
G01X34622Y29959D02*
G01X34049Y29959D01*
G01X34049Y29386D01*
G01X34092Y29404D01*
G01X34133Y29424D01*
G01X34174Y29446D01*
G01X34213Y29470D01*
G01X34252Y29496D01*
G01X34289Y29523D01*
G01X34325Y29552D01*
G01X34360Y29582D01*
G01X34394Y29614D01*
G01X34426Y29648D01*
G01X34456Y29683D01*
G01X34485Y29719D01*
G01X34512Y29756D01*
G01X34538Y29795D01*
G01X34562Y29834D01*
G01X34584Y29875D01*
G01X34604Y29916D01*
G01X34622Y29959D01*
G37*
G36*
G01X33262Y29959D02*
G01X32689Y29959D01*
G01X32707Y29916D01*
G01X32727Y29875D01*
G01X32749Y29834D01*
G01X32773Y29795D01*
G01X32799Y29756D01*
G01X32826Y29719D01*
G01X32855Y29683D01*
G01X32885Y29648D01*
G01X32917Y29614D01*
G01X32951Y29582D01*
G01X32985Y29552D01*
G01X33022Y29523D01*
G01X33059Y29496D01*
G01X33097Y29470D01*
G01X33137Y29446D01*
G01X33178Y29424D01*
G01X33219Y29404D01*
G01X33262Y29386D01*
G01X33262Y29959D01*
G37*
G36*
G01X34092Y31301D02*
G01X34049Y31319D01*
G01X34049Y30746D01*
G01X34622Y30746D01*
G01X34604Y30789D01*
G01X34584Y30830D01*
G01X34562Y30871D01*
G01X34538Y30910D01*
G01X34512Y30949D01*
G01X34485Y30986D01*
G01X34456Y31022D01*
G01X34426Y31057D01*
G01X34394Y31091D01*
G01X34360Y31123D01*
G01X34325Y31153D01*
G01X34289Y31182D01*
G01X34252Y31209D01*
G01X34213Y31235D01*
G01X34174Y31259D01*
G01X34133Y31281D01*
G01X34092Y31301D01*
G37*
G36*
G01X33262Y30746D02*
G01X33262Y31319D01*
G01X33219Y31301D01*
G01X33178Y31281D01*
G01X33137Y31259D01*
G01X33097Y31235D01*
G01X33059Y31209D01*
G01X33022Y31182D01*
G01X32985Y31153D01*
G01X32951Y31123D01*
G01X32917Y31091D01*
G01X32885Y31057D01*
G01X32855Y31022D01*
G01X32826Y30986D01*
G01X32799Y30949D01*
G01X32773Y30910D01*
G01X32749Y30871D01*
G01X32727Y30830D01*
G01X32707Y30789D01*
G01X32689Y30746D01*
G01X33262Y30746D01*
G37*
G36*
G01X3739Y36508D02*
G01X3696Y36526D01*
G01X3696Y35953D01*
G01X4269Y35953D01*
G01X4251Y35996D01*
G01X4231Y36037D01*
G01X4209Y36078D01*
G01X4185Y36117D01*
G01X4159Y36156D01*
G01X4132Y36193D01*
G01X4103Y36229D01*
G01X4073Y36264D01*
G01X4041Y36298D01*
G01X4007Y36330D01*
G01X3972Y36360D01*
G01X3936Y36389D01*
G01X3899Y36416D01*
G01X3860Y36442D01*
G01X3821Y36466D01*
G01X3780Y36488D01*
G01X3739Y36508D01*
G37*
G36*
G01X4269Y35166D02*
G01X3696Y35166D01*
G01X3696Y34593D01*
G01X3739Y34611D01*
G01X3780Y34631D01*
G01X3821Y34653D01*
G01X3860Y34677D01*
G01X3899Y34703D01*
G01X3936Y34730D01*
G01X3972Y34759D01*
G01X4007Y34789D01*
G01X4041Y34821D01*
G01X4073Y34855D01*
G01X4103Y34890D01*
G01X4132Y34926D01*
G01X4159Y34963D01*
G01X4185Y35002D01*
G01X4209Y35041D01*
G01X4231Y35082D01*
G01X4251Y35123D01*
G01X4269Y35166D01*
G37*
G36*
G01X2909Y35953D02*
G01X2909Y36526D01*
G01X2866Y36508D01*
G01X2825Y36488D01*
G01X2784Y36466D01*
G01X2744Y36442D01*
G01X2706Y36416D01*
G01X2669Y36389D01*
G01X2632Y36360D01*
G01X2598Y36330D01*
G01X2564Y36298D01*
G01X2532Y36264D01*
G01X2502Y36229D01*
G01X2473Y36193D01*
G01X2446Y36156D01*
G01X2420Y36117D01*
G01X2396Y36078D01*
G01X2374Y36037D01*
G01X2354Y35996D01*
G01X2336Y35953D01*
G01X2909Y35953D01*
G37*
G36*
G01X2909Y35166D02*
G01X2336Y35166D01*
G01X2354Y35123D01*
G01X2374Y35082D01*
G01X2396Y35041D01*
G01X2420Y35002D01*
G01X2446Y34963D01*
G01X2473Y34926D01*
G01X2502Y34890D01*
G01X2532Y34855D01*
G01X2564Y34821D01*
G01X2598Y34789D01*
G01X2632Y34759D01*
G01X2669Y34730D01*
G01X2706Y34703D01*
G01X2744Y34677D01*
G01X2784Y34653D01*
G01X2825Y34631D01*
G01X2866Y34611D01*
G01X2909Y34593D01*
G01X2909Y35166D01*
G37*

%LPD*%
G36*
G01X20839Y16888D02*
G01X20013Y16888D01*
G01X19997Y16887D01*
G01X19982Y16883D01*
G01X19967Y16877D01*
G01X19954Y16869D01*
G01X19942Y16858D01*
G01X17995Y14912D01*
G01X17984Y14899D01*
G01X17976Y14886D01*
G01X17970Y14871D01*
G01X17966Y14856D01*
G01X17965Y14840D01*
G01X17965Y11799D01*
G01X17966Y11783D01*
G01X17970Y11768D01*
G01X17976Y11754D01*
G01X18029Y11646D01*
G01X18038Y11632D01*
G01X18048Y11620D01*
G01X18060Y11610D01*
G01X18074Y11601D01*
G01X18089Y11595D01*
G01X18104Y11591D01*
G01X18120Y11590D01*
G01X18131Y11590D01*
G01X18155Y11589D01*
G01X18179Y11586D01*
G01X18202Y11580D01*
G01X18224Y11573D01*
G01X18246Y11563D01*
G01X18266Y11552D01*
G01X18286Y11538D01*
G01X18304Y11523D01*
G01X18321Y11506D01*
G01X18336Y11488D01*
G01X18350Y11469D01*
G01X18361Y11448D01*
G01X18371Y11426D01*
G01X18378Y11404D01*
G01X18384Y11381D01*
G01X18387Y11357D01*
G01X18388Y11333D01*
G01X18388Y8734D01*
G01X18387Y8711D01*
G01X18384Y8688D01*
G01X18379Y8665D01*
G01X18372Y8644D01*
G01X18363Y8622D01*
G01X18352Y8602D01*
G01X18339Y8583D01*
G01X18325Y8565D01*
G01X18316Y8553D01*
G01X18309Y8541D01*
G01X18304Y8527D01*
G01X18301Y8513D01*
G01X18300Y8498D01*
G01X18301Y8484D01*
G01X18304Y8470D01*
G01X18309Y8456D01*
G01X18316Y8443D01*
G01X18325Y8432D01*
G01X18335Y8422D01*
G01X18347Y8413D01*
G01X18359Y8406D01*
G01X18373Y8401D01*
G01X18387Y8398D01*
G01X18402Y8397D01*
G01X18762Y8397D01*
G01X18776Y8398D01*
G01X18790Y8401D01*
G01X18804Y8406D01*
G01X18816Y8413D01*
G01X18828Y8422D01*
G01X18838Y8432D01*
G01X18847Y8443D01*
G01X18854Y8456D01*
G01X18859Y8470D01*
G01X18862Y8484D01*
G01X18863Y8498D01*
G01X18862Y8513D01*
G01X18859Y8527D01*
G01X18854Y8541D01*
G01X18847Y8553D01*
G01X18838Y8565D01*
G01X18824Y8583D01*
G01X18811Y8602D01*
G01X18800Y8622D01*
G01X18791Y8644D01*
G01X18784Y8665D01*
G01X18779Y8688D01*
G01X18776Y8711D01*
G01X18775Y8734D01*
G01X18775Y11333D01*
G01X18776Y11357D01*
G01X18779Y11380D01*
G01X18784Y11402D01*
G01X18792Y11424D01*
G01X18801Y11446D01*
G01X18812Y11466D01*
G01X18825Y11485D01*
G01X18839Y11503D01*
G01X18855Y11520D01*
G01X18873Y11535D01*
G01X18892Y11549D01*
G01X18912Y11560D01*
G01X18933Y11570D01*
G01X18955Y11578D01*
G01X18977Y11584D01*
G01X19000Y11588D01*
G01X19023Y11590D01*
G01X19038Y11592D01*
G01X19053Y11596D01*
G01X19068Y11602D01*
G01X19081Y11610D01*
G01X19092Y11621D01*
G01X19102Y11633D01*
G01X19110Y11646D01*
G01X19164Y11754D01*
G01X19170Y11768D01*
G01X19174Y11783D01*
G01X19175Y11799D01*
G01X19175Y14732D01*
G01X19176Y14762D01*
G01X19180Y14791D01*
G01X19185Y14821D01*
G01X19194Y14850D01*
G01X19204Y14878D01*
G01X19217Y14906D01*
G01X19231Y14932D01*
G01X19248Y14957D01*
G01X19267Y14981D01*
G01X19287Y15003D01*
G01X20327Y16043D01*
G01X20337Y16055D01*
G01X20346Y16068D01*
G01X20352Y16082D01*
G01X20391Y16195D01*
G01X20395Y16213D01*
G01X20401Y16247D01*
G01X20410Y16282D01*
G01X20421Y16315D01*
G01X20433Y16348D01*
G01X20448Y16380D01*
G01X20465Y16411D01*
G01X20483Y16441D01*
G01X20504Y16470D01*
G01X20526Y16498D01*
G01X20550Y16524D01*
G01X20575Y16548D01*
G01X20602Y16571D01*
G01X20630Y16592D01*
G01X20660Y16612D01*
G01X20690Y16629D01*
G01X20722Y16645D01*
G01X20754Y16658D01*
G01X20788Y16670D01*
G01X20822Y16679D01*
G01X20856Y16686D01*
G01X20872Y16690D01*
G01X20886Y16697D01*
G01X20899Y16705D01*
G01X20911Y16715D01*
G01X20921Y16727D01*
G01X20929Y16741D01*
G01X20935Y16755D01*
G01X20939Y16771D01*
G01X20940Y16786D01*
G01X20939Y16801D01*
G01X20936Y16815D01*
G01X20931Y16829D01*
G01X20924Y16841D01*
G01X20915Y16853D01*
G01X20905Y16863D01*
G01X20894Y16872D01*
G01X20881Y16879D01*
G01X20867Y16884D01*
G01X20853Y16887D01*
G01X20839Y16888D01*
G37*

%LPD*%
G36*
G01X17111Y15113D02*
G01X17096Y15114D01*
G01X17080Y15113D01*
G01X17065Y15109D01*
G01X17050Y15103D01*
G01X17037Y15095D01*
G01X17025Y15084D01*
G01X15995Y14055D01*
G01X15984Y14042D01*
G01X15976Y14029D01*
G01X15970Y14014D01*
G01X15966Y13999D01*
G01X15965Y13983D01*
G01X15965Y11799D01*
G01X15966Y11783D01*
G01X15970Y11768D01*
G01X15976Y11753D01*
G01X16029Y11646D01*
G01X16038Y11632D01*
G01X16048Y11620D01*
G01X16060Y11610D01*
G01X16074Y11601D01*
G01X16089Y11595D01*
G01X16104Y11591D01*
G01X16120Y11590D01*
G01X16131Y11590D01*
G01X16155Y11589D01*
G01X16179Y11586D01*
G01X16202Y11580D01*
G01X16224Y11573D01*
G01X16246Y11563D01*
G01X16266Y11552D01*
G01X16286Y11538D01*
G01X16304Y11523D01*
G01X16321Y11506D01*
G01X16336Y11488D01*
G01X16350Y11469D01*
G01X16361Y11448D01*
G01X16371Y11426D01*
G01X16378Y11404D01*
G01X16384Y11381D01*
G01X16387Y11357D01*
G01X16388Y11333D01*
G01X16388Y8734D01*
G01X16387Y8711D01*
G01X16384Y8688D01*
G01X16379Y8665D01*
G01X16372Y8644D01*
G01X16363Y8622D01*
G01X16352Y8602D01*
G01X16339Y8583D01*
G01X16325Y8565D01*
G01X16316Y8553D01*
G01X16309Y8541D01*
G01X16304Y8527D01*
G01X16301Y8513D01*
G01X16300Y8498D01*
G01X16301Y8484D01*
G01X16304Y8470D01*
G01X16309Y8456D01*
G01X16316Y8443D01*
G01X16325Y8432D01*
G01X16335Y8422D01*
G01X16347Y8413D01*
G01X16359Y8406D01*
G01X16373Y8401D01*
G01X16387Y8398D01*
G01X16402Y8397D01*
G01X16762Y8397D01*
G01X16776Y8398D01*
G01X16790Y8401D01*
G01X16804Y8406D01*
G01X16816Y8413D01*
G01X16828Y8422D01*
G01X16838Y8432D01*
G01X16847Y8443D01*
G01X16854Y8456D01*
G01X16859Y8470D01*
G01X16862Y8484D01*
G01X16863Y8498D01*
G01X16862Y8513D01*
G01X16859Y8527D01*
G01X16854Y8541D01*
G01X16847Y8553D01*
G01X16838Y8565D01*
G01X16824Y8583D01*
G01X16811Y8602D01*
G01X16800Y8622D01*
G01X16791Y8644D01*
G01X16784Y8665D01*
G01X16779Y8688D01*
G01X16776Y8711D01*
G01X16775Y8734D01*
G01X16775Y11333D01*
G01X16776Y11357D01*
G01X16779Y11381D01*
G01X16785Y11404D01*
G01X16792Y11426D01*
G01X16802Y11448D01*
G01X16814Y11469D01*
G01X16827Y11488D01*
G01X16842Y11506D01*
G01X16859Y11523D01*
G01X16877Y11538D01*
G01X16897Y11552D01*
G01X16917Y11563D01*
G01X16939Y11573D01*
G01X16961Y11580D01*
G01X16984Y11586D01*
G01X17008Y11589D01*
G01X17032Y11590D01*
G01X17043Y11590D01*
G01X17059Y11591D01*
G01X17074Y11595D01*
G01X17089Y11601D01*
G01X17103Y11610D01*
G01X17115Y11620D01*
G01X17125Y11632D01*
G01X17134Y11646D01*
G01X17187Y11754D01*
G01X17193Y11768D01*
G01X17197Y11784D01*
G01X17198Y11799D01*
G01X17198Y15012D01*
G01X17197Y15027D01*
G01X17194Y15041D01*
G01X17189Y15055D01*
G01X17182Y15067D01*
G01X17173Y15079D01*
G01X17163Y15089D01*
G01X17151Y15098D01*
G01X17139Y15105D01*
G01X17125Y15110D01*
G01X17111Y15113D01*
G37*

%LPD*%
G36*
G01X20673Y27402D02*
G01X20490Y27402D01*
G01X20475Y27401D01*
G01X20461Y27398D01*
G01X20447Y27393D01*
G01X20435Y27386D01*
G01X20423Y27377D01*
G01X20413Y27367D01*
G01X20404Y27356D01*
G01X20397Y27343D01*
G01X20392Y27329D01*
G01X20389Y27315D01*
G01X20388Y27301D01*
G01X20388Y24734D01*
G01X20387Y24709D01*
G01X20383Y24686D01*
G01X20378Y24662D01*
G01X20370Y24639D01*
G01X20360Y24617D01*
G01X20348Y24596D01*
G01X20334Y24577D01*
G01X20319Y24558D01*
G01X20309Y24546D01*
G01X20302Y24533D01*
G01X20296Y24519D01*
G01X20293Y24504D01*
G01X20291Y24489D01*
G01X20293Y24473D01*
G01X20296Y24458D01*
G01X20303Y24443D01*
G01X20311Y24429D01*
G01X20321Y24417D01*
G01X20831Y23908D01*
G01X20843Y23897D01*
G01X20856Y23889D01*
G01X20871Y23883D01*
G01X20886Y23879D01*
G01X20902Y23878D01*
G01X21306Y23878D01*
G01X21320Y23879D01*
G01X21335Y23882D01*
G01X21348Y23887D01*
G01X21361Y23894D01*
G01X21373Y23903D01*
G01X21383Y23913D01*
G01X21391Y23925D01*
G01X21398Y23937D01*
G01X21403Y23951D01*
G01X21407Y23965D01*
G01X21408Y23980D01*
G01X21406Y23996D01*
G01X21403Y24011D01*
G01X21396Y24026D01*
G01X21388Y24040D01*
G01X21378Y24052D01*
G01X21310Y24119D01*
G01X21290Y24141D01*
G01X21271Y24164D01*
G01X21255Y24188D01*
G01X21240Y24214D01*
G01X21228Y24240D01*
G01X21217Y24268D01*
G01X21209Y24296D01*
G01X21199Y24320D01*
G01X21141Y24425D01*
G01X21132Y24438D01*
G01X21122Y24449D01*
G01X21110Y24459D01*
G01X21097Y24467D01*
G01X21083Y24472D01*
G01X21068Y24476D01*
G01X21052Y24477D01*
G01X21032Y24477D01*
G01X21008Y24478D01*
G01X20984Y24481D01*
G01X20961Y24487D01*
G01X20939Y24494D01*
G01X20917Y24504D01*
G01X20897Y24515D01*
G01X20877Y24529D01*
G01X20859Y24544D01*
G01X20842Y24561D01*
G01X20827Y24579D01*
G01X20813Y24598D01*
G01X20802Y24619D01*
G01X20792Y24641D01*
G01X20785Y24663D01*
G01X20779Y24686D01*
G01X20776Y24710D01*
G01X20775Y24734D01*
G01X20775Y27301D01*
G01X20774Y27315D01*
G01X20771Y27329D01*
G01X20766Y27343D01*
G01X20759Y27356D01*
G01X20750Y27367D01*
G01X20740Y27377D01*
G01X20728Y27386D01*
G01X20716Y27393D01*
G01X20702Y27398D01*
G01X20688Y27401D01*
G01X20673Y27402D01*
G37*

%LPD*%
G54D10*
G01X9582Y26033D02*
G01X9582Y28956D01*
G01X9582Y29012D01*
G01X10287Y29718D01*
G01X14859Y29718D01*
G01X14986Y29718D01*
G01X15748Y30480D01*
G01X15748Y32258D01*
G01X11580Y26035D02*
G01X11580Y28724D01*
G01X12065Y29210D01*
G01X17780Y29210D01*
G01X18288Y29718D01*
G01X18288Y32258D01*
G01X13582Y26035D02*
G01X13582Y28059D01*
G01X14224Y28702D01*
G01X22606Y28702D01*
G01X24130Y30226D01*
G01X24130Y33655D01*
G01X22860Y34925D01*
G01X18796Y34925D01*
G01X18288Y35306D01*
G01X18288Y37592D01*
G01X19582Y26033D02*
G01X19582Y24614D01*
G01X20701Y23495D01*
G01X24257Y23495D01*
G01X28829Y28067D01*
G01X28829Y35433D01*
G01X29972Y36576D01*
G01X30607Y36576D01*
G01X31750Y37719D01*
G01X31750Y39878D01*
G01X21580Y26035D02*
G01X21580Y24391D01*
G01X22073Y23901D01*
G01X24029Y23901D01*
G01X28194Y28067D01*
G01X28194Y28067D01*
G01X28194Y28067D01*
G01X28194Y36322D01*
G01X29210Y37338D01*
G01X29210Y39878D01*
G01X15582Y10034D02*
G01X15582Y14184D01*
G01X19304Y17907D01*
G01X27305Y17907D01*
G01X27559Y17907D01*
G01X28956Y19304D01*
G01X28956Y25908D01*
G01X30480Y27432D01*
G01X30480Y29718D01*
G01X33655Y32893D01*
G01X17582Y10034D02*
G01X17582Y15041D01*
G01X19812Y17272D01*
G01X31496Y17272D01*
G01X32258Y18034D01*
G01X23582Y10034D02*
G01X23622Y10074D01*
G01X23622Y13335D01*
G01X23114Y13843D01*
G01X22860Y13843D01*
G01X19582Y10034D02*
G01X19558Y10057D01*
G01X19558Y14732D01*
G01X20955Y16129D01*
G01X3302Y30480D02*
G01X7112Y34290D01*
G01X18796Y34290D01*
G01X20828Y32258D01*
G01X21580Y10033D02*
G01X21590Y14859D01*
G01X22225Y15494D01*
G01X34417Y15494D01*
G01X35687Y16309D01*
G01X35687Y38481D01*
G01X34290Y39878D01*
G01X15582Y26033D02*
G01X15582Y27519D01*
G01X16256Y28194D01*
G01X22606Y28194D01*
G01X22860Y28194D01*
G01X25908Y31242D01*
G01X25908Y38735D01*
G01X24765Y39878D01*
G01X16637Y39878D01*
G01X16002Y39878D01*
G01X15748Y39624D01*
G01X15748Y37592D01*
G01X17582Y26033D02*
G01X17582Y27233D01*
G01X18135Y27786D01*
G01X23215Y27786D01*
G01X26416Y30988D01*
G01X26416Y38862D01*
G01X24892Y40386D01*
G01X10160Y40386D01*
G01X9906Y40386D01*
G01X9144Y39624D01*
G01X9144Y38608D01*
G01X8128Y37592D01*
G01X5080Y37592D01*
G01X4318Y38354D01*
G01X4318Y39878D01*
G36*
G01X9031Y8734D02*
G01X9031Y11333D01*
G01X10131Y11333D01*
G01X10131Y8734D01*
G01X9031Y8734D01*
G37*
G36*
G01X11033Y8736D02*
G01X11033Y11336D01*
G01X12133Y11336D01*
G01X12133Y8736D01*
G01X11033Y8736D01*
G37*
G36*
G01X13032Y8734D02*
G01X13032Y11333D01*
G01X14131Y11333D01*
G01X14131Y8734D01*
G01X13032Y8734D01*
G37*
G36*
G01X15032Y8734D02*
G01X15032Y11333D01*
G01X16131Y11333D01*
G01X16131Y8734D01*
G01X15032Y8734D01*
G37*
G36*
G01X17032Y8734D02*
G01X17032Y11333D01*
G01X18131Y11333D01*
G01X18131Y8734D01*
G01X17032Y8734D01*
G37*
G36*
G01X19032Y8734D02*
G01X19032Y11333D01*
G01X20131Y11333D01*
G01X20131Y8734D01*
G01X19032Y8734D01*
G37*
G36*
G01X21032Y8734D02*
G01X21032Y11333D01*
G01X22131Y11333D01*
G01X22131Y8734D01*
G01X21032Y8734D01*
G37*
G36*
G01X23032Y8734D02*
G01X23032Y11333D01*
G01X24131Y11333D01*
G01X24131Y8734D01*
G01X23032Y8734D01*
G37*
G36*
G01X23032Y24734D02*
G01X23032Y27333D01*
G01X24131Y27333D01*
G01X24131Y24734D01*
G01X23032Y24734D01*
G37*
G36*
G01X21032Y24734D02*
G01X21032Y27333D01*
G01X22131Y27333D01*
G01X22131Y24734D01*
G01X21032Y24734D01*
G37*
G36*
G01X19032Y24734D02*
G01X19032Y27333D01*
G01X20131Y27333D01*
G01X20131Y24734D01*
G01X19032Y24734D01*
G37*
G36*
G01X17032Y24734D02*
G01X17032Y27333D01*
G01X18131Y27333D01*
G01X18131Y24734D01*
G01X17032Y24734D01*
G37*
G36*
G01X15032Y24734D02*
G01X15032Y27333D01*
G01X16131Y27333D01*
G01X16131Y24734D01*
G01X15032Y24734D01*
G37*
G36*
G01X13032Y24734D02*
G01X13032Y27333D01*
G01X14131Y27333D01*
G01X14131Y24734D01*
G01X13032Y24734D01*
G37*
G36*
G01X11032Y24734D02*
G01X11032Y27333D01*
G01X12131Y27333D01*
G01X12131Y24734D01*
G01X11032Y24734D01*
G37*
G36*
G01X9032Y24734D02*
G01X9032Y27333D01*
G01X10131Y27333D01*
G01X10131Y24734D01*
G01X9032Y24734D01*
G37*

%LPD*%
G36*
G01X18926Y37029D02*
G01X17651Y37029D01*
G01X18161Y36434D01*
G01X18415Y36434D01*
G01X18926Y37029D01*
G37*

%LPD*%
G36*
G01X15875Y38749D02*
G01X15621Y38749D01*
G01X15111Y38154D01*
G01X16386Y38154D01*
G01X15875Y38749D01*
G37*

%LPD*%
G36*
G01X33705Y32107D02*
G01X32870Y32942D01*
G01X32808Y32224D01*
G01X32987Y32045D01*
G01X33705Y32107D01*
G37*

%LPD*%
G36*
G01X35138Y39209D02*
G01X35076Y39927D01*
G01X34241Y39092D01*
G01X34959Y39030D01*
G01X35138Y39209D01*
G37*

%LPD*%
G36*
G01X32341Y39357D02*
G01X31160Y39357D01*
G01X31623Y38806D01*
G01X31877Y38806D01*
G01X32341Y39357D01*
G37*

%LPD*%
G36*
G01X18963Y31662D02*
G01X17613Y31662D01*
G01X18161Y31032D01*
G01X18415Y31032D01*
G01X18963Y31662D01*
G37*

%LPD*%
G36*
G01X16423Y31662D02*
G01X15073Y31662D01*
G01X15621Y31032D01*
G01X15875Y31032D01*
G01X16423Y31662D01*
G37*

%LPD*%
G36*
G01X5031Y39249D02*
G01X3606Y39249D01*
G01X4191Y38584D01*
G01X4445Y38584D01*
G01X5031Y39249D01*
G37*

%LPD*%
G36*
G01X23305Y13831D02*
G01X23132Y13992D01*
G01X22975Y13554D01*
G01X23210Y13567D01*
G01X23305Y13831D01*
G37*

%LPD*%
G36*
G01X20975Y15819D02*
G01X20646Y16148D01*
G01X20567Y15920D01*
G01X20747Y15740D01*
G01X20975Y15819D01*
G37*

%LPD*%
G36*
G01X4225Y31222D02*
G01X4045Y31402D01*
G01X3641Y31267D01*
G01X4090Y30818D01*
G01X4225Y31222D01*
G37*

%LPD*%
G36*
G01X29528Y39090D02*
G01X28893Y39090D01*
G01X29083Y38709D01*
G01X29337Y38709D01*
G01X29528Y39090D01*
G37*

%LPD*%
G36*
G01X20378Y33157D02*
G01X19973Y33292D01*
G01X19794Y33113D01*
G01X19928Y32709D01*
G01X20378Y33157D01*
G37*

%LPD*%
G36*
G01X15708Y11715D02*
G01X15454Y11715D01*
G01X15264Y11334D01*
G01X15899Y11334D01*
G01X15708Y11715D01*
G37*

%LPD*%
G36*
G01X17708Y11715D02*
G01X17454Y11715D01*
G01X17264Y11334D01*
G01X17899Y11334D01*
G01X17708Y11715D01*
G37*

%LPD*%
G36*
G01X19685Y11715D02*
G01X19431Y11715D01*
G01X19241Y11334D01*
G01X19876Y11334D01*
G01X19685Y11715D01*
G37*

%LPD*%
G36*
G01X21711Y11715D02*
G01X21457Y11715D01*
G01X21265Y11334D01*
G01X21900Y11334D01*
G01X21711Y11715D01*
G37*

%LPD*%
G36*
G01X23749Y11715D02*
G01X23495Y11715D01*
G01X23305Y11334D01*
G01X23940Y11334D01*
G01X23749Y11715D01*
G37*

%LPD*%
G36*
G01X21898Y24733D02*
G01X21263Y24733D01*
G01X21453Y24391D01*
G01X21707Y24391D01*
G01X21898Y24733D01*
G37*

%LPD*%
G36*
G01X19899Y24733D02*
G01X19264Y24733D01*
G01X19454Y24614D01*
G01X19708Y24614D01*
G01X19899Y24733D01*
G37*

%LPD*%
G36*
G01X18243Y27714D02*
G01X17884Y27714D01*
G01X17365Y27333D01*
G01X18000Y27333D01*
G01X18243Y27714D01*
G37*

%LPD*%
G36*
G01X15708Y27519D02*
G01X15454Y27519D01*
G01X15264Y27333D01*
G01X15899Y27333D01*
G01X15708Y27519D01*
G37*

%LPD*%
G36*
G01X13709Y27714D02*
G01X13455Y27714D01*
G01X13264Y27333D01*
G01X13899Y27333D01*
G01X13709Y27714D01*
G37*

%LPD*%
G36*
G01X11707Y27714D02*
G01X11453Y27714D01*
G01X11263Y27333D01*
G01X11898Y27333D01*
G01X11707Y27714D01*
G37*

%LPD*%
G36*
G01X9709Y27714D02*
G01X9455Y27714D01*
G01X9264Y27333D01*
G01X9899Y27333D01*
G01X9709Y27714D01*
G37*

%LPD*%
G36*
G01X30627Y17123D02*
G01X30385Y17710D01*
G01X30102Y17399D01*
G01X30206Y17145D01*
G01X30627Y17123D01*
G37*
G36*
G01X24218Y36742D02*
G01X22519Y36742D01*
G01X22519Y38441D01*
G01X24218Y38441D01*
G01X24218Y36742D01*
G37*
G54D14*
G01X20828Y37592D03*
G01X18288Y37592D03*
G01X15748Y37592D03*
G01X13208Y37592D03*
G54D15*
G01X3302Y35560D03*
G01X3302Y33020D03*
G36*
G01X2515Y29692D02*
G01X2515Y31267D01*
G01X4090Y31267D01*
G01X4090Y29692D01*
G01X2515Y29692D01*
G37*
G01X33655Y30353D03*
G01X33655Y32893D03*
G36*
G01X34443Y36220D02*
G01X34443Y34645D01*
G01X32868Y34645D01*
G01X32868Y36220D01*
G01X34443Y36220D01*
G37*
G01X34290Y39878D03*
G01X31750Y39878D03*
G54D16*
G01X29210Y39878D03*
G36*
G01X21728Y31358D02*
G01X19928Y31358D01*
G01X19928Y33157D01*
G01X21728Y33157D01*
G01X21728Y31358D01*
G37*
G54D18*
G01X18288Y32258D03*
G01X15748Y32258D03*
G01X13208Y32258D03*
G36*
G01X7808Y38927D02*
G01X5908Y38927D01*
G01X5908Y40827D01*
G01X7808Y40827D01*
G01X7808Y38927D01*
G37*
G54D20*
G01X4318Y39878D03*
G54D11*
G01X22860Y13843D03*
G01X20955Y16129D03*
G54D21*
G01X32512Y18034D02*
G01X32004Y18034D01*
G54D22*
G01X32639Y23114D02*
G01X31877Y23114D01*
G54D21*
G01X32512Y12954D02*
G01X32004Y12954D01*
M00*
M02*
